<svg xmlns="http://www.w3.org/2000/svg" width="372" height="278" viewBox="0 0 372 278">
  <g fill="none" fill-rule="evenodd">
    <path fill="#1DD48B" d="M73.6666667,84 L65.3333333,84 C63.4933333,84 62,82.528 62,80.7142857 L62,68.3928571 C62,64.3103571 65.3583333,61 69.5,61 C73.6416667,61 77,64.3103571 77,68.3928571 L77,80.7142857 C77,82.528 75.5066667,84 73.6666667,84"/>
    <path fill="#4A5775" d="M73.3874892 85.8554893L73.3874892 83.1178496C73.650696 83.0733485 73.8585791 82.96292 74.0647857 82.8871033 74.8745239 82.5838368 75.4361436 81.8174295 75.3908787 80.9092781L75.3322021 76.7591415C75.2684959 74.1401713 74.8560827 71.5096637 75.0723482 68.903879 75.2366429 67.5721434 74.9533183 66.3722627 74.2743453 65.2646806 73.5769311 64.2032477 72.5241038 63.3346528 71.2935699 62.9176613 68.8325023 62.0161027 65.8852565 62.8665675 64.2657801 64.9086721 63.2917472 66.0904226 62.622833 67.4847894 62.7351569 69.2401093L62.8709515 75.9828451 62.9497459 79.3550371 62.984952 81.0246512C63.0067462 81.3658261 63.0939229 81.6971118 63.2766589 81.9806001 63.5666893 82.45363 64.0595735 82.7997494 64.6010754 82.910178 64.7402229 82.936549 64.8676352 82.9480863 65.025224 82.9530308L65.7310206 82.954679 67.1442904 82.96292 72.7940165 83.007421C72.975076 83.007421 73.1561354 83.0733485 73.3874892 83.1178496L73.3874892 85.7747281C73.0706351 85.8208774 72.7521046 85.9082314 72.433574 85.9098795 70.3832432 85.923065 68.317824 86.1307367 66.2859344 85.8670267L65.0704888 85.7368198C64.5474281 85.7055043 63.9338377 85.5917793 63.41413 85.3824595 62.3495673 84.9671162 61.4509759 84.1990607 60.906121 83.2233336 60.6345318 82.7371182 60.4484429 82.2014572 60.364619 81.6509626 60.2807952 81.0378367 60.3076188 80.6669945 60.2908541 80.276374L60.2472657 77.8897983C60.2204421 75.2246788 59.9421469 72.5579111 60.0108825 69.8944398L60.0511179 68.8264142C60.0729121 68.4753502 60.1131476 67.9891348 60.1852361 67.5853289 60.332766 66.7381604 60.6378847 65.9289002 61.0201214 65.1773267 61.8231537 63.679124 63.0385992 62.475947 64.4401336 61.6271304 65.8869329 60.7585355 67.5432918 59.9805909 69.3387982 60.0003691 72.9281346 59.9921282 76.338088 62.4100195 77.4915039 65.7492478 77.7848873 66.5749898 77.9692997 67.4452329 77.984388 68.3187724 78.0145646 69.1593481 77.9910939 69.843346 77.9944469 70.6130496L77.9776821 75.112602C77.9743292 75.999327 77.7044164 76.8877002 77.7563872 77.7678324L77.8871524 79.6929156C77.9089466 80.3719689 78.0514471 80.8548879 77.9592409 81.8503933 77.7496813 83.6337323 76.3548528 85.2885128 74.4537283 85.7846173 74.1854921 85.852193 73.900491 85.8670267 73.3874892 85.8554893M82.952281 54.5761189C83.2316772 54.4676354 84.0407265 54.3410713 84.4675342 54.5761189 84.77607 54.8358218 84.8326348 55.1793528 84.8806293 55.4423431 85.2028777 56.791812 84.914911 58.4897431 83.4956467 59.257346 82.4706224 59.7849702 81.5758688 60.4145032 80.4771388 60.7021489 79.3681243 60.9848634 78.205973 61.0949906 77.0438218 60.9059663 76.5690196 60.833644 75.9828017 60.9519896 75.5388531 60.6922867 73.7562022 59.6616935 72.7071807 57.8832217 72.3952168 56.1524169 72.240949 55.3486528 71.9701232 54.5432451 72.0026908 53.6835956 72.0215458 52.9718781 72.1552446 52.237149 72.4877775 51.581317 73.5625103 49.4247966 75.9862299 47.9487637 78.459658 48.0013617 79.6920868 48.0079365 80.8456676 48.5125491 81.8261256 49.0960588 82.3112123 49.3705549 82.8888598 49.5480733 83.4013719 49.8751675 84.462392 50.5737355 84.9560491 51.9495034 84.4486793 53.1510403 84.3081241 53.4797781 84.4589638 53.7657801 84.364689 54.0698626 84.3235509 54.2030014 84.1230027 54.3394276 83.6259173 54.44298 83.4202268 54.1536907 83.226535 54.2276568 82.7054524 53.7312626 81.9649667 53.1329597 81.8689778 52.8781878 81.6992831 52.5264383 81.6221492 52.3850811 81.4044601 52.3472762 81.2999008 52.2404364 80.7102547 51.6339151 79.9029195 51.2065558 79.0544463 51.19505 78.4168058 51.1720384 77.8940091 51.5698112 77.4089224 51.7358238 76.8158482 51.9560782 76.027368 52.1746888 75.5697067 52.7943597 74.6303868 54.0238393 74.7743701 55.9962664 76.027368 57.1682169 76.1919204 57.3375169 76.3890404 57.4788742 76.6015873 57.5840703 77.9625726 58.2809945 79.6423783 58.0327975 80.717111 57.1813664 81.089068 56.9002955 81.6221492 56.7046965 81.9306849 56.2773373 82.0866669 56.0718761 82.3883462 55.866415 82.3814899 55.5771257 82.3420659 55.1744218 82.1809417 54.924581 82.952281 54.5761189"/>
    <path fill="#4A5775" d="M61.1936811 100.805593C61.1278822 100.575245 60.9868844 100.287719 61.0009842 100.137421 61.0949827 99.3793965 60.9759179 98.5543917 61.3848115 98.1165674 61.7608055 97.6673073 62.0725673 97.154334 62.2072985 96.5629445 62.7932227 94.1026331 63.4277127 91.7795503 63.6580091 89.1820104L63.9979704 85.7382279C64.0449696 85.3118393 64.2220002 84.883817 64.4052973 84.4574284 64.4757962 84.2924274 64.5541283 84.1176244 65.5082133 84 65.7573094 84.0865847 66.0299051 84.1568326 66.1646363 84.2319815 66.927591 84.6698059 67.0215895 85.1108976 66.9965233 85.5568903 66.9072247 87.2150682 66.7928598 88.8977513 66.546897 90.5951374 66.4873646 91.0738036 66.4137324 91.5606381 66.2962343 92.0327696 66.1583698 92.5065347 65.885774 92.9427254 65.7917755 93.4181242 65.4079482 95.5288295 64.765625 97.6983471 63.6094432 99.5885066 63.2694818 100.106381 62.5895592 100.362868 62.0365345 100.658562L61.4177109 101 61.1936811 100.805593zM68.4030181 101.840513C68.3057754 101.616552 68.1236383 101.346781 68.1143771 101.18899 68.0819629 100.400038 67.8442585 99.5788481 68.1684008 99.0477896 68.486369 98.5218211 68.7009204 97.9296823 68.7796407 97.2934301 69.0667382 94.6025073 69.6826086 92.064285 69.8678328 89.405599 69.9388355 88.2450749 70.0175557 87.0879442 70.0561441 85.9274201 70.0684924 85.503252 70.2104976 85.0655104 70.3339804 84.6226789 70.3833735 84.4496182 70.4404843 84.2714676 71.3573441 84 71.6104838 84.0492035 71.8852331 84.0814403 72.0256948 84.1408238 72.8252459 84.4903384 72.9749688 84.9789801 72.9826864 85.4608351 73.0413408 87.2694882 72.9487287 89.0526911 72.7388079 90.8138373 72.675523 91.3109624 72.6276734 91.8097841 72.5165389 92.2984259 72.389969 92.7836742 72.1414599 93.2383825 72.0627396 93.7270242 71.7602067 95.8902818 71.3789536 98.0908662 70.5547059 100.177774 70.3200886 100.763126 69.6841522 101.131304 69.2025693 101.541898L68.6515273 102 68.4030181 101.840513zM69.0329324 80C68.8288771 79.9302434 68.5276527 79.8685979 68.435342 79.7826188 67.972169 79.3478564 67.3681007 78.8920048 67.4361192 78.3874858 67.5008986 77.8959448 67.4960401 77.4141372 67.3502864 76.9307074 66.7575545 74.8720751 67.0425841 72.7939758 67.2936044 70.738588 67.4102074 69.8285071 67.6239795 68.9297819 67.9106285 68.0424124 68.0191341 67.7163406 68.258818 67.4227138 68.5244137 67.1404427 68.6248219 67.0333743 68.7349469 66.9149503 69.7066385 67.0869085 69.941464 67.2150661 70.2022012 67.3351124 70.3236627 67.424336 71.0200417 67.9223661 71.0459535 68.2208596 70.9714571 68.517731 70.6831886 69.6111259 70.4694164 70.751566 70.3009899 71.9033619 70.2572638 72.2310559 70.2378299 72.5603722 70.1600946 72.8831995 70.0888372 73.207649 69.8556312 73.5207428 69.8604897 73.8533036 69.8637287 75.3214377 70.051589 76.7830829 70.1552362 78.2122831 70.1827674 78.6129782 69.7665595 79.0412516 69.5673627 79.469525L69.3325373 79.9610661 69.0329324 80z"/>
    <path fill="#EDEEF1" d="M93.856921 274.768679C93.0353478 274.507422 92.5300217 273.731921 93.6410698 273.30862 94.8357812 273.006026 96.3166209 272.925003 97.4360354 272.827446 103.245612 272.326429 108.62516 271.802263 114.501668 272.202415 118.890642 272.503356 123.348221 272.404145 127.775681 272.410759 132.321943 272.417373 136.871551 272.361153 141.416139 272.281784 143.318642 272.248714 145.221145 271.95604 147.110261 272.005646 154.740351 272.204069 162.362074 272.546347 169.993837 272.71666 173.562911 272.796029 177.143699 272.600913 180.72114 272.533119 183.711265 272.476899 186.699717 272.379342 189.689842 272.380995 199.501869 272.389263 209.31557 272.404145 219.129271 272.473592 224.020225 272.50997 228.904487 272.718313 233.793768 272.748077 236.173151 272.764612 238.554207 272.548001 240.935264 272.445483 245.971792 272.225564 250.949756 272.455404 255.889235 273.181299 257.274699 273.384682 258.752192 273.290431 260.177814 273.396257 260.813655 273.442555 261.422723 273.640978 262 274.125459 260.274864 274.295772 260.912378 274.532225 257.175976 274.945605 252.09427 275.529298 249.286531 275.454889 246.522296 275.413551 245.329258 275.397016 244.139567 275.540873 242.948202 275.54914 236.363903 275.590478 229.779604 275.57725 223.196979 275.659926 218.426499 275.721106 213.654347 276.020393 208.887214 275.998898 203.037479 275.974095 197.192763 275.658272 191.343028 275.583864 179.267073 275.430087 167.191117 275.354025 155.115162 275.248199 153.43855 275.233318 151.761938 275.231664 150.087 275.248199 139.448379 275.347411 128.808086 275.486306 118.167792 275.534258 114.473222 275.552447 110.776979 275.302766 107.079063 275.264735 105.178234 275.244892 103.074939 275.051431 101.17411 275.152295 98.6474794 275.287884 96.3818783 275.512763 93.856921 274.768679M300.772591 274.872067C300.51185 275.952751 299.737878 276.6192 299.315411 275.156018 299.011763 273.584266 298.9309 271.636698 298.835185 270.163494 298.333506 262.518535 297.810373 255.438137 298.211386 247.704652 298.510084 241.928757 298.412718 236.066007 298.419319 230.240004 298.42592 224.255322 298.368161 218.27064 298.288949 212.287629 298.257594 209.787191 297.965497 207.281742 298.013355 204.796337 298.250993 194.756169 298.48698 184.724353 298.724617 174.684185 298.80383 169.988974 298.607449 165.27539 298.539788 160.568487 298.483679 156.634932 298.386314 152.701378 298.389615 148.767823L298.482029 110.026905 298.755972 90.7282691 298.751022 89.5557191 298.744421 88.9677738C298.731219 88.8141063 298.729568 88.7155586 298.699864 88.5919565 298.604148 88.1242728 298.336806 87.6983465 297.962197 87.4260877 297.589238 87.1504884 297.142017 87.0318971 296.706348 87.0619625L294.386081 87.1554993C287.837846 87.377649 281.365522 87.1471478 274.942706 86.4122161 273.142271 86.2050991 271.219717 86.3019764 269.368125 86.1967476 268.542994 86.1483089 267.749218 85.9462027 267 85.456805 269.244355 85.2864345 268.412623 85.0475818 273.272642 84.630007 279.876987 84.0403914 283.529014 84.1155548 287.123283 84.1573123 288.671227 84.1756856 290.217522 84.0286993 291.768767 84.0203478L294.978525 84.0069854 296.584229 84.0019745C297.254235 83.9802606 298.133824 84.1372687 298.820333 84.4913721 300.252759 85.1711839 301.302325 86.6043005 301.52511 88.1994362 301.630727 89.1114195 301.564717 89.4671933 301.58617 90.0551385L301.591121 91.6803396 301.662082 104.673597C301.721491 110.953921 302.021839 117.230905 301.998735 123.504549 301.973981 131.201287 301.660432 138.893015 301.58617 146.591424L301.249517 194.261761 301.249517 200.879486 301.536662 242.882498C301.553165 247.744739 301.305626 252.60865 301.26767 257.474231 301.246216 259.972999 301.054786 262.740684 301.155452 265.242793 301.289123 268.570028 301.513559 271.549842 300.772591 274.872067"/>
    <path fill="#EDEEEF" d="M11.0250194,214.90279 C10.9916602,214.693787 10.9916602,214.479924 11.0250194,214.270921 C11.2702094,213.470555 11.6972071,212.733376 12.275989,212.116089 C12.8897981,211.633277 13.4485645,211.090519 13.9439485,210.495915 C16.1406512,207.877713 18.5091536,205.398845 21.0327763,203.075515 C22.1002704,202.038603 23.2011237,201.034095 24.3686953,200.045789 C24.7973609,199.68773 25.2610537,199.373416 25.7531017,199.106087 C25.9365772,198.992675 26.1367324,198.879263 26.8039162,199.284307 C26.8806423,199.462526 26.9423568,199.647226 26.9873917,199.835166 C27.0607819,200.449212 26.810588,201.060018 26.3202079,201.455341 L21.7833581,205.667794 C21.3663682,206.072838 20.9493784,206.477882 20.5157089,206.850522 C20.0820394,207.223162 19.5482924,207.514793 19.1479821,207.936039 C17.3799451,209.766836 15.6619468,211.646239 13.8605505,213.444632 C13.2784327,213.898281 12.6396042,214.279022 11.9590767,214.578755 L11.2251745,215 L11.0250194,214.90279 Z"/>
    <path fill="#EDEEEF" d="M26.9332799,213.975798 C26.7281156,214.008067 26.5196153,214.008067 26.316119,213.975798 C25.5471699,213.795088 24.8382689,213.435281 24.2477961,212.928648 C23.7824234,212.37361 23.2503307,211.875044 22.6631938,211.444244 C20.2162343,209.558083 17.9077191,207.508961 15.757664,205.311398 C14.7902226,204.375578 13.8561413,203.407489 12.93874,202.423265 C12.6101435,202.04571 12.3249151,201.635886 12.0880588,201.197018 C11.9879786,201.03567 11.8878985,200.842052 12.3048991,200.214408 C12.4817073,200.135347 12.6668556,200.069194 12.8553399,200.02079 C13.4308007,199.930435 14.0112655,200.138574 14.3899021,200.56776 L18.3263877,204.488522 C18.6933482,204.861237 19.0769887,205.214589 19.4272692,205.603438 C19.7775497,205.989061 20.0444301,206.45697 20.4280707,206.81355 C22.096073,208.427032 23.9141956,209.861418 25.582198,211.444244 C26.0058706,211.965399 26.3528151,212.539799 26.6163595,213.152922 L27,213.81445 L26.9332799,213.975798 Z"/>
    <path fill="#EDEEEF" d="M7,206.730285 C7.16381766,206.559726 7.32763533,206.296307 7.49145299,206.218608 C8.27286325,205.744834 9.13290598,205.473835 10.014245,205.424563 C10.8415242,205.521213 11.6753561,205.521213 12.5042735,205.424563 C16.0165242,205.049333 19.5451567,204.924257 23.0705128,205.043648 C24.6267806,205.043648 26.1666667,205.043648 27.7229345,205.176305 C28.2766382,205.233158 28.8254274,205.346864 29.3611111,205.517422 C29.5740741,205.517422 29.8198006,205.650079 30,206.502873 C29.9230057,206.713229 29.8296296,206.917899 29.72151,207.109304 C29.3103276,207.649407 28.7042023,207.937462 28.0833333,207.886294 L21.6780627,207.886294 L19.8596866,207.886294 C19.2535613,207.886294 18.6638177,207.677833 18.0576923,207.696784 C15.4038462,207.696784 12.75,207.962098 10.0797721,208 C9.31474359,207.909035 8.56118234,207.711945 7.83547009,207.41252 L7,207.0335 L7,206.730285 Z"/>
    <path fill="#EDEEEF" d="M19.6644849 219C19.4919536 218.830383 19.2235715 218.679425 19.1660611 218.508112 18.7021435 217.727876 18.4395125 216.862832 18.3992552 215.980826 18.500857 215.151401 18.500857 214.316888 18.3992552 213.487463 18.0350224 209.986578 17.9200015 206.468732 18.0541925 202.954277 18.0541925 201.410767 18.0541925 199.867257 18.2267239 198.325442 18.2842343 197.750442 18.4069232 197.182227 18.5909567 196.629277 18.5909567 196.408776 18.7251477 196.186578 19.6069745 196 19.8216801 196.07972 20.0248837 196.176401 20.2204192 196.288348 20.7782705 196.705605 21.0658227 197.341667 20.9872251 197.984513 20.9872251 200.109808 20.9373827 202.241888 20.8338639 204.379056L20.8338639 206.176991C20.8338639 206.770649 20.6038222 207.381268 20.6229923 207.974926 20.6229923 210.62264 20.8530341 213.266962 20.8530341 215.929941 20.7533493 216.691519 20.5463117 217.436136 20.2395894 218.151917L19.9903774 219 19.6644849 219zM353.252977 168.024615C353.465478 167.991795 353.681351 167.991795 353.893852 168.024615 354.701692 168.2363 355.447131 168.630132 356.069454 169.173293 356.565289 169.782093 357.130271 170.331818 357.755967 170.814263 360.314408 172.844142 362.731181 175.036477 364.991109 177.378141 366.019882 178.379132 367.014925 179.412943 367.993102 180.463163 368.342211 180.868483 368.647469 181.309903 368.903819 181.775939 369.00501 181.956445 369.123066 182.153362 368.701438 182.79334 368.515921 182.868824 368.325345 182.92954 368.128023 182.973846 367.493894 183.08215 366.851333 182.849133 366.44151 182.366688L362.258957 178.165806C361.871059 177.771973 361.449431 177.39455 361.078398 176.967898 360.707365 176.541246 360.420658 176.065365 359.99903 175.687942 358.177596 174.046973 356.307252 172.406003 354.517862 170.765034 354.067563 170.212027 353.694843 169.606509 353.404763 168.959967L353 168.27076 353.252977 168.024615z"/>
    <path fill="#EDEEEF" d="M354.024025,182.757192 C353.991992,182.564565 353.991992,182.367082 354.024025,182.174454 C354.192625,181.458981 354.546683,180.796926 355.052481,180.248181 C355.608859,179.824077 356.106227,179.335224 356.536155,178.791335 C358.414351,176.541318 360.457774,174.425655 362.656309,172.462151 C363.583605,171.555669 364.544621,170.697749 365.539357,169.856016 C365.918705,169.553316 366.331773,169.292702 366.771818,169.079032 C366.938731,168.981909 367.125876,168.900973 367.764867,169.305652 C367.847481,169.478855 367.914921,169.656914 367.968873,169.839829 C368.081834,170.375624 367.882887,170.929225 367.444529,171.280487 L363.534711,174.922601 C363.162107,175.262532 362.808048,175.618649 362.42027,175.942393 C361.998772,176.228906 361.594133,176.538081 361.208041,176.865062 C359.656928,178.483779 358.171568,180.102496 356.603595,181.721213 C356.091053,182.108087 355.522873,182.423737 354.917602,182.660069 L354.26175,183 L354.024025,182.757192 Z"/>
    <path fill="#EDEEEF" d="M361.269355,164 C361.439866,164.16369 361.705104,164.311012 361.782781,164.474702 C362.252632,165.214583 362.523554,166.037946 362.576602,166.880952 C362.478085,167.66994 362.478085,168.465476 362.576602,169.254464 C362.94983,172.600298 363.074871,175.9625 362.957408,179.321429 C362.957408,180.794643 362.957408,182.284226 362.822895,183.75744 C362.773636,184.312351 362.658068,184.860714 362.483768,185.394345 C362.483768,185.607143 362.349255,185.81994 361.496703,186 C361.286406,185.923065 361.081794,185.829762 360.890443,185.721726 C360.327759,185.325595 360.035997,184.708482 360.115568,184.084821 L360.115568,177.979167 L360.115568,176.260417 C360.115568,175.6875 360.322075,175.114583 360.30313,174.541667 C360.30313,172.004464 360.039786,169.483631 360,166.946429 C360.092833,166.218006 360.289868,165.504315 360.589208,164.818452 L360.835501,164.016369 L361.269355,164 Z"/>
    <path fill="#EDEEEF" d="M350 175.605989C350.152542 175.435325 350.30678 175.169848 350.474576 175.11296 351.213559 174.654065 352.037288 174.394277 352.881356 174.354455 353.669492 174.454957 354.466102 174.454957 355.255932 174.354455 358.589831 174.013128 361.942373 173.918315 365.289831 174.070016 366.764407 174.070016 368.238983 174.070016 369.711864 174.24068 370.288136 174.291879 370.855932 174.413239 371.40678 174.600969 371.610169 174.600969 371.830508 174.733708 372 175.605989 371.927119 175.816474 371.835593 176.019374 371.728814 176.212793 371.347458 176.764605 370.738983 177.058526 370.118644 176.990261L364.033898 176.83856 362.338983 176.83856C361.79661 176.83856 361.20339 176.611008 360.644068 176.629971 358.118644 176.629971 355.559322 176.857522 353.069492 176.857522 352.342373 176.758917 351.628814 176.55412 350.950847 176.250718L350.152542 176.004204 350 175.605989zM227.252977 4.02461454C227.465478 3.99179515 227.681351 3.99179515 227.893852 4.02461454 228.701692 4.2362996 229.447131 4.63013228 230.069454 5.17329318 230.565289 5.78209285 231.130271 6.33181763 231.755967 6.81426265 234.314408 8.84414189 236.731181 11.0364771 238.991109 13.3781406 240.019882 14.3791319 241.014925 15.4129427 241.993102 16.4631632 242.342211 16.8684826 242.647469 17.3099034 242.903819 17.7759388 243.00501 17.9564454 243.123066 18.1533617 242.701438 18.7933398 242.515921 18.8688244 242.325345 18.9295403 242.128023 18.9738465 241.493894 19.0821505 240.851333 18.8491328 240.44151 18.3666878L236.258957 14.1658059C235.871059 13.7719732 235.449431 13.3945503 235.078398 12.9678982 234.707365 12.5412461 234.420658 12.065365 233.99903 11.687942 232.177596 10.0469725 230.307252 8.40600304 228.517862 6.76503357 228.067563 6.21202685 227.694843 5.60650912 227.404763 4.95996714L227 4.27075996 227.252977 4.02461454z"/>
    <path fill="#EDEEEF" d="M229.024025,18.7571924 C228.991992,18.5645651 228.991992,18.3670816 229.024025,18.1744542 C229.192625,17.4589812 229.546683,16.7969258 230.052481,16.2481807 C230.608859,15.8240767 231.106227,15.3352241 231.536155,14.7913351 C233.414351,12.5413182 235.457774,10.4256547 237.656309,8.46215067 C238.583605,7.55566901 239.544621,6.69774886 240.539357,5.85601589 C240.918705,5.55331576 241.331773,5.29270228 241.771818,5.0790316 C241.938731,4.98190857 242.125876,4.90097271 242.764867,5.30565202 C242.847481,5.47885477 242.914921,5.65691366 242.968873,5.83982871 C243.081834,6.37562413 242.882887,6.92922543 242.444529,7.28048707 L238.534711,10.9226009 C238.162107,11.2625315 237.808048,11.6186493 237.42027,11.9423928 C236.998772,12.2289057 236.594133,12.5380807 236.208041,12.8650616 C234.656928,14.4837789 233.171568,16.1024961 231.603595,17.7212134 C231.091053,18.1080868 230.522873,18.4237367 229.917602,18.6600694 L229.26175,19 L229.024025,18.7571924 Z"/>
    <path fill="#EDEEEF" d="M235.269355,0 C235.439866,0.163690476 235.705104,0.311011905 235.782781,0.474702381 C236.252632,1.21458333 236.523554,2.03794643 236.576602,2.88095238 C236.478085,3.66994048 236.478085,4.46547619 236.576602,5.25446429 C236.94983,8.60029762 237.074871,11.9625 236.957408,15.3214286 C236.957408,16.7946429 236.957408,18.2842262 236.822895,19.7574405 C236.773636,20.3123512 236.658068,20.8607143 236.483768,21.3943452 C236.483768,21.6071429 236.349255,21.8199405 235.496703,22 C235.286406,21.9230655 235.081794,21.8297619 234.890443,21.7217262 C234.327759,21.3255952 234.035997,20.7084821 234.115568,20.0848214 L234.115568,13.9791667 L234.115568,12.2604167 C234.115568,11.6875 234.322075,11.1145833 234.30313,10.5416667 C234.30313,8.00446429 234.039786,5.48363095 234,2.94642857 C234.092833,2.21800595 234.289868,1.50431548 234.589208,0.818452381 L234.835501,0.0163690476 L235.269355,0 Z"/>
    <path fill="#EDEEEF" d="M224,11.6059888 C224.152542,11.4353252 224.30678,11.1698484 224.474576,11.1129605 C225.213559,10.6540648 226.037288,10.3942768 226.881356,10.3544553 C227.669492,10.4549572 228.466102,10.4549572 229.255932,10.3544553 C232.589831,10.013128 235.942373,9.91831483 239.289831,10.0700159 C240.764407,10.0700159 242.238983,10.0700159 243.711864,10.2406795 C244.288136,10.2918786 244.855932,10.4132395 245.40678,10.6009695 C245.610169,10.6009695 245.830508,10.7337079 246,11.6059888 C245.927119,11.816474 245.835593,12.0193742 245.728814,12.212793 C245.347458,12.7646055 244.738983,13.0585263 244.118644,12.9902608 L238.033898,12.8385598 L236.338983,12.8385598 C235.79661,12.8385598 235.20339,12.6110082 234.644068,12.6299708 C232.118644,12.6299708 229.559322,12.8575224 227.069492,12.8575224 C226.342373,12.7589167 225.628814,12.5541203 224.950847,12.2507182 L224.152542,12.0042041 L224,11.6059888 Z"/>
    <path fill="#EDEEF1" d="M84.9698906,101.776427 C85.9567414,102.039934 86.5656844,102.822118 85.2289802,103.2474 C83.7932608,103.555937 82.0126387,103.63599 80.666033,103.734388 C73.6805156,104.239723 67.2115272,104.768406 60.1451474,104.363138 C58.8513497,104.291424 57.4403841,104.233052 56.2323996,104.209703 C55.5607469,104.186354 54.887444,104.665004 54.6663103,105.33378 C54.6151524,105.498889 54.5738961,105.670669 54.5755464,105.850788 L54.5705956,106.828101 L54.5738961,108.849438 L54.5804971,112.888777 C54.5738961,118.414098 54.631655,123.942755 54.7108671,129.466409 C54.7438721,131.77627 55.0343165,134.089467 54.9864592,136.384318 L54.2752005,164.192712 C54.1976386,168.528913 54.3923684,172.88346 54.4600287,177.228001 C54.5144871,180.860403 54.6135022,184.494474 54.6118519,188.126876 L54.5177876,223.903874 L54.2438457,241.723995 C54.2289934,244.61424 54.4435262,247.507821 54.5474921,250.401401 C54.7653254,256.522116 54.5392408,262.571117 53.8131299,268.575089 C53.6084986,270.256201 53.702563,272.055724 53.5985971,273.786869 C53.5523901,274.557379 53.3527095,275.297869 52.8691857,276 C52.7008599,273.901946 52.4632236,274.679126 52.0506606,270.136121 C51.4681216,263.962038 51.5440332,260.54978 51.5852895,257.190892 C51.601792,255.7416 51.4582201,254.295644 51.4499688,252.848019 L51.3377517,228.847144 C51.2783426,223.048308 50.9796469,217.251141 51.0011002,211.455641 C51.025854,204.347606 51.3394019,197.244574 51.4136633,190.136539 L51.7503147,146.112419 L51.7503147,140.001711 L51.58859,120.608883 L51.5159789,110.910802 L51.4862744,106.062595 C51.4367668,105.051927 51.7932213,103.72605 52.5325342,102.843799 C53.2553447,101.919855 54.3263583,101.274428 55.4831851,101.075963 C56.4007253,100.947545 56.8215396,101.024262 57.4040786,101.009253 L59.0708333,101.034269 L62.4026924,101.117658 C64.625582,101.184368 66.8484717,101.256083 69.0713613,101.276096 C71.3553103,101.296109 73.8851469,101.491238 76.1707461,101.389504 C79.2088603,101.252747 81.9334266,101.02593 84.9698906,101.776427"/>
    <path fill="#4A5775" d="M1.78960024,276.768679 C0.0747874035,276.507422 -0.9825411,275.731921 1.33956644,275.30862 C3.83399175,275.006026 6.92567383,274.925003 9.26618423,274.827446 C21.4003672,274.326429 32.6378285,273.802263 44.9142155,274.202415 C54.0805175,274.503356 63.3890235,274.404145 72.6356289,274.410759 C82.1348556,274.417373 91.6357552,274.361153 101.131636,274.281784 C105.101637,274.248714 109.076657,273.95604 113.023236,274.005646 C128.961794,274.204069 144.881949,274.546347 160.82218,274.71666 C168.275342,274.796029 175.758618,274.600913 183.22851,274.533119 C189.472101,274.476899 195.717366,274.379342 201.960958,274.380995 C222.458409,274.389263 242.957532,274.404145 263.454983,274.473592 C273.666903,274.50997 283.875476,274.718313 294.087396,274.748077 C299.054497,274.764612 304.028291,274.548001 309.000412,274.445483 C319.520161,274.225564 329.919456,274.455404 340.238446,275.181299 C343.131043,275.384682 346.219379,275.290431 349.197298,275.396257 C350.522305,275.442555 351.793776,275.640978 353,276.125459 C349.396384,276.295772 350.733101,276.532225 342.923592,276.945605 C332.310156,277.529298 326.444659,277.454889 320.669504,277.413551 C318.181771,277.397016 315.695711,277.540873 313.206304,277.54914 C299.454342,277.590478 285.700706,277.57725 271.95209,277.659926 C261.984426,277.721106 252.020109,278.020393 242.060811,277.998898 C229.842978,277.974095 217.633511,277.658272 205.414005,277.583864 C180.193709,277.430087 154.968394,277.354025 129.743079,277.248199 C126.243188,277.233318 122.741624,277.231664 119.241732,277.248199 C97.017758,277.347411 74.7937836,277.486306 52.5698092,277.534258 C44.8506419,277.552447 37.1314747,277.302766 29.4072884,277.264735 C25.4389606,277.244892 21.0440207,277.051431 17.0740199,277.152295 C11.7957423,277.287884 7.06453184,277.512763 1.78960024,276.768679"/>
    <path fill="#4A5775" d="M93.5268402 276C93.500143 272.159694 93.4734458 268.236048 93.4450801 264.245729 93.6536518 256.466776 93.668669 252.919826 93.8989321 247.056025 94.3160755 242.960699 94.1024981 239.947125 94.0574466 232.429859 94.4929443 223.505814 94.7098589 218.753768 94.3427727 211.174831 94.1425439 184.709387 93.9623379 174.868602 93.8905892 145.45459 93.5051487 131.725161 93.4717773 111.475213 93.4450801 89.9968339 93.4384058 84.6264056 93.4300629 79.1793046 93.4217201 73.7405375L93.4200515 72.7204562C93.4267258 72.4787702 93.4334001 72.3537603 93.4867944 72.1770795 93.5802346 71.8503868 93.7787948 71.5503629 94.0491037 71.3320121 94.3210812 71.1186618 94.6464531 70.983651 94.9935164 70.9636494L96.9257246 70.950315C99.6354882 70.9403142 102.333572 70.9286466 105.008295 70.916979 115.710526 70.8653082 126.05902 70.7703007 135.388015 70.5919531 146.982933 70.9136454 154.164474 70.958649 165.073608 70.6769599 169.056493 70.8553074 175.790856 71.2970093 179.93893 70.8236382 184.681016 71.1036606 190.272407 71.2753409 196.557923 71.3636813 199.491276 71.4620225 206.173913 71.083659 206.487605 71.5203605 213.323751 70.9953186 219.527508 71.3703485 231.120757 71.2286705 242.915904 71.0569902 246.615132 71.5953665 254.158753 71.141997 255.398503 71.1553314 256.686642 71.1703326 258.026506 71.1853338L258.532084 71.1886674C258.707285 71.1936678 258.71229 71.1953346 258.807399 71.2070022 258.957571 71.2203365 259.097731 71.2753409 259.234554 71.3370125 259.509868 71.4586889 259.740132 71.6970412 259.895309 71.965396 259.965389 72.1054071 260.013778 72.2537523 260.038806 72.4104315 260.057161 72.4871042 260.053823 72.5687774 260.062166 72.6504506L260.062166 73.2121621 260.062166 75.5156791C260.065503 77.0808039 260.070509 78.7059335 260.075515 80.3977351 260.135584 87.1616078 260.207332 94.9655634 260.290761 104.077957 259.756817 111.890246 260.324132 119.949222 259.783514 128.893269 260.172292 144.489513 260.264064 152.161791 260.342487 169.899872 259.918669 182.015839 260.499333 194.916867 259.865275 202.949175 260.574418 210.693125 259.925343 221.297304 260.574418 230.73639 260.45595 245.762589 260.175629 260.297081 260.198989 276L263.751383 276C263.584525 247.464391 263.771405 213.520018 264 183.784313 263.511108 164.144413 263.532799 128.959941 263.105645 106.643161 263.654605 94.312178 263.410994 85.663155 263.981646 73.4938512L263.966629 72.6104474C263.948274 72.1504107 263.896548 71.6853736 263.761394 71.2386713 263.514445 70.3402664 263.008867 69.5252014 262.351449 68.8784831 261.685688 68.2400989 260.854739 67.7617274 259.948703 67.5433767 259.506531 67.4233671 259.015971 67.3833639 258.592153 67.3816971L257.712815 67.3916979C255.365132 67.4116995 253.002431 67.4333679 250.626383 67.4533695 245.874285 67.4717043 241.068793 67.4883723 236.223255 67.5067071 226.53218 67.4833719 216.684258 67.4600367 206.789617 67.4383683 187.003671 67.3583619 167.03585 67.2733551 147.79386 67.5417099 136.215627 67.2683547 127.821034 67.091674 119.503194 67.0216684 115.34344 67.0150012 111.203709 67.008334 106.695223 67 104.439312 67.0183348 102.093297 67.0350028 99.6054539 67.0550044 98.3606979 67.0683388 97.0825706 67.08334 95.7610603 67.0983412 95.3055397 67.0866736 93.9139493 67.08334 92.9194794 67.5733791 91.8849638 68.0334157 90.9789283 68.8101443 90.393259 69.8135577 89.9677727 70.4869447 89.6841152 71.2703405 89.5856693 72.0820719L89.5456236 72.6754526 89.5356121 73.0471489 89.5172578 73.7938751C89.4938978 74.7939549 89.4705378 75.8107026 89.4455092 76.839118 89.4104691 78.900949 89.3737605 81.0161177 89.3370519 83.17629 89.293669 87.4949677 89.250286 91.9853258 89.2069031 96.5356887 89.136823 105.636414 89.0667429 114.977159 89 123.672853 89.5689836 136.592216 89.3704233 159.485709 90.1963673 174.373562 89.9661041 182.312529 90.4850305 194.661847 90.7086194 203.874248 90.5818078 211.564862 90.5450992 213.801707 90.3815789 223.722498 90.6001621 230.751392 90.8170767 237.766951 91.0373284 244.820847 90.3331903 252.504793 90.3465389 265.732515 89.974447 276L93.5268402 276zM319.778097 274.912933C319.536021 274.946257 319.216615 275.039567 319.051868 274.981249 318.21805 274.71465 317.261513 274.393066 316.886632 273.64659 316.550415 272.911778 316.1873 272.218622 315.746856 271.53713 313.86068 268.607879 313.672398 264.898829 314.378454 261.548019 314.676006 260.053402 315.299688 258.622101 316.106608 257.325766 316.400798 256.844223 316.847967 256.457655 317.328757 256.126073 317.505271 255.996107 317.707001 255.851144 318.608062 256.337686 318.766084 256.575958 318.962771 256.809232 319.033376 256.962526 319.451966 257.825639 319.275453 258.200543 319.063636 258.598774 318.197877 260.013412 317.62799 261.629665 317.36406 263.310902 317.288411 263.784114 317.285049 264.267323 317.206038 264.745534 317.175778 265.223745 316.925297 265.718619 317.014394 266.206827 317.273281 268.366275 318.149126 270.370762 319.260323 272.115315 319.593178 272.585195 319.520891 273.351666 319.754562 273.966508L320 274.692989 319.778097 274.912933zM328.799877 275.87239C328.572537 275.920151 328.277956 276.035437 328.121059 275.989322 327.331773 275.786749 326.424014 275.569354 326.030172 274.897405 325.665147 274.233691 325.269704 273.612797 324.79261 273.024841 322.749753 270.500091 322.03091 267.118935 322.002093 263.884357 321.974876 262.444937 322.215024 261.005516 322.613669 259.630326 322.757758 259.121424 323.057142 258.660282 323.39495 258.233726 323.518226 258.069033 323.657511 257.886223 324.616502 258.090443 324.829433 258.269959 325.071182 258.431358 325.178448 258.551584 325.798029 259.24165 325.748399 259.650089 325.650738 260.078292 325.224876 261.639586 325.056773 263.293108 325.13362 264.941689 325.152832 265.407771 325.234482 265.870559 325.24729 266.339936 325.296921 266.801077 325.154433 267.316568 325.309728 267.766181 325.894088 269.782028 326.955542 271.582127 328.151478 273.184594 328.498892 273.617737 328.490887 274.367092 328.737438 274.953401L329 275.645113 328.799877 275.87239z"/>
    <path fill="#7EB0E7" d="M325.993632,258.978719 L317.896404,258.041105 C316.10879,257.833683 314.821446,256.165876 315.020251,254.314256 L316.379295,241.745837 C316.82905,237.580535 320.458055,234.582192 324.48141,235.047627 C328.506395,235.513061 331.403733,239.268579 330.953977,243.432194 L329.594934,256.002299 C329.394499,257.853919 327.782876,259.186141 325.993632,258.978719"/>
    <path fill="#4A5775" d="M326.435366,259.933201 C326.544037,258.931181 326.637662,258.090229 326.744662,257.135682 C327.010489,257.117032 327.229503,257.027172 327.441831,256.974612 C328.277765,256.754202 328.919763,256.035324 328.978278,255.101122 L329.387886,250.853978 C329.618604,248.16836 329.508261,245.431877 330.016509,242.793731 C330.327476,241.449226 330.183696,240.189495 329.635323,238.984018 C329.063543,237.819232 328.118938,236.812125 326.946958,236.247535 C324.608013,235.047145 321.593634,235.587999 319.757922,237.493703 C318.659504,238.592365 317.836945,239.941956 317.751679,241.749324 L317.124729,248.658349 L316.823792,252.11371 L316.66998,253.824436 C316.653262,254.175397 316.703418,254.524663 316.852214,254.834934 C317.084604,255.350355 317.534337,255.760658 318.057631,255.935291 C318.194725,255.975983 318.320115,256.00311 318.473927,256.023456 L319.17444,256.106534 L320.573794,256.274385 L326.169539,256.954267 C326.346757,256.976308 326.518959,257.062777 326.744662,257.135682 C326.642678,258.051234 326.549053,258.89388 326.443725,259.848428 C326.122726,259.861992 325.798384,259.914551 325.484072,259.882337 C323.449408,259.663622 321.379635,259.643277 319.395126,259.144809 L318.204756,258.876926 C317.691492,258.783675 317.096307,258.600565 316.603106,258.327595 C315.594969,257.78335 314.792472,256.896621 314.36113,255.83865 C314.145459,255.309664 314.023412,254.741683 314.001678,254.172006 C313.988303,253.532815 314.058521,253.156422 314.083599,252.757987 L314.309302,250.313125 C314.583488,247.585119 314.610238,244.828291 314.976377,242.112154 L315.136877,241.02536 C315.198736,240.667616 315.294032,240.175931 315.411063,239.769019 C315.651812,238.91959 316.046373,238.129503 316.509481,237.403843 C317.474149,235.961001 318.813316,234.869121 320.297936,234.15872 C321.832711,233.431365 323.559752,232.824388 325.33862,233.046494 C328.896357,233.441538 332.002689,236.296704 332.768405,239.838533 C332.965685,240.715089 333.05095,241.625555 332.969029,242.520761 C332.902154,243.383753 332.803514,244.08059 332.71992,244.868982 L332.196626,249.467087 C332.09297,250.370771 331.723487,251.249022 331.676674,252.156097 L331.588065,254.138097 C331.534565,254.834934 331.621503,255.345269 331.415863,256.352376 C331.007927,258.152962 329.439714,259.685663 327.500346,259.978979 C327.227832,260.017975 326.941942,260.002715 326.435366,259.933201"/>
    <path fill="#4A5775" d="M334.046063 233.575241C334.103734 233.348969 334.159657 233.01612 334.308203 232.886588 335.014232 232.278277 336.221822 231.722435 337.202225 232.152024 338.135442 232.543901 338.953318 233.034156 339.765951 233.609674 340.636255 234.198309 341.338789 235.146027 341.688308 236.154413 342.030838 237.164438 342.085013 238.246608 341.880544 239.253354 341.494325 241.268486 340.211588 243.054066 338.498942 244.242813 337.011737 245.297109 335.239672 245.823437 333.523531 245.984123 332.889153 246.04643 332.242542 245.916897 331.630883 245.743094 331.4002 245.680787 331.13806 245.590607 331 244.595338 331.113594 244.334634 331.197479 244.049334 331.288354 243.908324 331.793409 243.104895 332.226814 242.977002 332.705656 242.934371 334.461991 242.768767 336.158909 242.132582 337.268633 241.043853 337.581453 240.737238 337.834855 240.378155 338.096995 240.02399 338.359135 239.674744 338.734868 239.327138 338.8205 238.887712 339.023222 237.935074 338.839724 236.954563 338.378358 236.270828 337.922235 235.577256 337.12533 235.029612 336.31095 234.782025 335.879293 234.654132 335.484336 234.126164 334.879667 233.973677 334.65947 233.91137 334.425292 233.876937 334.173638 233.857261L334.046063 233.575241zM330.952279 226.576194C331.231675 226.46771 332.040725 226.339503 332.467534 226.576194 332.77607 226.834252 332.834349 227.177783 332.880629 227.440773 333.202878 228.791883 332.914911 230.488168 331.495645 231.257413 330.470619 231.785037 329.574151 232.414569 328.477133 232.70057 327.368118 232.984928 326.205965 233.095055 325.043812 232.906031 324.56901 232.832065 323.982791 232.952054 323.538842 232.690708 321.756189 231.66176 320.705452 229.883291 320.396916 228.150846 320.242648 227.348726 319.970108 226.541676 320.002675 225.682028 320.02153 224.971955 320.153515 224.235584 320.487763 223.581396 321.560783 221.423236 323.986219 219.947205 326.461364 220.001447 327.692081 220.006378 328.845663 220.51099 329.826122 221.094498 330.311209 221.370638 330.888857 221.546512 331.40137 221.87525 332.462391 222.572173 332.956049 223.947939 332.448679 225.151117 332.308123 225.478211 332.458963 225.765856 332.364688 226.068294 332.32355 226.201433 332.123002 226.339503 331.62763 226.443055 331.420225 226.152122 331.226533 226.226088 330.70545 225.729695 329.964963 225.131393 329.868974 224.878265 329.699279 224.526516 329.622145 224.385159 329.40617 224.347354 329.298182 224.238871 328.71025 223.633994 327.902914 223.204992 327.054439 223.193486 326.416798 223.172118 325.895715 223.569891 325.410628 223.734259 324.815839 223.954513 324.027357 224.173124 323.569696 224.794437 322.630375 226.023915 322.774358 227.994695 324.029071 229.168288 324.19191 229.337587 324.38903 229.478944 324.601577 229.582497 325.962564 230.27942 327.642372 230.031223 328.717106 229.181437 329.089063 228.898723 329.623859 228.704768 329.930681 228.275766 330.084949 228.070305 330.388343 227.864844 330.381487 227.575555 330.342063 227.172852 330.180938 226.924655 330.952279 226.576194M313.522858 254.999009C313.283913 254.990457 312.955783 255.028083 312.809387 254.940859 312.055531 254.530394 311.197346 254.008761 311.008882 253.191252 310.857438 252.395975 310.682436 251.634905 310.435077 250.861862 309.391794 247.533674 310.332431 243.878823 312.112743 240.95939 312.890157 239.645902 313.985605 238.520543 315.2224 237.632912 315.673368 237.299409 316.232029 237.123251 316.800786 237.020635 317.012809 236.976168 317.253437 236.92657 317.860897 237.764603 317.908013 238.055349 317.990466 238.352936 317.995514 238.522253 318.039265 239.498818 317.756568 239.748518 317.428439 240.022161 316.166403 240.932026 315.114706 242.195916 314.354119 243.639385 314.137049 244.04643 313.987287 244.48768 313.768535 244.899856 313.600263 245.329134 313.208191 245.705393 313.154344 246.184269 312.763954 248.258829 313.050015 250.365883 313.679351 252.224948 313.881276 252.726058 313.618773 253.444372 313.70964 254.073752L313.781996 254.82114 313.522858 254.999009zM120.405456 103.768679C120.017125 103.507422 119.777126 102.731921 120.30379 102.310274 120.868787 102.004372 121.570449 101.925003 122.100446 101.827446 124.850431 101.326429 127.397083 100.802263 130.178733 101.204069 132.257055 101.503356 134.365376 101.405798 136.462031 101.410759 138.613685 101.419026 140.767006 101.361153 142.91866 101.281784 143.818655 101.248714 144.720317 100.95604 145.613645 101.005646 149.225291 101.204069 152.83527 101.546347 156.446916 101.71666 158.136907 101.796029 159.831897 101.600913 161.52522 101.533119 162.940212 101.476899 164.355204 101.377688 165.770196 101.380995 170.415169 101.387609 175.060143 101.404144 179.706783 101.473592 182.02177 101.508316 184.333423 101.718313 186.64841 101.74973 187.77507 101.764612 188.90173 101.549654 190.026724 101.445483 192.41171 101.225564 194.768363 101.45375 197.106683 102.181299 197.763346 102.386336 198.463342 102.290431 199.136672 102.394603 199.438337 102.442555 199.726668 102.642631 200 103.127113 199.183338 103.295772 199.485003 103.532225 197.71668 103.945605 195.310027 104.529298 193.981701 104.454889 192.671709 104.413551 192.108379 104.395363 191.546715 104.540872 190.981718 104.54914 187.86507 104.590478 184.746754 104.57725 181.631772 104.661579 179.373452 104.721106 177.115131 105.020393 174.856811 104.998898 172.088493 104.974095 169.321842 104.659926 166.551858 104.585518 160.836891 104.43174 155.120257 104.352371 149.403623 104.248199 148.610294 104.233318 147.816966 104.233318 147.023637 104.248199 141.986999 104.347411 136.950361 104.486306 131.913723 104.534258 130.163733 104.552447 128.41541 104.304419 126.66542 104.264735 125.765425 104.244892 124.770431 104.05143 123.870436 104.152295 122.673776 104.287884 121.602116 104.512763 120.405456 103.768679M120.492272 188.768679C120.020654 188.507422 119.729655 187.731921 120.368514 187.30862 121.054199 187.004372 121.90378 186.925003 122.547656 186.827446 125.880756 186.326429 128.969686 185.802263 132.341252 186.202415 134.861564 186.503356 137.420342 186.405798 139.960723 186.410759 142.569673 186.419026 145.180295 186.361153 147.789245 186.281784 148.881324 186.248714 149.973404 185.95604 151.057122 186.005646 155.437147 186.204069 159.812155 186.546347 164.19218 186.71666 166.239203 186.796029 168.296259 186.600913 170.349971 186.533119 172.064185 186.476899 173.780071 186.377688 175.495957 186.380995 181.128613 186.387609 186.761269 186.404145 192.393924 186.473592 195.200218 186.508316 198.006511 186.718313 200.811132 186.74973 202.177486 186.764612 203.54384 186.549654 204.910194 186.445483 207.800107 186.225564 210.658245 186.45375 213.492969 187.181299 214.287361 187.384682 215.136942 187.290431 215.954748 187.396257 216.319332 187.442555 216.668864 187.640978 217 188.125459 216.009937 188.295772 216.376193 188.532225 214.232172 188.945605 211.3155 189.529298 209.703303 189.454889 208.116191 189.413551 207.432178 189.397016 206.749838 189.540873 206.065825 189.54914 202.286192 189.590478 198.50656 189.57725 194.730272 189.659926 191.990875 189.721106 189.251478 190.020393 186.515425 189.998898 183.158911 189.974095 179.804069 189.658272 176.445882 189.583864 169.515441 189.430087 162.583328 189.354025 155.652887 189.248199 154.691255 189.233318 153.72795 189.231664 152.766318 189.248199 146.6587 189.347411 140.552754 189.486306 134.445136 189.534258 132.324528 189.552447 130.20392 189.302766 128.08164 189.264735 126.991232 189.244892 125.783757 189.051431 124.69335 189.152295 123.241703 189.287884 121.942246 189.512763 120.492272 188.768679"/>
    <path fill="#E6F1FC" d="M234.647887,159 L122.352113,159 C120.501746,159 119,157.524235 119,155.705882 L119,134.294118 C119,132.475765 120.501746,131 122.352113,131 L234.647887,131 C236.498254,131 238,132.475765 238,134.294118 L238,155.705882 C238,157.524235 236.498254,159 234.647887,159"/>
    <path fill="#3D8AEB" d="M233.908131 158.231321C233.996595 158.492578 234.050008 159.268079 233.931499 159.689726 233.804645 159.995628 233.646077 160.074997 233.5259 160.172554 232.90832 160.673571 232.335808 161.197737 231.709883 160.797585 231.240856 160.496644 230.766822 160.594202 230.296127 160.589241 229.812078 160.580974 229.32636 160.638847 228.842312 160.718216 228.640347 160.751286 228.438381 161.04396 228.236416 160.994354 227.423548 160.795931 226.61235 160.453653 225.799482 160.28334 225.418919 160.203971 225.038357 160.399087 224.656125 160.466881 224.33899 160.523101 224.018516 160.622312 223.701381 160.619005 222.656504 160.612391 221.609957 160.595856 220.56508 160.526408 220.04431 160.491684 219.52354 160.281687 219.002771 160.25027 218.750732 160.235388 218.497023 160.450346 218.241646 160.554517 217.705854 160.774436 217.176739 160.54625 216.649293 159.818701 216.502409 159.613664 216.345511 159.709569 216.193619 159.605397 216.125185 159.557445 216.061758 159.357369 216 158.872887 216.183605 158.704228 216.11517 158.467775 216.512424 158.054395 217.053223 157.470702 217.353667 157.545111 217.647435 157.586449 217.774289 157.604637 217.901143 157.459128 218.027997 157.45086 218.729033 157.409522 219.430069 157.42275 220.131105 157.338421 220.640191 157.278894 221.147607 156.979607 221.656693 157.001102 222.27928 157.025905 222.901866 157.340074 223.524453 157.414482 224.811355 157.56826 226.096587 157.647629 227.383489 157.751801 227.562086 157.766682 227.740684 157.766682 227.919281 157.751801 229.052622 157.652589 230.185964 157.513694 231.317636 157.465742 231.713221 157.447553 232.105467 157.695581 232.499383 157.735265 232.701348 157.755108 232.926681 157.94857 233.128646 157.847705 233.397377 157.712116 233.639401 157.487237 233.908131 158.231321M207.908131 158.231321C207.996595 158.492578 208.050008 159.268079 207.931499 159.689726 207.804645 159.995628 207.647747 160.074997 207.5259 160.172554 206.90832 160.673571 206.335808 161.197737 205.709883 160.797585 205.242525 160.496644 204.766822 160.594202 204.296127 160.589241 203.812078 160.580974 203.328029 160.638847 202.843981 160.718216 202.640347 160.751286 202.438381 161.04396 202.238085 160.994354 201.423548 160.795931 200.61235 160.453653 199.799482 160.28334 199.418919 160.203971 199.038357 160.399087 198.656125 160.466881 198.33899 160.523101 198.020186 160.622312 197.701381 160.619005 196.656504 160.612391 195.611626 160.595856 194.566749 160.526408 194.04431 160.491684 193.52521 160.281687 193.002771 160.25027 192.750732 160.235388 192.497023 160.450346 192.243315 160.554517 191.707523 160.774436 191.176739 160.54625 190.650962 159.818701 190.502409 159.613664 190.345511 159.709569 190.193619 159.605397 190.126854 159.557445 190.061758 159.357369 190 158.872887 190.183605 158.704228 190.11517 158.467775 190.514093 158.054395 191.054892 157.470702 191.353667 157.545111 191.649104 157.586449 191.775958 157.604637 191.901143 157.459128 192.027997 157.45086 192.729033 157.409522 193.431738 157.42275 194.132774 157.338421 194.64186 157.278894 195.147607 156.979607 195.656693 157.001102 196.27928 157.025905 196.901866 157.340074 197.524453 157.414482 198.811355 157.56826 200.096587 157.647629 201.383489 157.751801 201.562086 157.766682 201.742353 157.766682 201.919281 157.751801 203.052622 157.652589 204.187633 157.513694 205.319306 157.465742 205.713221 157.447553 206.107136 157.695581 206.499383 157.735265 206.703017 157.755108 206.926681 157.94857 207.128646 157.847705 207.397377 157.712116 207.639401 157.487237 207.908131 158.231321M181.909346 158.231321C181.996139 158.492578 182.04955 159.268079 181.932714 159.689726 181.805863 159.995628 181.647299 160.074997 181.527125 160.172554 180.907892 160.673571 180.337063 161.197737 179.711154 160.797585 179.242139 160.496644 178.768117 160.594202 178.295764 160.589241 177.811728 160.580974 177.327692 160.638847 176.843655 160.718216 176.641695 160.751286 176.438066 161.04396 176.237775 160.994354 175.424928 160.795931 174.612081 160.453653 173.799233 160.28334 173.42035 160.203971 173.038128 160.399087 172.657575 160.466881 172.338779 160.523101 172.019982 160.622312 171.701186 160.619005 170.656335 160.612391 169.611484 160.595856 168.566633 160.526408 168.045877 160.491684 167.52512 160.281687 167.004364 160.25027 166.750662 160.235388 166.49696 160.450346 166.243258 160.554517 165.70748 160.774436 165.176709 160.54625 164.650945 159.818701 164.504065 159.613664 164.347171 159.709569 164.193615 159.605397 164.126851 159.557445 164.061756 159.357369 164 158.872887 164.1836 158.704228 164.115167 158.467775 164.51408 158.054395 165.054866 157.470702 165.355302 157.545111 165.649062 157.586449 165.775913 157.604637 165.902764 157.459128 166.029615 157.45086 166.730633 157.409522 167.431651 157.42275 168.132669 157.338421 168.641742 157.278894 169.149146 156.979607 169.656549 157.001102 170.280789 157.025905 170.90336 157.340074 171.525931 157.414482 172.811131 157.56826 174.098001 157.647629 175.38487 157.751801 175.563462 157.766682 175.742055 157.766682 175.920648 157.751801 177.052292 157.652589 178.187273 157.513694 179.318917 157.465742 179.714492 157.447553 180.106728 157.695581 180.500634 157.735265 180.702594 157.755108 180.926252 157.94857 181.129881 157.847705 181.398605 157.712116 181.640623 157.487237 181.909346 158.231321M154.908131 158.231321C154.996595 158.492578 155.050008 159.268079 154.931499 159.689726 154.804645 159.995628 154.646077 160.074997 154.5259 160.172554 153.90832 160.673571 153.335808 161.197737 152.709883 160.797585 152.240856 160.496644 151.766822 160.594202 151.296127 160.589241 150.810409 160.580974 150.32636 160.638847 149.842312 160.718216 149.640347 160.751286 149.438381 161.04396 149.236416 160.994354 148.423548 160.795931 147.61068 160.453653 146.799482 160.28334 146.418919 160.203971 146.038357 160.399087 145.656125 160.466881 145.33899 160.523101 145.020186 160.622312 144.701381 160.619005 143.656504 160.612391 142.609957 160.595856 141.56508 160.526408 141.04431 160.491684 140.52354 160.281687 140.002771 160.25027 139.749063 160.235388 139.497023 160.450346 139.243315 160.554517 138.705854 160.774436 138.176739 160.54625 137.649293 159.818701 137.502409 159.613664 137.345511 159.709569 137.193619 159.605397 137.125185 159.557445 137.061758 159.357369 137 158.872887 137.183605 158.704228 137.11517 158.467775 137.512424 158.054395 138.053223 157.470702 138.353667 157.545111 138.647435 157.586449 138.774289 157.604637 138.901143 157.459128 139.027997 157.45086 139.729033 157.409522 140.431738 157.42275 141.132774 157.338421 141.640191 157.278894 142.147607 156.979607 142.656693 157.001102 143.27928 157.025905 143.901866 157.340074 144.524453 157.414482 145.811355 157.56826 147.096587 157.647629 148.383489 157.751801 148.562086 157.766682 148.740684 157.766682 148.919281 157.751801 150.052622 157.652589 151.185964 157.513694 152.319306 157.465742 152.713221 157.447553 153.105467 157.695581 153.499383 157.735265 153.701348 157.755108 153.926681 157.94857 154.128646 157.847705 154.397377 157.712116 154.639401 157.487237 154.908131 158.231321M128.91002 158.209907C128.996168 158.473184 129.049182 159.254683 128.933214 159.679592 128.807306 159.987859 128.649922 160.067842 128.530641 160.166154 127.916012 160.671046 127.347771 161.199266 126.726516 160.796019 126.262646 160.492751 125.790492 160.591063 125.323308 160.586064 124.841214 160.577733 124.360777 160.636054 123.88034 160.716037 123.679882 160.749363 123.477767 161.0443 123.278965 160.99431 122.874735 160.894332 122.472162 160.757694 122.067932 160.626056 121.577555 160.499416 120.939733 160.292794 120.462609 160.026184 120.000395 159.78457 119.448721 159.709586 118.971597 159.412982 118.587247 159.169701 118.18136 158.899759 117.912978 158.504844 117.465675 157.86998 117.187352 157.116808 117.091265 156.350306 117.010088 155.465495 117.091265 155.128901 117.107832 154.560689 117.142622 154.040801 117.35302 153.520912 117.384497 153.001023 117.399407 152.747744 117.184039 152.492799 117.079668 152.23952 116.860986 151.704635 117.087952 151.174748 117.816891 150.649861 118.022319 150.503225 117.927888 150.344926 118.032259 150.193292 118.078646 150.124973 118.279105 150.061653 118.764512 150 118.933493 150.183294 119.172055 150.114975 119.586225 150.513223 120.171033 151.053108 120.094826 151.351377 120.053409 151.646314 120.036842 151.772953 120.180973 151.899593 120.189257 152.026232 120.230674 152.726082 120.21742 153.425932 120.301911 154.127449 120.361551 154.634007 120.66141 155.142231 120.639874 155.648789 120.619993 155.882073 120.369835 156.233664 120.489116 156.570258 120.598457 156.895189 120.838675 157.196791 121.150131 157.395082 121.305859 157.49506 121.478154 157.581708 121.663702 157.626699 121.756476 157.661691 121.85422 157.663357 121.951964 157.688352L122.430745 157.726677C122.60801 157.741674 122.786931 157.741674 122.964196 157.726677 124.089082 157.626699 125.213967 157.486729 126.338853 157.438406 126.72983 157.420076 127.120806 157.670023 127.511783 157.710014 127.712241 157.73001 127.935893 157.924968 128.136351 157.823323 128.403076 157.686686 128.643295 157.460068 128.91002 158.209907M119.721999 141.907516C119.465148 141.995369 118.702722 142.051122 118.288183 141.931169 117.987439 141.802768 117.909408 141.642268 117.813495 141.520626 117.320926 140.895519 116.805597 140.314338 117.199002 139.680784 117.494869 139.20773 117.398956 138.727918 117.403833 138.249796 117.411961 137.758158 117.355064 137.268209 117.277033 136.77826 117.24452 136.573834 116.956782 136.367717 117.005551 136.16498 117.103089 135.752747 117.236392 135.342204 117.364818 134.929971 117.502997 134.48226 117.602162 134.201806 117.728962 133.561494 117.860639 133.049582 117.813495 132.483607 117.989065 131.942974 118.127244 131.496952 118.30769 131.037413 118.621439 130.682623 119.130265 130.101443 119.770769 129.641905 120.486051 129.376656 120.840441 129.239809 121.212713 129.153645 121.584985 129.113098 121.771934 129.084377 121.958883 129.094514 122.145832 129.089445L122.550617 129.111408C123.057817 129.146887 123.565018 129.359762 124.072218 129.391862 124.319316 129.408757 124.564788 129.187435 124.813511 129.080998 125.335342 128.857987 125.852297 129.091135 126.364374 129.834505 126.509056 130.042311 126.661866 129.946011 126.8098 130.052448 126.874826 130.099753 126.938226 130.30418 127 130.799197 126.819554 130.971524 126.886205 131.214809 126.497677 131.637178 125.970968 132.233564 125.679978 132.155848 125.39224 132.115301 125.268691 132.096716 125.145142 132.243701 125.021593 132.252148 124.338823 132.296075 123.654428 132.280869 122.973284 132.367033 122.724561 132.397443 122.477463 132.488675 122.22874 132.57146 122.103565 132.659313 122.02716 132.735339 121.929622 132.748855 121.713411 132.767439 121.320006 132.615386 121.020887 132.804608 120.7364 132.993829 120.507185 133.289488 120.38201 133.645968 120.266589 133.894321 120.251959 134.666413 120.193436 135.301656 120.178805 135.482431 120.178805 135.663205 120.193436 135.843979 120.290974 136.991135 120.427528 138.13829 120.474672 139.285446 120.492554 139.684163 120.248707 140.08288 120.209692 140.481597 120.190184 140.686023 119.999984 140.914103 120.099148 141.11853 120.232451 141.390536 120.453538 141.63551 119.721999 141.907516M135.091869 131.768679C135.003405 131.507422 134.949992 130.731921 135.068501 130.310274 135.195355 130.004372 135.353923 129.925003 135.472431 129.827446 136.09168 129.326429 136.664192 128.802263 137.290117 129.202415 137.757475 129.503356 138.233178 129.405798 138.703873 129.410759 139.189591 129.419026 139.67364 129.361153 140.157688 129.281784 140.359653 129.248714 140.561619 128.95604 140.763584 129.005646 141.576452 129.204069 142.38765 129.546347 143.200518 129.71666 143.581081 129.796029 143.961643 129.600913 144.343875 129.533119 144.66101 129.476899 144.979814 129.377688 145.298619 129.380995 146.343496 129.387609 147.390043 129.404144 148.43492 129.473592 148.95569 129.508316 149.47646 129.718313 149.997229 129.74973 150.250937 129.764612 150.502977 129.549654 150.756685 129.445483 151.294146 129.225564 151.823261 129.45375 152.349038 130.181299 152.497591 130.386336 152.654489 130.290431 152.806381 130.394603 152.874815 130.442555 152.938242 130.642631 153 131.127113 152.816395 131.295772 152.88483 131.532225 152.485907 131.945605 151.945108 132.529298 151.646333 132.454889 151.352565 132.413551 151.225711 132.395363 151.098857 132.540872 150.972003 132.54914 150.270967 132.590478 149.568262 132.57725 148.867226 132.661579 148.359809 132.721106 147.852393 133.020393 147.343307 132.998898 146.72072 132.974095 146.098134 132.659926 145.475547 132.585518 144.188645 132.43174 142.901743 132.352371 141.616511 132.248199 141.437914 132.233318 141.259316 132.233318 141.080719 132.248199 139.947378 132.347411 138.814036 132.486306 137.680694 132.534258 137.286779 132.552447 136.894533 132.304419 136.500617 132.264735 136.296983 132.244892 136.073319 132.05143 135.871354 132.152295 135.602623 132.287884 135.360599 132.512763 135.091869 131.768679M161.091373 131.768679C161.004575 131.507422 160.949492 130.731921 161.068004 130.310274 161.194862 130.004372 161.353434 129.925003 161.473615 129.827446 162.091211 129.326429 162.66374 128.802263 163.289682 129.202415 163.758722 129.503356 164.232769 129.405798 164.705146 129.410759 165.189208 129.419026 165.673271 129.361153 166.157333 129.281784 166.359303 129.248714 166.562943 128.95604 166.763245 129.005646 167.576135 129.204069 168.389026 129.546347 169.200247 129.71666 169.58082 129.796029 169.963062 129.600913 170.343635 129.533119 170.662448 129.476899 170.979592 129.377688 171.298406 129.380995 172.343312 129.387609 173.389888 129.404144 174.434794 129.473592 174.955578 129.508316 175.476362 129.718313 175.997146 129.74973 176.250861 129.764612 176.502907 129.549654 176.756623 129.445483 177.294099 129.225564 177.823228 129.45375 178.350689 130.181299 178.497577 130.386336 178.65448 130.290431 178.806375 130.394603 178.874812 130.442555 178.93824 130.642631 179 131.127113 178.81639 131.295772 178.884827 131.532225 178.487562 131.945605 177.946748 132.529298 177.646295 132.454889 177.35252 132.413551 177.225662 132.395363 177.098805 132.540872 176.971947 132.54914 176.270891 132.590478 175.568167 132.57725 174.867111 132.661579 174.359681 132.721106 173.85225 133.020393 173.343151 132.998898 172.720547 132.974095 172.097943 132.659926 171.475339 132.585518 170.188401 132.43174 168.903133 132.352371 167.616196 132.248199 167.437593 132.233318 167.258991 132.233318 167.080389 132.248199 165.947016 132.347411 164.813643 132.486306 163.68027 132.534258 163.286344 132.552447 162.894087 132.304419 162.50016 132.264735 162.29819 132.244892 162.07285 132.05143 161.87088 132.152295 161.602142 132.287884 161.360111 132.512763 161.091373 131.768679M188.091869 131.768679C188.003405 131.507422 187.949992 130.731921 188.068501 130.310274 188.195355 130.004372 188.352253 129.925003 188.472431 129.827446 189.09168 129.326429 189.664192 128.802263 190.290117 129.202415 190.757475 129.503356 191.233178 129.405798 191.703873 129.410759 192.187922 129.419026 192.671971 129.361153 193.156019 129.281784 193.359653 129.248714 193.561619 128.95604 193.761915 129.005646 194.576452 129.204069 195.38765 129.546347 196.200518 129.71666 196.581081 129.796029 196.961643 129.600913 197.343875 129.533119 197.66101 129.476899 197.979814 129.377688 198.298619 129.380995 199.343496 129.387609 200.388374 129.404144 201.433251 129.473592 201.95569 129.508316 202.47479 129.718313 202.997229 129.74973 203.249268 129.764612 203.502977 129.549654 203.756685 129.445483 204.292477 129.225564 204.823261 129.45375 205.349038 130.181299 205.497591 130.386336 205.654489 130.290431 205.806381 130.394603 205.873146 130.442555 205.938242 130.642631 206 131.127113 205.816395 131.295772 205.88483 131.532225 205.485907 131.945605 204.945108 132.529298 204.646333 132.454889 204.350896 132.413551 204.224042 132.395363 204.098857 132.540872 203.972003 132.54914 203.270967 132.590478 202.568262 132.57725 201.867226 132.661579 201.35814 132.721106 200.852393 133.020393 200.343307 132.998898 199.72072 132.974095 199.098134 132.659926 198.475547 132.585518 197.188645 132.43174 195.903413 132.352371 194.614842 132.248199 194.437914 132.233318 194.257647 132.233318 194.080719 132.248199 192.947378 132.347411 191.812367 132.486306 190.680694 132.534258 190.286779 132.552447 189.892864 132.304419 189.500617 132.264735 189.296983 132.244892 189.073319 132.05143 188.871354 132.152295 188.602623 132.287884 188.360599 132.512763 188.091869 131.768679M214.091373 131.768679C214.004575 131.507422 213.949492 130.731921 214.068004 130.310274 214.194862 130.004372 214.353434 129.925003 214.473615 129.827446 215.09288 129.326429 215.66374 128.802263 216.289682 129.202415 216.758722 129.503356 217.232769 129.405798 217.705146 129.410759 218.189208 129.419026 218.673271 129.361153 219.157333 129.281784 219.359303 129.248714 219.562943 128.95604 219.763245 129.005646 220.577804 129.204069 221.389026 129.546347 222.200247 129.71666 222.582489 129.796029 222.963062 129.600913 223.343635 129.533119 223.662448 129.476899 223.981261 129.377688 224.298406 129.380995 225.344981 129.387609 226.389888 129.404144 227.434794 129.473592 227.955578 129.508316 228.476362 129.718313 228.997146 129.74973 229.250861 129.764612 229.502907 129.549654 229.758292 129.445483 230.294099 129.225564 230.823228 129.45375 231.350689 130.181299 231.499246 130.386336 231.65448 130.290431 231.806375 130.394603 231.874812 130.442555 231.93991 130.642631 232 131.127113 231.818059 131.295772 231.884827 131.532225 231.487562 131.945605 230.946748 132.529298 230.647965 132.454889 230.35252 132.413551 230.225662 132.395363 230.098805 132.540872 229.971947 132.54914 229.270891 132.590478 228.569836 132.57725 227.868781 132.661579 227.359681 132.721106 226.85225 133.020393 226.34482 132.998898 225.722216 132.974095 225.099612 132.659926 224.475339 132.585518 223.188401 132.43174 221.903133 132.352371 220.616196 132.248199 220.439262 132.233318 220.258991 132.233318 220.082058 132.248199 218.947016 132.347411 217.813643 132.486306 216.681939 132.534258 216.286344 132.552447 215.894087 132.304419 215.50016 132.264735 215.29819 132.244892 215.074519 132.05143 214.87088 132.152295 214.602142 132.287884 214.360111 132.512763 214.091373 131.768679M236.231321 135.090662C236.492578 135.003861 237.268079 134.950445 237.69138 135.067293 237.993974 135.194155 238.074997 135.352734 238.172554 135.472919 238.673571 136.09054 239.197737 136.663092 238.797585 137.289059 238.496644 137.758117 238.595855 138.232183 238.589241 138.704579 238.582627 139.18866 238.638847 139.672742 238.718216 140.156823 238.751286 140.358802 239.04396 140.56245 238.994354 140.762759 238.795931 141.575682 238.453653 142.388605 238.28334 143.199858 238.203971 143.580446 238.399087 143.962703 238.466881 144.343291 238.523101 144.662117 238.620658 144.980943 238.619005 145.2981 238.610737 146.344717 238.595855 147.389665 238.526408 148.434613 238.49003 148.955417 238.281687 149.476222 238.251923 149.997027 238.235388 150.250752 238.451999 150.502808 238.554517 150.756534 238.774436 151.294031 238.544596 151.823182 237.818701 152.350663 237.615318 152.497557 237.709569 152.654466 237.603743 152.806367 237.557445 152.874807 237.359022 152.939907 236.874541 153 236.704228 152.818052 236.467775 152.884822 236.054395 152.487542 235.470702 151.946706 235.545111 151.646242 235.586449 151.352454 235.602984 151.225592 235.459127 151.098729 235.45086 150.971866 235.409522 150.270783 235.42275 149.5697 235.340074 148.866947 235.278894 148.359497 234.979607 147.852046 235.001102 147.342926 235.025905 146.720297 235.341728 146.097669 235.416136 145.47504 235.569913 144.188052 235.645975 142.902732 235.751801 141.615744 235.766682 141.437134 235.768336 141.258525 235.751801 141.079916 235.652589 139.946498 235.513694 138.81308 235.465742 137.679662 235.447553 137.28572 235.697234 136.893447 235.735265 136.499505 235.755108 136.297527 235.948569 136.072179 235.847705 135.8702 235.712116 135.601451 235.487237 135.359411 236.231321 135.090662"/>
    <path fill="#E6F1FC" d="M143.705882,244 L122.294118,244 C120.475765,244 119,242.524235 119,240.705882 L119,219.294118 C119,217.475765 120.475765,216 122.294118,216 L143.705882,216 C145.524235,216 147,217.475765 147,219.294118 L147,240.705882 C147,242.524235 145.524235,244 143.705882,244"/>
    <path fill="#3D8AEB" d="M143.903762 244.231321C143.996243 244.492578 144.052759 245.268079 143.927738 245.69138 143.794155 245.993974 143.626319 246.074997 143.501299 246.172554 142.848796 246.673571 142.242533 247.197737 141.583179 246.797585 141.088235 246.496644 140.588154 246.595855 140.089785 246.589241 139.579428 246.582627 139.067358 246.638847 138.557001 246.718216 138.342925 246.751286 138.128849 247.04396 137.916486 246.994354 137.05847 246.795931 136.202166 246.453653 135.344149 246.28334 134.943399 246.203971 134.539224 246.399087 134.136761 246.466881 133.802803 246.523101 133.465419 246.620658 133.129748 246.619005 132.025116 246.610737 130.922197 246.595855 129.819278 246.526408 129.269531 246.49003 128.719784 246.281687 128.170037 246.251923 127.90287 246.235388 127.635703 246.451999 127.368536 246.554517 126.801663 246.774436 126.24164 246.544596 125.686756 245.818701 125.530908 245.615318 125.364785 245.709569 125.205513 245.603743 125.133583 245.557445 125.065079 245.359022 125 244.874541 125.193525 244.704228 125.121595 244.467775 125.542897 244.054395 126.113195 243.470702 126.428315 243.545111 126.740009 243.586449 126.873593 243.602984 127.007176 243.459127 127.140759 243.45086 127.882318 243.409522 128.622165 243.42275 129.362011 243.340074 129.898058 243.278894 130.435816 242.979607 130.971862 243.001102 131.629504 243.025905 132.285432 243.341728 132.943074 243.416136 134.301171 243.569913 135.659269 243.645975 137.017367 243.751801 137.204041 243.766682 137.394141 243.768336 137.582527 243.751801 138.777928 243.652589 139.97504 243.513694 141.17044 243.465742 141.584891 243.447553 142.001055 243.697234 142.417219 243.735265 142.631294 243.755108 142.867634 243.948569 143.08171 243.847705 143.366003 243.712116 143.619469 243.487237 143.903762 244.231321M119.768679 241.902168C119.507422 241.996362 118.731921 242.052879 118.310274 241.927858 118.004372 241.794273 117.925003 241.626437 117.827446 241.501416 117.326429 240.847196 116.802263 240.242641 117.202415 239.583283 117.503356 239.088337 117.405798 238.586539 117.410759 238.088167 117.419026 237.57952 117.361153 237.067447 117.281784 236.555374 117.248714 236.343009 116.95604 236.128932 117.005646 235.916567 117.204069 235.058546 117.546347 234.200524 117.71666 233.342502 117.796029 232.941749 117.600913 232.539284 117.533119 232.136819 117.476899 231.801146 117.377688 231.46376 117.380995 231.128087 117.387609 230.02516 117.404144 228.922234 117.473592 227.817595 117.508316 227.269557 117.718313 226.719807 117.74973 226.170057 117.764612 225.902888 117.549654 225.63572 117.445483 225.368551 117.225564 224.801674 117.45375 224.239936 118.181299 223.685047 118.386336 223.529199 118.290431 223.364788 118.394603 223.203802 118.442555 223.131872 118.642631 223.063367 119.127113 223 119.295772 223.193526 119.532225 223.121596 119.945605 223.541187 120.529298 224.111489 120.454889 224.428324 120.413551 224.74002 120.395363 224.873604 120.540872 225.007189 120.54914 225.140773 120.590478 225.882337 120.57725 226.620475 120.661579 227.362039 120.721106 227.898088 121.020393 228.434138 120.998898 228.970187 120.974095 229.627833 120.659926 230.285478 120.585518 230.943124 120.43174 232.30123 120.352371 233.659336 120.248199 235.01573 120.233318 235.204118 120.233318 235.392506 120.248199 235.580894 120.347411 236.778014 120.486306 237.973422 120.534258 239.16883 120.552447 239.584996 120.304419 240.001162 120.264735 240.417328 120.244892 240.629693 120.05143 240.867747 120.152295 241.080112 120.287884 241.364406 120.512763 241.619586 119.768679 241.902168M122.096238 216.768679C122.003757 216.507422 121.947241 215.731921 122.072262 215.30862 122.205845 215.006026 122.373681 214.925003 122.498701 214.827446 123.151204 214.326429 123.757467 213.802263 124.416821 214.202415 124.911765 214.503356 125.411846 214.404145 125.910215 214.410759 126.420572 214.417373 126.932642 214.361153 127.442999 214.281784 127.657075 214.248714 127.871151 213.95604 128.083514 214.005646 128.94153 214.204069 129.797834 214.546347 130.655851 214.71666 131.056601 214.796029 131.460776 214.600913 131.863239 214.533119 132.197197 214.476899 132.534581 214.379342 132.870252 214.380995 133.974884 214.389263 135.077803 214.404145 136.180722 214.473592 136.730469 214.50997 137.280216 214.718313 137.829963 214.748077 138.09713 214.764612 138.364297 214.548001 138.631464 214.445483 139.198337 214.225564 139.75836 214.455404 140.313244 215.181299 140.469092 215.384682 140.635215 215.290431 140.794487 215.396257 140.866417 215.442555 140.934921 215.640978 141 216.125459 140.806475 216.295772 140.878405 216.532225 140.457103 216.945605 139.886805 217.529298 139.571685 217.454889 139.259991 217.413551 139.126407 217.397016 138.992824 217.540873 138.859241 217.54914 138.117682 217.590478 137.377835 217.57725 136.637989 217.659926 136.101942 217.721106 135.564184 218.020393 135.028138 217.998898 134.370496 217.974095 133.714568 217.658272 133.056926 217.583864 131.698829 217.430087 130.340731 217.354025 128.982633 217.248199 128.795959 217.233318 128.605859 217.231664 128.417473 217.248199 127.222072 217.347411 126.02496 217.486306 124.82956 217.534258 124.415109 217.552447 123.998945 217.302766 123.582781 217.264735 123.368706 217.244892 123.132366 217.051431 122.91829 217.152295 122.633997 217.287884 122.380531 217.512763 122.096238 216.768679M146.231321 220.097832C146.492578 220.003638 147.268079 219.947121 147.689726 220.072142 147.995628 220.205727 148.074997 220.373563 148.172554 220.498584 148.673571 221.152804 149.197737 221.757359 148.797585 222.416717 148.496644 222.911663 148.594202 223.413461 148.589241 223.911833 148.580974 224.42048 148.638847 224.932553 148.718216 225.444626 148.751286 225.656991 149.04396 225.871068 148.994354 226.083433 148.795931 226.941454 148.453653 227.799476 148.28334 228.657498 148.203971 229.058251 148.399087 229.460716 148.466881 229.863181 148.523101 230.198854 148.622312 230.53624 148.619005 230.871913 148.612391 231.97484 148.595856 233.077766 148.526408 234.182405 148.491684 234.730443 148.281687 235.280193 148.25027 235.829943 148.235388 236.097112 148.450346 236.36428 148.554517 236.631449 148.774436 237.198326 148.54625 237.760064 147.818701 238.314953 147.613664 238.470801 147.709569 238.635212 147.605397 238.796198 147.557445 238.868128 147.357369 238.936633 146.872887 239 146.704228 238.806474 146.467775 238.878404 146.054395 238.458813 145.470702 237.888511 145.545111 237.571676 145.586449 237.25998 145.604637 237.126396 145.459128 236.992811 145.45086 236.859227 145.409522 236.117663 145.42275 235.379525 145.338421 234.637961 145.278894 234.101912 144.979607 233.565862 145.001102 233.029813 145.025905 232.372167 145.340074 231.714522 145.414482 231.056876 145.56826 229.69877 145.647629 228.340664 145.751801 226.98427 145.766682 226.795882 145.766682 226.607494 145.751801 226.419106 145.652589 225.221986 145.513694 224.026578 145.465742 222.83117 145.447553 222.415004 145.695581 221.998838 145.735265 221.582672 145.755108 221.370307 145.94857 221.132253 145.847705 220.919888 145.712116 220.635594 145.487237 220.380414 146.231321 220.097832"/>
    <path fill="#E5F9E5" d="M188.705882,244 L167.294118,244 C165.475765,244 164,242.524235 164,240.705882 L164,219.294118 C164,217.475765 165.475765,216 167.294118,216 L188.705882,216 C190.524235,216 192,217.475765 192,219.294118 L192,240.705882 C192,242.524235 190.524235,244 188.705882,244"/>
    <path fill="#5FCF80" d="M188.902177 244.231321C188.996363 244.492578 189.052874 245.268079 188.927864 245.69138 188.794292 245.993974 188.626471 246.074997 188.501461 246.172554 187.847299 246.673571 187.2428 247.197737 186.583501 246.797585 186.088599 246.496644 185.586847 246.595855 185.08852 246.589241 184.579918 246.582627 184.067891 246.638847 183.555865 246.718216 183.343519 246.751286 183.129461 247.04396 182.917116 246.994354 182.059171 246.795931 181.201227 246.453653 180.343282 246.28334 179.942566 246.203971 179.540137 246.399087 179.137708 246.466881 178.802065 246.523101 178.464709 246.620658 178.129066 246.619005 177.02624 246.610737 175.923413 246.595855 174.820586 246.526408 174.270885 246.49003 173.721184 246.281687 173.171483 246.251923 172.904339 246.235388 172.635482 246.451999 172.368338 246.554517 171.803225 246.774436 171.243249 246.544596 170.686698 245.818701 170.530864 245.615318 170.366467 245.709569 170.205496 245.603743 170.135285 245.557445 170.065074 245.359022 170 244.874541 170.195221 244.704228 170.123297 244.467775 170.542851 244.054395 171.114814 243.470702 171.429907 243.545111 171.741576 243.586449 171.875148 243.602984 172.00872 243.459127 172.142292 243.45086 172.883789 243.409522 173.623574 243.42275 174.363358 243.340074 174.899359 243.278894 175.435361 242.979607 175.971362 243.001102 176.628948 243.025905 177.286534 243.341728 177.94412 243.416136 179.302104 243.569913 180.660088 243.645975 182.01636 243.751801 182.204731 243.766682 182.393102 243.768336 182.581473 243.751801 183.778485 243.652589 184.973785 243.513694 186.169085 243.465742 186.585213 243.447553 187.001342 243.697234 187.417471 243.735265 187.629817 243.755108 187.867849 243.948569 188.080195 243.847705 188.364464 243.712116 188.619621 243.487237 188.902177 244.231321M164.768679 241.902168C164.507422 241.996362 163.731921 242.052879 163.310274 241.927858 163.004372 241.794273 162.925003 241.626437 162.827446 241.501416 162.326429 240.847196 161.802263 240.242641 162.202415 239.583283 162.503356 239.088337 162.405798 238.586539 162.410759 238.088167 162.419026 237.57952 162.361153 237.067447 162.281784 236.555374 162.248714 236.343009 161.95604 236.128932 162.005646 235.916567 162.204069 235.058546 162.546347 234.200524 162.71666 233.342502 162.796029 232.941749 162.600913 232.539284 162.533119 232.136819 162.476899 231.801146 162.377688 231.46376 162.380995 231.128087 162.387609 230.02516 162.404144 228.922234 162.473592 227.817595 162.508316 227.269557 162.718313 226.719807 162.74973 226.170057 162.764612 225.902888 162.549654 225.63572 162.445483 225.368551 162.225564 224.801674 162.45375 224.239936 163.181299 223.685047 163.386336 223.529199 163.290431 223.364788 163.394603 223.203802 163.442555 223.131872 163.642631 223.063367 164.127113 223 164.295772 223.193526 164.532225 223.121596 164.945605 223.541187 165.529298 224.111489 165.454889 224.428324 165.413551 224.74002 165.395363 224.873604 165.540872 225.007189 165.54914 225.140773 165.590478 225.882337 165.57725 226.620475 165.661579 227.362039 165.721106 227.898088 166.020393 228.434138 165.998898 228.970187 165.974095 229.627833 165.659926 230.285478 165.585518 230.943124 165.43174 232.30123 165.352371 233.659336 165.248199 235.01573 165.233318 235.204118 165.233318 235.392506 165.248199 235.580894 165.347411 236.778014 165.486306 237.973422 165.534258 239.16883 165.552447 239.584996 165.304419 240.001162 165.264735 240.417328 165.244892 240.629693 165.05143 240.867747 165.152295 241.080112 165.287884 241.364406 165.512763 241.619586 164.768679 241.902168M167.096238 216.768679C167.003757 216.507422 166.947241 215.731921 167.072262 215.30862 167.205845 215.006026 167.373681 214.925003 167.498701 214.827446 168.151204 214.326429 168.757467 213.802263 169.416821 214.202415 169.911765 214.503356 170.411846 214.404145 170.910215 214.410759 171.420572 214.417373 171.932642 214.361153 172.442999 214.281784 172.657075 214.248714 172.871151 213.95604 173.083514 214.005646 173.94153 214.204069 174.797834 214.546347 175.655851 214.71666 176.056601 214.796029 176.460776 214.600913 176.863239 214.533119 177.197197 214.476899 177.534581 214.379342 177.870252 214.380995 178.973171 214.389263 180.077803 214.404145 181.180722 214.473592 181.728757 214.50997 182.280216 214.718313 182.828251 214.748077 183.095418 214.764612 183.364297 214.548001 183.631464 214.445483 184.198337 214.225564 184.75836 214.455404 185.313244 215.181299 185.469092 215.384682 185.635215 215.290431 185.794487 215.396257 185.866417 215.442555 185.934921 215.640978 186 216.125459 185.804763 216.295772 185.876692 216.532225 185.457103 216.945605 184.886805 217.529298 184.571685 217.454889 184.259991 217.413551 184.126407 217.397016 183.992824 217.540873 183.859241 217.54914 183.117682 217.590478 182.377835 217.57725 181.637989 217.659926 181.10023 217.721106 180.565896 218.020393 180.028138 217.998898 179.370496 217.974095 178.714568 217.658272 178.056926 217.583864 176.698829 217.430087 175.340731 217.354025 173.982633 217.248199 173.795959 217.233318 173.605859 217.231664 173.417473 217.248199 172.222072 217.347411 171.02496 217.486306 169.82956 217.534258 169.415109 217.552447 168.998945 217.302766 168.582781 217.264735 168.368706 217.244892 168.132366 217.051431 167.91829 217.152295 167.633997 217.287884 167.380531 217.512763 167.096238 216.768679M191.231321 220.097832C191.492578 220.003638 192.268079 219.947121 192.69138 220.072142 192.993974 220.205727 193.074997 220.373563 193.172554 220.498584 193.673571 221.152804 194.197737 221.757359 193.797585 222.416717 193.496644 222.911663 193.595855 223.413461 193.589241 223.911833 193.582627 224.42048 193.638847 224.932553 193.718216 225.444626 193.751286 225.656991 194.04396 225.871068 193.994354 226.083433 193.795931 226.941454 193.453653 227.799476 193.28334 228.657498 193.203971 229.058251 193.399087 229.460716 193.466881 229.863181 193.523101 230.198854 193.620658 230.53624 193.619005 230.871913 193.610737 231.97484 193.595855 233.077766 193.526408 234.182405 193.49003 234.730443 193.281687 235.280193 193.251923 235.829943 193.235388 236.097112 193.451999 236.36428 193.554517 236.631449 193.774436 237.198326 193.544596 237.760064 192.818701 238.314953 192.615318 238.470801 192.709569 238.635212 192.603743 238.796198 192.557445 238.868128 192.359022 238.936633 191.874541 239 191.704228 238.806474 191.467775 238.878404 191.054395 238.458813 190.470702 237.888511 190.545111 237.571676 190.586449 237.25998 190.602984 237.126396 190.459127 236.992811 190.45086 236.859227 190.409522 236.117663 190.42275 235.379525 190.340074 234.637961 190.278894 234.101912 189.979607 233.565862 190.001102 233.029813 190.025905 232.372167 190.341728 231.714522 190.416136 231.056876 190.569913 229.69877 190.645975 228.340664 190.751801 226.98427 190.766682 226.795882 190.768336 226.607494 190.751801 226.419106 190.652589 225.221986 190.513694 224.026578 190.465742 222.83117 190.447553 222.415004 190.697234 221.998838 190.735265 221.582672 190.755108 221.370307 190.948569 221.132253 190.847705 220.919888 190.712116 220.635594 190.487237 220.380414 191.231321 220.097832"/>
    <path fill="#EBE6F4" d="M233.705882,244 L212.294118,244 C210.475765,244 209,242.524235 209,240.705882 L209,219.294118 C209,217.475765 210.475765,216 212.294118,216 L233.705882,216 C235.524235,216 237,217.475765 237,219.294118 L237,240.705882 C237,242.524235 235.524235,244 233.705882,244"/>
    <path fill="#965DE8" d="M234.902168 244.231321C234.996362 244.492578 235.052879 245.268079 234.927858 245.69138 234.794273 245.993974 234.626437 246.074997 234.501416 246.172554 233.847196 246.673571 233.242641 247.197737 232.583283 246.797585 232.088337 246.496644 231.586539 246.595855 231.088167 246.589241 230.57952 246.582627 230.067447 246.638847 229.555374 246.718216 229.343009 246.751286 229.128932 247.04396 228.916567 246.994354 228.058546 246.795931 227.200524 246.453653 226.342502 246.28334 225.941749 246.203971 225.539284 246.399087 225.136819 246.466881 224.801146 246.523101 224.46376 246.620658 224.128087 246.619005 223.02516 246.610737 221.922234 246.595855 220.817595 246.526408 220.269557 246.49003 219.719807 246.281687 219.170057 246.251923 218.902888 246.235388 218.63572 246.451999 218.368551 246.554517 217.801674 246.774436 217.239936 246.544596 216.685047 245.818701 216.529199 245.615318 216.364788 245.709569 216.203802 245.603743 216.131872 245.557445 216.063367 245.359022 216 244.874541 216.193526 244.704228 216.121596 244.467775 216.541187 244.054395 217.111489 243.470702 217.428324 243.545111 217.74002 243.586449 217.873604 243.602984 218.007189 243.459127 218.140773 243.45086 218.882337 243.409522 219.620475 243.42275 220.362039 243.340074 220.898088 243.278894 221.434138 242.979607 221.970187 243.001102 222.627833 243.025905 223.285478 243.341728 223.943124 243.416136 225.30123 243.569913 226.659336 243.645975 228.01573 243.751801 228.204118 243.766682 228.392506 243.768336 228.580894 243.751801 229.778014 243.652589 230.973422 243.513694 232.16883 243.465742 232.584996 243.447553 233.001162 243.697234 233.417328 243.735265 233.629693 243.755108 233.867747 243.948569 234.080112 243.847705 234.364406 243.712116 234.619586 243.487237 234.902168 244.231321M209.768679 241.902168C209.507422 241.996362 208.731921 242.052879 208.30862 241.927858 208.006026 241.794273 207.925003 241.626437 207.827446 241.501416 207.326429 240.847196 206.802263 240.242641 207.202415 239.583283 207.503356 239.088337 207.404145 238.586539 207.410759 238.088167 207.417373 237.57952 207.361153 237.067447 207.281784 236.555374 207.248714 236.343009 206.95604 236.128932 207.005646 235.916567 207.204069 235.058546 207.546347 234.200524 207.71666 233.342502 207.796029 232.941749 207.600913 232.539284 207.533119 232.136819 207.476899 231.801146 207.379342 231.46376 207.380995 231.128087 207.389263 230.02516 207.404145 228.922234 207.473592 227.817595 207.50997 227.269557 207.718313 226.719807 207.748077 226.170057 207.764612 225.902888 207.548001 225.63572 207.445483 225.368551 207.225564 224.801674 207.455404 224.239936 208.181299 223.685047 208.384682 223.529199 208.290431 223.364788 208.396257 223.203802 208.442555 223.131872 208.640978 223.063367 209.125459 223 209.295772 223.193526 209.532225 223.121596 209.945605 223.541187 210.529298 224.111489 210.454889 224.428324 210.413551 224.74002 210.397016 224.873604 210.540873 225.007189 210.54914 225.140773 210.590478 225.882337 210.57725 226.620475 210.659926 227.362039 210.721106 227.898088 211.020393 228.434138 210.998898 228.970187 210.974095 229.627833 210.658272 230.285478 210.583864 230.943124 210.430087 232.30123 210.354025 233.659336 210.248199 235.01573 210.233318 235.204118 210.231664 235.392506 210.248199 235.580894 210.347411 236.778014 210.486306 237.973422 210.534258 239.16883 210.552447 239.584996 210.302766 240.001162 210.264735 240.417328 210.244892 240.629693 210.051431 240.867747 210.152295 241.080112 210.287884 241.364406 210.512763 241.619586 209.768679 241.902168M212.097832 216.768679C212.003638 216.507422 211.947121 215.731921 212.072142 215.30862 212.205727 215.006026 212.373563 214.925003 212.498584 214.827446 213.152804 214.326429 213.757359 213.802263 214.416717 214.202415 214.911663 214.503356 215.413461 214.404145 215.911833 214.410759 216.42048 214.417373 216.932553 214.361153 217.444626 214.281784 217.656991 214.248714 217.871068 213.95604 218.083433 214.005646 218.941454 214.204069 219.799476 214.546347 220.657498 214.71666 221.058251 214.796029 221.460716 214.600913 221.863181 214.533119 222.198854 214.476899 222.53624 214.379342 222.871913 214.380995 223.97484 214.389263 225.077766 214.404145 226.182405 214.473592 226.730443 214.50997 227.280193 214.718313 227.829943 214.748077 228.097112 214.764612 228.36428 214.548001 228.631449 214.445483 229.198326 214.225564 229.760064 214.455404 230.314953 215.181299 230.470801 215.384682 230.635212 215.290431 230.796198 215.396257 230.868128 215.442555 230.936633 215.640978 231 216.125459 230.806474 216.295772 230.878404 216.532225 230.458813 216.945605 229.888511 217.529298 229.571676 217.454889 229.25998 217.413551 229.126396 217.397016 228.992811 217.540873 228.859227 217.54914 228.117663 217.590478 227.379525 217.57725 226.637961 217.659926 226.101912 217.721106 225.565862 218.020393 225.029813 217.998898 224.372167 217.974095 223.714522 217.658272 223.056876 217.583864 221.69877 217.430087 220.340664 217.354025 218.98427 217.248199 218.795882 217.233318 218.607494 217.231664 218.419106 217.248199 217.221986 217.347411 216.026578 217.486306 214.83117 217.534258 214.415004 217.552447 213.998838 217.302766 213.582672 217.264735 213.370307 217.244892 213.132253 217.051431 212.919888 217.152295 212.635594 217.287884 212.380414 217.512763 212.097832 216.768679M236.231321 220.097832C236.492578 220.003638 237.268079 219.947121 237.69138 220.072142 237.993974 220.205727 238.074997 220.373563 238.172554 220.498584 238.673571 221.152804 239.197737 221.757359 238.797585 222.416717 238.496644 222.911663 238.595855 223.413461 238.589241 223.911833 238.582627 224.42048 238.638847 224.932553 238.718216 225.444626 238.751286 225.656991 239.04396 225.871068 238.994354 226.083433 238.795931 226.941454 238.453653 227.799476 238.28334 228.657498 238.203971 229.058251 238.399087 229.460716 238.466881 229.863181 238.523101 230.198854 238.620658 230.53624 238.619005 230.871913 238.610737 231.97484 238.595855 233.077766 238.526408 234.182405 238.49003 234.730443 238.281687 235.280193 238.251923 235.829943 238.235388 236.097112 238.451999 236.36428 238.554517 236.631449 238.774436 237.198326 238.544596 237.760064 237.818701 238.314953 237.615318 238.470801 237.709569 238.635212 237.603743 238.796198 237.557445 238.868128 237.359022 238.936633 236.874541 239 236.704228 238.806474 236.467775 238.878404 236.054395 238.458813 235.470702 237.888511 235.545111 237.571676 235.586449 237.25998 235.602984 237.126396 235.459127 236.992811 235.45086 236.859227 235.409522 236.117663 235.42275 235.379525 235.340074 234.637961 235.278894 234.101912 234.979607 233.565862 235.001102 233.029813 235.025905 232.372167 235.341728 231.714522 235.416136 231.056876 235.569913 229.69877 235.645975 228.340664 235.751801 226.98427 235.766682 226.795882 235.768336 226.607494 235.751801 226.419106 235.652589 225.221986 235.513694 224.026578 235.465742 222.83117 235.447553 222.415004 235.697234 221.998838 235.735265 221.582672 235.755108 221.370307 235.948569 221.132253 235.847705 220.919888 235.712116 220.635594 235.487237 220.380414 236.231321 220.097832"/>
  </g>
</svg>
