<?xml version="1.0" encoding="UTF-8"?>
<svg width="184px" height="59px" viewBox="0 0 184 59" version="1.1" xmlns="http://www.w3.org/2000/svg" xmlns:xlink="http://www.w3.org/1999/xlink">
    <!-- Generator: Sketch 49.1 (51147) - http://www.bohemiancoding.com/sketch -->
    <title>arrow</title>
    <desc>Created with Sketch.</desc>
    <defs>
        <polygon id="path-1" points="0 0.489217443 12.3690667 0.489217443 12.3690667 5.56150277 0 5.56150277"></polygon>
        <polygon id="path-3" points="0.337714286 0.152961036 13.0362857 0.152961036 13.0362857 3 0.337714286 3"></polygon>
        <polygon id="path-5" points="0.831 0.626 12.9317143 0.626 12.9317143 5.2564 0.831 5.2564"></polygon>
    </defs>
    <g id="Item-Editor-–-Structure" stroke="none" stroke-width="1" fill="none" fill-rule="evenodd">
        <g id="01---Empty" transform="translate(-167.000000, -364.000000)">
            <g id="arrow" transform="translate(167.000000, 364.000000)">
                <g id="Group-3" transform="translate(0.000000, 45.000000)">
                    <mask id="mask-2" fill="white">
                        <use xlink:href="#path-1"></use>
                    </mask>
                    <g id="Clip-2"></g>
                    <path d="M12.3084,5.1588 C12.1784,5.2428 12.0267333,5.3848 11.9205667,5.4028 C11.3854,5.4928 10.8155667,5.6748 10.3844,5.4628 C9.96406667,5.2588 9.5264,5.1048 9.05623333,5.0328 C7.06073333,4.7228 5.23206667,3.9828 3.3644,3.3488 C2.54323333,3.0688 1.73723333,2.7508 0.937733333,2.4148 C0.645233333,2.2908 0.3874,2.0888 0.129566667,1.8788 C0.0320666667,1.8008 -0.0741,1.7128 0.0710666667,1.1168 C0.190233333,0.9848 0.3029,0.8388 0.389566667,0.7748 C0.870566667,0.4148 1.19556667,0.4568 1.4924,0.5688 L4.84206667,1.7968 C5.15623333,1.9148 5.47906667,2.0168 5.78456667,2.1528 C6.09006667,2.2888 6.35873333,2.5168 6.68156667,2.6148 C8.10506667,3.0408 9.5524,3.4028 10.9564,3.8668 C11.3529,3.9948 11.6454,4.3888 11.9855667,4.6628 L12.3690667,4.9808 L12.3084,5.1588 Z" id="Fill-1" fill="#8492A6" mask="url(#mask-2)"></path>
                </g>
                <path d="M35.9714235,56.3506227 C35.8632412,56.4561064 35.7468941,56.622446 35.6489176,56.6569311 C35.1631176,56.8334134 34.6569059,57.1032082 34.2200941,56.9591824 C33.7955294,56.8171851 33.3607588,56.7279297 32.9076177,56.7218441 C30.9889118,56.6893876 29.1681824,56.153855 27.3433706,55.6974352 C26.5391471,55.494582 25.7492118,55.2410155 24.9674412,54.9671636 C24.6796353,54.8677655 24.4163236,54.6811405 24.155053,54.4904585 C24.0570765,54.4174313 23.9488942,54.3383186 24.0264589,53.7196162 C24.1264765,53.5776189 24.2183294,53.4193934 24.2918118,53.3504233 C24.7061706,52.9447168 25.0123471,52.9650022 25.3021941,53.0502005 L28.5517471,53.9812969 C28.8579236,54.0664952 29.1681824,54.1314083 29.4702765,54.2389205 C29.7723706,54.3423756 30.0499706,54.5391433 30.3622706,54.5979707 C31.7441471,54.8231378 33.1341882,55.0503334 34.5119824,55.277529 C34.8977647,55.3464991 35.2304765,55.6933782 35.5897235,55.9104311 L36,56.1639977 L35.9714235,56.3506227 Z" id="Fill-4" fill="#8492A6"></path>
                <g id="Group-8" transform="translate(48.000000, 56.000000)">
                    <mask id="mask-4" fill="white">
                        <use xlink:href="#path-3"></use>
                    </mask>
                    <g id="Clip-7"></g>
                    <path d="M13.0362857,0.573 C12.9805714,0.711 12.9398571,0.907 12.8605714,0.979 C12.4727143,1.335 12.0934286,1.777 11.6048571,1.813 C11.1312857,1.849 10.6684286,1.929 10.2205714,2.089 C8.31128571,2.763 6.282,2.865 4.287,2.971 C3.40842857,3.021 2.52557143,3.003 1.647,2.951 C1.32557143,2.935 1.002,2.827 0.682714286,2.711 C0.560571429,2.669 0.429857143,2.619 0.337714286,2.013 C0.402,1.853 0.449142857,1.679 0.502714286,1.591 C0.811285714,1.099 1.11985714,1.039 1.43485714,1.043 C2.60485714,1.065 3.77485714,1.051 4.94271429,1.001 C5.27271429,0.991 5.60057143,0.951 5.93271429,0.957 C6.26271429,0.959 6.60342857,1.055 6.92914286,1.009 C8.37342857,0.803 9.78557143,0.469 11.1955714,0.175 C11.5898571,0.089 12.0505714,0.279 12.4855714,0.329 L12.9827143,0.395 L13.0362857,0.573 Z" id="Fill-6" fill="#8492A6" mask="url(#mask-4)"></path>
                </g>
                <path d="M80.8568032,43.105744 C80.9070804,43.2434107 81.0097297,43.4169905 80.9992553,43.5187442 C80.9468832,44.0235221 80.9594525,44.5881552 80.624271,44.9093775 C80.2890896,45.220624 79.9999956,45.5617981 79.7695583,45.9528513 C78.7954372,47.6128326 77.3248286,48.9116882 75.8437456,50.1506887 C75.1901417,50.6993604 74.4841658,51.1921673 73.7551461,51.6410805 C73.487001,51.8066796 73.1643888,51.9024478 72.8375869,51.9822546 C72.7139887,52.0161725 72.5778213,52.0480952 72.1358007,51.6051675 C72.0876184,51.4415635 72.0205821,51.2739693 72.0101077,51.1742108 C71.9514509,50.6095777 72.1567496,50.3960946 72.401851,50.2265051 C73.3256949,49.6080025 74.2160206,48.9416157 75.0686384,48.2313353 C75.3095501,48.0298231 75.546272,47.8303062 75.7892786,47.6248037 C76.0406647,47.4352625 76.3611819,47.3095668 76.576955,47.0801223 C77.5301272,46.0805422 78.3534167,44.9752181 79.2102243,43.9058071 C79.4448513,43.6045365 79.9182951,43.4748504 80.2786152,43.2493962 L80.6954971,43 L80.8568032,43.105744 Z" id="Fill-9" fill="#8492A6"></path>
                <path d="M90.1789402,20 C90.2963336,20.0903527 90.4734186,20.1827589 90.5211718,20.275165 C90.7599381,20.733089 91.0822726,21.2218149 90.9807969,21.6817923 C90.8852904,22.1335558 90.8295783,22.5832658 90.8474857,23.0452967 C90.9270745,25.0186818 90.3779121,26.9078746 89.818801,28.7395703 C89.5700862,29.5486376 89.2676489,30.3371703 88.9214378,31.1031148 C88.7980752,31.3885472 88.587165,31.6349636 88.3742651,31.8772731 C88.2926866,31.9717328 88.2011595,32.0723528 87.6082233,31.9265564 C87.4808813,31.8095086 87.3356318,31.7006747 87.2739505,31.6205893 C86.9217702,31.1626654 86.9715132,30.8649122 87.0809478,30.5856402 C87.4928196,29.5527446 87.8668867,28.5034212 88.1971801,27.4417769 C88.2887072,27.1440237 88.3802342,26.8462705 88.473751,26.5423569 C88.5831856,26.2466571 88.778178,25.975599 88.8358799,25.665525 C89.0985228,24.3020206 89.2059676,22.920035 89.309433,21.5606375 C89.3432582,21.1807455 89.6397263,20.8193347 89.804873,20.4373892 L89.9938963,20 L90.1789402,20 Z" id="Fill-11" fill="#8492A6"></path>
                <path d="M76.0347284,2.63832008 C76.1450423,2.52563897 76.2676132,2.34534919 76.3677128,2.31154485 C76.8620821,2.13125508 77.3932228,1.87434214 77.8303924,2.07040728 C78.2512192,2.27323328 78.6843031,2.41295786 79.1419012,2.49183463 C81.0969074,2.79607363 82.8803143,3.85302246 84.5043789,5.09476831 C85.2214188,5.64465214 85.8792161,6.29369534 86.4695993,7.00583997 C86.6861413,7.26951377 86.8393549,7.60079623 86.9660116,7.94560044 C87.0150399,8.07631053 87.0701968,8.22054235 86.6697985,8.75014357 C86.5084135,8.82451311 86.3470284,8.92141886 86.2469288,8.94620871 C85.6810598,9.09269415 85.4543036,8.91691162 85.2500187,8.69605664 C84.5125503,7.85770917 83.6831538,7.10499934 82.7904289,6.44468803 C82.5350728,6.26439825 82.2817596,6.08636209 82.020275,5.90381869 C81.7710474,5.71000718 81.5626769,5.42379716 81.2787209,5.29083345 C80.0387118,4.67108733 78.7149459,4.29698604 77.4054799,3.9071094 C77.0377671,3.81245726 76.7415541,3.39553715 76.3942698,3.14538508 L76,2.8433997 L76.0347284,2.63832008 Z" id="Fill-13" fill="#8492A6"></path>
                <g id="Group-17" transform="translate(50.000000, 0.000000)">
                    <mask id="mask-6" fill="white">
                        <use xlink:href="#path-5"></use>
                    </mask>
                    <g id="Clip-16"></g>
                    <path d="M0.831,5.0984 C0.846,4.9564 0.831,4.7624 0.888857143,4.6784 C1.17385714,4.2624 1.43742857,3.7484 1.90885714,3.5984 C2.36957143,3.4584 2.796,3.2464 3.201,3.0004 C4.92814286,1.9744 6.90385714,1.5004 8.85385714,1.0544 C9.71314286,0.8544 10.5895714,0.7224 11.4702857,0.6344 C11.7938571,0.6044 12.1324286,0.6544 12.4688571,0.7224 C12.5974286,0.7464 12.7388571,0.7744 12.9317143,1.3604 C12.8974286,1.5284 12.8802857,1.7084 12.8395714,1.8024 C12.6231429,2.3304 12.3317143,2.4384 12.0252857,2.4804 C10.8745714,2.6424 9.73242857,2.8504 8.601,3.1024 C8.28171429,3.1704 7.96671429,3.2644 7.641,3.3164 C7.31742857,3.3744 6.96385714,3.3424 6.65528571,3.4484 C5.30528571,3.9244 3.92957143,4.4624 2.721,5.1024 C2.37171429,5.2664 1.88314286,5.1824 1.44385714,5.2204 L0.936,5.2564 L0.831,5.0984 Z" id="Fill-15" fill="#8492A6" mask="url(#mask-6)"></path>
                </g>
                <path d="M46.8211082,28 C46.6618509,27.9770656 46.4458718,27.9854054 46.3542443,27.927027 C45.8851988,27.6393047 45.3332523,27.368262 45.1870846,26.9074895 C45.0561882,26.4550567 44.8707516,26.0276432 44.62423,25.6169093 C43.5486978,23.8801512 43.1603718,21.849416 43.0251121,19.8374452 C42.9640271,18.9471743 43.0163857,18.0506485 43.1603718,17.1666323 C43.2170935,16.8413811 43.3676244,16.5286395 43.5443346,16.2284076 C43.6076012,16.1137357 43.6817758,15.9865542 44.3493476,16.0011488 C44.5107865,16.0866315 44.6918598,16.1596045 44.7791241,16.2263227 C45.2656225,16.5911878 45.2852569,16.8726552 45.2547144,17.1645474 C45.11291,18.2341235 45.0889123,19.3308039 45.1892662,20.4233144 C45.2241719,20.7339711 45.256896,21.0383728 45.2896201,21.3531994 C45.3048914,21.661771 45.23508,21.9932771 45.317981,22.2997638 C45.6757646,23.6424676 46.2735249,24.9163682 46.8560139,26.1735893 C47.0283609,26.5238598 46.9149173,27.0013119 46.9585495,27.4203856 L47,27.9061775 L46.8211082,28 Z" id="Fill-18" fill="#8492A6"></path>
                <path d="M64.9362865,43.6056959 C64.8088594,43.6938909 64.6629348,43.8423167 64.5601711,43.8595255 C64.0442969,43.9498716 63.485262,44.1176573 63.0803727,43.8724321 C62.6878151,43.6272069 62.27676,43.4357591 61.8307653,43.3131465 C59.933746,42.8054872 58.2710282,41.7170313 56.6596923,40.6070644 C55.9465117,40.118765 55.2744366,39.5659326 54.6352459,38.9765316 C54.4009445,38.7592706 54.2221356,38.4688723 54.0556583,38.1720207 C53.9898894,38.0580125 53.9200101,37.9332488 54.2426883,37.3675098 C54.3906682,37.2707104 54.538648,37.1545511 54.6352459,37.1136802 C55.1798939,36.892117 55.4450245,37.0297873 55.6793259,37.2255373 C56.5404863,37.959062 57.4386416,38.6474135 58.3655709,39.290592 C58.6286461,39.4712843 58.8876108,39.6498255 59.1547966,39.8326689 C59.4075955,40.0305699 59.6151783,40.3123639 59.8967511,40.4607897 C61.1381374,41.1276302 62.4473479,41.6374406 63.7257292,42.1924241 C64.0854024,42.3408499 64.3340908,42.7753718 64.6464926,43.0722234 L65,43.4163992 L64.9362865,43.6056959 Z" id="Fill-20" fill="#8492A6"></path>
                <path d="M90,45.5028128 C89.9259755,45.6156088 89.862837,45.7822 89.7757495,45.8342597 C89.3424887,46.1101762 88.9114051,46.4589763 88.4171831,46.4537704 C87.9382013,46.4450937 87.4635739,46.4815355 86.9954781,46.585655 C85.0120583,47.0351039 82.9589683,47.0108094 80.9298275,46.9917208 C80.0328253,46.9830442 79.1401775,46.9188372 78.2518841,46.8251297 C77.9253056,46.7886879 77.6074359,46.6810978 77.2917434,46.5596251 C77.171998,46.516242 77.0413666,46.4659176 77,45.9349085 C77.0740245,45.7995532 77.1393401,45.6520507 77.2003015,45.5809024 C77.550829,45.1748365 77.8686987,45.1401301 78.1843912,45.1626893 C79.3666053,45.2494555 80.5531737,45.3015152 81.7419193,45.3223391 C82.0772065,45.3258097 82.4124937,45.3223391 82.7477809,45.3396923 C83.0830682,45.3622515 83.4227098,45.4646357 83.757997,45.4420764 C85.2406632,45.3535749 86.7059119,45.150542 88.1733378,45.0065101 C88.5848267,44.9613917 89.0333278,45.1626893 89.4687657,45.2442495 L89.965165,45.343163 L90,45.5028128 Z" id="Fill-22" fill="#8492A6"></path>
                <path d="M114,40.5915293 C113.930482,40.734251 113.871188,40.9418461 113.789402,41.008882 C113.384563,41.3527115 113.00017,41.7981761 112.548305,41.8068259 C112.104617,41.8154757 111.667064,41.8846741 111.249957,42.0511827 C109.477253,42.7496539 107.64321,43.0091479 105.837792,43.4546125 C105.044471,43.649233 104.245016,43.8114167 103.441472,43.9692755 C103.144999,44.0254992 102.830124,43.9930624 102.51116,43.9627881 C102.388482,43.9498134 102.257625,43.9325138 102,43.327028 C102.012268,43.1453822 102.006134,42.9507617 102.032714,42.8448017 C102.181973,42.2501281 102.462089,42.0944317 102.762651,42.0209084 C103.883115,41.73979 105.007667,41.480296 106.134265,41.2467515 C106.453229,41.181878 106.768104,41.0975425 107.093202,41.0629433 C107.41421,41.0240192 107.755665,41.0867302 108.07054,41.008882 C109.456807,40.6542403 110.841029,40.2649994 112.249787,40.0119928 C112.644403,39.9449569 113.079911,40.176339 113.494974,40.2758116 L113.96933,40.3925839 L114,40.5915293 Z" id="Fill-24" fill="#8492A6"></path>
                <path d="M140,39.7618729 C139.904683,39.8831883 139.807199,40.0621781 139.711881,40.1158751 C139.233128,40.374416 138.756541,40.7264294 138.279953,40.6727324 C137.814198,40.6210242 137.346276,40.6190354 136.88052,40.7065416 C134.900517,41.0704876 132.931345,40.9790039 130.95784,40.9988917 C130.089152,41.0068468 129.220463,40.9710488 128.351775,40.9213294 C128.031161,40.9014417 127.708382,40.7980253 127.383436,40.6886426 C127.259957,40.6468783 127.127812,40.6011365 127,39.9965485 C127.051991,39.8374464 127.090985,39.6644229 127.14081,39.5769167 C127.426762,39.085689 127.747375,39.0200594 128.072321,39.0260258 L131.705216,39.0757452 C132.047492,39.0797227 132.389768,39.0697788 132.732045,39.0976217 C133.072155,39.1254646 133.414431,39.2467799 133.754541,39.2308697 C135.257957,39.1652401 136.763539,39.0300033 138.269122,39.0001717 C138.691551,38.9922166 139.107482,39.2626901 139.525579,39.405882 L140,39.574928 L140,39.7618729 Z" id="Fill-26" fill="#8492A6"></path>
                <path d="M164.982629,41.1523368 C164.87406,41.2791127 164.758978,41.4681644 164.659095,41.5148713 C164.153165,41.7506298 163.640722,42.0909229 163.169534,41.9774919 C162.711375,41.866285 162.24453,41.8129057 161.768999,41.8573884 C159.751796,42.0419919 157.793219,41.7239402 155.819442,41.5237678 C154.950894,41.4370265 154.088859,41.3013541 153.224653,41.1478886 C152.909805,41.0922851 152.599298,40.9388196 152.290964,40.78313 C152.17371,40.7253024 152.045599,40.6563542 152,39.9735439 C152.073827,39.8022854 152.134625,39.6132337 152.197595,39.5242682 C152.547186,39.0082682 152.875063,38.9704579 153.196426,39.0127165 L156.803073,39.4708889 C157.143979,39.5153716 157.484884,39.5398371 157.821446,39.6087854 C158.155838,39.6777336 158.481543,39.8512164 158.822449,39.8712336 C160.325038,39.9646474 161.838483,39.9802164 163.341072,40.1136646 C163.762318,40.1514749 164.146651,40.4984404 164.546183,40.7052852 L165,40.9454921 L164.982629,41.1523368 Z" id="Fill-28" fill="#8492A6"></path>
                <path d="M178.915635,43.0059617 C178.883635,43.1200728 178.841635,43.2855339 178.819635,43.3330801 C178.711635,43.565106 178.589635,43.8884207 178.531635,43.8237577 C178.475635,43.7590948 178.409635,43.7476837 178.331635,43.8180522 C177.995635,44.1090354 177.735635,43.9721021 177.455635,43.9378688 C177.331635,43.922654 177.215635,43.8675003 177.103635,43.7971318 C177.061635,43.7705059 177.033635,43.6640023 177.005635,43.551793 C176.997635,43.5099523 176.985635,43.462406 177.069635,42.8899488 C177.103635,42.7416044 177.137635,42.5780452 177.159635,42.4962656 C177.281635,42.0398213 177.335635,41.9884714 177.379635,42.0017843 C177.543635,42.0493306 177.709635,42.094975 177.873635,42.1444232 C177.921635,42.1577361 177.969635,42.1558343 178.013635,42.1900676 C178.055635,42.2262028 178.083635,42.3498231 178.133635,42.3441175 C178.351635,42.3212953 178.581635,42.2319083 178.795635,42.2433194 C178.855635,42.2471231 178.869635,42.5114804 178.905635,42.657923 C178.917635,42.7149785 178.931635,42.7739359 178.945635,42.8309914 C178.935635,42.8899488 178.925635,42.9489062 178.915635,43.0059617" id="Fill-30" fill="#8492A6"></path>
                <polygon id="Fill-32" fill="#8492A6" points="178.937626 37 177 50 184 44.5446816"></polygon>
            </g>
        </g>
    </g>
</svg>