<?xml version="1.0" encoding="UTF-8"?>
<svg width="135px" height="99px" viewBox="0 0 135 99" version="1.1" xmlns="http://www.w3.org/2000/svg" xmlns:xlink="http://www.w3.org/1999/xlink">
    <!-- Generator: Sketch 48.2 (47327) - http://www.bohemiancoding.com/sketch -->
    <title>Page 1@2</title>
    <desc>Created with Sketch.</desc>
    <defs>
        <polygon id="path-1" points="0.2801 0.244 1.2801 0.244 1.2801 8.5149 0.2801 8.5149"></polygon>
        <polygon id="path-3" points="0.40492228 0.581185402 91.4054 0.581185402 91.4054 3 0.40492228 3"></polygon>
    </defs>
    <g id="02a---Content" stroke="none" stroke-width="1" fill="none" fill-rule="evenodd" transform="translate(-653.000000, -437.000000)">
        <g id="Attachment-field" transform="translate(162.000000, 386.000000)">
            <g id="Page-1" transform="translate(491.000000, 50.000000)">
                <path d="M101.5852,99.3383 C102.5732,99.3383 103.5722,98.9103 104.2412,98.1563 C104.5802,97.7853 104.8412,97.3383 104.9932,96.8553 C105.1512,96.3253 105.1692,95.9743 105.2452,95.5713 C105.8812,92.5083 106.1352,91.1063 106.6472,88.8013 C107.1172,87.2133 107.2332,86.0033 107.7392,83.0243 C108.5552,79.5253 108.9832,77.6603 109.3502,74.6313 C110.2242,69.3833 110.8232,65.7843 111.4472,62.0383 C111.7622,60.1663 112.0842,58.2573 112.4492,56.0883 C112.5422,55.5463 112.6372,54.9873 112.7352,54.4093 C112.7602,54.2533 112.7852,54.1453 112.8102,53.9453 C112.8382,53.7473 112.8562,53.5463 112.8492,53.3413 C112.8432,52.9333 112.7762,52.5143 112.6272,52.1173 C112.3452,51.3173 111.7682,50.5953 110.9812,50.1293 C110.5892,49.8923 110.1392,49.7343 109.6702,49.6593 C109.4482,49.6123 109.1722,49.6133 108.9812,49.6073 C108.8002,49.6083 108.6172,49.6083 108.4332,49.6093 C97.3942,49.9553 75.8682,49.6683 60.8812,49.9903 C56.2262,49.8453 53.3412,49.8243 48.9602,49.9513 C47.3612,49.8713 44.6572,49.6723 42.9912,49.8853 C42.0392,49.8223 41.0012,49.7723 39.8862,49.7323 C39.3292,49.7153 38.7522,49.6973 38.1572,49.6803 C37.8592,49.6733 37.5572,49.6663 37.2512,49.6593 L36.7872,49.6503 C36.6032,49.6583 36.3802,49.6523 36.1792,49.6913 C35.3902,49.7373 34.1742,50.4113 33.6232,51.3803 C33.0222,52.3233 33.0352,53.3043 32.9442,53.3793 C32.9522,53.6093 33.0002,53.8403 33.0402,54.0543 L33.1592,54.5513 C33.2312,54.8843 33.3042,55.2173 33.3772,55.5553 C33.5162,56.2343 33.6432,56.9373 33.7752,57.6993 C34.0402,59.2253 34.3242,60.9893 34.7602,63.2753 C35.6602,67.9263 35.6792,69.4313 36.4072,72.3803 C37.0362,76.3143 37.9782,81.4483 39.3492,88.6483 C39.5042,90.2153 39.7852,91.7853 40.0762,93.4113 C40.2162,94.2253 40.3582,95.0533 40.5042,95.8993 C40.5622,96.2643 40.6332,96.8843 40.8982,97.4053 C41.1442,97.9333 41.5152,98.4103 41.9852,98.7913 C42.4162,99.0973 42.8982,99.2923 43.3792,99.3943 C43.6202,99.4483 43.8632,99.4713 44.1012,99.4743 C44.3422,99.4793 44.4742,99.4673 44.6622,99.4653 C45.3602,99.4483 46.0232,99.4323 46.6652,99.4173 C47.9472,99.3923 49.1432,99.3703 50.3662,99.3463 C52.8132,99.3263 55.3662,99.3043 58.9322,99.2743 C63.8022,99.4643 68.9882,99.2023 72.2182,99.4873 C75.3312,99.1703 79.5932,99.4613 83.3882,99.1703 C89.4302,99.2213 95.2722,99.3483 101.5852,99.3383 L101.5852,97.7413 C90.1132,97.8163 76.4672,97.7333 64.5132,97.6293 C60.5652,97.7393 55.0552,97.7923 49.4112,97.8403 C48.0002,97.8533 46.5802,97.8653 45.1742,97.8773 L44.1472,97.8833 C43.8792,97.8773 43.6142,97.8203 43.3682,97.7183 C42.8752,97.5153 42.4612,97.1253 42.2362,96.6493 C42.0222,96.2303 41.9642,95.4933 41.8222,94.8603 C41.6992,94.2153 41.5782,93.5813 41.4602,92.9623 C41.2192,91.7243 40.9892,90.5443 40.7742,89.4423 C40.1562,84.5183 39.4442,81.1133 38.8462,76.2513 C38.1352,72.6003 37.4462,68.8343 36.7662,65.0033 C36.4302,63.0863 36.0922,61.1533 35.7512,59.2123 C35.5842,58.2403 35.4152,57.2663 35.2472,56.2903 L34.9952,54.8253 L34.8682,54.0913 L34.8062,53.7263 C34.8012,53.6383 34.7822,53.5513 34.7812,53.4643 C34.7482,52.7683 35.1272,52.0793 35.7222,51.7153 C36.0192,51.5383 36.3562,51.4413 36.7042,51.4323 L38.1752,51.4343 C40.1652,51.4373 42.1542,51.4413 44.1362,51.4443 C48.1002,51.4433 52.0362,51.4223 55.9002,51.3623 C65.1982,51.6073 69.3852,51.6833 78.4382,51.5373 C84.6542,51.7523 92.6852,51.7033 99.6762,51.8063 C100.9742,51.7423 102.5232,51.7003 104.2102,51.6673 C105.0532,51.6523 105.9312,51.6373 106.8292,51.6223 C107.2782,51.6153 107.7322,51.6093 108.1892,51.6023 C108.6452,51.6003 109.1612,51.5713 109.3852,51.6143 C109.9692,51.6943 110.5032,52.1093 110.7572,52.6603 C110.8892,52.9333 110.9452,53.2373 110.9272,53.5413 C110.9222,53.6633 110.8842,53.9093 110.8502,54.1323 L110.7502,54.7983 C110.4862,56.5653 110.2542,58.2483 110.0852,59.7373 C109.4292,62.8623 108.7962,67.7923 108.2512,71.4563 C107.6582,74.4913 107.4852,75.3743 106.7202,79.2893 C106.3262,82.0883 105.9322,84.8833 105.5362,87.6923 C105.1122,89.1873 104.6702,91.2433 104.2242,93.4303 C104.1142,93.9773 104.0022,94.5323 103.8892,95.0883 L103.7222,95.9233 C103.6662,96.2183 103.6222,96.3673 103.5232,96.5743 C103.1642,97.3533 102.3222,97.7963 101.5852,97.7413 L101.5852,99.3383 Z" id="Fill-1" fill="#4A5775"></path>
                <path d="M92.0271,36.642 C91.7561,36.785 91.3741,36.696 91.4691,36.278 C91.6231,35.873 91.9191,35.456 92.1311,35.131 C93.2261,33.443 94.2191,31.863 95.6461,30.417 C96.7111,29.337 97.6521,28.125 98.6221,26.951 C99.6191,25.744 100.5941,24.519 101.5611,23.288 C101.9651,22.774 102.2791,22.184 102.7101,21.696 L105.3411,18.762 C105.5821,18.503 105.7351,18.309 106.0521,17.993 C106.3511,17.713 106.6961,17.486 107.0671,17.325 C107.8081,16.999 108.6511,16.947 109.4121,17.17 C109.7681,17.273 110.1101,17.424 110.4221,17.624 C110.7501,17.849 110.9561,18.027 111.2081,18.216 L112.6761,19.339 C113.4871,19.973 114.3101,20.592 115.1031,21.247 L122.8991,27.721 L126.7151,31.026 C127.3431,31.552 128.0381,31.997 128.7001,32.481 C130.1061,33.512 131.3491,34.664 132.4711,36.023 C132.8081,36.442 133.1591,36.9 133.2831,37.434 C133.3391,37.668 133.2951,37.922 133.0951,38.138 C133.0231,37.853 132.9501,37.777 132.8481,37.633 C132.7351,37.499 132.6091,37.265 132.1971,36.891 C132.0501,36.765 131.9181,36.679 131.7601,36.582 C131.5951,36.474 131.4401,36.372 131.2921,36.276 C130.9991,36.079 130.7441,35.894 130.5131,35.719 C130.0521,35.368 129.6901,35.053 129.3291,34.743 C129.0171,34.476 128.6591,34.267 128.3401,34.008 L123.0611,29.727 C121.7761,28.704 120.4221,27.765 119.1611,26.714 C117.6141,25.426 116.1521,24.037 114.6191,22.731 L109.8761,18.723 C109.2481,18.211 108.3181,18.108 107.5781,18.468 C107.3951,18.557 107.2191,18.664 107.0681,18.804 C106.9181,18.927 106.7811,19.1 106.6011,19.312 L105.5971,20.504 L104.4971,21.84 L97.6141,30.404 C96.8111,31.39 95.9161,32.301 95.0931,33.272 C94.6711,33.771 94.1431,34.274 93.7621,34.809 C93.2571,35.519 92.8401,36.185 92.0271,36.642" id="Fill-3" fill="#F6F6F8"></path>
                <path d="M87.9055,47.6898 C87.5035,47.9908 87.0415,47.9998 87.3135,47.3678 C87.6575,46.7318 88.1885,46.0298 88.5775,45.4888 C90.5955,42.6798 92.4445,40.0608 94.8035,37.4818 C96.5665,35.5548 98.2155,33.4828 99.8885,31.4548 C101.6085,29.3708 103.3065,27.2688 104.9955,25.1608 C105.3485,24.7198 105.6785,24.2608 106.0125,23.8048 C106.3675,23.2798 107.0165,22.7208 107.7125,22.5078 C108.4195,22.2638 109.1975,22.2528 109.9095,22.4558 C110.2635,22.5628 110.6095,22.7098 110.9135,22.9178 C111.0605,23.0118 111.2265,23.1468 111.3355,23.2378 L111.6565,23.5158 L114.2235,25.7448 L119.3715,30.1868 C120.9855,31.5618 122.6845,32.8458 124.3435,34.1728 C125.7315,35.2818 127.1305,36.3768 128.5015,37.5058 L131.8745,40.2888 L132.7175,40.9848 C132.9685,41.1858 133.3635,41.5118 133.6205,41.8848 C134.1605,42.6288 134.3875,43.5848 134.2475,44.4888 C134.1785,44.9418 134.0205,45.3808 133.7845,45.7728 C133.5255,46.1928 133.2805,46.4418 133.0585,46.7258 L131.6735,48.4178 L128.8985,51.7958 L123.3035,58.4758 C122.4065,59.5668 121.5905,60.7258 120.7335,61.8528 C118.9225,64.2368 116.9755,66.4648 114.8675,68.5338 C114.2775,69.1128 113.7565,69.8208 113.1845,70.4478 C112.9305,70.7278 112.6325,70.9508 112.2445,71.0778 C112.8325,70.2348 112.5095,70.4608 113.7655,68.6198 C115.4655,66.1118 116.5445,64.8388 117.5955,63.5768 C118.0485,63.0328 118.4445,62.4418 118.8885,61.8908 L126.2545,52.7568 C128.0225,50.5398 129.7065,48.2558 131.5015,46.0638 L132.2955,45.0948 C132.4755,44.8568 132.6055,44.5838 132.6585,44.2888 C132.7795,43.6998 132.6115,43.0518 132.2005,42.5928 C132.1545,42.5308 132.0915,42.4838 132.0385,42.4268 L131.8005,42.2188 L131.3075,41.7928 L130.3205,40.9418 L128.3355,39.2528 L111.8185,25.4538 L110.6685,24.5008 L110.3825,24.2658 C110.2995,24.2108 110.2255,24.1408 110.1355,24.0948 C109.9695,23.9838 109.7805,23.9178 109.5925,23.8548 C108.9845,23.6818 108.3065,23.7808 107.7785,24.1158 C107.4945,24.2978 107.3275,24.4708 107.0685,24.8008 L106.3225,25.7218 L103.3385,29.4058 L97.3545,36.7608 C95.9655,38.4608 94.4825,40.0848 93.0725,41.7688 C92.3475,42.6338 91.4855,43.5438 90.8035,44.4438 C89.8965,45.6428 89.1195,46.7458 87.9055,47.6898" id="Fill-5" fill="#4A5775"></path>
                <path d="M108.6716,35.3783 C108.6836,35.2343 108.8676,34.9303 109.0756,34.8533 C109.2556,34.8233 109.3936,34.8893 109.5076,34.9263 C110.1016,35.1213 110.6696,35.2803 111.0086,35.7953 C111.2616,36.1793 111.6346,36.4293 111.9746,36.7133 C112.3246,37.0053 112.6926,37.2743 113.0676,37.5373 C113.2246,37.6463 113.4556,37.6653 113.5876,37.8023 C114.1206,38.3583 114.6116,38.9643 115.1526,39.5093 C115.4056,39.7643 115.7396,39.9243 116.0356,40.1283 C116.2826,40.2993 116.5426,40.4553 116.7736,40.6463 C117.5306,41.2743 118.2846,41.9053 119.0236,42.5543 C119.3916,42.8783 119.7096,43.2623 120.0786,43.5853 C120.2586,43.7413 120.5046,43.8183 120.7186,43.9333 C121.1716,44.1773 121.4906,44.5743 121.6636,45.1443 C121.7126,45.3033 121.8536,45.3643 121.9336,45.4923 C121.9686,45.5483 121.9586,45.6573 121.8636,45.8633 C121.6816,45.8133 121.6626,45.9373 121.2546,45.8433 C120.6926,45.7243 120.4976,45.5193 120.2956,45.3283 C120.2086,45.2463 120.0746,45.2213 119.9796,45.1483 C119.4586,44.7433 118.9526,44.3193 118.4196,43.9293 C118.0336,43.6463 117.5776,43.4473 117.2146,43.1363 C116.7706,42.7543 116.4086,42.2723 115.9776,41.8733 C115.0876,41.0503 114.1756,40.2533 113.2726,39.4483 C113.1466,39.3363 113.0176,39.2293 112.8826,39.1283 C112.0316,38.4843 111.1686,37.8563 110.3316,37.1953 C110.0406,36.9653 109.8266,36.6433 109.5516,36.3943 C109.4106,36.2663 109.3026,36.0643 109.1266,35.9793 C108.8926,35.8653 108.6526,35.7993 108.6716,35.3783" id="Fill-7" fill="#FD8A84"></path>
                <path d="M104.1862,40.8256 C104.1982,40.6816 104.3822,40.3776 104.5902,40.3006 C104.7702,40.2696 104.9082,40.3366 105.0222,40.3736 C105.6162,40.5686 106.1842,40.7276 106.5222,41.2426 C106.7762,41.6266 107.1492,41.8766 107.4892,42.1606 C107.8392,42.4526 108.2072,42.7216 108.5822,42.9846 C108.7392,43.0936 108.9702,43.1126 109.1022,43.2496 C109.6352,43.8056 110.1262,44.4106 110.6672,44.9566 C110.9202,45.2116 111.2542,45.3716 111.5502,45.5756 C111.7972,45.7466 112.0572,45.9026 112.2882,46.0936 C113.0452,46.7216 113.7992,47.3516 114.5382,48.0016 C114.9062,48.3256 115.2242,48.7096 115.5932,49.0326 C115.7732,49.1886 116.0192,49.2646 116.2332,49.3806 C116.6862,49.6246 117.0052,50.0216 117.1782,50.5916 C117.2262,50.7506 117.3682,50.8116 117.4482,50.9386 C117.4832,50.9956 117.4732,51.1046 117.3782,51.3106 C117.1962,51.2606 117.1772,51.3846 116.7692,51.2906 C116.2072,51.1716 116.0122,50.9666 115.8102,50.7756 C115.7232,50.6936 115.5892,50.6686 115.4942,50.5956 C114.9732,50.1906 114.4672,49.7666 113.9342,49.3766 C113.5482,49.0936 113.0922,48.8946 112.7292,48.5836 C112.2852,48.2016 111.9232,47.7196 111.4922,47.3206 C110.6022,46.4976 109.6902,45.7006 108.7872,44.8956 C108.6612,44.7836 108.5322,44.6766 108.3972,44.5756 C107.5462,43.9316 106.6832,43.3036 105.8462,42.6416 C105.5552,42.4126 105.3402,42.0906 105.0662,41.8416 C104.9252,41.7136 104.8172,41.5116 104.6412,41.4266 C104.4072,41.3126 104.1672,41.2466 104.1862,40.8256" id="Fill-9" fill="#FD8A84"></path>
                <path d="M99.6643,46.2411 C99.7183,46.1331 99.9193,45.8441 100.0583,45.7091 C100.1653,45.6171 100.2193,45.6111 100.2683,45.5941 C100.5263,45.5041 100.7823,45.3981 100.7953,45.6361 C100.8053,45.8131 100.9253,45.8481 101.0153,45.9201 C101.1083,45.9931 101.2193,46.0441 101.3353,46.0871 C101.3843,46.1051 101.5043,46.0291 101.5303,46.0761 C101.6353,46.2681 101.7013,46.5121 101.8133,46.6941 C101.8663,46.7791 101.9953,46.7641 102.0873,46.7961 C102.1653,46.8231 102.2553,46.8341 102.3163,46.8821 C102.5193,47.0381 102.7203,47.1991 102.9063,47.3791 C102.9983,47.4681 103.0433,47.6201 103.1373,47.7091 C103.1823,47.7521 103.2913,47.7111 103.3693,47.7111 C103.5343,47.7101 103.5763,47.8711 103.4803,48.2131 C103.4543,48.3081 103.5103,48.2971 103.5113,48.3581 C103.5123,48.3851 103.4703,48.4671 103.3503,48.6511 C103.2683,48.6851 103.2163,48.7811 103.0253,48.8721 C102.7603,49.0041 102.7223,48.9321 102.6763,48.8741 C102.6563,48.8491 102.5913,48.8831 102.5643,48.8671 C102.4153,48.7791 102.2813,48.6701 102.1213,48.5971 C102.0053,48.5441 101.8243,48.5771 101.7303,48.4951 C101.6153,48.3931 101.5793,48.1881 101.4773,48.0691 C101.2673,47.8241 101.0363,47.6051 100.8123,47.3771 C100.7813,47.3461 100.7473,47.3191 100.7073,47.2991 C100.4583,47.1671 100.1983,47.0501 99.9633,46.9011 C99.8813,46.8481 99.8713,46.7001 99.8053,46.6281 C99.7703,46.5911 99.7793,46.4881 99.7123,46.4951 C99.6223,46.5041 99.5143,46.5501 99.6643,46.2411" id="Fill-11" fill="#FD8A84"></path>
                <path d="M53.9865,27.202 C53.5975,26.705 53.1745,26.24 52.8255,25.705 L50.1865,21.684 C49.4985,20.359 47.9305,19.927 46.7185,20.636 C43.9005,22.09 41.0935,23.583 38.3265,25.129 C32.4645,28.404 26.5595,31.605 20.6395,34.777 L16.1965,37.151 L15.0855,37.744 L14.5415,38.035 C14.4075,38.113 14.2785,38.199 14.1665,38.303 C13.7035,38.708 13.4415,39.335 13.4775,39.951 C13.4935,40.26 13.5715,40.556 13.7245,40.838 L14.3165,41.95 L15.4995,44.174 L17.8685,48.619 L26.1455,64.299 C26.6495,65.261 27.1385,66.229 27.6195,67.202 L27.9795,67.931 L28.1585,68.296 C28.2155,68.391 28.2555,68.493 28.3215,68.578 C28.5585,68.942 28.9095,69.235 29.3185,69.413 C29.9675,69.691 30.6745,69.681 31.4815,69.756 C31.1765,70.052 30.8725,70.278 30.4705,70.389 C29.3315,70.716 27.8925,70.211 27.1545,69.076 C26.5435,68.093 26.0625,67.182 25.5385,66.204 L14.0885,44.604 L12.4675,41.555 C11.7595,40.327 11.9235,38.619 12.8945,37.557 C13.1265,37.286 13.4085,37.06 13.7115,36.878 C14.0305,36.689 14.2405,36.601 14.5105,36.458 L16.0475,35.682 C17.0715,35.164 18.0935,34.643 19.1035,34.099 L45.8605,19.663 C46.0265,19.577 46.1525,19.502 46.3535,19.408 C46.5525,19.308 46.7645,19.232 46.9795,19.173 C47.4125,19.057 47.8665,19.029 48.3065,19.087 C49.1885,19.2 50.0075,19.669 50.5445,20.355 C50.8245,20.707 50.9855,21.087 51.1415,21.381 L51.6245,22.331 L52.5975,24.228 L54.0885,27.098 L53.9865,27.202 Z" id="Fill-13" fill="#4A5775"></path>
                <path d="M38.4953,47.6112 L36.0873,43.0912 C35.8223,42.5932 36.2183,42.0022 36.7793,42.0572 L44.5413,42.8232 C45.0423,42.8732 45.3313,43.4172 45.0933,43.8602 L42.8633,48.0082" id="Fill-15" fill="#BAD1F3"></path>
                <path d="M42.9982,48.0809 C42.9872,47.9099 42.9352,47.7189 42.9712,47.5689 C43.1542,46.8199 43.2722,46.0399 43.6692,45.3919 C43.8632,45.0759 44.0492,44.7539 44.2222,44.4269 L44.4742,43.9309 C44.5502,43.7699 44.6592,43.5489 44.6262,43.5579 C44.6092,43.4659 44.5192,43.4279 44.4802,43.4549 L43.3132,43.3969 C42.5302,43.3509 41.7482,43.2889 40.9672,43.2199 L36.7312,42.7949 C36.7502,42.7869 36.7532,42.7659 36.7462,42.7409 L37.1872,43.6039 L38.1162,45.4549 C38.3412,45.9089 38.5092,46.3939 38.6732,46.8789 C38.7362,47.0649 38.8032,47.2659 38.4762,47.6219 C38.3252,47.5949 38.1752,47.5909 38.0772,47.5459 C37.5222,47.2919 37.2422,46.8679 37.0062,46.4149 L35.6872,43.8839 L35.5222,43.5669 L35.4312,43.3879 C35.3782,43.2829 35.3412,43.1689 35.3142,43.0509 C35.2132,42.5679 35.3832,42.0599 35.7282,41.7369 C35.8992,41.5729 36.1172,41.4499 36.3512,41.3909 C36.5632,41.3239 36.8902,41.3519 36.9532,41.3649 L37.6632,41.4409 C38.1972,41.4979 38.7332,41.5449 39.2662,41.6199 C39.7972,41.6939 40.3212,41.8399 40.8552,41.8819 L44.3972,42.1419 L44.6292,42.1599 C44.7692,42.1759 44.9122,42.2079 45.0452,42.2689 C45.3152,42.3849 45.5402,42.5939 45.6852,42.8429 C45.8312,43.0929 45.8962,43.3939 45.8662,43.6899 C45.8482,43.8359 45.8122,43.9839 45.7502,44.1149 L45.6322,44.3519 L44.8142,45.9279 C44.5042,46.5149 44.0092,47.0019 43.5972,47.5349 L43.1252,48.1389 L42.9982,48.0809 Z" id="Fill-17" fill="#7EAFE9"></path>
                <path d="M15.2746,45.3417 C15.0596,44.9377 14.9026,44.6437 14.7196,44.2997 C14.9386,44.1587 15.1236,44.0217 15.3246,43.9137 C16.6646,43.1957 18.0146,42.4977 19.3466,41.7647 C22.7366,39.9017 26.1966,38.1717 29.6076,36.3447 C34.4956,33.7277 39.3836,31.1087 44.2736,28.4927 C46.7446,27.1707 49.2186,25.8537 51.6926,24.5377 C51.7956,24.4827 51.9096,24.4517 52.0816,24.3857 C52.2516,24.7057 52.4166,25.0147 52.6256,25.4067 C52.3496,25.5537 52.0936,25.6887 51.8386,25.8257 C50.2376,26.6897 48.6346,27.5467 47.0386,28.4187 C43.9016,30.1317 40.7676,31.8487 37.6356,33.5707 C34.3996,35.3497 31.1796,37.1597 27.9276,38.9107 C26.0416,39.9267 24.1006,40.8427 22.1946,41.8237 C20.6046,42.6427 19.0356,43.5007 17.4466,44.3207 C16.7626,44.6747 16.0526,44.9787 15.2746,45.3417" id="Fill-19" fill="#4A5775"></path>
                <path d="M21.4069,41.5189 C21.3029,41.5179 21.1589,41.5379 21.1009,41.5109 C20.8099,41.3759 20.4559,41.2749 20.3709,41.0249 C20.2879,40.7809 20.1699,40.5549 19.9949,40.3599 C19.2519,39.5359 18.8119,38.5489 18.2989,37.6019 C18.0729,37.1849 17.8749,36.7519 17.6899,36.3139 C17.6209,36.1529 17.6099,35.9619 17.6019,35.7699 C17.5989,35.6959 17.5959,35.6159 17.9719,35.3529 C18.0939,35.3259 18.2209,35.2869 18.2929,35.2819 C18.6979,35.2539 18.8229,35.3849 18.8999,35.5419 C19.1909,36.1279 19.4849,36.7119 19.7769,37.2969 C19.8599,37.4619 19.9519,37.6229 20.0199,37.7959 C20.0869,37.9689 20.0909,38.1749 20.1869,38.3319 C20.6079,39.0289 21.0759,39.7009 21.4729,40.4099 C21.5849,40.6089 21.5109,40.9079 21.5209,41.1609 C21.5249,41.2569 21.5259,41.3539 21.5289,41.4509 C21.4879,41.4729 21.4479,41.4959 21.4069,41.5189" id="Fill-21" fill="#4A5775"></path>
                <path d="M27.6345,38.2006 C27.5305,38.1996 27.3865,38.2206 27.3285,38.1936 C27.0375,38.0576 26.6835,37.9576 26.5985,37.7066 C26.5155,37.4626 26.3975,37.2366 26.2225,37.0416 C25.4795,36.2176 25.0395,35.2306 24.5265,34.2836 C24.3005,33.8666 24.1025,33.4346 23.9175,32.9956 C23.8485,32.8356 23.8375,32.6436 23.8295,32.4516 C23.8265,32.3776 23.8235,32.2976 24.1995,32.0346 C24.3215,32.0076 24.4485,31.9686 24.5205,31.9636 C24.9255,31.9366 25.0505,32.0676 25.1275,32.2236 C25.4185,32.8096 25.7125,33.3936 26.0045,33.9786 C26.0875,34.1446 26.1795,34.3046 26.2475,34.4776 C26.3145,34.6506 26.3185,34.8566 26.4145,35.0146 C26.8355,35.7106 27.3035,36.3826 27.7005,37.0926 C27.8125,37.2916 27.7385,37.5896 27.7485,37.8426 C27.7525,37.9386 27.7535,38.0356 27.7565,38.1326 C27.7155,38.1556 27.6755,38.1786 27.6345,38.2006" id="Fill-23" fill="#4A5775"></path>
                <path d="M33.8615,34.8827 C33.7575,34.8817 33.6145,34.9027 33.5565,34.8747 C33.2645,34.7397 32.9105,34.6387 32.8255,34.3887 C32.7435,34.1447 32.6255,33.9187 32.4495,33.7237 C31.7075,32.8997 31.2665,31.9127 30.7535,30.9657 C30.5275,30.5487 30.3305,30.1157 30.1445,29.6777 C30.0765,29.5167 30.0645,29.3257 30.0565,29.1337 C30.0535,29.0597 30.0515,28.9797 30.4275,28.7167 C30.5485,28.6897 30.6765,28.6507 30.7475,28.6457 C31.1535,28.6187 31.2775,28.7497 31.3555,28.9057 C31.6465,29.4917 31.9395,30.0757 32.2325,30.6607 C32.3145,30.8267 32.4075,30.9867 32.4745,31.1597 C32.5415,31.3327 32.5465,31.5387 32.6415,31.6957 C33.0635,32.3927 33.5315,33.0647 33.9285,33.7747 C34.0395,33.9727 33.9655,34.2717 33.9755,34.5247 C33.9795,34.6207 33.9805,34.7177 33.9835,34.8147 C33.9425,34.8377 33.9025,34.8597 33.8615,34.8827" id="Fill-25" fill="#4A5775"></path>
                <path d="M40.0891,31.5648 C39.9851,31.5638 39.8421,31.5838 39.7841,31.5568 C39.4921,31.4208 39.1381,31.3208 39.0531,31.0708 C38.9711,30.8268 38.8531,30.6008 38.6771,30.4058 C37.9341,29.5808 37.4941,28.5948 36.9811,27.6468 C36.7551,27.2308 36.5581,26.7978 36.3721,26.3598 C36.3041,26.1988 36.2921,26.0078 36.2841,25.8148 C36.2811,25.7418 36.2781,25.6618 36.6551,25.3988 C36.7761,25.3718 36.9041,25.3318 36.9751,25.3278 C37.3811,25.2998 37.5051,25.4308 37.5831,25.5878 C37.8741,26.1738 38.1671,26.7578 38.4601,27.3428 C38.5421,27.5078 38.6351,27.6678 38.7021,27.8418 C38.7691,28.0148 38.7741,28.2208 38.8691,28.3778 C39.2911,29.0748 39.7591,29.7468 40.1561,30.4558 C40.2671,30.6548 40.1931,30.9528 40.2031,31.2068 C40.2071,31.3018 40.2081,31.3988 40.2111,31.4958 L40.0891,31.5648 Z" id="Fill-27" fill="#4A5775"></path>
                <path d="M46.3166,28.2465 C46.2126,28.2455 46.0686,28.2665 46.0106,28.2385 C45.7196,28.1035 45.3656,28.0025 45.2806,27.7525 C45.1986,27.5085 45.0806,27.2825 44.9046,27.0875 C44.1616,26.2635 43.7216,25.2765 43.2086,24.3295 C42.9826,23.9125 42.7856,23.4795 42.5996,23.0415 C42.5316,22.8805 42.5196,22.6895 42.5116,22.4975 C42.5086,22.4235 42.5056,22.3435 42.8816,22.0805 C43.0036,22.0535 43.1316,22.0145 43.2026,22.0095 C43.6086,21.9825 43.7326,22.1135 43.8106,22.2695 C44.1006,22.8555 44.3946,23.4395 44.6866,24.0245 C44.7696,24.1905 44.8626,24.3505 44.9296,24.5235 C44.9966,24.6965 45.0016,24.9025 45.0966,25.0605 C45.5176,25.7565 45.9866,26.4285 46.3836,27.1385 C46.4946,27.3365 46.4206,27.6355 46.4306,27.8885 C46.4346,27.9845 46.4356,28.0815 46.4386,28.1785 C46.3976,28.2015 46.3576,28.2235 46.3166,28.2465" id="Fill-29" fill="#4A5775"></path>
                <path d="M64.3693,47.4281 C64.1803,47.4421 63.8733,47.2451 63.8913,46.9681 C63.9563,46.7201 64.1293,46.5111 64.2483,46.3421 C64.6973,45.7031 65.1113,45.0881 65.6513,44.5731 C65.8523,44.3821 66.1203,44.3081 66.3743,44.3491 L66.4063,44.3541 C66.6833,44.4011 66.9603,44.4701 67.2383,44.5711 C67.9953,44.8481 68.7963,44.9491 69.5843,45.0961 C70.3933,45.2471 71.2083,45.3691 72.0233,45.4821 C72.3653,45.5291 72.7273,45.4611 73.0593,45.5441 C74.1623,45.8391 75.2683,46.1351 76.3713,46.4301 L75.6743,46.8171 L75.9853,46.1601 C76.2573,45.5741 76.4143,44.9381 76.6253,44.3251 C76.8013,43.8131 76.9593,43.2941 77.1603,42.7921 L79.1673,37.8551 C79.4703,37.1301 79.8313,36.4281 80.1463,35.7081 L80.1603,35.6771 C80.2643,35.4401 80.5133,35.3111 80.7573,35.3501 L81.0503,35.3971 C81.4763,35.4611 81.9163,35.4221 82.3493,35.4321 C83.2663,35.4551 84.1453,35.6771 84.9883,36.1231 C85.2233,36.2481 85.4943,36.2411 85.7443,36.3231 C85.8553,36.3591 85.9523,36.4631 86.0273,36.6951 C85.7073,36.7291 85.8073,36.8511 85.1123,36.9471 C84.1653,37.0871 83.6663,36.9861 83.1733,36.9011 C82.9603,36.8651 82.7383,36.9011 82.5233,36.8761 L80.5843,36.6361 L81.3513,36.1871 L80.7823,37.7051 C80.4883,38.5181 80.2963,39.3701 79.9683,40.1691 C79.5663,41.1481 79.0433,42.0781 78.6213,43.0501 L76.8233,47.2731 L76.8123,47.2981 C76.7003,47.5611 76.4193,47.7011 76.1493,47.6461 L74.2213,47.2521 C73.9233,47.1911 73.6253,47.1361 73.3253,47.0881 L67.6193,46.1771 C67.1193,46.0921 66.6323,45.9381 66.1403,45.8091 L66.6553,45.6591 L66.2803,45.9701 C66.0213,46.1961 65.6823,46.3901 65.4603,46.6571 C65.1663,47.0131 64.9343,47.3661 64.3693,47.4281" id="Fill-31" fill="#4A5775"></path>
                <path d="M56.1555,26.3514 C56.1135,26.5804 55.8595,26.9044 55.5515,26.6254 C55.2805,26.2944 55.1685,25.7614 55.1605,25.3594 C55.1115,24.3154 55.5835,23.2294 56.4645,22.5614 C56.6695,22.4014 56.9525,22.2464 57.1445,22.1554 L57.7265,21.8894 C58.1205,21.7194 58.5265,21.5644 58.9515,21.4314 C60.2205,21.0314 61.4375,20.4584 62.6645,19.9324 C63.9255,19.3924 65.1755,18.8244 66.4205,18.2484 C66.9405,18.0074 67.4155,17.6584 67.9475,17.4534 L74.4135,15.0164 C75.4165,14.6224 76.3735,14.1134 77.3515,13.6584 C78.1695,13.2774 78.9795,12.8794 79.8085,12.5234 C80.1455,12.3874 80.4615,12.2154 80.9485,12.0834 C81.4005,11.9674 81.8755,11.9424 82.3365,12.0104 C83.2585,12.1414 84.1185,12.6514 84.6715,13.4044 C84.8095,13.5904 84.9305,13.7914 85.0275,14.0014 C85.1325,14.2154 85.1815,14.3534 85.2605,14.5344 L85.6945,15.5564 L86.5555,17.6024 L88.1925,21.7144 C88.4705,22.3754 88.8445,22.9964 89.1725,23.6374 C89.8655,24.9934 90.3645,26.4134 90.6525,27.9124 C90.7325,28.3314 90.9485,28.7244 91.0755,29.1384 C91.1315,29.3224 91.1215,29.5264 90.9885,29.7734 C90.7125,29.3264 90.6895,29.5464 90.0705,28.5844 C89.2205,27.2824 88.9165,26.4914 88.6035,25.7174 C88.4685,25.3844 88.2655,25.0804 88.1205,24.7524 L85.7145,19.3024 C85.1185,17.9914 84.4245,16.7234 83.8635,15.3984 L83.6115,14.7874 C83.5455,14.6314 83.4855,14.5054 83.3995,14.3754 C83.2325,14.1234 83.0085,13.9034 82.7385,13.7404 C82.1785,13.4234 81.5265,13.3464 80.8425,13.6604 L70.7475,17.8484 L69.3545,18.4484 L60.5645,22.3814 C59.5615,22.8264 58.4385,23.1754 57.4825,23.5854 C57.0725,23.7704 56.6275,24.1024 56.4535,24.5504 C56.2405,25.1634 56.2885,25.6394 56.1555,26.3514" id="Fill-33" fill="#F6F6F8"></path>
                <path d="M59.7746,47.1469 C59.8006,47.5069 59.5606,47.8389 59.2026,47.4909 C58.8786,47.0909 58.6026,46.5419 58.3786,46.1329 C57.2156,44.0099 56.1136,42.0559 55.3156,39.7459 C54.7196,38.0209 53.9466,36.3409 53.2226,34.6539 L52.9396,33.9939 C52.8326,33.7199 52.7406,33.4359 52.7046,33.1409 C52.6116,32.5529 52.6846,31.9459 52.8846,31.3879 C53.0866,30.8299 53.4376,30.3269 53.8816,29.9269 C54.1116,29.7359 54.3556,29.5569 54.6246,29.4269 C54.9046,29.2829 55.0716,29.2189 55.3006,29.1109 C56.0196,28.7859 56.6916,28.3509 57.4196,28.0619 L66.2616,24.5989 C67.6346,24.0459 68.9636,23.3759 70.3136,22.7609 C71.4416,22.2469 72.5626,21.7139 73.7016,21.2249 L76.5056,20.0189 L77.9086,19.4169 C78.1146,19.3279 78.4476,19.1859 78.7526,19.1219 C79.0656,19.0559 79.3866,19.0199 79.7066,19.0409 C80.9856,19.0949 82.2066,19.9009 82.7306,21.0719 L83.9356,23.9019 L86.2296,29.5369 C86.6136,30.4449 87.0946,31.3129 87.5286,32.2009 C88.4476,34.0799 89.1706,36.0159 89.6786,38.0279 C89.8206,38.5919 90.1036,39.1379 90.2936,39.6999 C90.3786,39.9499 90.3956,40.2179 90.2886,40.5239 C89.9346,39.8969 89.9406,40.1839 89.1546,38.8339 C88.0776,37.0039 87.6476,35.9219 87.2106,34.8609 C87.0216,34.4049 86.7656,33.9779 86.5666,33.5249 L83.2766,26.0239 C82.8726,25.1209 82.4426,24.2289 82.0176,23.3349 L81.3876,21.9909 C81.2016,21.5689 81.0486,21.3639 80.7786,21.1249 C80.4706,20.8539 80.0706,20.6809 79.6556,20.6409 C79.4476,20.6169 79.2356,20.6319 79.0296,20.6789 C78.9196,20.6969 78.8376,20.7339 78.7116,20.7739 L78.2876,20.9399 C77.1586,21.3829 76.0276,21.8219 74.9066,22.2879 L61.0506,28.0969 L59.1356,28.9229 L56.1116,30.2669 L55.3556,30.6029 C55.1526,30.7019 54.9696,30.8059 54.8066,30.9489 C54.4796,31.2279 54.2416,31.6049 54.1226,32.0149 C54.0056,32.4279 54.0136,32.8659 54.1416,33.2699 C54.2006,33.4459 54.3216,33.7119 54.4346,33.9649 L54.7686,34.7219 L56.1006,37.7509 C56.7146,39.1559 57.2186,40.6079 57.8096,42.0229 C58.1136,42.7499 58.3786,43.5859 58.7326,44.2919 C59.2046,45.2299 59.6696,46.0519 59.7746,47.1469" id="Fill-35" fill="#4A5775"></path>
                <path d="M67.0617,36.4149 C66.2897,34.6249 67.1147,32.5499 68.9037,31.7779 C70.6937,31.0059 72.7697,31.8309 73.5407,33.6209 C74.3127,35.4099 73.4877,37.4849 71.6987,38.2569 C69.9087,39.0289 67.8337,38.2049 67.0617,36.4149" id="Fill-37" fill="#CFC9F1"></path>
                <path d="M67.3469,36.1815 C67.2679,36.3125 66.9749,36.5275 66.7419,36.4525 C66.5499,36.3465 66.4419,36.1455 66.3639,35.9915 C65.9239,35.2145 65.7549,34.1845 66.2899,33.3585 C66.6889,32.7675 67.0599,32.1705 67.6149,31.7295 C68.1769,31.2835 68.8249,30.9385 69.5389,30.7805 C69.8319,30.7135 70.1369,30.5535 70.4509,30.5905 C71.7159,30.7235 72.8149,31.4595 73.4799,32.4145 C73.7939,32.8555 74.1299,33.2995 74.3209,33.8285 C74.4839,34.2645 74.5769,34.7405 74.5559,35.2135 C74.4969,36.7705 73.4939,38.2555 72.0599,38.8505 C71.3539,39.1585 70.5609,39.1855 69.8309,39.0835 C69.4739,39.0415 69.0999,39.0345 68.7299,38.9485 C67.9549,38.7485 67.3139,38.1085 67.1619,37.3275 C67.1209,37.1115 66.9699,36.9595 66.9239,36.7545 C66.9029,36.6645 66.9459,36.5465 67.1149,36.3915 C67.2899,36.5495 67.3279,36.4645 67.7229,36.7315 C68.2649,37.0545 68.4609,37.2265 68.7009,37.4175 C68.8039,37.4945 68.9469,37.5015 69.0599,37.5535 C69.6859,37.8445 70.4209,37.9145 71.0639,37.6825 C71.5429,37.5215 71.8789,37.1385 72.2019,36.8235 C72.5909,36.4255 72.9929,35.9345 73.0929,35.3185 C73.3189,34.0665 72.5339,32.6705 71.2639,32.2205 C71.0929,32.1505 70.9099,32.1075 70.7269,32.0895 C69.5529,31.9535 68.3879,32.6055 67.8589,33.5905 C67.6729,33.9245 67.4359,34.2685 67.3689,34.6755 C67.3319,34.8785 67.2499,35.1175 67.3119,35.3275 C67.4179,35.6075 67.5469,35.7905 67.3469,36.1815" id="Fill-39" fill="#AAA0E7"></path>
                <path d="M78.6897,2.4091 C78.7677,2.3971 78.8467,2.3971 78.9237,2.4091 C79.2187,2.4891 79.4907,2.6361 79.7177,2.8401 C79.8977,3.0681 80.1047,3.2751 80.3327,3.4551 C81.2667,4.2171 82.1477,5.0391 82.9727,5.9171 C83.3487,6.2921 83.7107,6.6801 84.0677,7.0741 C84.1957,7.2261 84.3077,7.3911 84.4007,7.5661 C84.4377,7.6341 84.4807,7.7081 84.3267,7.9481 C84.2587,7.9761 84.1897,7.9991 84.1177,8.0151 C83.8867,8.0551 83.6517,7.9691 83.5017,7.7881 L81.9757,6.2121 C81.8347,6.0651 81.6807,5.9231 81.5447,5.7631 C81.4097,5.6031 81.3057,5.4251 81.1517,5.2831 C80.4867,4.6681 79.8037,4.0531 79.1517,3.4371 C78.9867,3.2301 78.8507,3.0021 78.7457,2.7601 L78.5977,2.5021 L78.6897,2.4091 Z" id="Fill-41" fill="#EDEEEF"></path>
                <path d="M79.133,8.0892 C79.122,8.0162 79.122,7.9412 79.133,7.8672 C79.194,7.5962 79.323,7.3442 79.508,7.1352 C79.711,6.9742 79.893,6.7882 80.05,6.5812 C80.735,5.7262 81.481,4.9222 82.284,4.1752 C82.622,3.8312 82.973,3.5052 83.336,3.1842 C83.474,3.0692 83.625,2.9702 83.785,2.8892 C83.847,2.8522 83.914,2.8212 84.148,2.9752 C84.178,3.0412 84.203,3.1092 84.222,3.1782 C84.264,3.3822 84.191,3.5922 84.031,3.7262 L82.604,5.1102 C82.468,5.2402 82.339,5.3752 82.197,5.4982 C82.044,5.6082 81.896,5.7242 81.755,5.8492 C81.188,6.4642 80.647,7.0802 80.074,7.6952 C79.887,7.8422 79.68,7.9632 79.459,8.0522 L79.219,8.1812 L79.133,8.0892 Z" id="Fill-43" fill="#EDEEEF"></path>
                <g id="Group-47" transform="translate(81.000000, 0.756000)">
                    <mask id="mask-2" fill="white">
                        <use xlink:href="#path-1"></use>
                    </mask>
                    <g id="Clip-46"></g>
                    <path d="M0.6931,0.2439 C0.7481,0.3059 0.8341,0.3609 0.8591,0.4229 C1.0121,0.7009 1.1001,1.0099 1.1171,1.3269 C1.0851,1.6239 1.0851,1.9229 1.1171,2.2199 C1.2381,3.4769 1.2791,4.7409 1.2401,6.0039 C1.2401,6.5579 1.2401,7.1179 1.1971,7.6719 C1.1811,7.8799 1.1441,8.0859 1.0871,8.2869 C1.0871,8.3669 1.0441,8.4469 0.7671,8.5149 C0.6981,8.4859 0.6321,8.4509 0.5701,8.4109 C0.3871,8.2619 0.2921,8.0299 0.3181,7.7949 L0.3181,5.4989 L0.3181,4.8529 C0.3181,4.6379 0.3851,4.4229 0.3791,4.2069 C0.3791,3.2529 0.2931,2.3059 0.2801,1.3519 C0.3111,1.0779 0.3751,0.8089 0.4711,0.5519 L0.5511,0.2499 L0.6931,0.2439 Z" id="Fill-45" fill="#EDEEEF" mask="url(#mask-2)"></path>
                </g>
                <path d="M77.6189,5.2523 C77.6749,5.1973 77.7299,5.1103 77.7909,5.0923 C78.0599,4.9433 78.3589,4.8593 78.6649,4.8463 C78.9519,4.8783 79.2409,4.8783 79.5269,4.8463 C80.7379,4.7353 81.9549,4.7043 83.1699,4.7533 C83.7049,4.7533 84.2409,4.7533 84.7759,4.8093 C84.9849,4.8263 85.1909,4.8653 85.3909,4.9263 C85.4649,4.9263 85.5449,4.9693 85.6069,5.2523 C85.5789,5.3203 85.5469,5.3863 85.5089,5.4493 C85.3699,5.6283 85.1489,5.7233 84.9239,5.7013 L82.7149,5.6523 L82.0989,5.6523 C81.9019,5.6523 81.6869,5.5783 81.4839,5.5853 C80.5669,5.5853 79.6379,5.6583 78.7329,5.6583 C78.4689,5.6263 78.2109,5.5603 77.9639,5.4613 L77.6749,5.3813 L77.6189,5.2523 Z" id="Fill-48" fill="#EDEEEF"></path>
                <path d="M1.071,57.4481 C1.148,57.4361 1.227,57.4361 1.304,57.4481 C1.599,57.5281 1.871,57.6751 2.098,57.8791 C2.279,58.1071 2.486,58.3141 2.714,58.4941 C3.647,59.2561 4.529,60.0781 5.354,60.9561 C5.729,61.3311 6.092,61.7191 6.449,62.1131 C6.577,62.2651 6.688,62.4301 6.781,62.6051 C6.819,62.6731 6.862,62.7461 6.708,62.9871 C6.64,63.0151 6.57,63.0381 6.499,63.0541 C6.267,63.0941 6.032,63.0081 5.883,62.8261 L4.357,61.2511 C4.216,61.1031 4.062,60.9621 3.926,60.8021 C3.791,60.6421 3.686,60.4641 3.532,60.3221 C2.868,59.7071 2.185,59.0911 1.532,58.4761 C1.368,58.2691 1.232,58.0411 1.126,57.7991 L0.979,57.5401 L1.071,57.4481 Z" id="Fill-50" fill="#EDEEEF"></path>
                <path d="M1.5139,63.1283 C1.5029,63.0553 1.5029,62.9803 1.5139,62.9063 C1.5749,62.6343 1.7039,62.3823 1.8889,62.1743 C2.0919,62.0133 2.2739,61.8273 2.4309,61.6203 C3.1159,60.7653 3.8629,59.9613 4.6649,59.2143 C5.0029,58.8703 5.3539,58.5443 5.7169,58.2233 C5.8549,58.1083 6.0059,58.0093 6.1659,57.9283 C6.2279,57.8913 6.2959,57.8603 6.5299,58.0143 C6.5589,58.0803 6.5839,58.1483 6.6029,58.2173 C6.6449,58.4213 6.5719,58.6313 6.4119,58.7653 L4.9849,60.1493 C4.8489,60.2793 4.7199,60.4143 4.5779,60.5373 C4.4249,60.6463 4.2769,60.7633 4.1359,60.8883 C3.5689,61.5033 3.0279,62.1193 2.4549,62.7343 C2.2679,62.8813 2.0609,63.0023 1.8399,63.0913 L1.5999,63.2203 L1.5139,63.1283 Z" id="Fill-52" fill="#EDEEEF"></path>
                <path d="M4.0739,56.0389 C4.1289,56.1009 4.2159,56.1559 4.2399,56.2179 C4.3929,56.4959 4.4819,56.8049 4.4989,57.1219 C4.4669,57.4189 4.4669,57.7179 4.4989,58.0149 C4.6189,59.2719 4.6599,60.5359 4.6219,61.7989 C4.6219,62.3529 4.6219,62.9129 4.5779,63.4669 C4.5619,63.6749 4.5249,63.8809 4.4679,64.0819 C4.4679,64.1619 4.4249,64.2419 4.1479,64.3099 C4.0789,64.2809 4.0129,64.2459 3.9509,64.2049 C3.7679,64.0559 3.6729,63.8249 3.6989,63.5899 L3.6989,61.2939 L3.6989,60.6479 C3.6989,60.4329 3.7659,60.2179 3.7599,60.0019 C3.7599,59.0479 3.6739,58.1009 3.6609,57.1469 C3.6919,56.8729 3.7559,56.6039 3.8519,56.3469 L3.9319,56.0449 L4.0739,56.0389 Z" id="Fill-54" fill="#EDEEEF"></path>
                <path d="M0.0002,60.2914 C0.0552,60.2354 0.1102,60.1494 0.1722,60.1314 C0.4402,59.9824 0.7402,59.8984 1.0462,59.8854 C1.3322,59.9174 1.6212,59.9174 1.9082,59.8854 C3.1192,59.7744 4.3352,59.7434 5.5512,59.7924 C6.0862,59.7924 6.6222,59.7924 7.1572,59.8484 C7.3662,59.8654 7.5722,59.9044 7.7722,59.9654 C7.8462,59.9654 7.9262,60.0084 7.9872,60.2914 C7.9602,60.3594 7.9272,60.4254 7.8892,60.4884 C7.7502,60.6674 7.5302,60.7624 7.3052,60.7404 L5.0952,60.6914 L4.4802,60.6914 C4.2832,60.6914 4.0672,60.6174 3.8642,60.6234 C2.9482,60.6234 2.0182,60.6974 1.1142,60.6974 C0.8502,60.6654 0.5912,60.5994 0.3442,60.5004 L0.0552,60.4204 L0.0002,60.2914 Z" id="Fill-56" fill="#EDEEEF"></path>
                <path d="M125.2614,77.2059 C125.3384,77.1939 125.4174,77.1939 125.4944,77.2059 C125.7894,77.2849 126.0614,77.4329 126.2884,77.6369 C126.4694,77.8649 126.6764,78.0709 126.9044,78.2519 C127.8374,79.0129 128.7194,79.8349 129.5444,80.7129 C129.9194,81.0889 130.2824,81.4769 130.6394,81.8709 C130.7674,82.0219 130.8784,82.1869 130.9714,82.3629 C131.0094,82.4309 131.0524,82.5039 130.8984,82.7449 C130.8304,82.7729 130.7604,82.7949 130.6884,82.8119 C130.4574,82.8519 130.2224,82.7659 130.0734,82.5839 L128.5474,81.0089 C128.4064,80.8609 128.2524,80.7199 128.1164,80.5599 C127.9814,80.3999 127.8764,80.2209 127.7224,80.0799 C127.0584,79.4639 126.3754,78.8489 125.7224,78.2329 C125.5584,78.0259 125.4224,77.7989 125.3164,77.5569 L125.1684,77.2979 L125.2614,77.2059 Z" id="Fill-58" fill="#EDEEEF"></path>
                <path d="M125.7043,82.8856 C125.6933,82.8126 125.6933,82.7376 125.7043,82.6646 C125.7653,82.3926 125.8943,82.1406 126.0793,81.9316 C126.2823,81.7706 126.4643,81.5846 126.6213,81.3786 C127.3063,80.5226 128.0533,79.7186 128.8553,78.9716 C129.1933,78.6276 129.5443,78.3016 129.9073,77.9816 C130.0453,77.8656 130.1963,77.7666 130.3563,77.6856 C130.4183,77.6486 130.4863,77.6176 130.7203,77.7716 C130.7493,77.8376 130.7743,77.9056 130.7933,77.9746 C130.8353,78.1786 130.7623,78.3886 130.6023,78.5226 L129.1753,79.9066 C129.0393,80.0366 128.9103,80.1716 128.7683,80.2946 C128.6153,80.4046 128.4673,80.5216 128.3263,80.6456 C127.7593,81.2606 127.2183,81.8766 126.6453,82.4916 C126.4583,82.6386 126.2513,82.7596 126.0303,82.8486 L125.7903,82.9776 L125.7043,82.8856 Z" id="Fill-60" fill="#EDEEEF"></path>
                <path d="M128.2643,75.7968 C128.3193,75.8588 128.4063,75.9138 128.4303,75.9748 C128.5833,76.2538 128.6723,76.5628 128.6883,76.8798 C128.6573,77.1758 128.6573,77.4758 128.6883,77.7718 C128.8093,79.0298 128.8503,80.2938 128.8123,81.5568 C128.8123,82.1098 128.8123,82.6708 128.7683,83.2248 C128.7523,83.4328 128.7153,83.6388 128.6583,83.8398 C128.6583,83.9198 128.6153,83.9998 128.3383,84.0678 C128.2693,84.0388 128.2033,84.0038 128.1413,83.9628 C127.9583,83.8138 127.8633,83.5818 127.8893,83.3478 L127.8893,81.0518 L127.8893,80.4058 C127.8893,80.1908 127.9563,79.9748 127.9503,79.7598 C127.9503,78.8058 127.8643,77.8588 127.8513,76.9038 C127.8823,76.6308 127.9463,76.3618 128.0423,76.1048 L128.1223,75.8028 L128.2643,75.7968 Z" id="Fill-62" fill="#EDEEEF"></path>
                <path d="M124.1906,80.0487 C124.2456,79.9937 124.3006,79.9067 124.3626,79.8887 C124.6306,79.7397 124.9296,79.6557 125.2366,79.6427 C125.5226,79.6747 125.8116,79.6747 126.0986,79.6427 C127.3096,79.5317 128.5256,79.5017 129.7416,79.5497 C130.2766,79.5497 130.8126,79.5497 131.3476,79.6057 C131.5566,79.6227 131.7626,79.6617 131.9626,79.7227 C132.0366,79.7227 132.1166,79.7657 132.1776,80.0487 C132.1506,80.1167 132.1176,80.1827 132.0796,80.2457 C131.9406,80.4247 131.7206,80.5197 131.4946,80.4977 L129.2856,80.4487 L128.6706,80.4487 C128.4736,80.4487 128.2576,80.3747 128.0546,80.3817 C127.1376,80.3817 126.2086,80.4547 125.3046,80.4547 C125.0406,80.4227 124.7816,80.3567 124.5346,80.2577 L124.2456,80.1777 L124.1906,80.0487 Z" id="Fill-64" fill="#EDEEEF"></path>
                <path d="M76.8571,85.8451 L82.7841,85.8451 C85.5521,85.5951 87.7241,83.2461 87.7241,80.4121 C87.7241,77.5621 85.5261,75.2281 82.7351,75.0011 C82.2501,69.9981 78.0341,66.0881 72.9051,66.0881 C68.4471,66.0881 64.6821,69.0411 63.4521,73.0961 C60.4101,73.6011 58.0871,76.2381 58.0871,79.4241 C58.0871,82.8031 60.6991,85.5921 64.0141,85.8451 L68.9531,85.8451" id="Fill-66" fill="#F6F6F8"></path>
                <path d="M77.2258,86.1937 C76.8718,86.0747 76.6548,85.7237 77.1328,85.5317 C77.6478,85.3937 78.2848,85.3577 78.7678,85.3137 C80.1398,85.1887 81.4558,85.0607 82.7848,85.0007 L82.7078,85.0047 C83.6158,84.8557 84.4848,84.5217 85.2728,83.9447 C86.6158,83.0007 87.2458,81.1757 86.9228,79.5537 C86.6328,77.8737 85.3088,76.4337 83.6898,75.9827 C83.3578,75.8787 83.0068,75.8607 82.6658,75.8537 C82.3168,75.8457 82.0268,75.6077 81.9388,75.2867 L81.8838,75.0837 C81.7828,74.7157 81.7428,74.3437 81.6468,73.9827 C81.1248,71.0427 78.9828,68.3687 76.0908,67.2387 C74.7398,66.7197 73.2408,66.6037 71.8238,66.8237 C70.6348,66.9937 69.4878,67.3917 68.4548,67.9837 C66.4038,69.1147 64.8348,71.0687 64.1418,73.3057 L64.1398,73.3107 C64.0568,73.5797 63.8298,73.7637 63.5698,73.8067 C62.0808,74.0507 60.6978,74.9047 59.8168,76.1427 C58.7048,77.6527 58.3708,79.7527 59.0578,81.5587 C59.3958,82.4337 60.0318,83.1647 60.7418,83.7307 C61.7128,84.5037 62.8478,84.9887 64.0628,85.2057 L64.0148,85.2047 C64.7868,85.2657 65.5558,85.3547 66.3228,85.4737 C66.9178,85.5667 67.5548,85.5237 68.1688,85.5707 C68.4418,85.5917 68.7048,85.6827 68.9528,85.9027 C68.2098,85.9787 68.4858,86.0867 66.8758,86.2747 C65.6718,86.4197 64.7638,86.4747 64.0148,86.4917 L63.9748,86.4907 L63.9648,86.4897 C63.2488,86.4337 62.6648,86.2907 62.1138,86.0827 C61.5908,85.8787 61.0478,85.6897 60.5748,85.3687 C57.8868,83.6727 56.6678,80.0547 57.7428,77.0477 C58.4608,74.8797 60.2448,72.9867 62.5378,72.3757 C62.7888,72.3007 63.0498,72.2627 63.3048,72.2087 L62.5908,72.8357 C63.3528,70.4407 65.0308,68.4287 67.0928,67.1107 C69.4408,65.5977 72.3828,65.0777 75.0838,65.6867 C77.7938,66.2757 80.2138,67.9887 81.6828,70.3147 C82.0838,70.9627 82.4348,71.6437 82.6998,72.3597 C83.0328,73.1857 83.2008,74.0647 83.3248,74.9437 L82.7828,74.4107 C84.8628,74.5487 86.8218,75.8517 87.7538,77.7387 C88.7218,79.6137 88.5768,81.9897 87.4238,83.7627 C86.4498,85.2877 84.7338,86.2297 82.9838,86.3967 C82.9358,86.4017 82.8888,86.4077 82.8358,86.4147 C82.8208,86.4167 82.7988,86.4167 82.7848,86.4167 C82.0048,86.4007 81.1518,86.3247 80.3768,86.3677 C79.2888,86.4287 78.3138,86.5307 77.2258,86.1937" id="Fill-68" fill="#4A5775"></path>
                <path d="M72.7517,73.0028 C72.8427,73.0798 72.9797,73.1558 73.0177,73.2338 C73.2107,73.6288 73.4767,74.0228 73.4337,74.4238 C73.3917,74.8158 73.3897,75.2088 73.4527,75.5998 C73.7207,77.2588 73.6447,78.9188 73.6527,80.5778 C73.6557,81.3078 73.6267,82.0388 73.5847,82.7688 C73.5687,83.0368 73.4897,83.3048 73.4067,83.5718 C73.3747,83.6738 73.3387,83.7848 72.8837,83.8698 C72.7627,83.8188 72.6317,83.7798 72.5667,83.7348 C72.1967,83.4788 72.1477,83.2108 72.1537,82.9408 C72.1717,81.9338 72.1877,80.9268 72.2047,79.9208 C72.2097,79.6358 72.2027,79.3518 72.2247,79.0668 C72.2477,78.7838 72.3407,78.5008 72.3307,78.2168 C72.2857,76.9648 72.1887,75.7128 72.1717,74.4608 C72.1667,74.1098 72.3727,73.7588 72.4827,73.4068 C72.5247,73.2738 72.5687,73.1408 72.6117,73.0078 C72.6587,73.0058 72.7057,73.0038 72.7517,73.0028" id="Fill-70" fill="#4A5775"></path>
                <path d="M77.9528,77.8339 C77.8178,77.8279 77.6528,77.8549 77.5538,77.8119 C77.0578,77.5889 76.5138,77.4189 76.1788,77.0239 C75.8518,76.6379 75.4958,76.2799 75.0958,75.9679 C74.1288,75.2169 73.2408,74.3869 72.3748,73.5329 L73.4348,73.5329 L71.4868,75.4789 C70.8248,76.1449 70.1408,76.7879 69.4478,77.4219 C69.1928,77.6549 68.8928,77.8419 68.5908,78.0259 C68.4748,78.0969 68.3488,78.1719 67.9508,77.9269 C67.9108,77.7959 67.8538,77.6679 67.8488,77.5809 C67.8198,77.0849 68.0298,76.8079 68.2788,76.5659 L71.0598,73.8569 C71.3228,73.6019 71.5758,73.3389 71.8498,73.0959 C72.0528,72.9159 72.2838,72.7639 72.4918,72.5889 L72.5688,72.5239 C72.7938,72.3349 73.1288,72.3649 73.3188,72.5889 C73.3788,72.6619 73.4428,72.7309 73.5108,72.7949 C74.6808,73.9019 75.8878,74.9709 77.0368,76.0979 C77.3598,76.4139 77.5338,76.8779 77.7748,77.2759 L78.0468,77.7299 L77.9528,77.8339 Z" id="Fill-72" fill="#4A5775"></path>
                <g id="Group-76" transform="translate(27.000000, 96.756000)">
                    <mask id="mask-4" fill="white">
                        <use xlink:href="#path-3"></use>
                    </mask>
                    <g id="Clip-75"></g>
                    <path d="M0.8664,2.2556 C0.4244,2.0966 0.1514,1.6286 0.7504,1.3726 C1.3934,1.1886 2.1904,1.1396 2.7934,1.0816 C5.9214,0.7786 8.8184,0.4616 11.9834,0.7036 C14.3464,0.8846 16.7464,0.8256 19.1304,0.8296 C21.5784,0.8336 24.0274,0.7986 26.4754,0.7516 C27.4994,0.7316 28.5244,0.5546 29.5414,0.5846 C33.6494,0.7046 37.7544,0.9116 41.8634,1.0146 C43.7844,1.0626 45.7134,0.9436 47.6394,0.9036 C49.2494,0.8696 50.8584,0.8096 52.4684,0.8106 C57.7524,0.8156 63.0364,0.8256 68.3214,0.8676 C70.9534,0.8886 73.5854,1.0146 76.2184,1.0336 C77.4984,1.0436 78.7804,0.9126 80.0624,0.8506 C82.7744,0.7176 85.4554,0.8556 88.1154,1.2956 C88.8604,1.4186 89.6574,1.3616 90.4244,1.4246 C90.7654,1.4526 91.0944,1.5736 91.4054,1.8666 C90.4754,1.9686 90.8204,2.1126 88.8074,2.3626 C86.0714,2.7156 84.5594,2.6706 83.0704,2.6456 C82.4294,2.6346 81.7884,2.7226 81.1464,2.7266 C77.6014,2.7526 74.0554,2.7446 70.5124,2.7946 C67.9424,2.8316 65.3734,3.0116 62.8054,2.9996 C59.6564,2.9836 56.5094,2.7936 53.3594,2.7486 C46.8574,2.6556 40.3544,2.6086 33.8514,2.5456 C32.9494,2.5366 32.0464,2.5356 31.1444,2.5456 C25.4154,2.6046 19.6864,2.6896 13.9564,2.7186 C11.9674,2.7286 9.9764,2.5786 7.9864,2.5546 C6.9634,2.5436 5.8304,2.4266 4.8064,2.4876 C3.4454,2.5696 2.2264,2.7046 0.8664,2.2556" id="Fill-74" fill="#4A5775" mask="url(#mask-4)"></path>
                </g>
            </g>
        </g>
    </g>
</svg>