<svg xmlns="http://www.w3.org/2000/svg" xmlns:xlink="http://www.w3.org/1999/xlink" width="100" height="100" style="background:#fdfdfd" viewBox="0 0 100 100">
  <defs>
    <polygon id="loading_100-a" points="0 57.99 58.327 57.99 58.327 0 0 0"/>
  </defs>
  <g fill="none" fill-rule="evenodd">
    <polygon class="gui-line gui-line-1" fill="#278AEA" points="32 41 51 41 51 36 32 36"/>
    <polygon class="gui-line gui-line-2" fill="#278AEA" points="32 51 64 51 64 46 32 46"/>
    <polygon class="gui-line gui-line-3" fill="#278AEA" points="32 61 57.5 61 57.5 56 32 56"/>
    <polygon class="gui-line gui-line-4" fill="#278AEA" points="0 61 19 61 19 56 0 56"/>
    <polygon class="gui-line gui-line-5" fill="#278AEA" points="0 61 32 61 32 56 0 56"/>
    <polygon class="gui-line gui-line-6" fill="#278AEA" points="0 61 25.5 61 25.5 56 0 56"/>
    <rect width="32" height="44" y="26.5" fill="#FDFDFD" transform="matrix(-1 0 0 1 32 0)"/>
    <g transform="translate(20.5 21)">
      <path fill="#278AEA" d="M45.1201,0.0005 L45.0951,0.0005 C45.1621,-1.0658141e-14 45.2291,-1.0658141e-14 45.2961,0.0005 C50.7631,0.056 55.1506,4.533 55.0951,10.0005 C55.0951,10.0005 54.8101,42.3305 58.2851,56.5505 C58.3121,56.647 58.3261,56.747 58.3266,56.847 C58.3311,57.474 57.8266,57.986 57.2001,57.9905 C57.1251,57.9905 56.9801,57.9205 56.9101,57.9205 C46.1301,54.9905 14.2401,54.9205 10.4101,54.9205 L10.0501,54.9205 L9.9996,54.9205 C4.4771,54.9205 0.0001,50.4435 0.0001,44.9205 L0.0001,10.0005 C0.0001,9.984 0.0001,9.967 0.0001,9.9505 C0.0276,4.4275 4.5271,-0.027 10.0501,0.0005 L45.1201,0.0005 Z M45.1201,5.3255 L10.0501,5.3205 L10.0301,5.3205 C7.4451,5.3205 5.3501,7.416 5.3501,10.0005 L5.3501,44.9305 L5.3501,44.9505 C5.3611,47.535 7.4651,49.6215 10.0501,49.6105 L10.4151,49.6105 C15.5501,49.6105 38.3251,49.7405 51.9901,51.6105 C49.6051,35.7705 49.8196,11.5005 49.8196,10.0005 L49.8196,9.9855 C49.8091,7.401 47.7046,5.3145 45.1201,5.3255 Z"/>
    </g>
  </g>
</svg>
