<svg width="40" height="40" viewBox="0 0 40 40" fill="none" xmlns="http://www.w3.org/2000/svg">
  <rect width="40" height="40" fill="#00AAFF"/>
  <path fill-rule="evenodd" clip-rule="evenodd" d="M26.5403 11.25C28.8789 11.2538 31 12.616 31.9664 14.7348C32.9328 16.8536 32.5666 19.3387 31.0296 21.0924L23.6034 28.4891C22.6594 29.4561 21.3617 30.0013 20.0067 30C18.6453 29.9998 17.3413 29.4538 16.3894 28.4854L15.8741 27.9783L18.3914 25.4738L18.9274 26.0033C19.204 26.2985 19.5907 26.4674 19.9964 26.4702C20.4042 26.4746 20.7962 26.3138 21.0824 26.0248L28.2044 18.939C28.5963 18.5049 28.8106 17.9406 28.8051 17.3571C28.8108 16.72 28.5606 16.1069 28.1099 15.6542C27.6593 15.2014 27.0456 14.9465 26.4051 14.946C25.8162 14.9388 25.2462 15.1533 24.8095 15.5465L14.0936 26.2087L8.96515 21.0849C8.01889 19.9982 7.49864 18.6082 7.5 17.1704C7.50901 14.8111 8.92035 12.6807 11.096 11.7423C13.2717 10.8038 15.7994 11.2351 17.5364 12.8412L18.2656 13.5659L15.7361 16.0825C15.7361 16.0825 15.3325 15.6669 15.1899 15.5418C14.7547 15.1527 14.1887 14.9401 13.6037 14.946C12.9641 14.9423 12.3494 15.1925 11.8959 15.6413C11.4423 16.09 11.1875 16.7002 11.1877 17.3366C11.1801 17.9245 11.3949 18.4938 11.7894 18.9315L14.0758 21.2063L22.0632 13.2689C23.1927 11.9846 24.825 11.2485 26.5403 11.25Z" fill="white"/>
</svg>
