<svg xmlns="http://www.w3.org/2000/svg" width="37" height="37" viewBox="0 0 37 37">
  <g fill="none" fill-rule="evenodd">
    <rect width="37" height="37" fill="#3D8AEB" rx="5"/>
    <g fill="#FFF" fill-rule="nonzero" transform="translate(7 7)">
      <path d="M17.7394872,2.29017094 C18.228506,2.28808082 18.6982412,2.48074439 19.0449538,2.82561276 C19.3916664,3.17048112 19.5868324,3.63918209 19.5873504,4.12820513 C19.5873504,4.71794872 19.5028205,14.26 20.4405128,20.4876923 C15.0679487,19.7524786 6.11367521,19.7013675 4.09478632,19.7013675 L3.95128205,19.7013675 C3.46192272,19.7034588 2.99188891,19.5105259 2.64511943,19.165232 C2.29834995,18.8199381 2.10341433,18.3507313 2.1034188,17.8613675 L2.1034188,4.12820513 C2.10341433,3.63884133 2.29834995,3.16963453 2.64511943,2.82434066 C2.99188891,2.4790468 3.46192272,2.28611383 3.95128205,2.28820513 L17.7394872,2.29017094 Z M17.7394872,0.196581197 L3.95128205,0.196581197 C2.90514869,0.191350464 1.90006714,0.603263627 1.15848747,1.34115384 C0.416907807,2.07904406 -1.30769126e-05,3.08205869 0,4.12820513 L0,17.8574359 C-1.30769126e-05,18.9035823 0.416907807,19.906597 1.15848747,20.6444872 C1.90006714,21.3823774 2.90514869,21.7942906 3.95128205,21.7890598 L4.09282051,21.7890598 C5.59863248,21.7890598 18.1365812,21.8165812 22.3748718,22.968547 C22.4023932,22.968547 22.4594017,22.9960684 22.4888889,22.9960684 C22.6278542,22.995059 22.7584166,22.9293657 22.8420444,22.8183758 C22.9256722,22.7073859 22.9528178,22.5637708 22.9154701,22.4299145 C21.5492308,16.8391453 21.6612821,4.12820513 21.6612821,4.12820513 C21.6719017,3.08225422 21.2610892,2.07604822 20.5214521,1.33641112 C19.781815,0.596774019 18.775609,0.185961582 17.7296581,0.196581197 L17.7394872,0.196581197 Z"/>
      <rect width="7.505" height="2.094" x="4.606" y="6.424"/>
      <rect width="12.508" height="2.094" x="4.606" y="9.961"/>
      <rect width="10.006" height="2.094" x="4.606" y="13.527"/>
    </g>
  </g>
</svg>
