<svg xmlns="http://www.w3.org/2000/svg" viewBox="0 0 72 72" class="gc-logo w-10" width="27">
	<title>
		GatherContent by Bynder
	</title>
	<g id="Layer_2" data-name="Layer 2">
		<g id="Layer_1-2" data-name="Layer 1">
			<mask id="mask0_1231_1244" style="mask-type:alpha" maskUnits="userSpaceOnUse" x="0" y="0" width="72" height="72">
				<rect width="72" height="72" rx="6" fill="white">
				</rect>
			</mask>
			<g mask="url(#mask0_1231_1244)">
				<rect width="72" height="72" fill="#006EFF">
				</rect>
			</g>
			<path class="scale-[.65] translate-x-3.5 translate-y-3.5" id="Shape" fill="#fff" d="M54.82,6.47a5.69,5.69,0,0,1,5.71,5.69c0,1.83-.26,31.31,2.64,50.55-16.61-2.27-44.28-2.45-50.52-2.45h-.44A5.68,5.68,0,0,1,6.5,54.58V12.16a5.69,5.69,0,0,1,5.71-5.69Zm0-6.47H12.21A12.16,12.16,0,0,0,0,12.16V54.58A12.17,12.17,0,0,0,12.21,66.74h.44c4.66,0,43.4.08,56.49,3.67.09,0,.26.09.35.09a1.39,1.39,0,0,0,1.32-1.75c-4.22-17.32-3.87-56.59-3.87-56.59A12,12,0,0,0,54.82,0Z">
			</path>
			<rect class="scale-[.65] translate-x-3.5 translate-y-3.5" id="Rectangle-path" fill="#fff" x="14.23" y="19.24" width="23.19" height="6.47">
			</rect>
			<rect class="scale-[.65] translate-x-3.5 translate-y-3.5" id="Rectangle-path-2" data-name="Rectangle-path" fill="#fff" x="14.23" y="30.18" width="38.65" height="6.47">
			</rect>
			<rect class="scale-[.65] translate-x-3.5 translate-y-3.5" id="Rectangle-path-3" data-name="Rectangle-path" fill="#fff" x="14.23" y="41.2" width="30.92" height="6.47">
			</rect>
		</g>
	</g>
</svg>
