<?xml version="1.0" encoding="UTF-8"?>
<svg width="35px" height="53px" viewBox="0 0 35 53" version="1.1" xmlns="http://www.w3.org/2000/svg" xmlns:xlink="http://www.w3.org/1999/xlink">
    <!-- Generator: sketchtool 54.1 (76490) - https://sketchapp.com -->
    <title>1F670282-DE4D-41F1-BC2A-A302A702791E@1.00x</title>
    <desc>Created with sketchtool.</desc>
    <g id="Page-1" stroke="none" stroke-width="1" fill="none" fill-rule="evenodd">
        <g id="01.1-Annual-7" transform="translate(-1186.000000, -421.000000)" fill-rule="nonzero">
            <g id="pricing-table" transform="translate(140.000000, 408.000000)">
                <g id="advanced" transform="translate(760.000000, 0.000000)">
                    <g id="person" transform="translate(285.000000, 13.000000)">
                        <path d="M16.72,52.68 C16.4976674,52.6584969 16.2809461,52.597544 16.08,52.5 C15.346069,52.0503807 14.8154343,51.3333068 14.6,50.5 C14.5267161,49.7438472 14.3929547,48.994783 14.2,48.26 C13.5742367,45.1396927 13.6700092,41.917631 14.48,38.84 C14.7641516,37.4768588 15.158788,36.1391084 15.66,34.84 C15.8651321,34.3611289 16.1415998,33.9160833 16.48,33.52 C16.6,33.36 16.74,33.18 17.64,33.36 C17.8229857,33.502063 17.9966753,33.6557115 18.16,33.82 C18.5727848,34.2436002 18.698109,34.8702211 18.48,35.42 C17.8634883,37.1295072 17.3689158,38.8805611 17,40.66 C17,41.16 16.84,41.64 16.72,42.14 C16.5543385,42.6156745 16.427261,43.1039199 16.34,43.6 C16.2601111,45.7536847 16.4822692,47.9079448 17,50 C17.0552337,50.6187699 17.0552337,51.2412301 17,51.86 L17,52.6 L16.72,52.68 Z" id="Shape" fill="#4A5775"></path>
                        <path d="M24.64,52.66 C24.4196674,52.654768 24.2023935,52.6072393 24,52.52 C23.34,52.04 22.62,51.44 22.54,50.68 C22.4797584,49.9513059 22.3593479,49.228843 22.18,48.52 C21.6303762,45.6133042 21.5090911,42.6418196 21.82,39.7 L21.98,36 C22.0118287,35.5460333 22.0922895,35.0967938 22.22,34.66 C22.22,34.48 22.22,34.3 23.2,34.02 C23.4235501,34.0479964 23.6443353,34.0948297 23.86,34.16 C24.4471605,34.3608202 24.8359123,34.9196509 24.82,35.54 C24.82,37.42 24.82,39.2 24.68,40.96 C24.68,41.46 24.68,41.96 24.68,42.44 C24.559546,42.9200409 24.4726691,43.4078878 24.42,43.9 C24.4442365,45.9838788 24.6719847,48.0604066 25.1,50.1 C25.1041424,50.6829721 25.0572973,51.2651897 24.96,51.84 L24.96,52.52 L24.64,52.66 Z" id="Shape" fill="#4A5775"></path>
                        <path d="M20.34,13.68 L20.34,13.68 C18.4853061,13.6852838 16.708974,14.428506 15.4031427,15.7455945 C14.0973114,17.0626829 13.3693638,18.8453291 13.38,20.7 L13.38,31.72 C13.38,32.8245695 14.2754305,33.72 15.38,33.72 L25.38,33.72 C26.4845695,33.72 27.38,32.8245695 27.38,31.72 L27.38,20.7 C27.3907777,18.8314225 26.6518797,17.0365449 25.3286957,15.71712 C24.0055117,14.3976951 22.2085393,13.6639064 20.34,13.68 Z" id="Shape" fill="#39C6D6"></path>
                        <path d="M20.34,15.08 C20.34,14.18 20.34,13.44 20.34,12.58 C20.7322436,12.5385926 21.1277564,12.5385926 21.52,12.58 C24.4956134,12.988124 27.0151918,14.9792802 28.1,17.78 C28.5819869,19.0588818 28.8325593,20.4133271 28.84,21.78 C28.9255706,22.9584487 28.9255706,24.1415513 28.84,25.32 C28.74,26.72 28.66,28.14 28.64,29.54 L28.64,31.66 C28.6401352,33.4338973 27.2137621,34.8781 25.44,34.9 L18.02,34.9 C17.2,34.9 16.38,34.9 15.54,34.78 C14.2715997,34.7479647 13.1453593,33.960384 12.68,32.78 C12.5303612,32.4320649 12.4488876,32.0586445 12.44,31.68 L12.44,30.9 L12.44,29.38 L12.44,26.34 C12.44,24.34 12.3,22.34 12.32,20.18 C12.3764146,18.2282663 13.1446659,16.3645455 14.48,14.94 C15.8746813,13.538169 17.7279642,12.6860849 19.7,12.54 C19.9063143,12.5229319 20.1136857,12.5229319 20.32,12.54 C20.32,13.36 20.32,14.1 20.32,14.96 C20.1033998,15.0318343 19.8830791,15.0919217 19.66,15.14 C18.257962,15.4154609 16.9737975,16.1133764 15.98,17.14 C15.1094488,17.9636735 14.6052115,19.1018089 14.58,20.3 C14.58,21.62 14.58,23.14 14.58,24.56 C14.58,25.98 14.58,26.98 14.74,28.18 L14.74,29.98 L14.74,31.64 C14.7402236,31.8300905 14.8200039,32.0114094 14.96,32.14 C15.0391535,32.2150136 15.1351873,32.2698901 15.24,32.3 L16.16,32.3 C17.44,32.4 18.74,32.52 20.02,32.58 C21.3,32.64 22.72,32.38 24.02,32.36 L25.04,32.36 C25.2037409,32.4041647 25.3762591,32.4041647 25.54,32.36 C25.8093884,32.2243443 25.9905339,31.9601738 26.02,31.66 L26.02,20.68 C26.0381992,20.3936222 26.0381992,20.1063778 26.02,19.82 C26.0195377,19.1293754 25.8694266,18.4470524 25.58,17.82 C24.5543191,16.1858404 22.7692276,15.1840802 20.84,15.16 C20.6713877,15.1473774 20.5041333,15.1206167 20.34,15.08 Z" id="Shape" fill="#4A5775"></path>
                        <ellipse id="Oval" fill="#FFFFFF" transform="translate(21.466178, 5.524628) rotate(-5.360000) translate(-21.466178, -5.524628) " cx="21.4661782" cy="5.52462813" rx="4.46" ry="4.12"></ellipse>
                        <path d="M26.2,5.08 C25.98,4.9 25.7,4.76 25.58,4.6 C24.96,3.76 24.08,3.54 23.58,3.08 C22.99726,2.5768553 22.2151968,2.37027255 21.46,2.52 C19.9841586,2.70294229 18.795696,3.8186419 18.52,5.28 C18.4625304,6.61865852 19.4169753,7.78806847 20.74,8 C21.9884801,8.26677758 23.2820232,7.82019723 24.1,6.84 C24.4167301,6.48303927 24.6856553,6.08637455 24.9,5.66 C24.9,5.48 25.04,5.3 25.94,5.02 C26.1698266,5.09910802 26.3857943,5.21384082 26.58,5.36 C27.2503984,6.09166153 27.3171299,7.19273069 26.74,8 C25.8842818,9.41648254 24.4930079,10.4275646 22.8815144,10.8040818 C21.2700209,11.180599 19.5747719,10.8906671 18.18,10 C17.3867529,9.51222678 16.737821,8.82187368 16.3,8 C15.9390396,7.13447428 15.7948648,6.19390535 15.88,5.26 C15.9862085,3.25186834 17.1837599,1.46321786 19,0.6 C20.8541206,-0.291279939 23.0355976,-0.170506128 24.78,0.92 C25.7123442,1.61455748 26.2963654,2.68039613 26.38,3.84 C26.4338138,4.23819004 26.4338138,4.64180996 26.38,5.04 L26.2,5.08 Z" id="Shape" fill="#4A5775"></path>
                        <path d="M2.1,6.46 C2.26,6.62 2.52,6.78 2.6,6.9 C2.94,7.6 3.5,8.14 3.5,8.72 C3.50403052,9.31900119 3.68493501,9.90346186 4.02,10.4 C5.22496733,12.4692178 7.21616007,13.9626123 9.54,14.54 C10.5662428,14.711195 11.6137572,14.711195 12.64,14.54 C13.0461342,14.5105697 13.4538658,14.5105697 13.86,14.54 C14.02,14.54 14.2,14.54 14.72,15.3 C14.7416975,15.5261474 14.7416975,15.7538526 14.72,15.98 C14.6740188,16.6227949 14.1951811,17.1511675 13.56,17.26 C11.6121262,17.7296134 9.56996391,17.6254214 7.68,16.96 C7.1411435,16.7874731 6.62430259,16.5525455 6.14,16.26 C5.72,16 5.36,15.58 5,15.24 C2.95128273,13.8134031 1.52139816,11.6614268 1,9.22 C0.98293532,8.52289079 1.14840566,7.83343104 1.48,7.22 C1.48,6.98 1.7,6.74 1.8,6.5 L2.1,6.46 Z" id="Shape" fill="#4A5775"></path>
                        <path d="M35,32.76 C34.7908696,32.8445692 34.5647958,32.8788228 34.34,32.86 C33.4845568,32.6412346 32.8079578,31.9874422 32.56,31.14 C32.4829796,30.4002772 32.3627745,29.6656903 32.2,28.94 C31.9357263,27.6325369 31.5883549,26.3432547 31.16,25.08 C30.7383429,23.8670542 30.131127,22.7268377 29.36,21.7 C28.6631826,20.7982964 27.8720266,19.9736168 27,19.24 C26.6871464,18.9372768 26.3995248,18.6095219 26.14,18.26 C26.02,18.12 25.92,17.98 26.14,17.1 C26.2935384,16.9390558 26.4608408,16.7918297 26.64,16.66 C27.1503634,16.2799856 27.8496366,16.2799856 28.36,16.66 C29.9649836,17.7980051 31.3251878,19.2466227 32.36,20.92 C32.658305,21.3748838 32.9127786,21.8570443 33.12,22.36 C33.32,22.86 33.36,23.44 33.56,23.94 C34.0024342,25.052887 34.3112596,26.214339 34.48,27.4 C34.5981816,28.4352196 34.7717639,29.463361 35,30.48 C35.12,30.92 34.88,31.46 35,31.98 C35.039678,32.1790641 35.1000041,32.3734484 35.18,32.56 L35,32.76 Z" id="Shape" fill="#4A5775"></path>
                    </g>
                </g>
            </g>
        </g>
    </g>
</svg>