<svg width="148" height="106" viewBox="0 0 148 106" fill="none" xmlns="http://www.w3.org/2000/svg">
<mask id="mask0" mask-type="alpha" maskUnits="userSpaceOnUse" x="18" y="103" width="111" height="4">
<path d="M18.6103 103.103H128.773V106H18.6103V103.103Z" fill="white"/>
</mask>
<g mask="url(#mask0)">
<path fill-rule="evenodd" clip-rule="evenodd" d="M19.1685 105.109C18.6334 104.917 18.3029 104.358 19.028 104.051C19.8064 103.831 20.7713 103.772 21.5012 103.702C25.2879 103.34 28.795 102.96 32.6265 103.25C35.4871 103.465 38.3924 103.396 41.2785 103.401C44.242 103.405 47.2067 103.363 50.1702 103.307C51.4098 103.283 52.6519 103.071 53.8818 103.107C58.8549 103.251 63.8243 103.499 68.7985 103.622C71.1241 103.68 73.4593 103.537 75.7909 103.489C77.7411 103.449 79.6901 103.377 81.6392 103.377C88.0346 103.383 94.4313 103.395 100.829 103.445C104.015 103.469 107.202 103.621 110.389 103.644C111.939 103.656 113.491 103.499 115.043 103.425C118.302 103.258 121.57 103.437 124.791 103.958C125.693 104.105 126.658 104.037 127.588 104.112C127.999 104.146 128.399 104.291 128.774 104.642C127.648 104.764 128.066 104.936 125.629 105.236C122.317 105.659 120.487 105.605 118.684 105.575C117.909 105.562 117.132 105.667 116.355 105.671C112.063 105.703 107.772 105.693 103.482 105.753C100.37 105.798 97.2605 106.013 94.1517 105.999C90.3396 105.98 86.5299 105.752 82.7166 105.698C74.8454 105.587 66.973 105.53 59.1006 105.455C58.0087 105.443 56.9155 105.443 55.8236 105.455C48.8882 105.526 41.9528 105.627 35.0161 105.662C32.6083 105.674 30.198 105.494 27.789 105.466C26.5506 105.453 25.179 105.312 23.9393 105.385C22.293 105.484 20.8161 105.645 19.1697 105.108" fill="#E1E6EB"/>
</g>
<path d="M119.409 46.375C90.0707 46.375 30.6091 46.4854 27.4697 46.9271L26.3485 49.1354L35.3182 99.3747L37 103.239L110.439 103.791L111.561 102.135L120.53 49.1354L119.409 46.375Z" fill="#E1E6EB"/>
<g clip-path="url(#clip0)">
<path d="M74.4077 77.221L73.9999 82.6719C73.9999 83.0073 73.7553 83.3428 73.3476 83.4266C72.8583 83.5105 72.4506 83.175 72.3691 82.6719L71.9614 75.7953L72.7768 75.376C78.6479 72.1894 80.1972 70.009 80.1972 66.7384C80.1972 63.1325 77.6694 60.9521 73.6738 60.9521C71.1459 60.9521 68.7812 61.7907 66.6611 63.3002C66.1718 63.6356 65.5195 63.384 65.438 62.7132L65.3564 62.4616C65.2749 62.1261 65.438 61.8746 65.6826 61.623C67.8027 60.1135 70.6567 58.9395 73.7553 58.9395C78.7294 58.9395 82.3988 61.8746 82.3988 66.6546C82.3988 71.2669 79.4633 73.7827 74.8154 76.5501C74.5707 76.634 74.4077 76.8855 74.4077 77.221ZM71.8798 89.7161V89.5484C71.8798 88.7937 72.5322 88.1228 73.2661 88.1228C73.9999 88.1228 74.6523 88.7937 74.6523 89.5484V89.7161C74.6523 90.4709 73.9999 91.1418 73.2661 91.1418C72.5322 91.1418 71.8798 90.4709 71.8798 89.7161Z" fill="#8599AD"/>
<path fill-rule="evenodd" clip-rule="evenodd" d="M71.4721 89.7163C71.4721 89.8001 71.4721 89.884 71.4721 89.9678C71.4721 90.1356 71.4721 90.2194 71.4721 90.3871C71.3906 90.471 71.4721 90.5549 71.5537 90.7226C71.5537 90.9742 71.5537 91.058 71.7983 91.1419C72.2876 91.5612 72.4506 91.645 73.103 91.7289C73.4292 91.645 73.8369 91.645 74.163 91.3935C74.5708 91.1419 74.8154 90.8064 74.8969 90.3871C75.06 90.2194 75.06 90.0517 75.06 89.8001C75.1416 89.7163 75.2231 89.6324 75.06 89.5485C75.1416 89.4647 75.1416 89.297 75.1416 89.2131C75.1416 89.1292 75.06 89.0454 75.1416 88.9615C74.9785 88.8777 74.9785 88.7099 74.8154 88.5422C74.6523 88.3745 74.6523 88.2068 74.4892 88.2068C74.3261 88.0391 74.0815 87.8713 73.7553 87.8713C73.5922 87.7036 73.4292 87.7875 73.2661 87.7036C72.9399 87.7875 72.7768 87.8713 72.5322 88.0391C72.2876 88.0391 72.1245 88.3745 71.9614 88.3745C71.9614 88.6261 71.7168 88.7099 71.7983 88.9615C71.7168 89.1292 71.6352 89.2131 71.6352 89.3808C71.4721 89.4647 71.4721 89.6324 71.4721 89.7163H72.3691C72.2876 89.297 72.5322 88.9615 72.7768 88.8777C72.8584 88.6261 73.2661 88.5422 73.5107 88.4584C73.5922 88.6261 73.7553 88.6261 73.7553 88.7938C73.9184 88.8777 74.0815 89.0454 74.163 89.2131C74.163 89.297 74.163 89.3808 74.163 89.5485C74.163 89.7163 74.163 89.8001 74.163 89.884C74 90.0517 73.9184 90.1356 73.8369 90.3033C73.6738 90.3033 73.5107 90.3871 73.3476 90.3871C73.2661 90.5549 73.0214 90.471 72.8584 90.6387C72.7768 90.5549 72.6137 90.5549 72.5322 90.5549C72.4506 90.471 72.4506 90.3871 72.3691 90.3033C72.2876 90.3033 72.206 90.2194 72.1245 90.1356C72.2876 89.9678 72.206 89.8001 72.2876 89.7163H71.4721Z" fill="#8599AD"/>
<path fill-rule="evenodd" clip-rule="evenodd" d="M74.8154 77.2204C74.8154 77.0527 74.8969 76.9688 75.06 76.885C75.3047 76.7172 75.5493 76.5495 75.7939 76.4657C76.7724 75.8786 77.1801 75.6271 77.914 75.2078C78.4848 74.9562 78.811 74.6207 79.6264 73.866C80.6865 73.0274 81.1757 72.5242 81.7465 71.4341C82.8066 69.5891 82.9697 68.0796 82.9697 66.654C82.9697 65.9831 82.8881 65.2284 82.6435 64.3898C82.3989 63.5512 82.0727 62.6287 81.3388 61.7063C80.6865 60.8677 79.6264 60.0291 78.3217 59.442C77.0986 58.855 75.5493 58.5196 74 58.5196C70.8198 58.4357 67.6396 59.6936 65.438 61.4547C65.1934 61.6224 65.1118 61.874 65.0303 62.1256C65.0303 62.2933 65.0303 62.3772 65.0303 62.5449C65.0303 62.6287 65.0303 62.7126 65.0303 62.7965C65.1118 63.2996 65.5195 63.7189 66.0088 63.8028C66.2534 63.8028 66.498 63.8028 66.7427 63.7189C66.8242 63.7189 66.8242 63.6351 66.9058 63.6351L66.9873 63.5512L67.1504 63.3835C67.4766 63.2158 67.8027 63.048 68.0474 62.7965C68.5366 62.5449 69.4336 62.2933 69.9228 61.9579C70.5752 61.874 71.3906 61.7063 72.206 61.6224C72.6137 61.5385 73.5107 61.4547 73.5107 61.5385C74.4077 61.4547 75.3047 61.5385 76.7724 62.0417C77.5063 62.2933 77.914 62.7126 78.1586 62.9642C78.4848 63.2996 78.7294 63.5512 78.9741 63.9705C79.3818 64.4737 79.6264 65.2284 79.708 66.1509C79.7895 67.0733 79.7895 68.1635 79.3002 69.3376C78.7294 70.26 78.1586 71.1825 77.1801 71.8534C76.3647 72.6081 75.7124 73.1113 75.06 73.5306C74.3261 74.0337 73.5923 74.453 72.4507 75.1239L71.8799 75.3755L71.5537 75.5432V75.8786C71.6352 77.472 71.7983 78.9815 71.7168 79.9878C71.8799 80.5748 71.8799 81.2457 71.9614 81.9166C71.9614 82.0843 71.9614 82.252 71.9614 82.4197V82.6713C71.9614 82.7552 71.9614 82.9229 72.0429 83.0906C72.206 83.5938 72.7768 83.9292 73.2661 83.7615C73.6738 83.7615 74 83.4261 74.1631 83.0906C74.2446 82.9229 74.2446 82.6713 74.2446 82.5875V82.1682C74.3261 81.665 74.3261 81.078 74.4077 80.5748C74.6523 79.4846 74.7339 78.3945 74.8154 77.2204L74 77.1366C73.9184 78.1429 73.8369 79.2331 73.7553 80.4071C73.7553 80.9941 73.6738 81.4973 73.6738 82.0843C73.6738 82.3359 73.6738 82.7552 73.5923 82.7552C73.5107 82.839 73.4292 82.9229 73.2661 82.9229C73.103 82.9229 73.0215 82.839 72.9399 82.7552C72.9399 82.6713 72.8584 82.6713 72.8584 82.5875V82.1682C72.8584 81.5811 72.7768 80.9941 72.7768 80.491C72.6953 79.3169 72.6953 78.2267 72.6137 77.1366C72.6137 76.8011 72.5322 76.3818 72.4507 75.7948L72.206 76.2141C73.3476 75.5432 74.8969 74.7046 76.3647 73.6144C77.8325 72.6081 79.1372 71.2663 79.7895 69.9246C80.2788 69.086 80.4418 68.3312 80.6049 67.4926C80.6865 66.7379 80.6865 65.8993 80.5234 64.9768C80.1157 63.5512 79.2187 62.2094 77.8325 61.5385C76.5278 60.7838 75.06 60.5322 73.5923 60.5322C72.1245 60.5322 70.6567 60.8677 69.352 61.3708C68.6182 61.6224 67.9658 61.9579 67.395 62.2933C67.0688 62.461 66.7427 62.7126 66.4165 62.8803C66.2534 62.9642 66.0903 62.9642 65.9272 62.8803C65.9272 62.8803 65.9272 62.7965 65.8457 62.7126C65.8457 62.6287 65.8457 62.5449 65.8457 62.461C65.8457 62.3772 65.8457 62.3772 65.8457 62.2933C65.8457 62.1256 65.9272 62.1256 66.2534 61.874C66.8242 61.5385 67.3135 61.287 67.8027 61.0354C68.8628 60.5322 69.9228 60.0291 71.3906 59.6936C72.4507 59.5259 73.6738 59.442 74.8969 59.6098C76.1201 59.7775 77.3432 60.1129 78.3217 60.6161C79.1372 60.9515 80.1157 61.6224 80.768 62.6287C81.5019 63.6351 81.8281 64.893 81.9911 65.8993C82.0727 66.9895 81.9911 68.7505 81.5019 69.9246C81.4204 70.1762 81.2573 70.3439 81.1757 70.5116C81.0942 70.6793 81.0126 70.847 80.8496 71.0148C80.6049 71.3502 80.3603 71.6856 79.871 72.1888C79.2187 72.9435 78.4848 73.6144 77.7509 74.2853C77.2617 74.5369 76.6093 74.9562 75.957 75.2916C75.6308 75.4593 75.3047 75.7109 74.8969 75.8786L74.6523 76.1302C74.5708 76.1302 74.4077 76.2979 74.3261 76.3818C74.0815 76.5495 74 76.885 73.9184 77.1366L74.8154 77.2204Z" fill="#8599AD"/>
</g>
<path fill-rule="evenodd" clip-rule="evenodd" d="M108.411 104.652C109.327 104.649 110.22 104.36 110.961 103.826C111.702 103.292 112.253 102.54 112.537 101.677C112.728 101.043 112.75 100.623 112.842 100.139C113.612 96.4703 113.919 94.7909 114.539 92.0298C115.108 90.1276 115.248 88.6782 115.861 85.1097C116.849 80.9184 117.367 78.6844 117.811 75.056L120.35 59.9713L121.563 52.844L121.909 50.8327C121.939 50.6459 121.969 50.5165 122 50.2769C122.034 50.0397 122.055 49.799 122.048 49.5534C122.035 48.7742 121.821 48.0112 121.425 47.3375C121.029 46.6638 120.465 46.102 119.787 45.7059C119.299 45.4192 118.759 45.228 118.198 45.1429C117.93 45.0866 117.596 45.0878 117.364 45.0806L116.701 45.083C103.337 45.4974 77.2784 45.1548 59.1355 45.5394C53.5002 45.3657 50.0077 45.3405 44.7054 45.4926C42.7685 45.3968 39.4951 45.1584 37.4782 45.4136C36.3258 45.3381 35.0692 45.2782 33.7194 45.2303L31.6263 45.168L30.5295 45.1441L29.9678 45.1321C29.7451 45.1417 29.4751 45.1345 29.2318 45.1812C28.2766 45.2363 26.8046 46.0437 26.1375 47.2056C25.4112 48.334 25.4257 49.5091 25.3156 49.5989C25.3252 49.8744 25.3833 50.1511 25.4318 50.4075L25.577 51.0028L25.8397 52.2055C26.0092 53.02 26.1617 53.8609 26.3215 54.7737C26.6423 56.6017 26.9874 58.7147 27.514 61.453C28.6035 67.0243 28.6277 68.8271 29.5078 72.3596C30.2705 77.072 31.4096 83.2219 33.0693 91.8465C33.2569 93.7236 33.5971 95.6043 33.9494 97.552L34.4675 100.532C34.5377 100.97 34.6249 101.712 34.9445 102.336C35.2503 102.981 35.7002 103.549 36.2604 103.997C37.011 104.519 37.9042 104.804 38.822 104.815C39.1137 104.821 39.2735 104.806 39.5011 104.804L41.9259 104.746L46.4063 104.663L56.7761 104.575C62.6716 104.803 68.9496 104.489 72.8598 104.83C76.6283 104.451 81.7878 104.799 86.382 104.451C93.6963 104.512 100.768 104.664 108.411 104.652V102.739C94.5231 102.829 78.0036 102.729 63.5323 102.605C58.7529 102.736 52.0827 102.8 45.2501 102.857L40.1209 102.902L38.8777 102.909C38.392 102.897 37.9192 102.752 37.5111 102.491C37.103 102.231 36.7754 101.864 36.5642 101.431C36.3052 100.929 36.235 100.046 36.0631 99.2877L35.6248 97.0141C35.3343 95.5312 35.0559 94.1177 34.7944 92.7976C34.0462 86.8993 33.1843 82.8206 32.4604 76.9978C31.6009 72.6231 30.7656 68.112 29.9424 63.5229L28.7136 56.5873L28.1035 53.0859L27.7984 51.331L27.6447 50.4518L27.5696 50.0146C27.5636 49.9092 27.5406 49.805 27.5394 49.7007C27.5265 49.2833 27.625 48.8698 27.825 48.502C28.0249 48.1342 28.3194 47.825 28.6785 47.6057C29.0381 47.3937 29.446 47.2775 29.8673 47.2667L31.6481 47.2691L38.8643 47.2811C43.6631 47.2811 48.4279 47.2547 53.1056 47.1828C64.3616 47.4763 69.4302 47.5673 80.3896 47.3925C87.9146 47.65 97.6367 47.5913 106.1 47.7159C107.929 47.6342 109.758 47.5783 111.589 47.5482L114.76 47.4943L116.407 47.4703C116.958 47.4679 117.582 47.4344 117.853 47.4847C118.56 47.5805 119.207 48.0776 119.514 48.7377C119.674 49.0647 119.742 49.4288 119.72 49.793C119.714 49.9391 119.668 50.2338 119.627 50.5009L119.506 51.2987C119.186 53.4153 118.905 55.4313 118.701 57.2162C117.907 60.9583 117.14 66.8638 116.481 71.2528L114.628 80.6357L113.194 90.7014C112.681 92.4922 112.146 94.955 111.606 97.5747L111.2 99.5608L110.998 100.561C110.957 100.831 110.876 101.094 110.757 101.341C110.322 102.275 109.304 102.805 108.411 102.739V104.652Z" fill="#A4B3C2"/>
<path fill-rule="evenodd" clip-rule="evenodd" d="M96.8403 29.5506C96.5134 29.7219 96.0498 29.6153 96.1648 29.1146C96.3512 28.6295 96.7096 28.13 96.9662 27.7407C98.2918 25.7187 99.4939 23.826 101.221 22.0939C102.511 20.8002 103.65 19.3484 104.824 17.9421C106.029 16.494 107.215 15.0313 108.383 13.5543C108.871 12.9386 109.251 12.2319 109.773 11.6473L112.958 8.13276C113.25 7.82251 113.435 7.59013 113.819 7.2116C114.182 6.8762 114.598 6.60428 115.047 6.41143C115.943 6.0233 116.947 5.95761 117.886 6.22576C118.317 6.34914 118.731 6.53002 119.109 6.76959C119.506 7.03911 119.755 7.25233 120.06 7.47873L121.838 8.82393C122.819 9.58338 123.816 10.3249 124.776 11.1095L134.213 18.8645L138.833 22.8234C139.593 23.4535 140.434 23.9865 141.236 24.5663C142.931 25.7858 144.465 27.2112 145.801 28.8092C146.209 29.3111 146.634 29.8597 146.784 30.4994C146.822 30.6475 146.821 30.8027 146.781 30.9503C146.741 31.0979 146.664 31.2329 146.556 31.3427C146.469 31.0013 146.381 30.9102 146.257 30.7377C146.121 30.5772 145.968 30.2969 145.47 29.8489C145.305 29.711 145.127 29.5872 144.94 29.4788L144.374 29.1122C144.053 28.8987 143.739 28.6762 143.431 28.445C142.874 28.0246 142.434 27.6472 141.997 27.2759C141.62 26.9561 141.186 26.7057 140.8 26.3955L134.409 21.2674C132.854 20.042 131.215 18.9172 129.688 17.6582C127.815 16.1154 126.046 14.4515 124.19 12.8871L118.448 8.08605C117.688 7.47274 116.562 7.34936 115.666 7.78059C115.441 7.88392 115.233 8.01954 115.049 8.18307C114.867 8.33041 114.701 8.53764 114.483 8.79159L113.268 10.2194L111.936 11.8198L103.604 22.0783C102.632 23.2594 101.548 24.3507 100.553 25.5138C100.041 26.1116 99.4031 26.7141 98.9407 27.3549C98.3293 28.2054 97.8245 29.0032 96.8403 29.5506Z" fill="#C2CCD6"/>
<path fill-rule="evenodd" clip-rule="evenodd" d="M91.8515 42.7844C91.3637 43.1438 90.8044 43.1557 91.1337 42.3987C91.5501 41.6369 92.1941 40.7959 92.6638 40.1467C95.108 36.7831 97.3463 33.6459 100.202 30.5566C102.336 28.2483 104.333 25.7651 106.357 23.337C108.436 20.8387 110.498 18.3255 112.54 15.7976C112.968 15.2694 113.367 14.7196 113.771 14.1733C114.201 13.5445 114.986 12.8748 115.829 12.6197C116.471 12.4055 117.152 12.3384 117.824 12.4235C118.495 12.5086 119.138 12.7436 119.703 13.1108C119.882 13.2234 120.083 13.3851 120.214 13.4941L120.604 13.8271L123.712 16.4972L129.942 21.8181C131.897 23.4652 133.954 25.0033 135.963 26.5928C137.643 27.9213 139.336 29.2329 140.995 30.5853L145.079 33.919L146.1 34.7527C146.403 34.9923 146.881 35.384 147.193 35.8308C147.847 36.722 148.12 37.8672 147.951 38.95C147.867 39.4939 147.677 40.0164 147.39 40.4881C147.078 40.9912 146.78 41.2895 146.513 41.6297L144.835 43.6565L141.477 47.7029L134.702 55.7046C133.617 57.0103 132.63 58.3998 131.591 59.7498C129.424 62.5838 127.051 65.2581 124.491 67.7516C123.777 68.4463 123.146 69.2944 122.454 70.0455C122.145 70.3809 121.784 70.648 121.316 70.8001C122.026 69.7903 121.635 70.0611 123.156 67.8558C125.214 64.8515 126.521 63.3266 127.792 61.8149C128.342 61.1633 128.821 60.4554 129.358 59.7953L138.275 48.854C140.416 46.1983 142.455 43.4624 144.627 40.8367L145.588 39.6747C145.806 39.3909 145.963 39.0638 146.029 38.7105C146.1 38.3524 146.087 37.9829 145.991 37.6306C145.895 37.2782 145.718 36.9526 145.474 36.6789C145.418 36.6046 145.341 36.5471 145.278 36.48L144.99 36.2309L144.393 35.7206L143.198 34.7012L140.794 32.6768L120.799 16.1486L119.407 15.007L119.061 14.7256C118.96 14.6597 118.87 14.5758 118.761 14.5207C118.556 14.3964 118.335 14.2997 118.104 14.2332C117.736 14.1316 117.351 14.1068 116.973 14.1604C116.595 14.214 116.232 14.3449 115.908 14.5447C115.564 14.7639 115.363 14.9711 115.049 15.3664L114.147 16.4684L110.534 20.8826L103.29 29.6929C101.608 31.7293 99.8123 33.6746 98.1066 35.6918C97.2289 36.728 96.1854 37.818 95.3586 38.8961C94.2618 40.3324 93.3212 41.6536 91.8515 42.7844Z" fill="#A4B3C2"/>
<path fill-rule="evenodd" clip-rule="evenodd" d="M116.99 28.0369C117.005 27.8644 117.228 27.5003 117.479 27.408C117.697 27.3721 117.864 27.4512 118.002 27.4955C118.721 27.7291 119.409 27.9195 119.818 28.5376C120.126 28.9964 120.577 29.2959 120.989 29.6361C121.413 29.9858 121.858 30.3081 122.312 30.6231C122.502 30.7549 122.782 30.7764 122.942 30.9405C123.587 31.6066 124.181 32.3325 124.836 32.9853C125.142 33.2908 125.547 33.4824 125.905 33.728C126.204 33.9316 126.519 34.1185 126.798 34.3473C127.715 35.0995 128.626 35.8566 129.522 36.6328C129.968 37.0209 130.353 37.4809 130.799 37.8678C131.017 38.0547 131.315 38.1469 131.574 38.2847C132.123 38.5769 132.509 39.0525 132.718 39.7353C132.777 39.9269 132.948 39.9988 133.045 40.1521C133.087 40.2192 133.075 40.3498 132.96 40.5965C132.74 40.5367 132.717 40.6852 132.222 40.5726C131.543 40.43 131.307 40.1845 131.062 39.9557C130.957 39.8575 130.795 39.8275 130.68 39.7401C130.049 39.2549 129.436 38.747 128.791 38.2799C128.324 37.9409 127.772 37.7025 127.332 37.33C126.795 36.8724 126.357 36.295 125.835 35.8171C124.757 34.8312 123.653 33.8765 122.56 32.9122C122.408 32.7779 122.251 32.65 122.088 32.5289C121.058 31.7575 120.013 31.0052 119 30.2134C118.648 29.9379 118.389 29.5522 118.056 29.2551C117.885 29.1006 117.753 28.8598 117.541 28.7568C117.258 28.6203 116.967 28.5412 116.99 28.0381V28.0369ZM111.56 34.5629C111.574 34.3904 111.797 34.0262 112.049 33.934C112.267 33.8969 112.434 33.9771 112.572 34.0215C113.291 34.255 113.978 34.4455 114.388 35.0624C114.695 35.5224 115.147 35.8218 115.558 36.162C115.982 36.5118 116.427 36.8328 116.881 37.1491C117.071 37.2797 117.351 37.3024 117.511 37.4665C118.156 38.1325 118.75 38.856 119.405 39.5113C119.712 39.8167 120.116 40.0084 120.474 40.2528C120.773 40.4564 121.088 40.6445 121.368 40.8733C122.284 41.6255 123.197 42.3802 124.092 43.1588C124.537 43.5469 124.922 44.0069 125.369 44.3926C125.587 44.5807 125.884 44.6717 126.144 44.8106C126.692 45.1029 127.078 45.5773 127.288 46.2601C127.346 46.4517 127.518 46.5236 127.614 46.6769C127.657 46.7452 127.645 46.8758 127.53 47.1225C127.309 47.0626 127.288 47.2112 126.792 47.0986C126.112 46.9548 125.876 46.7105 125.631 46.4817C125.526 46.3834 125.365 46.3535 125.249 46.2661C124.619 45.7809 124.006 45.2718 123.36 44.8047C122.893 44.4669 122.341 44.2285 121.902 43.8559C121.364 43.3984 120.926 42.821 120.404 42.343C119.327 41.3572 118.223 40.4025 117.13 39.4382C116.978 39.3039 116.82 39.176 116.657 39.0549C115.628 38.2835 114.582 37.5312 113.57 36.7382C113.217 36.4627 112.957 36.0782 112.626 35.7799C112.454 35.6266 112.324 35.3846 112.11 35.2828C111.827 35.1462 111.537 35.0672 111.56 34.5629ZM106.085 41.0493C106.151 40.92 106.394 40.5738 106.562 40.4121C106.692 40.3019 106.757 40.2947 106.817 40.2743C107.129 40.1665 107.439 40.0395 107.455 40.3246C107.467 40.5367 107.612 40.5786 107.721 40.6648C107.833 40.7523 107.968 40.8134 108.108 40.8649C108.169 40.8864 108.314 40.7954 108.344 40.8529C108.471 41.0817 108.551 41.374 108.687 41.592C108.751 41.6938 108.907 41.6758 109.019 41.7142C109.113 41.7465 109.222 41.7597 109.297 41.8172C109.542 42.004 109.785 42.1969 110.011 42.4125C110.121 42.5203 110.176 42.7012 110.29 42.8078C110.344 42.8593 110.476 42.8102 110.571 42.8102C110.77 42.8102 110.821 43.0019 110.705 43.4115C110.674 43.5253 110.741 43.5122 110.743 43.5852C110.744 43.6176 110.694 43.717 110.549 43.9362C110.448 43.9769 110.385 44.0919 110.154 44.2009C109.833 44.3591 109.787 44.2728 109.732 44.2033C109.707 44.1734 109.629 44.2153 109.596 44.1949C109.416 44.0895 109.254 43.959 109.06 43.8715C108.919 43.808 108.7 43.8476 108.588 43.7493C108.447 43.6271 108.404 43.3816 108.28 43.239C108.026 42.9456 107.748 42.6832 107.475 42.4101C107.438 42.3723 107.395 42.3408 107.348 42.3167C107.047 42.1586 106.732 42.0184 106.447 41.8399C106.348 41.7764 106.336 41.6004 106.256 41.5129C106.214 41.4686 106.225 41.3452 106.144 41.3536C106.035 41.3656 105.904 41.4195 106.085 41.0493Z" fill="#C2CCD6"/>
<path fill-rule="evenodd" clip-rule="evenodd" d="M50.7886 18.2419C50.3177 17.6466 49.8069 17.0895 49.3844 16.4487L46.1884 11.6321C45.3556 10.0449 43.4586 9.52741 41.9901 10.3767C38.5739 12.115 35.1871 13.9093 31.831 15.7587C24.7286 19.6731 17.5916 23.5256 10.4207 27.3157L5.04086 30.1595L3.69712 30.8698L3.03736 31.2184C2.62663 31.4428 2.28801 31.7771 2.06023 32.1829C1.83245 32.5888 1.7247 33.0499 1.7493 33.5135C1.76867 33.8836 1.8643 34.2382 2.04952 34.576L2.76497 35.908L4.19709 38.5721L7.06616 43.8966L17.0849 62.6792C17.6963 63.8315 18.2882 64.9911 18.8693 66.1566L19.3051 67.0298L19.523 67.4671C19.5908 67.5809 19.6404 67.703 19.7203 67.8049C20.006 68.2409 20.4322 68.5919 20.9273 68.8051C21.713 69.1381 22.5676 69.1261 23.5458 69.2159C23.1765 69.5705 22.8073 69.8412 22.3219 69.9742C20.9418 70.3659 19.1998 69.761 18.3064 68.4014C17.5679 67.2239 16.9856 66.1326 16.3501 64.9611L2.48896 39.0872L0.527826 35.4349C-0.330475 33.9639 -0.130729 31.9179 1.04474 30.6458C1.3256 30.3212 1.66698 30.0505 2.03257 29.8325C2.41996 29.6061 2.67418 29.5007 3.00104 29.3294L4.8617 28.3998C6.10304 27.7835 7.33632 27.1513 8.56123 26.5036L40.9515 9.21118C41.1524 9.10816 41.305 9.01832 41.5471 8.90572C42.2791 8.54804 43.1021 8.41418 43.9113 8.5212C44.98 8.65955 45.9523 9.20436 46.6218 10.0401C46.9608 10.4617 47.1545 10.9169 47.3433 11.2691L47.928 12.4071L49.1059 14.6794L50.9121 18.1173L50.7886 18.2419Z" fill="#A4B3C2"/>
<path fill-rule="evenodd" clip-rule="evenodd" d="M32.0355 42.6904L29.1204 37.276C29.0475 37.141 29.0129 36.989 29.0206 36.8361C29.0282 36.6832 29.0777 36.5352 29.1637 36.408C29.2498 36.2808 29.3691 36.1791 29.5091 36.1138C29.649 36.0486 29.8042 36.0221 29.9581 36.0374L39.3547 36.955C39.9612 37.0149 40.311 37.6665 40.0229 38.1972L37.3233 43.1659" fill="#E1E6EB"/>
<path fill-rule="evenodd" clip-rule="evenodd" d="M37.4868 43.251C37.4747 43.0474 37.4105 42.8186 37.4541 42.6389C37.6756 41.7405 37.8185 40.8062 38.2991 40.0312C38.5339 39.6526 38.7591 39.2669 38.9685 38.8752L39.2736 38.2811C39.3656 38.0882 39.4975 37.8235 39.4576 37.8343C39.437 37.7241 39.3281 37.6785 39.2809 37.7109L37.8681 37.6414C36.9204 37.5845 35.9737 37.5138 35.0281 37.4294L29.9001 36.9203C29.9243 36.9107 29.9267 36.8844 29.9182 36.8556L30.4521 37.8894L31.5779 40.1054C31.8491 40.6505 32.0525 41.2314 32.251 41.8124C32.3273 42.0352 32.4084 42.276 32.0125 42.7024C31.831 42.6701 31.6494 42.6653 31.5295 42.6114C30.8576 42.3071 30.5187 41.7992 30.2342 41.2566L28.6362 38.2248L28.4365 37.845L28.3275 37.6294C28.2637 37.5015 28.2157 37.3663 28.1847 37.2269C28.0977 36.7996 28.1794 36.3555 28.4128 35.9857C28.6462 35.616 29.0138 35.3486 29.4401 35.2385C29.6967 35.1582 30.0938 35.1906 30.1688 35.2073L31.0283 35.2984C31.6748 35.3667 32.3237 35.423 32.9689 35.5128C33.6117 35.6014 34.2461 35.7763 34.8937 35.8266L39.1804 36.1381L39.4612 36.1596C39.7249 36.1851 39.9785 36.2727 40.2009 36.415C40.4233 36.5573 40.608 36.7503 40.7396 36.9778C40.9164 37.2773 40.995 37.6366 40.9587 37.9924C40.9393 38.1683 40.8919 38.3402 40.8183 38.5015L40.6754 38.7854L39.6852 40.6732C39.3099 41.3764 38.7107 41.9597 38.2119 42.5982L37.6405 43.3217L37.4868 43.2522V43.251Z" fill="#C2CCD6"/>
<path fill-rule="evenodd" clip-rule="evenodd" d="M3.92584 39.9726L3.25397 38.7245C3.51908 38.5556 3.74304 38.3915 3.98637 38.2621C5.60854 37.402 7.24282 36.5659 8.85531 35.6867C12.9592 33.4562 17.1478 31.3839 21.2758 29.1942C27.1944 26.0606 33.1117 22.9234 39.0314 19.7898C42.0215 18.2062 45.0177 16.6274 48.0127 15.0522C48.1374 14.9863 48.2754 14.9492 48.4836 14.8701L49.1422 16.0919L48.1894 16.595C46.2513 17.63 44.3107 18.6554 42.3787 19.7011C38.5811 21.7531 34.7871 23.8098 30.9956 25.8725C27.0782 28.0035 23.1801 30.1717 19.2433 32.2691C16.9601 33.4862 14.6104 34.5834 12.303 35.7585C10.3782 36.7396 8.47761 37.7674 6.55521 38.7496C5.72718 39.1737 4.86767 39.5378 3.92584 39.9714" fill="#A4B3C2"/>
<path fill-rule="evenodd" clip-rule="evenodd" d="M11.3491 35.3924C11.2232 35.3912 11.0489 35.4152 10.9787 35.3829C10.6264 35.2211 10.1979 35.1002 10.095 34.8007C9.99977 34.5072 9.84486 34.2361 9.63981 34.0041C8.74035 33.0171 8.2077 31.8348 7.58667 30.7004C7.31308 30.2009 7.07338 29.6822 6.84821 29.1575C6.7659 28.9647 6.75137 28.7359 6.74289 28.5059C6.73926 28.4173 6.73563 28.3214 7.19081 28.0064C7.3385 27.974 7.49224 27.9273 7.57819 27.9213C8.06969 27.8878 8.2198 28.0447 8.31423 28.2328C8.66529 28.9347 9.02242 29.6343 9.3759 30.335C9.47638 30.5327 9.58776 30.7256 9.67008 30.9328C9.75118 31.14 9.75482 31.3868 9.87224 31.5748C10.3807 32.4098 10.9484 33.2147 11.429 34.064C11.5646 34.3024 11.475 34.6605 11.4872 34.9624C11.492 35.0786 11.4932 35.1948 11.4968 35.3098L11.3491 35.3924ZM18.8874 31.4167C18.7615 31.4167 18.5884 31.4407 18.517 31.4095C18.1659 31.2466 17.7362 31.1268 17.6333 30.8262C17.5384 30.5328 17.3839 30.2617 17.1793 30.0296C16.2798 29.0425 15.7472 27.8603 15.1249 26.7259C14.8543 26.2238 14.6087 25.7089 14.3889 25.183C14.3042 24.9914 14.2921 24.7614 14.2824 24.5314C14.2787 24.4427 14.2751 24.3469 14.7303 24.0319C14.878 23.9995 15.0305 23.9528 15.1177 23.9468C15.608 23.9145 15.7593 24.0714 15.8537 24.2583C16.2048 24.9602 16.5607 25.6598 16.9154 26.3605C17.0147 26.5594 17.1272 26.751 17.2083 26.9583C17.2895 27.1655 17.2955 27.4122 17.4117 27.6015C17.9202 28.4352 18.4879 29.2402 18.9685 30.0907C19.1029 30.3291 19.0133 30.686 19.0254 30.9891C19.0315 31.1041 19.0315 31.2203 19.0351 31.3365C18.9867 31.364 18.9383 31.3916 18.8874 31.4179V31.4167ZM26.4257 27.4434C26.301 27.4422 26.1279 27.4674 26.0577 27.4338C25.703 27.2721 25.2744 27.1511 25.1715 26.8516C25.0723 26.5594 24.9294 26.2886 24.7164 26.0551C23.8193 25.068 23.2855 23.8857 22.6644 22.7513C22.3896 22.2518 22.1511 21.7332 21.926 21.2085C21.8449 21.0156 21.8291 20.7868 21.8207 20.5569C21.817 20.4682 21.8146 20.3724 22.2686 20.0573C22.4163 20.025 22.5712 19.9783 22.656 19.9723C23.1487 19.94 23.2976 20.0969 23.392 20.2837C23.7443 20.9857 24.099 21.6852 24.4549 22.386C24.5541 22.5848 24.6667 22.7765 24.7478 22.9837C24.8277 23.191 24.835 23.4377 24.9488 23.6258C25.4597 24.4607 26.0262 25.2657 26.508 26.1162C26.6412 26.3533 26.5516 26.7115 26.5637 27.0146C26.5697 27.1296 26.5698 27.2457 26.5734 27.3619L26.4269 27.4434H26.4257ZM33.9664 23.4689C33.8393 23.4677 33.6662 23.4916 33.5959 23.4593C33.2425 23.2964 32.8139 23.1766 32.7122 22.8771C32.6117 22.5848 32.4701 22.3141 32.2558 22.0805C31.3564 21.0923 30.8237 19.9112 30.2027 18.7744C29.9322 18.2729 29.6862 17.7588 29.4655 17.234C29.3831 17.0411 29.3686 16.8123 29.3589 16.5811C29.3553 16.4937 29.3517 16.3979 29.808 16.0828C29.9545 16.0505 30.1107 16.0026 30.1954 15.9978C30.6869 15.9642 30.837 16.1212 30.9315 16.3092C31.2837 17.0112 31.6384 17.7107 31.9931 18.4115C32.0924 18.6091 32.205 18.8008 32.2861 19.0092C32.3672 19.2164 32.3733 19.4632 32.4883 19.6513C32.9991 20.4862 33.5657 21.2911 34.0463 22.1404C34.1807 22.3788 34.0911 22.7358 34.1032 23.0388C34.108 23.1538 34.1092 23.27 34.1129 23.3862L33.9652 23.4689H33.9664ZM41.5047 19.4943C41.3788 19.492 41.2044 19.5183 41.1342 19.4836C40.7819 19.3231 40.3534 19.2021 40.2505 18.9026C40.1512 18.6103 40.0084 18.3396 39.7953 18.1048C38.8959 17.119 38.3632 15.9367 37.7422 14.8011C37.4686 14.3028 37.2301 13.7829 37.0037 13.2583C36.9226 13.0666 36.9069 12.8366 36.8984 12.6066C36.8948 12.5192 36.8911 12.4221 37.3463 12.1083C37.494 12.076 37.649 12.0292 37.7337 12.0221C38.2264 11.9909 38.3753 12.1466 38.471 12.3335C38.822 13.0366 39.1779 13.735 39.5314 14.437C39.6319 14.6358 39.7445 14.8275 39.8256 15.0335C39.9067 15.2419 39.9128 15.4887 40.0278 15.6779C40.5362 16.5105 41.1052 17.3154 41.5858 18.1671C41.7189 18.4043 41.6306 18.7625 41.6427 19.0655C41.6475 19.1805 41.6487 19.2955 41.6523 19.4129L41.5047 19.4943ZM63.3592 42.4706C63.1292 42.4874 62.7576 42.2514 62.7794 41.9196C62.8581 41.6225 63.0675 41.3722 63.2115 41.1698C63.7563 40.4043 64.2563 39.6676 64.91 39.0507C65.025 38.9421 65.1638 38.8613 65.3157 38.8147C65.4676 38.7682 65.6283 38.7571 65.7852 38.7824L65.824 38.7884C66.1593 38.8447 66.4946 38.9273 66.8312 39.0483C67.7476 39.3801 68.7173 39.5011 69.6712 39.6772C70.6518 39.8581 71.6372 40.0042 72.625 40.1396C73.0378 40.1959 73.476 40.1156 73.8779 40.2139L77.8874 41.2752L77.0436 41.7387L77.4201 40.9517C77.7494 40.2498 77.9407 39.4879 78.1949 38.7537C78.4079 38.1403 78.5992 37.5199 78.8425 36.9173L81.2722 31.0035C81.639 30.135 82.076 29.2941 82.4585 28.4316L82.4743 28.3957C82.5338 28.2603 82.6371 28.1483 82.7679 28.0772C82.8986 28.0061 83.0496 27.9799 83.197 28.0028L83.5517 28.0591C84.0674 28.1358 84.6 28.089 85.1254 28.101C86.2408 28.1253 87.3348 28.4089 88.3189 28.9288C88.6034 29.0785 88.9315 29.0701 89.2341 29.1683C89.3685 29.2114 89.4859 29.336 89.5767 29.6139C89.1894 29.6547 89.3104 29.8008 88.4691 29.9158C87.3226 30.0835 86.7186 29.9637 86.1217 29.8607C85.8639 29.8176 85.5951 29.8607 85.3349 29.8307L82.9875 29.5433L83.9161 29.0054L83.2272 30.8238C82.8713 31.7976 82.6389 32.8182 82.2418 33.7753C81.7552 34.9492 81.1221 36.0632 80.6112 37.2264L78.4346 42.285L78.4225 42.3149C78.3575 42.4654 78.242 42.589 78.0956 42.665C77.9491 42.7409 77.7806 42.7645 77.6186 42.7318L75.2846 42.2598C74.9246 42.1866 74.5629 42.1211 74.2 42.0634L67.2924 40.9733C66.6871 40.8703 66.0976 40.6858 65.502 40.5313L66.1254 40.3516L65.6714 40.7241C65.3579 40.9949 64.9475 41.2273 64.6788 41.5471C64.3228 41.9735 64.042 42.3976 63.3592 42.4706Z" fill="#A4B3C2"/>
<path fill-rule="evenodd" clip-rule="evenodd" d="M53.4156 17.2228C53.3648 17.4983 53.0561 17.8852 52.6832 17.551C52.3564 17.1557 52.2196 16.5161 52.2111 16.0345C52.184 15.3918 52.3131 14.7519 52.5876 14.1688C52.862 13.5856 53.2739 13.076 53.7885 12.6829C54.0379 12.4912 54.3805 12.3056 54.6117 12.1966L55.3175 11.8779C55.7944 11.6743 56.2859 11.4886 56.8004 11.3293C58.3366 10.8502 59.8099 10.1638 61.2941 9.5337C62.8198 8.88287 64.336 8.2104 65.8422 7.51649C66.4717 7.229 67.0455 6.80975 67.6896 6.56418L75.5172 3.64498C76.7326 3.17302 77.8899 2.5633 79.0751 2.01827C80.0641 1.56308 81.0447 1.08513 82.0482 0.658694C82.4562 0.495784 82.8387 0.289751 83.4283 0.131632C84.3929 -0.111759 85.4131 -0.0156412 86.314 0.403517C87.2148 0.822675 87.9404 1.53878 88.3662 2.42914C88.4934 2.68549 88.5527 2.85079 88.6483 3.06761L89.1737 4.29183L90.216 6.74267L92.1977 11.6683C92.5355 12.4601 92.9882 13.204 93.3841 13.9718C94.2239 15.586 94.8272 17.3102 95.1758 19.0927C95.2726 19.5958 95.5341 20.0654 95.689 20.5613C95.7568 20.7817 95.7447 21.026 95.5837 21.3219C95.2496 20.7865 95.2205 21.05 94.4712 19.8977C93.4422 18.338 93.0754 17.3905 92.6965 16.4634C92.5331 16.0645 92.2873 15.7003 92.1118 15.3074L89.1991 8.77904C88.4764 7.20984 87.6375 5.68974 86.9571 4.10256L86.6533 3.37187C86.4525 2.84873 86.0804 2.4072 85.5964 2.1177C85.2515 1.91521 84.8611 1.80048 84.4604 1.78375C84.0596 1.76703 83.661 1.84884 83.3 2.02187L71.0804 7.03734L69.3928 7.75606L58.7519 12.4673C57.5389 13.0003 56.1782 13.4184 55.0221 13.9095C54.5257 14.1311 53.987 14.5288 53.7752 15.0655C53.5173 15.7997 53.5754 16.3711 53.4156 17.2228Z" fill="#C2CCD6"/>
<path fill-rule="evenodd" clip-rule="evenodd" d="M57.7966 42.1344C57.8281 42.5656 57.5375 42.9633 57.1042 42.5465C56.7119 42.0673 56.3778 41.4085 56.1066 40.9198C54.6987 38.3767 53.3647 36.036 52.3986 33.269C51.6771 31.2027 50.7401 29.1902 49.8649 27.1694L49.5223 26.3788C49.3846 26.0514 49.2891 25.7081 49.2378 25.3571C49.132 24.6501 49.2069 23.9281 49.4557 23.2572C49.7075 22.585 50.1219 21.9842 50.6627 21.5071C50.9411 21.2783 51.2365 21.0639 51.5621 20.9082C51.9011 20.7357 52.1033 20.659 52.3805 20.5297C53.2509 20.1403 54.0632 19.6193 54.9457 19.2719L65.6496 15.1249C67.3117 14.4625 68.9206 13.6599 70.5549 12.9232C71.9204 12.3075 73.2775 11.669 74.6563 11.0833L78.0508 9.63864L79.7492 8.91753C79.9986 8.80972 80.4017 8.64082 80.771 8.56415C81.1499 8.4851 81.5385 8.44197 81.9259 8.46713C83.4742 8.53181 84.9523 9.49729 85.5866 10.8988L87.0454 14.2888L89.8225 21.0399C90.2873 22.1276 90.8696 23.1674 91.395 24.2311C92.5053 26.4619 93.3776 28.8012 93.9977 31.211C94.1696 31.8866 94.5122 32.5407 94.7422 33.2139C94.8451 33.5133 94.8657 33.8344 94.7362 34.2009C94.3076 33.4499 94.3149 33.7936 93.3634 32.1765C92.0596 29.9844 91.5391 28.6883 91.01 27.4174C90.78 26.8712 90.4713 26.3597 90.2304 25.817L86.2476 16.8318C85.7585 15.7502 85.238 14.6817 84.7223 13.6096L83.9596 12.0008C83.7357 11.4953 83.5504 11.2498 83.2236 10.9635C82.9373 10.7168 82.5965 10.5399 82.2285 10.4471C81.8606 10.3543 81.4758 10.3482 81.1051 10.4292C80.9719 10.4508 80.8739 10.4951 80.7213 10.543L80.208 10.7419C78.8401 11.2725 77.4721 11.7984 76.1151 12.3566L59.3401 19.315L57.0218 20.3045L53.361 21.9144L52.4458 22.3169C52.206 22.4246 51.982 22.564 51.78 22.7313C51.385 23.0655 51.098 23.5073 50.9549 24.0016C50.8117 24.496 50.8187 25.0211 50.975 25.5116C51.0476 25.7224 51.1929 26.041 51.3309 26.3441L51.7352 27.2509L53.3477 30.878C54.091 32.561 54.7012 34.3003 55.4166 35.9953C55.7846 36.8662 56.1054 37.8676 56.534 38.7133C57.1054 39.8369 57.6683 40.8215 57.7954 42.1332" fill="#A4B3C2"/>
<path fill-rule="evenodd" clip-rule="evenodd" d="M66.6181 29.2776C66.3863 28.7665 66.2594 28.215 66.2449 27.655C66.2304 27.095 66.3286 26.5378 66.5337 26.0157C66.7388 25.4935 67.0468 25.017 67.4397 24.6137C67.8327 24.2104 68.3027 23.8885 68.8225 23.6666C69.3423 23.4447 69.9015 23.3272 70.4676 23.3211C71.0337 23.3149 71.5953 23.4202 72.1199 23.6307C72.6445 23.8413 73.1216 24.153 73.5233 24.5476C73.9251 24.9423 74.2436 25.412 74.4602 25.9295C74.8896 26.9552 74.8939 28.1068 74.4721 29.1355C74.0504 30.1642 73.2365 30.9874 72.2064 31.4272C71.1763 31.867 70.0127 31.888 68.967 31.4858C67.9213 31.0836 67.0776 30.2904 66.6181 29.2776Z" fill="#E1E6EB"/>
<path fill-rule="evenodd" clip-rule="evenodd" d="M66.9631 28.9983C66.8663 29.1564 66.5128 29.4139 66.2307 29.3241C65.9983 29.1959 65.8675 28.9552 65.7731 28.7707C65.2404 27.8411 65.0347 26.6073 65.6835 25.6167C66.1665 24.91 66.6157 24.1936 67.2875 23.6666C67.9679 23.1311 68.7523 22.7191 69.6167 22.5286C69.9714 22.4483 70.3406 22.2567 70.7207 22.301C72.2521 22.4615 73.5826 23.3431 74.3876 24.4859C74.7677 25.0142 75.1745 25.5472 75.4045 26.1797C75.603 26.702 75.7156 27.2722 75.6902 27.8399C75.6176 29.7038 74.4045 31.4827 72.6686 32.1954C71.8139 32.5643 70.8527 32.5967 69.969 32.4745C69.538 32.4254 69.0853 32.417 68.6373 32.314C67.6991 32.0744 66.9232 31.3078 66.7392 30.3722C66.6895 30.1123 66.5067 29.9302 66.451 29.6847C66.4256 29.5769 66.4777 29.4367 66.681 29.251C66.8941 29.4391 66.9401 29.3373 67.4183 29.6583C68.0744 30.044 68.3117 30.2513 68.6022 30.4788C68.7269 30.5723 68.9 30.5795 69.0368 30.6418C69.7947 30.9903 70.6832 31.0742 71.4628 30.7975C72.0427 30.6046 72.4495 30.1458 72.8405 29.7673C73.3114 29.2906 73.7968 28.7024 73.9179 27.9645C74.1927 26.4648 73.2424 24.7926 71.705 24.2547C71.497 24.1716 71.2781 24.1188 71.0549 24.0978C69.6336 23.9337 68.2221 24.7147 67.5829 25.8946C67.3578 26.2947 67.0709 26.7068 66.9897 27.1943C66.945 27.4387 66.8445 27.7249 66.9207 27.9765C67.0491 28.3119 67.2052 28.5299 66.9631 28.9983Z" fill="#C2CCD6"/>
<defs>
<clipPath id="clip0">
<rect width="17.9394" height="33.1248" fill="white" transform="translate(65.0303 58.52)"/>
</clipPath>
</defs>
</svg>
