<svg width="680" height="40" viewBox="0 0 680 40" fill="none" xmlns="http://www.w3.org/2000/svg">
<path d="M0 0V8.87608H61.0146V0H0Z" fill="#E1E6EB"/>
<path d="M84.9461 0V8.87608H145.961V0H84.9461Z" fill="#E1E6EB"/>
<path d="M230.907 8.87608V0H169.892V8.87608H230.907Z" fill="#E1E6EB"/>
<path d="M291.706 8.87608V0H254.946V8.87608H291.706Z" fill="#E1E6EB"/>
<path d="M376.652 8.87608V0H315.637V8.87608H376.652Z" fill="#E1E6EB"/>
<path d="M534.363 8.87608V0H400.583V8.87608H534.363Z" fill="#E1E6EB"/>
<path d="M558.294 0V8.87608H680V0H558.294Z" fill="#E1E6EB"/>
<path d="M0 31.1239V40H61.0146V31.1239H0Z" fill="#E1E6EB"/>
<path d="M84.9461 31.1239V40H145.961V31.1239H84.9461Z" fill="#E1E6EB"/>
<path d="M206.652 40V31.1239H169.892V40H206.652Z" fill="#E1E6EB"/>
<path d="M303.779 40V31.1239H230.691V40H303.779Z" fill="#E1E6EB"/>
<path d="M388.725 40V31.1239H327.711V40H388.725Z" fill="#E1E6EB"/>
<path d="M449.524 31.1239H412.765V40H449.524V31.1239Z" fill="#E1E6EB"/>
<path d="M570.799 40V31.1239H473.456V40H570.799Z" fill="#E1E6EB"/>
<path d="M594.731 31.1239V40H667.926V31.1239H594.731Z" fill="#E1E6EB"/>
</svg>
