<svg width="24" height="24" viewBox="0 0 24 24" fill="none" xmlns="http://www.w3.org/2000/svg">
    <path d="M7.02362 8.06142C5.83854 9.54276 5.66755 11.0357 6.01575 12.0803C7.33164 11.0353 9.16042 11.2542 10.274 12.2945C11.3989 13.3454 11.4957 15.1927 10.778 16.389C10.1742 17.3953 9.11384 18.0016 7.93072 18.0016C5.23817 18.0016 4 15.6268 4 12.9622C4 11.232 4.44094 9.68242 5.32283 8.31339C6.20472 6.94436 7.53595 5.8399 9.31653 5L9.79528 5.93229C8.72021 6.38583 7.79633 7.09554 7.02362 8.06142ZM15.7921 8.06142C14.6071 9.54276 14.4361 11.0357 14.7843 12.0803C15.3722 11.6268 16.0105 11.4 16.6992 11.4C18.5109 11.4 20 12.6066 20 14.7008C20 16.6265 18.5222 18.0016 16.6992 18.0016C14.0067 18.0016 12.7685 15.6268 12.7685 12.9622C12.7685 11.232 13.2094 9.68242 14.0913 8.31339C14.9732 6.94436 16.3044 5.8399 18.085 5L18.5638 5.93228C17.4887 6.38583 16.5648 7.09554 15.7921 8.06142Z" fill="#678099"/>
</svg>
