<svg width="24" height="24" viewBox="0 0 24 24" fill="none" xmlns="http://www.w3.org/2000/svg">
    <path d="M7.88307 5.436H13.9851C15.0291 5.436 15.8391 5.73 16.4151 6.318C17.0031 6.906 17.2971 7.686 17.2971 8.658C17.2971 9.138 17.2311 9.546 17.0991 9.882C16.9791 10.218 16.8111 10.494 16.5951 10.71C16.3911 10.926 16.1451 11.088 15.8571 11.196C15.5811 11.292 15.2811 11.346 14.9571 11.358V11.466C15.2571 11.466 15.5691 11.52 15.8931 11.628C16.2291 11.736 16.5351 11.91 16.8111 12.15C17.0871 12.378 17.3151 12.678 17.4951 13.05C17.6871 13.422 17.7831 13.878 17.7831 14.418C17.7831 14.91 17.6991 15.378 17.5311 15.822C17.3751 16.254 17.1531 16.632 16.8651 16.956C16.5771 17.28 16.2351 17.538 15.8391 17.73C15.4431 17.91 15.0111 18 14.5431 18H7.88307V5.436ZM10.6191 15.696H13.7691C14.1291 15.696 14.4111 15.6 14.6151 15.408C14.8311 15.204 14.9391 14.922 14.9391 14.562V13.95C14.9391 13.59 14.8311 13.314 14.6151 13.122C14.4111 12.918 14.1291 12.816 13.7691 12.816H10.6191V15.696ZM10.6191 10.584H13.3371C13.6971 10.584 13.9791 10.482 14.1831 10.278C14.3871 10.074 14.4891 9.792 14.4891 9.432V8.892C14.4891 8.532 14.3871 8.25 14.1831 8.046C13.9791 7.842 13.6971 7.74 13.3371 7.74H10.6191V10.584Z" fill="#678099"/>
</svg>
