<svg width="24" height="24" viewBox="0 0 24 24" fill="none" xmlns="http://www.w3.org/2000/svg">
    <path fill-rule="evenodd" clip-rule="evenodd" d="M5 5H11H17V9H16L15.2764 7.55279C15.107 7.214 14.7607 7 14.382 7H12V16.2792C12 16.7097 12.2754 17.0918 12.6838 17.2279L15 18V19H11H7V18L9.31623 17.2279C9.72457 17.0918 10 16.7097 10 16.2792V7H7.61803C7.23926 7 6.893 7.214 6.72361 7.55279L6 9H5V5ZM14.2154 12.2552L15.4601 13.5L14.2154 14.7448C13.9282 15.0319 13.9282 15.4975 14.2154 15.7846C14.5025 16.0718 14.9681 16.0718 15.2552 15.7846L16.5 14.5399L17.7448 15.7846C18.0319 16.0718 18.4975 16.0718 18.7846 15.7846C19.0718 15.4975 19.0718 15.0319 18.7846 14.7448L17.5399 13.5L18.7846 12.2552C19.0718 11.9681 19.0718 11.5025 18.7846 11.2154C18.4975 10.9282 18.0319 10.9282 17.7448 11.2154L16.5 12.4601L15.2552 11.2154C14.9681 10.9282 14.5025 10.9282 14.2154 11.2154C13.9282 11.5025 13.9282 11.9681 14.2154 12.2552Z" fill="#678099"/>
</svg>
