<svg width="24" height="24" viewBox="0 0 24 24" fill="none" xmlns="http://www.w3.org/2000/svg">
    <path d="M10.424 12.69H5.18598V18H2.80998V5.436H5.18598V10.584H10.424V5.436H12.8V18H10.424V12.69ZM21.9155 18H15.1395V16.292L18.2055 13.604C18.7282 13.1467 19.1108 12.736 19.3535 12.372C19.5962 11.9987 19.7175 11.5973 19.7175 11.168V10.986C19.7175 10.5567 19.5775 10.23 19.2975 10.006C19.0175 9.77267 18.6768 9.656 18.2755 9.656C17.7715 9.656 17.3888 9.80067 17.1275 10.09C16.8662 10.37 16.6795 10.7107 16.5675 11.112L14.9715 10.496C15.0742 10.1693 15.2188 9.86133 15.4055 9.572C15.5922 9.27333 15.8255 9.012 16.1055 8.788C16.3948 8.564 16.7308 8.38667 17.1135 8.256C17.4962 8.12533 17.9348 8.06 18.4295 8.06C18.9428 8.06 19.4002 8.13467 19.8015 8.284C20.2028 8.424 20.5388 8.62467 20.8095 8.886C21.0895 9.14733 21.2995 9.45533 21.4395 9.81C21.5888 10.1647 21.6635 10.552 21.6635 10.972C21.6635 11.3827 21.5982 11.756 21.4675 12.092C21.3368 12.428 21.1595 12.75 20.9355 13.058C20.7115 13.3567 20.4502 13.646 20.1515 13.926C19.8528 14.1967 19.5355 14.472 19.1995 14.752L17.1415 16.446H21.9155V18Z" fill="#678099"/>
</svg>
