<svg width="24" height="24" viewBox="0 0 24 24" fill="none" xmlns="http://www.w3.org/2000/svg">
    <path d="M10.424 12.69H5.18598V18H2.80998V5.436H5.18598V10.584H10.424V5.436H12.8V18H10.424V12.69ZM17.9395 12.176C18.4995 12.176 18.9102 12.064 19.1715 11.84C19.4422 11.6067 19.5775 11.3127 19.5775 10.958V10.86C19.5775 10.4587 19.4468 10.146 19.1855 9.922C18.9335 9.68867 18.5835 9.572 18.1355 9.572C17.7062 9.572 17.3235 9.67467 16.9875 9.88C16.6608 10.0853 16.3762 10.3747 16.1335 10.748L14.9575 9.684C15.1255 9.46 15.3075 9.25 15.5035 9.054C15.7088 8.84867 15.9422 8.676 16.2035 8.536C16.4648 8.38667 16.7588 8.27 17.0855 8.186C17.4122 8.102 17.7808 8.06 18.1915 8.06C18.6862 8.06 19.1342 8.12067 19.5355 8.242C19.9462 8.354 20.2962 8.522 20.5855 8.746C20.8842 8.97 21.1128 9.24067 21.2715 9.558C21.4302 9.866 21.5095 10.216 21.5095 10.608C21.5095 10.9253 21.4582 11.21 21.3555 11.462C21.2622 11.714 21.1268 11.9333 20.9495 12.12C20.7815 12.3067 20.5808 12.4607 20.3475 12.582C20.1235 12.694 19.8855 12.778 19.6335 12.834V12.918C19.9135 12.974 20.1795 13.0627 20.4315 13.184C20.6835 13.3053 20.8982 13.4687 21.0755 13.674C21.2622 13.87 21.4068 14.1033 21.5095 14.374C21.6215 14.6447 21.6775 14.9527 21.6775 15.298C21.6775 15.7273 21.5888 16.1193 21.4115 16.474C21.2435 16.8287 21.0008 17.132 20.6835 17.384C20.3662 17.636 19.9882 17.832 19.5495 17.972C19.1108 18.1027 18.6208 18.168 18.0795 18.168C17.6035 18.168 17.1835 18.1167 16.8195 18.014C16.4555 17.9207 16.1335 17.79 15.8535 17.622C15.5828 17.454 15.3448 17.2627 15.1395 17.048C14.9342 16.824 14.7568 16.5907 14.6075 16.348L15.9655 15.312C16.0775 15.508 16.1988 15.69 16.3295 15.858C16.4602 16.0167 16.6095 16.1567 16.7775 16.278C16.9455 16.3993 17.1368 16.4927 17.3515 16.558C17.5662 16.6233 17.8088 16.656 18.0795 16.656C18.6208 16.656 19.0362 16.5253 19.3255 16.264C19.6148 16.0027 19.7595 15.6433 19.7595 15.186V15.088C19.7595 14.64 19.6008 14.2993 19.2835 14.066C18.9755 13.8327 18.5275 13.716 17.9395 13.716H16.9735V12.176H17.9395Z" fill="#678099"/>
</svg>
