<svg width="24" height="24" viewBox="0 0 24 24" fill="none" xmlns="http://www.w3.org/2000/svg">
    <path d="M10.424 12.69H5.18598V18H2.80998V5.436H5.18598V10.584H10.424V5.436H12.8V18H10.424V12.69ZM21.4815 9.824H17.0855L16.8615 13.1H16.9595C17.0622 12.8947 17.1742 12.7033 17.2955 12.526C17.4168 12.3487 17.5568 12.1993 17.7155 12.078C17.8742 11.9567 18.0562 11.8633 18.2615 11.798C18.4762 11.7233 18.7328 11.686 19.0315 11.686C19.4515 11.686 19.8435 11.756 20.2075 11.896C20.5715 12.036 20.8842 12.2413 21.1455 12.512C21.4162 12.7733 21.6262 13.0953 21.7755 13.478C21.9342 13.8607 22.0135 14.2947 22.0135 14.78C22.0135 15.2747 21.9342 15.7273 21.7755 16.138C21.6168 16.5487 21.3835 16.908 21.0755 17.216C20.7675 17.5147 20.3895 17.748 19.9415 17.916C19.4935 18.084 18.9802 18.168 18.4015 18.168C17.9535 18.168 17.5522 18.1167 17.1975 18.014C16.8428 17.9207 16.5302 17.79 16.2595 17.622C15.9888 17.454 15.7555 17.2627 15.5595 17.048C15.3635 16.824 15.1908 16.5907 15.0415 16.348L16.3855 15.312C16.4975 15.4987 16.6142 15.676 16.7355 15.844C16.8568 16.0027 16.9968 16.1427 17.1555 16.264C17.3235 16.3853 17.5055 16.4833 17.7015 16.558C17.9068 16.6233 18.1448 16.656 18.4155 16.656C18.9662 16.656 19.3815 16.502 19.6615 16.194C19.9508 15.886 20.0955 15.466 20.0955 14.934V14.822C20.0955 14.318 19.9508 13.9213 19.6615 13.632C19.3722 13.3427 18.9708 13.198 18.4575 13.198C18.0562 13.198 17.7295 13.2773 17.4775 13.436C17.2255 13.5853 17.0248 13.7487 16.8755 13.926L15.3635 13.716L15.7275 8.228H21.4815V9.824Z" fill="#678099"/>
</svg>
