<svg width="24" height="24" viewBox="0 0 24 24" fill="none" xmlns="http://www.w3.org/2000/svg">
    <path d="M10.424 12.69H5.18598V18H2.80998V5.436H5.18598V10.584H10.424V5.436H12.8V18H10.424V12.69ZM18.5135 18.168C17.9535 18.168 17.4542 18.0793 17.0155 17.902C16.5768 17.7153 16.2035 17.4587 15.8955 17.132C15.5875 16.796 15.3542 16.3947 15.1955 15.928C15.0368 15.452 14.9575 14.92 14.9575 14.332C14.9575 13.632 15.0602 12.974 15.2655 12.358C15.4802 11.7327 15.7555 11.1633 16.0915 10.65C16.4275 10.1273 16.8008 9.66533 17.2115 9.264C17.6315 8.85333 18.0468 8.508 18.4575 8.228H20.9495C20.3708 8.63867 19.8528 9.03533 19.3955 9.418C18.9475 9.80067 18.5508 10.188 18.2055 10.58C17.8695 10.972 17.5895 11.3827 17.3655 11.812C17.1508 12.232 16.9875 12.6893 16.8755 13.184L16.9875 13.212C17.0808 13.0253 17.1882 12.848 17.3095 12.68C17.4402 12.5027 17.5942 12.3487 17.7715 12.218C17.9488 12.078 18.1542 11.9707 18.3875 11.896C18.6208 11.812 18.8915 11.77 19.1995 11.77C19.6008 11.77 19.9742 11.84 20.3195 11.98C20.6742 12.12 20.9775 12.3253 21.2295 12.596C21.4908 12.8573 21.6915 13.1747 21.8315 13.548C21.9808 13.9213 22.0555 14.3367 22.0555 14.794C22.0555 15.2887 21.9715 15.7413 21.8035 16.152C21.6355 16.5627 21.3975 16.9173 21.0895 17.216C20.7815 17.5147 20.4082 17.748 19.9695 17.916C19.5402 18.084 19.0548 18.168 18.5135 18.168ZM18.5135 16.712C19.0268 16.712 19.4282 16.572 19.7175 16.292C20.0162 16.0027 20.1655 15.592 20.1655 15.06V14.85C20.1655 14.318 20.0162 13.912 19.7175 13.632C19.4282 13.3427 19.0268 13.198 18.5135 13.198C17.9908 13.198 17.5848 13.3427 17.2955 13.632C17.0062 13.912 16.8615 14.318 16.8615 14.85V15.06C16.8615 15.592 17.0062 16.0027 17.2955 16.292C17.5848 16.572 17.9908 16.712 18.5135 16.712Z" fill="#678099"/>
</svg>
