<svg width="24" height="24" viewBox="0 0 24 24" fill="none" xmlns="http://www.w3.org/2000/svg">
    <path d="M9.31677 14.7L10.0124 15.4L11.4037 14L10.7081 13.3C9.71428 12.3 9.71428 10.7 10.7081 9.7L13.6894 6.7C14.6832 5.7 16.2733 5.7 17.2671 6.7C18.2609 7.7 18.2609 9.3 17.2671 10.3L16.5714 11L17.9627 12.4L18.6584 11.7C20.4472 9.9 20.4472 7.1 18.6584 5.3C17.764 4.5 16.6708 4 15.4783 4C14.2857 4 13.1925 4.4 12.2981 5.3L9.31677 8.3C7.52795 10.1 7.52795 12.9 9.31677 14.7Z" fill="#678099"/>
    <path d="M5.34161 18.7C6.23602 19.5 7.32919 20 8.52174 20C9.71429 20 10.9068 19.5 11.7019 18.7L14.6832 15.7C16.472 13.9 16.472 11.1 14.6832 9.3L13.9876 8.6L12.5963 10L13.2919 10.7C14.2857 11.7 14.2857 13.3 13.2919 14.3L10.3106 17.3C9.31677 18.3 7.72671 18.3 6.73292 17.3C5.73913 16.3 5.73913 14.7 6.73292 13.7L7.42857 13L6.03727 11.6L5.34161 12.3C3.5528 14.1 3.5528 16.9 5.34161 18.7Z" fill="#678099"/>
</svg>
