<svg width="24" height="24" viewBox="0 0 24 24" fill="none" xmlns="http://www.w3.org/2000/svg">
    <path fill-rule="evenodd" clip-rule="evenodd" d="M4.3678 8.451V9H6.8058V8.451L6.2358 8.403C6.1318 8.396 6.1248 8.375 6.1248 8.264V5H4.4578L4.3818 5.57L4.9858 5.695C5.0558 5.715 5.0758 5.757 5.0758 5.84V8.264C5.0758 8.368 5.0618 8.396 4.9648 8.403L4.3678 8.451ZM4.04442 13.1853V13.7807H7V12.5784H6.32136L6.23251 13.0832C6.21928 13.1474 6.19376 13.1607 6.12949 13.1607H5.18904L5.9121 12.4698L5.91688 12.4652C6.38185 12.019 6.7949 11.6227 6.7949 11.0236C6.7949 10.4225 6.44329 10 5.4518 10C4.77977 10 4.00567 10.1664 4 11.1834L4.86957 11.2609C4.86957 10.8062 5.01701 10.6909 5.36862 10.6909C5.70794 10.6909 5.82325 10.8639 5.82325 11.1002C5.82325 11.4538 5.56402 11.7053 4.96038 12.2909L4.9017 12.3478L4.04442 13.1853ZM6.18175 17.0207C6.70857 17.1017 6.9999 17.4172 6.9999 17.9748C6.9999 18.7939 6.38652 19.1783 5.49948 19.1783C4.874 19.1783 4.31553 18.9549 4 18.6077L4.49517 18.0623C4.73159 18.2922 4.99128 18.4709 5.42595 18.4709C5.77313 18.4709 6.07005 18.3471 6.07005 17.9133C6.07005 17.5354 5.83456 17.38 5.45015 17.38C5.29564 17.38 5.17744 17.393 4.99128 17.4237V16.8038L5.29564 16.7666C5.74149 16.7108 5.98349 16.4939 5.98349 16.0974C5.98349 15.861 5.87831 15.6692 5.53113 15.6692C5.19605 15.6692 5.03503 15.7809 5.03503 16.2212L4.18616 16.1467C4.18616 15.1666 4.92333 15 5.57488 15C6.52893 15 6.89472 15.3649 6.89472 16.0285C6.89472 16.5497 6.57267 16.8783 6.18175 16.9956V17.0207ZM20 11H10V13H20V11ZM10 16H20V18H10V16ZM20 6H10V8H20V6Z" fill="#678099"/>
</svg>
