<svg width="24" height="24" viewBox="0 0 24 24" fill="none" xmlns="http://www.w3.org/2000/svg">
    <path d="M7.71038 18V5.436H13.3624C13.9384 5.436 14.4544 5.532 14.9104 5.724C15.3784 5.904 15.7744 6.168 16.0984 6.516C16.4224 6.852 16.6684 7.26 16.8364 7.74C17.0044 8.22 17.0884 8.748 17.0884 9.324C17.0884 9.912 17.0044 10.446 16.8364 10.926C16.6684 11.394 16.4224 11.802 16.0984 12.15C15.7744 12.486 15.3784 12.75 14.9104 12.942C14.4544 13.122 13.9384 13.212 13.3624 13.212H10.0864V18H7.71038ZM10.0864 11.16H13.1464C13.6024 11.16 13.9624 11.04 14.2264 10.8C14.4904 10.548 14.6224 10.194 14.6224 9.738V8.91C14.6224 8.454 14.4904 8.106 14.2264 7.866C13.9624 7.626 13.6024 7.506 13.1464 7.506H10.0864V11.16Z" fill="#678099"/>
</svg>
