<svg width="24" height="24" viewBox="0 0 24 24" fill="none" xmlns="http://www.w3.org/2000/svg">
    <path fill-rule="evenodd" clip-rule="evenodd" d="M15.8921 14H12.8201C13.0741 14.3096 13.2023 14.8796 13.2023 15.2667C13.2023 16.1028 12.4392 16.7639 11.4219 16.7639C10.1502 16.7639 9.26977 16.1611 8.46762 15.5583C8.29153 15.4222 7.95894 15.4222 7.80242 15.6944L7.09809 16.9C6.92201 17.2111 7.00027 17.3278 7.19592 17.4833C7.76329 17.9694 9.03499 19 11.5001 19C14.2587 19 16 17.1528 16 15.15C16 14.8204 15.9622 14.2842 15.8921 14ZM7.0394 8.73333C7.0394 9.06326 7.07742 9.71463 7.14801 10H10.0475C9.7467 9.68054 9.60237 8.98585 9.60237 8.57778C9.60237 7.83889 10.2089 7.21667 11.3241 7.21667C12.3379 7.21667 13.1085 7.69994 13.8979 8.1949C13.9463 8.2253 13.9949 8.25574 14.0435 8.28611C14.2783 8.44167 14.5718 8.28611 14.7283 8.05278L15.4718 6.94444C15.6087 6.75 15.55 6.41944 15.3544 6.30278C14.9631 6.01111 13.437 5 11.4414 5C8.33066 5 7.0394 7.00278 7.0394 8.73333ZM18 13H6C5.44772 13 5 12.5523 5 12C5 11.4477 5.44772 11 6 11H18C18.5523 11 19 11.4477 19 12C19 12.5523 18.5523 13 18 13Z" fill="#678099"/>
</svg>
