<svg width="24" height="24" viewBox="0 0 24 24" fill="none" xmlns="http://www.w3.org/2000/svg">
    <path fill-rule="evenodd" clip-rule="evenodd" d="M4 5H10H16V9H15L14.2764 7.55279C14.107 7.214 13.7607 7 13.382 7H11V16.2792C11 16.7097 11.2754 17.0918 11.6838 17.2279L14 18V19H10H6V18L8.31623 17.2279C8.72457 17.0918 9 16.7097 9 16.2792V7H6.61803C6.23926 7 5.893 7.214 5.72361 7.55279L5 9H4V5ZM16.0597 19.2131V20H20V18.4097H19.0961L18.9768 19.0777C18.9596 19.1626 18.9254 19.1796 18.8403 19.1796H17.5862L18.5502 18.2656L18.5558 18.2603C19.1762 17.6706 19.7271 17.1469 19.7271 16.3536C19.7271 15.5584 19.258 15 17.9359 15C17.0404 15 16.0083 15.2203 16 16.5651L17.1597 16.667C17.1597 16.0663 17.3558 15.914 17.8254 15.914C18.2773 15.914 18.4309 16.1421 18.4309 16.4555C18.4309 16.9234 18.0855 17.2557 17.2782 18.0324C17.2534 18.0562 17.2283 18.0804 17.2027 18.105L16.0597 19.2131Z" fill="#678099"/>
</svg>
