<svg width="24" height="24" viewBox="0 0 24 24" fill="none" xmlns="http://www.w3.org/2000/svg">
    <path fill-rule="evenodd" clip-rule="evenodd" d="M16.0597 8.21309V9H20V7.40966H19.0961L18.9768 8.07774C18.9596 8.16263 18.9254 8.1796 18.8403 8.1796H17.5862L18.5502 7.26559L18.5558 7.26034C19.1762 6.67057 19.7271 6.14687 19.7271 5.35359C19.7271 4.55841 19.258 4 17.9359 4C17.0404 4 16.0083 4.22025 16 5.56511L17.1597 5.66698C17.1597 5.06635 17.3558 4.91401 17.8254 4.91401C18.2773 4.91401 18.4309 5.14206 18.4309 5.45545C18.4309 5.92338 18.0855 6.25565 17.2782 7.0324C17.2534 7.05618 17.2283 7.08037 17.2027 7.10499L16.0597 8.21309ZM10 5H15V9L14.2764 7.55279C14.107 7.214 13.7607 7 13.382 7H11V16.2792C11 16.7097 11.2754 17.0918 11.6838 17.2279L14 18V19H10H6V18L8.31623 17.2279C8.72457 17.0918 9 16.7097 9 16.2792V7H6.61803C6.23926 7 5.893 7.214 5.72361 7.55279L5 9H4V5H10Z" fill="#678099"/>
</svg>
