<svg width="24" height="24" viewBox="0 0 24 24" fill="none" xmlns="http://www.w3.org/2000/svg">
    <path fill-rule="evenodd" clip-rule="evenodd" d="M9.42537 11.8549V5H7V11.5437C7 12.4836 7.08706 13.2953 7.26119 13.9789C7.43532 14.6624 7.72139 15.23 8.1194 15.6817C8.51741 16.1333 9.02736 16.469 9.64925 16.6887C10.2836 16.8962 11.0609 17 11.9813 17C12.8893 17 13.6604 16.8962 14.2948 16.6887C14.9415 16.469 15.4639 16.1333 15.8619 15.6817C16.26 15.23 16.546 14.6624 16.7201 13.9789C16.9067 13.2953 17 12.4836 17 11.5437V5H14.5746V11.8549C14.5746 12.8559 14.3756 13.6066 13.9776 14.107C13.592 14.6075 12.9328 14.8577 12 14.8577C11.0672 14.8577 10.4017 14.6075 10.0037 14.107C9.61816 13.6066 9.42537 12.8559 9.42537 11.8549ZM8 18C7.44772 18 7 18.4477 7 19C7 19.5523 7.44772 20 8 20H16C16.5523 20 17 19.5523 17 19C17 18.4477 16.5523 18 16 18H8Z" fill="#678099"/>
</svg>
