<svg width="24" height="24" viewBox="0 0 24 24" fill="none" xmlns="http://www.w3.org/2000/svg">
    <path fill-rule="evenodd" clip-rule="evenodd" d="M4 7C4 8.10457 4.89543 9 6 9C7.10457 9 8 8.10457 8 7C8 5.89543 7.10457 5 6 5C4.89543 5 4 5.89543 4 7ZM7 7C7 7.55228 6.55228 8 6 8C5.44772 8 5 7.55228 5 7C5 6.44772 5.44772 6 6 6C6.55228 6 7 6.44772 7 7ZM20 6H10V8H20V6ZM10 11H20V13H10V11ZM4 12C4 13.1046 4.89543 14 6 14C7.10457 14 8 13.1046 8 12C8 10.8954 7.10457 10 6 10C4.89543 10 4 10.8954 4 12ZM7 12C7 12.5523 6.55228 13 6 13C5.44772 13 5 12.5523 5 12C5 11.4477 5.44772 11 6 11C6.55228 11 7 11.4477 7 12ZM6 19C4.89543 19 4 18.1046 4 17C4 15.8954 4.89543 15 6 15C7.10457 15 8 15.8954 8 17C8 18.1046 7.10457 19 6 19ZM6 18C6.55228 18 7 17.5523 7 17C7 16.4477 6.55228 16 6 16C5.44772 16 5 16.4477 5 17C5 17.5523 5.44772 18 6 18ZM20 16H10V18H20V16Z" fill="#678099"/>
</svg>
