<svg xmlns="http://www.w3.org/2000/svg" width="16" height="16" viewBox="0 0 16 16">
  <path d="M0.342,14 C0.072,14 -0.072,13.766 0.036,13.532 L5.634,1.418 C5.688,1.31 5.778,1.22 5.94,1.22 L6.12,1.22 C6.3,1.22 6.372,1.31 6.426,1.418 L11.97,13.532 C12.078,13.766 11.934,14 11.664,14 L10.098,14 C9.828,14 9.702,13.892 9.576,13.64 L8.694,11.696 L3.312,11.696 L2.43,13.64 C2.358,13.82 2.196,14 1.908,14 L0.342,14 Z M4.194,9.698 L7.812,9.698 L6.012,5.738 L5.958,5.738 L4.194,9.698 Z M12.344,12.53 C12.344,11.71 13.014,11.08 14.184,11.08 C14.654,11.08 15.074,11.21 15.074,11.21 C15.094,10.62 14.924,10.34 14.434,10.34 C14.014,10.34 13.404,10.43 13.134,10.51 C12.984,10.56 12.894,10.45 12.874,10.31 L12.774,9.79 C12.734,9.62 12.824,9.54 12.924,9.51 C13.024,9.47 13.754,9.28 14.504,9.28 C15.944,9.28 16.244,10.03 16.244,11.29 L16.244,13.78 C16.244,13.9 16.144,14 16.024,14 L15.684,14 C15.604,14 15.544,13.97 15.484,13.84 L15.354,13.53 C15.084,13.79 14.624,14.11 13.904,14.11 C12.984,14.11 12.344,13.52 12.344,12.53 Z M13.544,12.53 C13.544,12.92 13.784,13.18 14.214,13.18 C14.624,13.18 14.984,12.86 15.044,12.69 L15.044,12.01 C15.044,12.01 14.734,11.87 14.364,11.87 C13.834,11.87 13.544,12.12 13.544,12.53 Z"/>
</svg>