<svg xmlns="http://www.w3.org/2000/svg" width="16" height="16" viewBox="0 0 16 16">
  <path d="M3.71466392,4 L5.5914105,4 L5.64318282,4.11648772 L5.68201206,4.24591852 L5.7855567,4.47889395 L5.82438594,4.60832475 L5.92793058,4.84130019 L5.9797029,4.97073099 L6.01853214,5.08721871 L6.07030446,5.20370643 L6.12207678,5.33313723 L6.16090602,5.44962494 L6.21267834,5.56611266 L6.26445065,5.69554346 L6.30327989,5.81203118 L6.35505221,5.9285189 L6.40682453,6.0579497 L6.45859685,6.17443742 L6.49742609,6.29092514 L6.54919841,6.42035593 L6.60097073,6.53684365 L6.63979997,6.66627445 L6.74334461,6.89924989 L6.78217385,7.02868069 L6.88571849,7.26165613 L6.93749081,7.39108692 L6.97632005,7.50757464 L7.02809237,7.62406236 L7.07986469,7.75349316 L7.11869393,7.86998088 L7.17046625,7.9864686 L7.22223856,8.1158994 L7.2610678,8.23238712 L7.31284012,8.34887483 L7.36461244,8.47830563 L7.41638476,8.59479335 L7.455214,8.71128107 L7.50698632,8.84071187 L7.55875864,8.95719959 L7.59758788,9.07368731 L7.6493602,9.20311811 L7.70113252,9.31960582 L7.73996176,9.43609354 L7.79173408,9.56552434 L7.8435064,9.68201206 L7.88233564,9.79849978 L7.93410796,9.92793058 L8.0376526,10.160906 L8.07648184,10.2903368 L8.18002647,10.5233123 L8.21885571,10.6527431 L8.32240035,10.8857185 L8.36122959,11.0151493 L8.41300191,11.131637 L8.46477423,11.2610678 L8.51654655,11.3775555 L8.55537579,11.4940432 L8.60714811,11.623474 L8.65892043,11.7399618 L8.69774967,11.8564495 L8.74952199,11.9858803 L8.80129431,12.102368 L8.84012355,12.2188557 L8.89189587,12.3482865 L8.99544051,12.581262 L9.03426975,12.7106927 L9.13781438,12.9436682 L9.17664362,13.073099 L9.22841594,13.1895867 L8.96955435,13.241359 L8.85306663,13.2543021 L8.46477423,13.3319606 L8.34828651,13.3449037 L7.83056332,13.4484483 L7.7140756,13.4613914 L7.455214,13.5131637 L7.40344168,13.396676 L7.36461244,13.2801883 L7.31284012,13.1507575 L7.27401088,13.0342697 L7.22223856,12.917782 L7.18340932,12.8012943 L7.13163701,12.6848066 L7.09280777,12.5553758 L7.04103545,12.4388881 L7.00220621,12.3224004 L6.95043389,12.2059126 L6.91160465,12.0894249 L6.85983233,11.9729372 L6.82100309,11.8435064 L6.76923077,11.7270187 L6.73040153,11.610531 L6.67862921,11.4940432 L6.63979997,11.3775555 L6.58802765,11.2481247 L6.54919841,11.131637 L6.49742609,11.0151493 L2.66627445,11.0151493 L2.62744521,11.131637 L2.57567289,11.2610678 L2.53684365,11.3775555 L2.48507133,11.4940432 L2.44624209,11.610531 L2.40741285,11.7399618 L2.35564054,11.8564495 L2.3168113,11.9729372 L2.26503898,12.102368 L2.1873805,12.3353434 L2.13560818,12.4647742 L2.09677894,12.581262 L2.04500662,12.6977497 L2.00617738,12.8142374 L1.96734814,12.9436682 L1.91557582,13.0601559 L1.87674658,13.1766436 L1.82497426,13.3060744 L1.78614502,13.4225621 L0,13.4225621 L0.0517723195,13.3060744 L0.0906015591,13.1766436 L0.194146198,12.9436682 L0.232975438,12.8142374 L0.336520076,12.581262 L0.375349316,12.4518312 L0.478893955,12.2188557 L0.517723195,12.0894249 L0.621267834,11.8564495 L0.673040153,11.7270187 L0.711869393,11.610531 L0.763641712,11.4940432 L0.815414031,11.3646124 L0.854243271,11.2481247 L0.906015591,11.131637 L0.95778791,11.0022062 L0.99661715,10.8857185 L1.04838947,10.7692308 L1.10016179,10.6398 L1.13899103,10.5233123 L1.19076335,10.4068245 L1.24253567,10.2773937 L1.28136491,10.160906 L1.33313723,10.0444183 L1.38490955,9.9149875 L1.42373879,9.79849978 L1.4755111,9.68201206 L1.52728342,9.55258126 L1.56611266,9.43609354 L1.61788498,9.31960582 L1.6696573,9.19017503 L1.70848654,9.07368731 L1.76025886,8.95719959 L1.81203118,8.82776879 L1.8638035,8.71128107 L1.90263274,8.59479335 L1.95440506,8.46536255 L2.00617738,8.34887483 L2.04500662,8.23238712 L2.09677894,8.10295632 L2.14855126,7.9864686 L2.1873805,7.86998088 L2.23915282,7.74055008 L2.29092514,7.62406236 L2.32975438,7.50757464 L2.3815267,7.37814384 L2.43329901,7.26165613 L2.47212825,7.14516841 L2.52390057,7.01573761 L2.57567289,6.89924989 L2.61450213,6.78276217 L2.66627445,6.65333137 L2.71804677,6.53684365 L2.75687601,6.42035593 L2.80864833,6.29092514 L2.86042065,6.17443742 L2.89924989,6.0579497 L2.95102221,5.9285189 L3.00279453,5.81203118 L3.04162377,5.69554346 L3.09339609,5.56611266 L3.19694073,5.33313723 L3.23576997,5.20370643 L3.33931461,4.97073099 L3.37814384,4.84130019 L3.48168848,4.60832475 L3.52051772,4.47889395 L3.62406236,4.24591852 L3.6628916,4.11648772 L3.71466392,4 Z M3.19694073,9.56552434 L5.96675982,9.56552434 L5.9149875,9.44903662 L5.87615826,9.31960582 L5.82438594,9.20311811 L5.7855567,9.07368731 L5.73378438,8.95719959 L5.69495514,8.84071187 L5.64318282,8.71128107 L5.5914105,8.59479335 L5.55258126,8.46536255 L5.50080894,8.34887483 L5.4619797,8.23238712 L5.41020738,8.10295632 L5.37137814,7.9864686 L5.31960582,7.8570378 L5.28077658,7.74055008 L5.22900427,7.62406236 L5.17723195,7.49463156 L5.13840271,7.37814384 L5.08663039,7.24871305 L5.04780115,7.13222533 L4.99602883,7.01573761 L4.95719959,6.88630681 L4.90542727,6.76981909 L4.85365495,6.64038829 L4.81482571,6.52390057 L4.76305339,6.40741285 L4.72422415,6.27798206 L4.67245183,6.16149434 L4.63362259,6.03206354 L4.58185027,5.91557582 L4.53007795,6.03206354 L4.49124871,6.16149434 L4.43947639,6.27798206 L4.40064715,6.40741285 L4.34887483,6.52390057 L4.31004559,6.64038829 L4.25827328,6.76981909 L4.20650096,6.88630681 L4.16767172,7.01573761 L4.1158994,7.13222533 L4.07707016,7.24871305 L4.02529784,7.37814384 L3.9864686,7.49463156 L3.93469628,7.62406236 L3.89586704,7.74055008 L3.84409472,7.8570378 L3.7923224,7.9864686 L3.75349316,8.10295632 L3.70172084,8.23238712 L3.6628916,8.34887483 L3.61111928,8.46536255 L3.57229004,8.59479335 L3.52051772,8.71128107 L3.4687454,8.84071187 L3.42991616,8.95719959 L3.37814384,9.07368731 L3.33931461,9.20311811 L3.28754229,9.31960582 L3.24871305,9.44903662 L3.19694073,9.56552434 Z M11.9899985,6.56978967 L13.3549051,6.56978967 L13.3925577,6.65450802 L13.4207972,6.74863951 L13.4961024,6.91807619 L13.5243418,7.01220768 L13.599647,7.18164436 L13.6372996,7.27577585 L13.665539,7.36049419 L13.7031916,7.44521253 L13.7408442,7.53934402 L13.7690837,7.62406236 L13.8067363,7.7087807 L13.8443889,7.80291219 L13.8726283,7.88763053 L13.9102809,7.97234887 L13.9479335,8.06648036 L13.9855861,8.15119871 L14.0138256,8.23591705 L14.0514782,8.33004854 L14.0891308,8.41476688 L14.1173702,8.50889837 L14.1926754,8.67833505 L14.2209148,8.77246654 L14.29622,8.94190322 L14.3338726,9.03603471 L14.3621121,9.12075305 L14.3997647,9.20547139 L14.4374173,9.29960288 L14.4656567,9.38432122 L14.5033093,9.46903956 L14.5409619,9.56317105 L14.5692014,9.6478894 L14.6068539,9.73260774 L14.6445065,9.82673923 L14.6821591,9.91145757 L14.7103986,9.99617591 L14.7480512,10.0903074 L14.7857038,10.1750257 L14.8139432,10.2597441 L14.8515958,10.3538756 L14.8892484,10.4385939 L14.9174879,10.5233123 L14.9551405,10.6174437 L14.9927931,10.7021621 L15.0210325,10.7868804 L15.0586851,10.8810119 L15.1339903,11.0504486 L15.1622297,11.1445801 L15.2375349,11.3140168 L15.2657744,11.4081483 L15.3410796,11.5775849 L15.369319,11.6717164 L15.4069716,11.7564348 L15.4446242,11.8505663 L15.4822768,11.9352846 L15.5105163,12.0200029 L15.5481688,12.1141344 L15.5858214,12.1988528 L15.6140609,12.2835711 L15.6517135,12.3777026 L15.6893661,12.4624209 L15.7176055,12.5471393 L15.7552581,12.6412708 L15.8305633,12.8107075 L15.8588028,12.9048389 L15.934108,13.0742756 L15.9623474,13.1684071 L16,13.2531255 L15.811737,13.2907781 L15.7270187,13.3001912 L15.4446242,13.3566701 L15.3599059,13.3660832 L14.9833799,13.4413884 L14.8986616,13.4508016 L14.7103986,13.4884542 L14.672746,13.4037358 L14.6445065,13.3190175 L14.6068539,13.224886 L14.5786145,13.1401677 L14.5409619,13.0554493 L14.5127225,12.970731 L14.4750699,12.8860126 L14.4468304,12.7918812 L14.4091778,12.7071628 L14.3809384,12.6224445 L14.3432858,12.5377261 L14.3150463,12.4530078 L14.2773937,12.3682895 L14.2491543,12.274158 L14.2115017,12.1894396 L14.1832622,12.1047213 L14.1456096,12.0200029 L14.1173702,11.9352846 L14.0797176,11.8411531 L14.0514782,11.7564348 L14.0138256,11.6717164 L11.2275335,11.6717164 L11.199294,11.7564348 L11.1616414,11.8505663 L11.133402,11.9352846 L11.0957494,12.0200029 L11.0675099,12.1047213 L11.0392705,12.1988528 L11.0016179,12.2835711 L10.9733784,12.3682895 L10.9357258,12.4624209 L10.8792469,12.6318576 L10.8415944,12.7259891 L10.8133549,12.8107075 L10.7757023,12.8954258 L10.7474629,12.9801441 L10.7192234,13.0742756 L10.6815708,13.158994 L10.6533314,13.2437123 L10.6156788,13.3378438 L10.5874393,13.4225621 L9.28842477,13.4225621 L9.32607736,13.3378438 L9.35431681,13.2437123 L9.429622,13.0742756 L9.45786145,12.9801441 L9.53316664,12.8107075 L9.56140609,12.716576 L9.63671128,12.5471393 L9.66495073,12.4530078 L9.74025592,12.2835711 L9.77790852,12.1894396 L9.80614796,12.1047213 L9.84380056,12.0200029 L9.88145315,11.9258715 L9.9096926,11.8411531 L9.9473452,11.7564348 L9.98499779,11.6623033 L10.0132372,11.5775849 L10.0508898,11.4928666 L10.0885424,11.3987351 L10.1167819,11.3140168 L10.1544345,11.2292984 L10.1920871,11.1351669 L10.2203265,11.0504486 L10.2579791,10.9657303 L10.2956317,10.8715988 L10.3238712,10.7868804 L10.3615238,10.7021621 L10.3991763,10.6080306 L10.4274158,10.5233123 L10.4650684,10.4385939 L10.502721,10.3444624 L10.5309604,10.2597441 L10.568613,10.1750257 L10.6062656,10.0808942 L10.6439182,9.99617591 L10.6721577,9.91145757 L10.7098103,9.81732608 L10.7474629,9.73260774 L10.7757023,9.6478894 L10.8133549,9.55375791 L10.8510075,9.46903956 L10.8792469,9.38432122 L10.9168995,9.29018973 L10.9545521,9.20547139 L10.9827916,9.12075305 L11.0204442,9.02662156 L11.0580968,8.94190322 L11.0863362,8.85718488 L11.1239888,8.76305339 L11.1616414,8.67833505 L11.1898809,8.59361671 L11.2275335,8.49948522 L11.2651861,8.41476688 L11.2934255,8.33004854 L11.3310781,8.23591705 L11.3687307,8.15119871 L11.3969701,8.06648036 L11.4346227,7.97234887 L11.4722753,7.88763053 L11.5005148,7.80291219 L11.5381674,7.7087807 L11.6134726,7.53934402 L11.641712,7.44521253 L11.7170172,7.27577585 L11.7452567,7.18164436 L11.8205618,7.01220768 L11.8488013,6.91807619 L11.9241065,6.74863951 L11.9523459,6.65450802 L11.9899985,6.56978967 Z M11.6134726,10.6174437 L13.6278865,10.6174437 L13.5902339,10.5327254 L13.5619944,10.4385939 L13.5243418,10.3538756 L13.4961024,10.2597441 L13.4584498,10.1750257 L13.4302103,10.0903074 L13.3925577,9.99617591 L13.3549051,9.91145757 L13.3266657,9.81732608 L13.2890131,9.73260774 L13.2607736,9.6478894 L13.223121,9.55375791 L13.1948816,9.46903956 L13.157229,9.37490807 L13.1289896,9.29018973 L13.091337,9.20547139 L13.0536844,9.1113399 L13.0254449,9.02662156 L12.9877923,8.93249007 L12.9595529,8.84777173 L12.9219003,8.76305339 L12.8936608,8.6689219 L12.8560082,8.58420356 L12.8183556,8.49007207 L12.7901162,8.40535373 L12.7524636,8.32063539 L12.7242242,8.2265039 L12.6865716,8.14178556 L12.6583321,8.04765407 L12.6206795,7.96293573 L12.5830269,8.04765407 L12.5547875,8.14178556 L12.5171349,8.2265039 L12.4888954,8.32063539 L12.4512428,8.40535373 L12.4230034,8.49007207 L12.3853508,8.58420356 L12.3476982,8.6689219 L12.3194587,8.76305339 L12.2818061,8.84777173 L12.2535667,8.93249007 L12.2159141,9.02662156 L12.1876747,9.1113399 L12.1500221,9.20547139 L12.1217826,9.29018973 L12.08413,9.37490807 L12.0464774,9.46903956 L12.018238,9.55375791 L11.9805854,9.6478894 L11.9523459,9.73260774 L11.9146933,9.81732608 L11.8864539,9.91145757 L11.8488013,9.99617591 L11.8111487,10.0903074 L11.7829093,10.1750257 L11.7452567,10.2597441 L11.7170172,10.3538756 L11.6793646,10.4385939 L11.6511252,10.5327254 L11.6134726,10.6174437 Z"/>
</svg>
