<svg width="16" height="16" viewBox="0 0 16 16" fill="none" xmlns="http://www.w3.org/2000/svg">
    <path d="M6.50001 2C5.67301 2 5.00001 1.327 5.00001 0.5C5.00001 0.224 4.77601 0 4.50001 0C4.22401 0 4.00001 0.224 4.00001 0.5C4.00001 1.327 3.32701 2 2.50001 2C2.22401 2 2.00001 2.224 2.00001 2.5C2.00001 2.776 2.22401 3 2.50001 3C3.32701 3 4.00001 3.673 4.00001 4.5C4.00001 4.776 4.22401 5 4.50001 5C4.77601 5 5.00001 4.776 5.00001 4.5C5.00001 3.673 5.67301 3 6.50001 3C6.77601 3 7.00001 2.776 7.00001 2.5C7.00001 2.224 6.77601 2 6.50001 2Z" fill="url(#linearGradient)" />
    <path d="M11.5 3C12.327 3 13 3.673 13 4.5C13 4.776 13.224 5 13.5 5C13.776 5 14 4.776 14 4.5C14 3.673 14.673 3 15.5 3C15.776 3 16 2.776 16 2.5C16 2.224 15.776 2 15.5 2C14.673 2 14 1.327 14 0.5C14 0.224 13.776 0 13.5 0C13.224 0 13 0.224 13 0.5C13 1.327 12.327 2 11.5 2C11.224 2 11 2.224 11 2.5C11 2.776 11.224 3 11.5 3Z" fill="url(#linearGradient)" />
    <path d="M15.5 10.993C14.673 10.993 14 10.32 14 9.493C14 9.217 13.776 8.993 13.5 8.993C13.224 8.993 13 9.217 13 9.493C13 10.32 12.327 10.993 11.5 10.993C11.224 10.993 11 11.217 11 11.493C11 11.769 11.224 11.993 11.5 11.993C12.327 11.993 13 12.666 13 13.493C13 13.769 13.224 13.993 13.5 13.993C13.776 13.993 14 13.769 14 13.493C14 12.666 14.673 11.993 15.5 11.993C15.776 11.993 16 11.769 16 11.493C16 11.217 15.776 10.993 15.5 10.993Z" fill="url(#linearGradient)" />
    <path d="M10.707 6.293L9.70701 5.293C9.31601 4.902 8.68401 4.902 8.29301 5.293L6.32301 7.263L8.73701 9.677L10.707 7.707C11.098 7.316 11.098 6.684 10.707 6.293Z" fill="url(#linearGradient)" />
    <path d="M5.26301 8.323L0.293006 13.293C-0.0979941 13.684 -0.0979941 14.316 0.293006 14.707L1.29301 15.707C1.48801 15.902 1.74401 16 2.00001 16C2.25601 16 2.51201 15.902 2.70701 15.707L7.67701 10.737L5.26301 8.323Z" fill="url(#linearGradient)" />
    <defs>
        <linearGradient id="linearGradient" x1="-0.000244141" y1="16" x2="15.9998" y2="-0.000249861" gradientUnits="userSpaceOnUse">
            <stop stop-color="#6E19E6"/>
            <stop offset="1" stop-color="#E51A2B"/>
        </linearGradient>
    </defs>
</svg>