<svg width="16" height="16" viewBox="0 0 16 16" fill="none" xmlns="http://www.w3.org/2000/svg">
    <path d="M11.0155 7.95434L8.04565 4.98452L0.0554199 12.9747L3.02524 15.9446L11.0155 7.95434Z" fill="url(#paint0_linear_589_5487)"/>
    <path d="M14.4092 3.00493L12.995 1.59073L10.5908 3.99487L12.005 5.40907L14.4092 3.00493Z" fill="url(#paint1_linear_589_5487)"/>
    <path d="M16.0001 7H13.0001V9H16.0001V7Z" fill="url(#paint2_linear_589_5487)"/>
    <path d="M14.364 12.955L12.2427 10.8337L10.8285 12.2479L12.9498 14.3692L14.364 12.955Z" fill="url(#paint3_linear_589_5487)"/>
    <path d="M9.00009 0H7.00009V3H9.00009V0Z" fill="url(#paint4_linear_589_5487)"/>
    <path d="M5.17164 3.75193L3.05034 1.63063L1.63614 3.04483L3.75744 5.16613L5.17164 3.75193Z" fill="url(#paint5_linear_589_5487)"/>
    <defs>
        <linearGradient id="paint0_linear_589_5487" x1="0.0554199" y1="15.9446" x2="16" y2="-0.000100135" gradientUnits="userSpaceOnUse">
            <stop stop-color="#6E19E6"/>
            <stop offset="1" stop-color="#E51A2B"/>
        </linearGradient>
        <linearGradient id="paint1_linear_589_5487" x1="0.0554199" y1="15.9446" x2="16" y2="-0.000100135" gradientUnits="userSpaceOnUse">
            <stop stop-color="#6E19E6"/>
            <stop offset="1" stop-color="#E51A2B"/>
        </linearGradient>
        <linearGradient id="paint2_linear_589_5487" x1="0.0554199" y1="15.9446" x2="16" y2="-0.000100135" gradientUnits="userSpaceOnUse">
            <stop stop-color="#6E19E6"/>
            <stop offset="1" stop-color="#E51A2B"/>
        </linearGradient>
        <linearGradient id="paint3_linear_589_5487" x1="0.0554199" y1="15.9446" x2="16" y2="-0.000100135" gradientUnits="userSpaceOnUse">
            <stop stop-color="#6E19E6"/>
            <stop offset="1" stop-color="#E51A2B"/>
        </linearGradient>
        <linearGradient id="paint4_linear_589_5487" x1="0.0554199" y1="15.9446" x2="16" y2="-0.000100135" gradientUnits="userSpaceOnUse">
            <stop stop-color="#6E19E6"/>
            <stop offset="1" stop-color="#E51A2B"/>
        </linearGradient>
        <linearGradient id="paint5_linear_589_5487" x1="0.0554199" y1="15.9446" x2="16" y2="-0.000100135" gradientUnits="userSpaceOnUse">
            <stop stop-color="#6E19E6"/>
            <stop offset="1" stop-color="#E51A2B"/>
        </linearGradient>
    </defs>
</svg>
