<svg xmlns="http://www.w3.org/2000/svg" width="18" height="16" viewBox="0 0 18 16">
  <path fill="#8492A6" fill-rule="evenodd" d="M10,9 C9.4,9 9,8.6 9,8 C9,7.4 9.4,7 10,7 L20,7 C20.6,7 21,7.4 21,8 C21,8.6 20.6,9 20,9 L10,9 Z M6,13 C6,11.89543 6.895431,11 8,11 L11,11 C11.55228,11 12,11.44772 12,12 L12,15 C12,15.55228 12.44772,16 13,16 L17,16 C17.5523,16 18,15.55228 18,15 L18,12 C18,11.44772 18.4477,11 19,11 L22,11 C23.1046,11 24,11.89543 24,13 L24,21 C24,22.1046 23.1046,23 22,23 L15,23 L8,23 C6.89543,23 6,22.1046 6,21 L6,13 Z" transform="translate(-6 -7)"/>
</svg>
