<svg width="9px" height="8px" viewBox="0 0 9 8" version="1.1" xmlns="http://www.w3.org/2000/svg" xmlns:xlink="http://www.w3.org/1999/xlink">
    <title>Fill 321</title>
    <desc>Created with Sketch.</desc>
    <defs></defs>
    <g id="Page-1" stroke="none" stroke-width="1" fill="none" fill-rule="evenodd">
        <g id="Presence" transform="translate(-230.000000, -565.000000)" fill="#fff">
            <path d="M235.6,570 L234.3,571.3 C233.9,571.7 233.9,572.3 234.3,572.7 C234.5,572.9 234.7,573 235,573 C235.3,573 235.5,572.9 235.7,572.7 L238.7,569.7 C239.1,569.3 239.1,568.7 238.7,568.3 L235.7,565.3 C235.3,564.9 234.7,564.9 234.3,565.3 C233.9,565.7 233.9,566.3 234.3,566.7 L235.6,568 L231,568 C230.4,568 230,568.4 230,569 C230,569.6 230.4,570 231,570 L235.6,570 Z" id="Fill-321"></path>
        </g>
    </g>
</svg>