<svg width="16" height="16" viewBox="0 -1 16 16" fill="none" xmlns="http://www.w3.org/2000/svg">
<path d="M10 1.00001C9.6134 0.613413 8.9866 0.613412 8.6 1.00001C8.2134 1.38661 8.2134 2.01341 8.6 2.40001L12.2 6.00001L1 6.00001C0.447715 6.00001 6.34015e-07 6.44773 5.85733e-07 7.00001C5.3745e-07 7.5523 0.447716 8.00001 1 8.00001L12.2 8.00001L8.6 11.6C8.2134 11.9866 8.2134 12.6134 8.6 13C8.9866 13.3866 9.6134 13.3866 10 13L15.2929 7.70712C15.6834 7.3166 15.6834 6.68343 15.2929 6.29291L10 1.00001Z" fill="#29333D"/>
</svg>
