<svg width="14" height="14" viewBox="0 0 14 14" fill="none" xmlns="http://www.w3.org/2000/svg">
    <path d="M9.13889 0H3C2.44772 0 2 0.447715 2 1C2 1.55228 2.44772 2 3 2H9.13889C10.7917 2 12 3.34722 12 5C12 6.65278 10.7917 7.77778 9.13889 7.77778H3.69444L5.93056 5.54167C6.30642 5.16581 6.30642 4.55642 5.93056 4.18056C5.5547 3.8047 4.94531 3.80469 4.56945 4.18056L0.707107 8.04289C0.316583 8.43342 0.316583 9.06658 0.707107 9.45711L4.56945 13.3194C4.94531 13.6953 5.5547 13.6953 5.93056 13.3194C6.30642 12.9436 6.30642 12.3342 5.93056 11.9583L3.69444 9.72222H9.13889C11.8611 9.72222 14 7.72222 14 5C14 2.27778 11.8611 0 9.13889 0Z" fill="#29333D"/>
</svg>
