<svg width="24" height="24" viewBox="0 -1 24 24" fill="none" xmlns="http://www.w3.org/2000/svg">
<path fill-rule="evenodd" clip-rule="evenodd" d="M1 0C0.447715 0 0 0.447715 0 1V19C0 19.7957 0.316071 20.5587 0.87868 21.1213C1.44129 21.6839 2.20435 22 3 22H8C8.55228 22 9 21.5523 9 21C9 20.4477 8.55228 20 8 20H3C2.73478 20 2.48043 19.8946 2.29289 19.7071C2.10536 19.5196 2 19.2652 2 19V2H8.5L11.2 5.6C11.3889 5.85181 11.6852 6 12 6H22V19C22 19.2652 21.8946 19.5196 21.7071 19.7071C21.5196 19.8946 21.2652 20 21 20H16C15.4477 20 15 20.4477 15 21C15 21.5523 15.4477 22 16 22H21C21.7957 22 22.5587 21.6839 23.1213 21.1213C23.6839 20.5587 24 19.7957 24 19V5C24 4.44772 23.5523 4 23 4H12.5L9.8 0.4C9.61115 0.148194 9.31476 0 9 0H1ZM11.2995 10.2864C11.3938 10.1937 11.502 10.1236 11.6172 10.0759C11.7343 10.0273 11.8625 10.0004 11.997 10L12 10L12.003 10C12.2746 10.0008 12.5208 10.1099 12.7005 10.2864L12.7078 10.2936L16.7071 14.2929C17.0976 14.6834 17.0976 15.3166 16.7071 15.7071C16.3166 16.0976 15.6834 16.0976 15.2929 15.7071L13 13.4142V21C13 21.5523 12.5523 22 12 22C11.4477 22 11 21.5523 11 21V13.4142L8.70711 15.7071C8.31658 16.0976 7.68342 16.0976 7.29289 15.7071C6.90237 15.3166 6.90237 14.6834 7.29289 14.2929L11.2922 10.2936L11.2995 10.2864Z" fill="#678099"/>
</svg>
