<svg width="18" height="18" viewBox="0 0 18 18" fill="none" xmlns="http://www.w3.org/2000/svg">
<path fill-rule="evenodd" clip-rule="evenodd" d="M12.2882 3.04675C10.9536 2.48529 9.48162 2.33543 8.06123 2.61641C6.65267 2.89505 5.35854 3.58476 4.34202 4.59808C3.46008 5.63653 2.73657 7.22833 2.54786 8.91235C2.35907 10.5971 2.71189 12.2817 3.85913 13.5993L3.85984 13.6001C5.02538 14.9416 6.72163 15.441 8.44538 15.4947C10.171 15.5485 11.7745 15.1468 12.5248 14.8599C13.0407 14.6627 13.6188 14.921 13.816 15.4368C14.0133 15.9527 13.755 16.5308 13.2391 16.728C12.2764 17.0962 10.4089 17.5569 8.38303 17.4938C6.35537 17.4305 4.01974 16.8334 2.3503 14.9121C0.749935 13.0738 0.32537 10.7861 0.560301 8.68963C0.793694 6.60685 1.68415 4.62124 2.84875 3.26697C2.86435 3.24883 2.88059 3.23126 2.89745 3.21429C4.19868 1.90417 5.8617 1.01276 7.67311 0.654431C9.48293 0.296418 11.3584 0.486876 13.0592 1.20135C14.4925 1.78895 15.6976 2.82407 16.4947 4.15242C17.2894 5.47685 17.6361 7.02198 17.4837 8.55868C17.4201 9.52002 17.2365 10.6211 16.761 11.5335C16.2596 12.4957 15.3952 13.299 14.0532 13.403C13.433 13.4511 12.8762 13.3454 12.3982 13.0905C11.9726 12.8636 11.6611 12.546 11.4346 12.2137C11.0918 12.5299 10.7069 12.7926 10.2987 12.9911C9.23892 13.5064 7.93488 13.6246 6.76901 13.0021C5.59761 12.3768 5.08103 11.3239 4.93248 10.3021C4.78865 9.3127 4.97537 8.30802 5.22973 7.55642C5.49563 6.77073 6.07519 5.66738 7.26299 4.95805C8.479 4.23188 10.1455 4.02879 12.3464 4.69941C12.8164 4.84262 13.1128 5.30604 13.0456 5.79276C12.8555 7.16964 12.7504 8.5569 12.7309 9.94665C12.7904 10.3434 12.8767 10.7496 13.0602 11.0457C13.1469 11.1856 13.2391 11.2723 13.3393 11.3258C13.4357 11.3772 13.603 11.4319 13.8987 11.409C14.3887 11.371 14.7208 11.1208 14.9874 10.6092C15.277 10.0536 15.4335 9.26879 15.489 8.4114C15.4898 8.39914 15.4909 8.38689 15.4921 8.37467C15.6055 7.2613 15.3556 6.14112 14.7798 5.18149C14.2039 4.22187 13.3331 3.47431 12.2973 3.05051L12.2882 3.04679L12.2882 3.04675ZM10.7326 9.82115C10.7517 8.68003 10.8253 7.54061 10.9531 6.40679C9.62402 6.1425 8.79963 6.36989 8.28842 6.67517C7.65222 7.05509 7.30128 7.67425 7.12418 8.19755C6.93554 8.75496 6.82677 9.43028 6.91168 10.0144C6.99188 10.566 7.2283 10.9802 7.7109 11.2378C8.19903 11.4984 8.81499 11.4886 9.42418 11.1924C9.99312 10.9158 10.48 10.4204 10.7326 9.82115Z" fill="#8599AD"/>
</svg>
