<svg xmlns="http://www.w3.org/2000/svg" width="24" height="17" viewBox="0 0 24 17">
  <g fill="#4B5761">
    <path d="M11,9.41421356 L9.70710678,10.7071068 C9.31658249,11.0976311 8.68341751,11.0976311 8.29289322,10.7071068 C7.90236893,10.3165825 7.90236893,9.68341751 8.29289322,9.29289322 L11.2928932,6.29289322 C11.6834175,5.90236893 12.3165825,5.90236893 12.7071068,6.29289322 L15.7071068,9.29289322 C16.0976311,9.68341751 16.0976311,10.3165825 15.7071068,10.7071068 C15.3165825,11.0976311 14.6834175,11.0976311 14.2928932,10.7071068 L13,9.41421356 L13,15 C13,15.5522847 12.5522847,16 12,16 C11.4477153,16 11,15.5522847 11,15 L11,9.41421356 Z"/>
    <path d="M24,12 C24,14.7612847 21.7612847,17 19,17 L16,17 C15.4477153,17 15,16.5522847 15,16 C15,15.4477153 15.4477153,15 16,15 L19,15 C20.6567153,15 22,13.6567153 22,12 C22,10.3592041 20.6824064,9.02584411 19.0476703,9.00037117 C18.496724,9.04092662 18.013702,8.62464082 17.9771532,8.06858737 C17.753308,4.66300572 14.9259746,2 11.5,2 C8.03175616,2 5.18391097,4.7278718 5.01683374,8.18428199 C4.99560517,8.62344814 4.69001487,8.99722795 4.26382819,9.10531342 C2.94083386,9.44083884 2,10.6255683 2,12 C2,13.6567153 3.34328475,15 5,15 L8,15 C8.55228475,15 9,15.4477153 9,16 C9,16.5522847 8.55228475,17 8,17 L5,17 C2.23871525,17 0,14.7612847 0,12 C0,9.95075565 1.24847793,8.15685412 3.08056426,7.39646743 C3.62394473,3.209369 7.19637982,0 11.5,0 C15.6887609,0 19.1925713,3.04190505 19.8723117,7.07584111 C22.217774,7.48855356 24,9.53626977 24,12 Z M19.1418769,8.98913703 L19.1456881,8.9885346 C19.135024,8.99032143 19.1312531,8.99095327 19.1181015,8.99268501 C19.1249372,8.99174727 19.1323654,8.99060266 19.1418769,8.98913703 Z"/>
  </g>
</svg>
