<svg xmlns="http://www.w3.org/2000/svg" width="24" height="24" viewBox="0 0 24 24">
  <g fill="#4B5761">
    <path d="M2,2 L2,22 L22,22 L22,2 L2,2 Z M1,0 L23,0 C23.5522847,0 24,0.44771525 24,1 L24,23 C24,23.5522847 23.5522847,24 23,24 L1,24 C0.44771525,24 0,23.5522847 0,23 L0,1 C0,0.44771525 0.44771525,0 1,0 Z"/>
    <path d="M5.86851709 18L18.1957524 18 14.8996438 12.7262263 11.7808688 16.624695C11.4085435 17.0901017 10.7143368 17.1285504 10.2928932 16.7071068L8.15542483 14.5696384 5.86851709 18zM10.9170811 14.5028676L14.2191312 10.375305C14.6496574 9.83714722 15.4827346 9.88557914 15.8479983 10.4700011L20.8479983 18.4700011C21.2642783 19.1360491 20.7854355 20 20 20L4 20C3.20130462 20 2.72491322 19.1098545 3.16794971 18.4452998L7.16794971 12.4452998C7.51799128 11.9202374 8.26088958 11.846676 8.70710678 12.2928932L10.9170811 14.5028676zM10 6C9.44728475 6 9 6.44728475 9 7 9 7.55271525 9.44728475 8 10 8 10.5527153 8 11 7.55271525 11 7 11 6.44728475 10.5527153 6 10 6zM10 4C11.6572847 4 13 5.34271525 13 7 13 8.65728475 11.6572847 10 10 10 8.34271525 10 7 8.65728475 7 7 7 5.34271525 8.34271525 4 10 4z"/>
  </g>
</svg>
