<svg width="20" height="14" viewBox="0 0 20 14" fill="none" xmlns="http://www.w3.org/2000/svg">
    <path d="M12.2984 11.2151C13.4764 10.7125 14.6156 9.82578 14.9954 8.35827C13.0153 8.28904 11.3148 6.8582 11.0119 4.82734C10.6392 2.54262 12.2233 0.419443 14.5295 0.050195C16.8125 -0.272897 19.3284 0.950237 19.9341 4.11192C20.4819 8.41059 17.2354 12.181 12.6789 13.0739C12.1897 13.1697 11.7352 12.8261 11.6481 12.3352C11.5638 11.8599 11.8545 11.4046 12.2984 11.2151Z" fill="#678099"/>
    <path d="M1.34086 11.2151C2.51881 10.7125 3.65804 9.82578 4.03787 8.35827C2.05776 8.28904 0.357204 6.8582 0.0543642 4.82734C-0.318361 2.54262 1.26572 0.419443 3.57196 0.050195C5.8549 -0.272897 8.3708 0.950237 8.97648 4.11192C9.52435 8.41059 6.27781 12.181 1.72128 13.0739C1.23208 13.1697 0.777573 12.8261 0.690531 12.3352C0.606249 11.8599 0.896897 11.4046 1.34086 11.2151Z" fill="#678099"/>
</svg>
