<svg xmlns="http://www.w3.org/2000/svg" width="16" height="16" viewBox="0 0 16 16">
  <path d="M11.9463888,8 C12.5713127,7.3936802 12.9468367,6.57579409 12.9992187,5.7069507 C13.0196771,4.72049227 12.6376181,3.7681747 11.9409207,3.06904456 C11.2442233,2.36991443 10.2928621,1.9841559 9.30566394,2.00049893 L4.50029457,2.00049893 C4.22398951,2.00049893 4,2.22433794 4,2.50045735 L4,13.4995426 C4,13.7756621 4.22398951,13.9995011 4.50029457,13.9995011 L9.30566394,13.9995011 C10.2928621,14.0158441 11.2442233,13.6300856 11.9409207,12.9309554 C12.6376181,12.2318253 13.0196771,11.2795077 12.9992187,10.2930493 C12.9468367,9.42420591 12.5713127,8.6063198 11.9463888,8 L11.9463888,8 Z M6,4 L9.50000002,4 C10.3284271,4.00000002 11,4.67157289 11,5.5 C11,6.32842711 10.3284271,6.99999998 9.50000002,7 L6,7 L6,4 Z M9.5,12 L6,12 L6,9 L9.5,9 C10.3284271,9 11,9.67157288 11,10.5 C11,11.3284271 10.3284271,12 9.5,12 Z"/>
</svg>
