<svg xmlns="http://www.w3.org/2000/svg" width="16" height="16" viewBox="0 0 16 16">
  <path d="M10.9463888,8 C11.5713127,7.3936802 11.9468367,6.57579409 11.9992187,5.7069507 C12.0196771,4.72049227 11.6376181,3.7681747 10.9409207,3.06904456 C10.2442233,2.36991443 9.29286214,1.9841559 8.30566394,2.00049893 L3.50029457,2.00049893 C3.22398951,2.00049893 3,2.22433794 3,2.50045735 L3,13.4995426 C3,13.7756621 3.22398951,13.9995011 3.50029457,13.9995011 L8.30566394,13.9995011 C9.29286214,14.0158441 10.2442233,13.6300856 10.9409207,12.9309554 C11.6376181,12.2318253 12.0196771,11.2795077 11.9992187,10.2930493 C11.9468367,9.42420591 11.5713127,8.6063198 10.9463888,8 L10.9463888,8 Z M5,4 L8.50000002,4 C9.32842714,4.00000002 10,4.67157289 10,5.5 C10,6.32842711 9.32842714,6.99999998 8.50000002,7 L5,7 L5,4 Z M8.5,12 L5,12 L5,9 L8.5,9 C9.32842712,9 10,9.67157288 10,10.5 C10,11.3284271 9.32842712,12 8.5,12 Z"/>
</svg>