<svg width="16" height="16" viewBox="0 0 16 16" fill="none" xmlns="http://www.w3.org/2000/svg">
<path d="M13.953 6.28919C13.9131 6.20237 13.8491 6.12882 13.7686 6.07724C13.6882 6.02567 13.5946 5.99824 13.499 5.99819H8.14003L8.98403 2.61919C9.0108 2.51014 9.00008 2.39525 8.9536 2.29303C8.90712 2.19081 8.82758 2.10721 8.7278 2.0557C8.62801 2.0042 8.5138 1.98778 8.40355 2.00909C8.2933 2.0304 8.19343 2.08821 8.12003 2.17319L2.12003 9.17319C2.05796 9.24577 2.01797 9.3346 2.00479 9.42918C1.9916 9.52376 2.00579 9.62014 2.04565 9.70692C2.08552 9.7937 2.1494 9.86725 2.22974 9.91886C2.31009 9.97048 2.40354 9.99801 2.49903 9.99819H7.85803L7.01403 13.3772C6.98687 13.4864 6.99737 13.6017 7.04383 13.7042C7.09029 13.8067 7.16999 13.8906 7.27003 13.9422C7.34067 13.9792 7.41928 13.9984 7.49903 13.9982C7.57109 13.9981 7.64226 13.9823 7.70767 13.9521C7.77309 13.9219 7.8312 13.8779 7.87803 13.8232L13.878 6.82319C13.9403 6.75066 13.9804 6.66181 13.9937 6.56717C14.007 6.47253 13.9929 6.37606 13.953 6.28919Z" fill="#6E19E6"/>
</svg>
