<svg xmlns="http://www.w3.org/2000/svg" width="16" height="14" viewBox="0 0 16 14">
  <g fill="#8492A6" fill-rule="evenodd">
    <polygon points="6 1 16 1 16 3 6 3"/>
    <path d="M2,4 C0.8954305,4 0,3.1045695 0,2 C0,0.8954305 0.8954305,0 2,0 C3.1045695,0 4,0.8954305 4,2 C4,3.1045695 3.1045695,4 2,4 Z M2,3 C2.55228475,3 3,2.55228475 3,2 C3,1.44771525 2.55228475,1 2,1 C1.44771525,1 1,1.44771525 1,2 C1,2.55228475 1.44771525,3 2,3 Z"/>
    <polygon points="6 6 16 6 16 8 6 8"/>
    <path d="M2 9C.8954305 9 0 8.1045695 0 7 0 5.8954305.8954305 5 2 5 3.1045695 5 4 5.8954305 4 7 4 8.1045695 3.1045695 9 2 9zM2 8C2.55228475 8 3 7.55228475 3 7 3 6.44771525 2.55228475 6 2 6 1.44771525 6 1 6.44771525 1 7 1 7.55228475 1.44771525 8 2 8zM2 14C.8954305 14 0 13.1045695 0 12 0 10.8954305.8954305 10 2 10 3.1045695 10 4 10.8954305 4 12 4 13.1045695 3.1045695 14 2 14zM2 13C2.55228475 13 3 12.5522847 3 12 3 11.4477153 2.55228475 11 2 11 1.44771525 11 1 11.4477153 1 12 1 12.5522847 1.44771525 13 2 13z"/>
    <polygon points="6 11 16 11 16 13 6 13"/>
  </g>
</svg>
