<svg xmlns="http://www.w3.org/2000/svg" width="14" height="14" viewBox="0 0 14 14">
  <path fill="#3D8AEB" fill-rule="evenodd" d="M192.7,11.3 C192.3,10.9 191.7,10.9 191.3,11.3 L186,16.6 L180.7,11.3 C180.3,10.9 179.7,10.9 179.3,11.3 C178.9,11.7 178.9,12.3 179.3,12.7 L184.6,18 L179.3,23.3 C178.9,23.7 178.9,24.3 179.3,24.7 C179.5,24.9 179.7,25 180,25 C180.3,25 180.5,24.9 180.7,24.7 L186,19.4 L191.3,24.7 C191.5,24.9 191.8,25 192,25 C192.2,25 192.5,24.9 192.7,24.7 C193.1,24.3 193.1,23.7 192.7,23.3 L187.4,18 L192.7,12.7 C193.1,12.3 193.1,11.7 192.7,11.3" transform="translate(-179 -11)"/>
</svg>
