<svg width="8" height="12" viewBox="0 0 8 12" fill="none" xmlns="http://www.w3.org/2000/svg">
    <path d="M0.305288 10.2807L4.59829 5.98771L0.305288 1.69471C0.12313 1.50611 0.0223357 1.25351 0.0246141 0.991311C0.0268926 0.729114 0.132062 0.478301 0.31747 0.292893C0.502878 0.107485 0.75369 0.00231625 1.01589 3.7847e-05C1.27808 -0.00224056 1.53069 0.0985539 1.71929 0.280712L6.71929 5.28071C6.90676 5.46824 7.01207 5.72255 7.01207 5.98771C7.01207 6.25288 6.90676 6.50718 6.71929 6.69471L1.71929 11.6947C1.62704 11.7902 1.5167 11.8664 1.39469 11.9188C1.27269 11.9712 1.14147 11.9988 1.00869 12C0.87591 12.0011 0.74423 11.9758 0.621334 11.9255C0.498437 11.8753 0.386785 11.801 0.292893 11.7071C0.199 11.6132 0.124747 11.5016 0.0744661 11.3787C0.0241852 11.2558 -0.00111655 11.1241 3.72763e-05 10.9913C0.0011911 10.8585 0.0287774 10.7273 0.0811864 10.6053C0.133595 10.4833 0.209778 10.373 0.305288 10.2807Z" fill="#678099"/>
</svg>
