<svg width="24" height="24" viewBox="0 0 24 24" fill="none" xmlns="http://www.w3.org/2000/svg">
    <path d="M16.2807 9.30529L11.9877 13.5983L7.69471 9.30529C7.50611 9.12313 7.25351 9.02234 6.99131 9.02461C6.72911 9.02689 6.4783 9.13206 6.29289 9.31747C6.10749 9.50288 6.00232 9.75369 6.00004 10.0159C5.99776 10.2781 6.09855 10.5307 6.28071 10.7193L11.2807 15.7193C11.4682 15.9068 11.7225 16.0121 11.9877 16.0121C12.2529 16.0121 12.5072 15.9068 12.6947 15.7193L17.6947 10.7193C17.7902 10.627 17.8664 10.5167 17.9188 10.3947C17.9712 10.2727 17.9988 10.1415 18 10.0087C18.0011 9.87591 17.9758 9.74423 17.9255 9.62133C17.8753 9.49844 17.801 9.38679 17.7071 9.29289C17.6132 9.199 17.5016 9.12475 17.3787 9.07447C17.2558 9.02419 17.1241 8.99888 16.9913 9.00004C16.8585 9.00119 16.7273 9.02878 16.6053 9.08119C16.4833 9.1336 16.373 9.20978 16.2807 9.30529Z" fill="#678099"/>
</svg>
