<svg xmlns="http://www.w3.org/2000/svg" width="18" height="18" viewBox="0 0 18 18">
  <path fill="#8492A6" d="M8,8 L8,12 L12,12 L12,8 L8,8 Z M14,6 L14,14 L6,14 L6,6 L14,6 Z M9,19 L7.00000798,19 L10,15.9999912 L12.999992,19 L11,19 L11,20 C11,20.5304008 11.2107189,21.0391341 11.5857683,21.4142315 C11.9608541,21.7892853 12.4695789,22 13,22 L14,22 L14,24 L13,24 C11.9390972,24 10.9216857,23.5785968 10.1715712,22.828448 C9.42141528,22.0782692 9,21.06089 9,20 L9,19 Z M21,11 L23.0000115,11 L20,13.9999948 L16.9999885,11 L19,11 L19,10 C19,9.46957892 18.7892853,8.96085412 18.4142692,8.58580601 C18.0391341,8.21071893 17.5304008,8 17,8 L16,8 L16,6 L17,6 C18.0608909,6 19.07827,6.42141493 19.8284453,7.17156853 C20.5785968,7.92168575 21,8.9390972 21,10 L21,11 Z M20,22 C21.1045695,22 22,21.1045695 22,20 C22,18.8954305 21.1045695,18 20,18 C18.8954305,18 18,18.8954305 18,20 C18,21.1045695 18.8954305,22 20,22 Z M20,24 C17.790861,24 16,22.209139 16,20 C16,17.790861 17.790861,16 20,16 C22.209139,16 24,17.790861 24,20 C24,22.209139 22.209139,24 20,24 Z" transform="translate(-6 -6)"/>
</svg>
