<svg xmlns="http://www.w3.org/2000/svg" width="16" height="16" viewBox="0 0 16 16">
  <g transform="translate(1 2)">
    <path d="M2,2 L10,2 C10,2.55228475 10.4477153,3 11,3 C11.5522847,3 12,2.55228475 12,2 L12,1 C12,0.44771525 11.5522847,0 11,0 L1,0 C0.44771525,0 0,0.44771525 0,1 L0,2 C0,2.55228475 0.44771525,3 1,3 C1.55228475,3 2,2.55228475 2,2 Z"/>
    <path d="M5.00496281,0.900496281 L4.00496281,10.9004963 C3.95000842,11.4500401 4.35095242,11.9400828 4.90049628,11.9950372 C5.45004015,12.0499916 5.9400828,11.6490476 5.99503719,11.0995037 L6.99503719,1.09950372 C7.04999158,0.549959853 6.64904758,0.0599171964 6.09950372,0.00496280979 C5.54995985,-0.0499915768 5.0599172,0.350952415 5.00496281,0.900496281 Z"/>
    <path d="M3,12 L7,12 C7.55228475,12 8,11.5522847 8,11 C8,10.4477153 7.55228475,10 7,10 L3,10 C2.44771525,10 2,10.4477153 2,11 C2,11.5522847 2.44771525,12 3,12 Z"/>
    <path d="M10.5355339,8.54766594 L10.5355339,13.4346717 C10.5355339,13.9869565 10.9832492,14.4346717 11.5355339,14.4346717 C12.0878187,14.4346717 12.5355339,13.9869565 12.5355339,13.4346717 L12.5355339,8.54766594 C12.5355339,7.99538119 12.0878187,7.54766594 11.5355339,7.54766594 C10.9832492,7.54766594 10.5355339,7.99538119 10.5355339,8.54766594 Z" transform="rotate(45 11.536 10.991)"/>
    <path d="M9.09203102,11.9911688 L13.9790368,11.9911688 C14.5313215,11.9911688 14.9790368,11.5434536 14.9790368,10.9911688 C14.9790368,10.4388841 14.5313215,9.99116882 13.9790368,9.99116882 L9.09203102,9.99116882 C8.53974627,9.99116882 8.09203102,10.4388841 8.09203102,10.9911688 C8.09203102,11.5434536 8.53974627,11.9911688 9.09203102,11.9911688 Z" transform="rotate(45 11.536 10.991)"/>
  </g>
</svg>
