<svg xmlns="http://www.w3.org/2000/svg" width="16" height="16" viewBox="0 0 16 16">
  <g fill-rule="evenodd">
    <g fill-rule="nonzero" transform="translate(10 8)">
      <path d="M0.0580582618,0.941941738 L3.05805826,3.94194174 C3.30213594,4.18601942 3.69786406,4.18601942 3.94194174,3.94194174 C4.18601942,3.69786406 4.18601942,3.30213594 3.94194174,3.05805826 L0.941941738,0.0580582618 C0.697864056,-0.186019421 0.302135944,-0.186019421 0.0580582618,0.0580582618 C-0.186019421,0.302135944 -0.186019421,0.697864056 0.0580582618,0.941941738 Z"/>
      <path d="M3.05805826,0.0580582618 L0.0580582618,3.05805826 C-0.186019421,3.30213594 -0.186019421,3.69786406 0.0580582618,3.94194174 C0.302135944,4.18601942 0.697864056,4.18601942 0.941941738,3.94194174 L3.94194174,0.941941738 C4.18601942,0.697864056 4.18601942,0.302135944 3.94194174,0.0580582618 C3.69786406,-0.186019421 3.30213594,-0.186019421 3.05805826,0.0580582618 Z"/>
    </g>
    <path fill-rule="nonzero" d="M5.99285714,2.9 L3.244,2.9 C2.97674355,2.9 2.73232373,3.05433518 2.61240568,3.29989189 L1.99183425,4.56601689 L1.85714286,4.65 L1,4.65 L0.85,4.5 L0.85,1 L1,0.85 L13,0.85 L13.15,1 L13.15,4.5 L13,4.65 L12.1428571,4.65 L12.0081658,4.56601689 L11.3874995,3.29969801 C11.2676763,3.05433518 11.0232564,2.9 10.756,2.9 L8.00714286,2.9 L8.00714286,12.619125 C8.00714286,12.932559 8.20246936,13.2093012 8.49174934,13.3074961 L10.4768922,13.9829961 L10.5785714,14.125 L10.5785714,15 L10.4285714,15.15 L3.57142857,15.15 L3.42142857,15 L3.42142857,14.125 L3.5231078,13.9829961 L5.50835659,13.3074601 C5.79753064,13.2093012 5.99285714,12.932559 5.99285714,12.619125 L5.99285714,2.9 Z M1.15,1.15 L1.15,4.35 L1.76361449,4.35 L2.34292804,3.16805199 C2.51280816,2.82018726 2.86151758,2.6 3.244,2.6 L6.14285714,2.6 L6.29285714,2.75 L6.29285714,12.619125 C6.29285714,13.0602266 6.01649,13.4517888 5.6048922,13.5915039 L3.72142857,14.2324047 L3.72142857,14.85 L10.2785714,14.85 L10.2785714,14.2324047 L8.39521373,13.5915399 C7.98351,13.4517888 7.70714286,13.0602266 7.70714286,12.619125 L7.70714286,2.75 L7.85714286,2.6 L10.756,2.6 C11.1384824,2.6 11.4871918,2.82018726 11.6569771,3.16785811 L12.2363855,4.35 L12.85,4.35 L12.85,1.15 L1.15,1.15 Z"/>
    <path d="M7,1 L1,1 L1,4.5 L1.85714286,4.5 L2.47771429,3.233875 C2.62257143,2.93725 2.91914286,2.75 3.244,2.75 L6.14285714,2.75 L6.14285714,12.619125 C6.14285714,12.99625 5.90714286,13.3305 5.55657143,13.4495 L3.57142857,14.125 L3.57142857,15 L7,15 L10.4285714,15 L10.4285714,14.125 L8.44342857,13.4495 C8.09285714,13.3305 7.85714286,12.99625 7.85714286,12.619125 L7.85714286,2.75 L10.756,2.75 C11.0808571,2.75 11.3774286,2.93725 11.5222857,3.233875 L12.1428571,4.5 L13,4.5 L13,1 L7,1 Z"/>
  </g>
</svg>