<svg width="16" height="16" viewBox="0 0 16 16" version="1.1" xmlns="http://www.w3.org/2000/svg" xmlns:xlink="http://www.w3.org/1999/xlink">
    <g id="Page-1" stroke="none" stroke-width="1" fill="none" fill-rule="evenodd">
        <g id="Artboard-2" transform="translate(-1033.000000, -699.000000)" fill="#3D8AEB">
            <g id="Group-5-Copy" transform="translate(990.000000, 142.000000)">
                <g id="Status" transform="translate(20.000000, 517.000000)">
                    <g transform="translate(0.000000, 15.000000)" id="Due-date">
                        <g transform="translate(23.000000, 25.000000)">
                            <g id="Group-4">
                                <path d="M12.7,0.3 C12.3,-0.1 11.7,-0.1 11.3,0.3 C10.9,0.7 10.9,1.3 11.3,1.7 L12.1,2.5 L11.2,3.4 C10,2.5 8.6,2 7,2 C3.1,2 0,5.1 0,9 C0,12.9 3.1,16 7,16 C10.9,16 14,12.9 14,9 C14,7.4 13.5,6 12.6,4.8 L13.5,3.9 L14.3,4.7 C14.5,4.9 14.7,5 15,5 C15.3,5 15.5,4.9 15.7,4.7 C16.1,4.3 16.1,3.7 15.7,3.3 L12.7,0.3 L12.7,0.3 Z M7,14 C4.2,14 2,11.8 2,9 C2,6.2 4.2,4 7,4 C9.8,4 12,6.2 12,9 C12,11.8 9.8,14 7,14 L7,14 Z" id="Fill-23"></path>
                                <polyline id="Fill-24" points="8 6 6 6 6 10 10 10 10 8 8 8 8 6"></polyline>
                            </g>
                        </g>
                    </g>
                </g>
            </g>
        </g>
    </g>
</svg>
