<?xml version="1.0" encoding="UTF-8"?>
<svg width="30px" height="30px" viewBox="0 0 30 30" version="1.1" xmlns="http://www.w3.org/2000/svg" xmlns:xlink="http://www.w3.org/1999/xlink">
    <g id="Symbols" stroke="none" stroke-width="1" fill="none" fill-rule="evenodd">
        <g id="icon/16/clock/default">
            <path d="M15,7 C19.4,7 23,10.6 23,15 C23,19.4 19.4,23 15,23 C10.6,23 7,19.4 7,15 C7,10.6 10.6,7 15,7 Z M15,21 C18.3,21 21,18.3 21,15 C21,11.7 18.3,9 15,9 C11.7,9 9,11.7 9,15 C9,18.3 11.7,21 15,21 Z M16,11 L16,14 L19,14 L19,16 L14,16 L14,11 L16,11 Z" id="Combined-Shape"></path>
        </g>
    </g>
</svg>