<svg xmlns="http://www.w3.org/2000/svg" width="16" height="16" viewBox="0 0 16 16">
  <path d="M9.69705627,8 L13.6485281,4.04852814 C14.1171573,3.57989899 14.1171573,2.82010101 13.6485281,2.35147186 C13.179899,1.88284271 12.420101,1.88284271 11.9514719,2.35147186 L8,6.30294373 L4.04852814,2.35147186 C3.57989899,1.88284271 2.82010101,1.88284271 2.35147186,2.35147186 C1.88284271,2.82010101 1.88284271,3.57989899 2.35147186,4.04852814 L6.30294373,8 L2.35147186,11.9514719 C1.88284271,12.420101 1.88284271,13.179899 2.35147186,13.6485281 C2.82010101,14.1171573 3.57989899,14.1171573 4.04852814,13.6485281 L8,9.69705627 L11.9514719,13.6485281 C12.420101,14.1171573 13.179899,14.1171573 13.6485281,13.6485281 C14.1171573,13.179899 14.1171573,12.420101 13.6485281,11.9514719 L9.69705627,8 Z"/>
</svg>
