<svg xmlns="http://www.w3.org/2000/svg" width="16" height="16" viewBox="0 0 16 16">
  <g fill-rule="evenodd">
    <path fill-rule="nonzero" d="M8,6.29289322 L4.5678391,2.86073232 C4.08686267,2.37975589 3.34170876,2.37975589 2.86073232,2.86073232 C2.37975589,3.34170876 2.37975589,4.08686267 2.86073232,4.5678391 L6.29289322,8 L2.86073232,11.4321609 C2.37975589,11.9131373 2.37975589,12.6582912 2.86073232,13.1392677 C3.10146808,13.3800034 3.37146036,13.5 3.71428571,13.5 C4.05711107,13.5 4.32710335,13.3800034 4.5678391,13.1392677 L8,9.70710678 L11.4321609,13.1392677 C11.6584768,13.3655836 11.9945179,13.5 12.2857143,13.5 C12.5769107,13.5 12.9129518,13.3655836 13.1392677,13.1392677 C13.6202441,12.6582912 13.6202441,11.9131373 13.1392677,11.4321609 L9.70710678,8 L13.1392677,4.5678391 C13.6202441,4.08686267 13.6202441,3.34170876 13.1392677,2.86073232 L12.4321609,3.5678391 C12.522613,3.65829124 12.522613,3.77028018 12.4321609,3.86073232 L8.29289322,8 L12.4321609,12.1392677 C12.522613,12.2297198 12.522613,12.3417088 12.4321609,12.4321609 C12.396572,12.4677498 12.3159464,12.5 12.2857143,12.5 C12.2554821,12.5 12.1748566,12.4677498 12.1392677,12.4321609 L8,8.29289322 L3.86073232,12.4321609 C3.80146808,12.4914251 3.78217464,12.5 3.71428571,12.5 C3.64639679,12.5 3.62710335,12.4914251 3.5678391,12.4321609 C3.47738697,12.3417088 3.47738697,12.2297198 3.5678391,12.1392677 L7.70710678,8 L3.5678391,3.86073232 C3.47738697,3.77028018 3.47738697,3.65829124 3.5678391,3.5678391 C3.65829124,3.47738697 3.77028018,3.47738697 3.86073232,3.5678391 L8,7.70710678 L12.1392677,3.5678391 C12.2297198,3.47738697 12.3417088,3.47738697 12.4321609,3.5678391 L13.1392677,2.86073232 C12.6582912,2.37975589 11.9131373,2.37975589 11.4321609,2.86073232 L8,6.29289322 Z"/>
    <path d="M12.7857143,3.21428571 C12.5,2.92857143 12.0714286,2.92857143 11.7857143,3.21428571 L8,7 L4.21428571,3.21428571 C3.92857143,2.92857143 3.5,2.92857143 3.21428571,3.21428571 C2.92857143,3.5 2.92857143,3.92857143 3.21428571,4.21428571 L7,8 L3.21428571,11.7857143 C2.92857143,12.0714286 2.92857143,12.5 3.21428571,12.7857143 C3.35714286,12.9285714 3.5,13 3.71428571,13 C3.92857143,13 4.07142857,12.9285714 4.21428571,12.7857143 L8,9 L11.7857143,12.7857143 C11.9285714,12.9285714 12.1428571,13 12.2857143,13 C12.4285714,13 12.6428571,12.9285714 12.7857143,12.7857143 C13.0714286,12.5 13.0714286,12.0714286 12.7857143,11.7857143 L9,8 L12.7857143,4.21428571 C13.0714286,3.92857143 13.0714286,3.5 12.7857143,3.21428571"/>
  </g>
</svg>