<svg xmlns="http://www.w3.org/2000/svg" width="16" height="14" viewBox="0 0 16 14">
  <g fill="#8492A6" fill-rule="evenodd">
    <path d="M12.7 10.7626462L11.3 9.36264622 13.6 7.06264622 11.3 4.76264622 12.7 3.36264622 15.7 6.36264622C16.1 6.76264622 16.1 7.36264622 15.7 7.76264622L12.7 10.7626462zM3.3 10.7626462L.3 7.76264622C-.1 7.36264622-.1 6.76264622.3 6.36264622L3.3 3.36264622 4.7 4.76264622 2.4 7.06264622 4.7 9.36264622 3.3 10.7626462zM5.99595909 14C5.89637886 14 5.79679863 14 5.6972184 13.9004455 5.19931726 13.7013364 4.90057657 13.2035638 5.09973703 12.6062367L9.08294618.659694267C9.28210664.161921665 9.78000778-.136741896 10.3774892.0623671445 10.8753903.261476185 11.174131.759248787 10.9749705 1.35657591L6.99176138 13.3031184C6.79260092 13.7013364 6.39428 14 5.99595909 14"/>
  </g>
</svg>
