<svg xmlns="http://www.w3.org/2000/svg" width="13" height="13" viewBox="0 0 13 13">
  <path fill="#3D8AEB" fill-rule="evenodd" d="M71.80625,5.225 L72.7,3.51875 L71.5625,2.38125 L69.85625,3.275 C69.6125,3.1125 69.2875,3.03125 68.9625,2.95 L68.3125,1 L66.6875,1 L66.0375,2.86875 C65.79375,2.95 65.46875,3.03125 65.225,3.19375 L63.51875,2.3 L62.3,3.51875 L63.19375,5.225 C63.03125,5.46875 62.95,5.79375 62.86875,6.0375 L61,6.6875 L61,8.3125 L62.86875,8.9625 C62.95,9.2875 63.1125,9.53125 63.19375,9.85625 L62.3,11.5625 L63.4375,12.7 L65.14375,11.80625 C65.3875,11.96875 65.7125,12.05 66.0375,12.13125 L66.6875,14 L68.3125,14 L68.9625,12.13125 C69.2875,12.05 69.53125,11.8875 69.85625,11.80625 L71.5625,12.7 L72.7,11.5625 L71.80625,9.85625 C71.96875,9.6125 72.05,9.2875 72.13125,8.9625 L74,8.3125 L74,6.6875 L72.13125,6.0375 C72.05,5.79375 71.96875,5.46875 71.80625,5.225 L71.80625,5.225 Z M67.5,10 C66.0833333,10 65,8.91666667 65,7.5 C65,6.08333333 66.0833333,5 67.5,5 C68.9166667,5 70,6.08333333 70,7.5 C70,8.91666667 68.9166667,10 67.5,10 L67.5,10 Z" transform="translate(-61 -1)"/>
</svg>
