<svg width="24" height="24" viewBox="0 0 24 24" fill="none" xmlns="http://www.w3.org/2000/svg">
    <path fill-rule="evenodd" clip-rule="evenodd" d="M4 9.5C4 6.462 6.91 4 10.5 4C14.09 4 17 6.462 17 9.5C17 12.538 14.09 15 10.5 15C9.496 15 8.548 14.802 7.699 14.458L5 16V12.422C4.37 11.574 4 10.575 4 9.5ZM18.853 10.861C19.571 11.603 20 12.513 20 13.5C20 14.425 19.627 15.285 18.988 16H19V20L15.307 17.89C14.886 17.96 14.449 18 14 18C12.556 18 11.231 17.617 10.195 16.979C10.2419 16.9804 10.288 16.9848 10.334 16.9893C10.389 16.9947 10.4439 17 10.5 17C14.66 17 18.124 14.348 18.853 10.861Z" fill="#678099"/>
</svg>
