<svg xmlns="http://www.w3.org/2000/svg" width="16" height="16" viewBox="0 0 16 16">
  <title>Comment Icon</title>
  <path fill-rule="evenodd" d="M0,7 C0,10.9 3.6,14 8,14 C8.2,14 8.4,14 8.6,14 L12.6526856,15.5009947 L12.6526856,15.5009947 C13.17059,15.6928111 13.7459323,15.4284646 13.9377488,14.9105603 C13.9789215,14.7993938 14,14.681792 14,14.5632459 L14,11.6 C15.2,10.4 16,8.8 16,7 C16,3.1 12.4,0 8,0 C3.6,0 0,3.1 0,7 Z M12,10.8 L12,13.1 L8.9,12 L8,12 C4.7,12 2,9.8 2,7 C2,4.2 4.7,2 8,2 C11.3,2 14,4.2 14,7 C14,9.2 12,10.8 12,10.8 L12,10.8 Z"/>
</svg>
