<?xml version="1.0" encoding="UTF-8"?>
<svg width="36px" height="36px" viewBox="0 0 36 36" version="1.1" xmlns="http://www.w3.org/2000/svg" xmlns:xlink="http://www.w3.org/1999/xlink">
    <g id="Page-1" stroke="none" stroke-width="1" fill="none" fill-rule="evenodd">
        <g id="comment" transform="translate(1.000000, 1.000000)">
            <path d="M17,9 C12.6,9 9,12.1 9,16 C9,19.9 12.6,23 17,23 L17.6,23 L23,25 L23,20.6 C24.2,19.4 25,17.8 25,16 C25,12.1 21.4,9 17,9 L17,9 Z M21,19.8 L21,22.1 L17.9,21 L17,21 C13.7,21 11,18.8 11,16 C11,13.2 13.7,11 17,11 C20.3,11 23,13.2 23,16 C23,18.2 21,19.8 21,19.8 L21,19.8 Z" id="Fill-160" fill="#303030"></path>
            <path d="M0,17 C0,7.61136364 7.61136364,0 17,0 C26.3886364,0 34,7.61136364 34,17 C34,26.3886364 26.3886364,34 17,34 C7.61136364,34 0,26.3886364 0,17 L0,17 Z" id="Stroke-5528" stroke="#303030" stroke-width="2"></path>
        </g>
    </g>
</svg>