<svg width="24" height="24" viewBox="-2 -1 24 24" fill="none" xmlns="http://www.w3.org/2000/svg">
<path fill-rule="evenodd" clip-rule="evenodd" d="M10.4059 0.0861884C10.1473 -0.0287294 9.85219 -0.0287294 9.59362 0.0861884L0.59702 4.08468C0.387393 4.17684 0.208608 4.34086 0.101198 4.56113C0.0869993 4.59019 0.0741908 4.61997 0.0628366 4.65038C0.0172273 4.77226 -0.00300832 4.8981 -0.000238657 5.02173V17C-0.000238657 17.3952 0.232495 17.7533 0.593623 17.9138L9.57374 21.905C9.69562 21.9625 9.83099 21.996 9.97381 21.9997C9.98246 21.9999 9.99111 22 9.99976 22C10.0134 22 10.027 21.9997 10.0406 21.9992C10.1779 21.9937 10.3081 21.9605 10.4258 21.905L19.4059 17.9138C19.767 17.7533 19.9998 17.3952 19.9998 17V5.0217C20.0024 4.90201 19.9835 4.78026 19.941 4.66204C19.9368 4.65059 19.9325 4.63922 19.928 4.62795C19.9189 4.60529 19.909 4.58301 19.8983 4.56113C19.7909 4.34091 19.6122 4.17693 19.4027 4.08475L10.4059 0.0861884ZM16.5375 5L9.99976 2.09432L3.46198 5L9.99976 7.90568L16.5375 5ZM1.99976 6.53876V16.3501L8.99976 19.4612V9.64987L1.99976 6.53876ZM10.9998 19.4612L17.9998 16.3501V6.53876L10.9998 9.64987V19.4612Z" fill="#678099"/>
</svg>
