<svg xmlns="http://www.w3.org/2000/svg" width="14" height="14" viewBox="0 0 14 14">
  <path fill="#8492A6" fill-rule="evenodd" d="M6,10 L8,10 C8.55228475,10 9,10.4477153 9,11 L9,13 C9,13.5522847 8.55228475,14 8,14 L6,14 C5.44771525,14 5,13.5522847 5,13 L5,11 C5,10.4477153 5.44771525,10 6,10 Z M6,0 L8,0 C8.55228475,-1.01453063e-16 9,0.44771525 9,1 L9,3 C9,3.55228475 8.55228475,4 8,4 L6,4 C5.44771525,4 5,3.55228475 5,3 L5,1 C5,0.44771525 5.44771525,1.01453063e-16 6,0 Z M11,10 L13,10 C13.5522847,10 14,10.4477153 14,11 L14,13 C14,13.5522847 13.5522847,14 13,14 L11,14 C10.4477153,14 10,13.5522847 10,13 L10,11 C10,10.4477153 10.4477153,10 11,10 Z M1,10 L3,10 C3.55228475,10 4,10.4477153 4,11 L4,13 C4,13.5522847 3.55228475,14 3,14 L1,14 C0.44771525,14 6.76353751e-17,13.5522847 0,13 L0,11 C-6.76353751e-17,10.4477153 0.44771525,10 1,10 Z M8,6 L12,6 C12.5522847,6 13,6.44771525 13,7 L13,8 C13,8.55228475 12.5522847,9 12,9 C11.4477153,9 11,8.55228475 11,8 L8,8 C8,8.55228475 7.55228475,9 7,9 C6.44771525,9 6,8.55228475 6,8 L3,8 C3,8.55228475 2.55228475,9 2,9 C1.44771525,9 1,8.55228475 1,8 L1,7 C1,6.44771525 1.44771525,6 2,6 L6,6 C6,5.44771525 6.44771525,5 7,5 C7.55228475,5 8,5.44771525 8,6 Z"/>
</svg>
