<svg width="16" height="16" viewBox="0 0 16 16" fill="none" xmlns="http://www.w3.org/2000/svg">
<path fill-rule="evenodd" clip-rule="evenodd" d="M0.155443 7.21854C-0.0518142 7.7189 -0.0518144 8.2811 0.155443 8.78146L1.90048 12.9944C2.10774 13.4947 2.50528 13.8923 3.00564 14.0995L7.21854 15.8446C7.7189 16.0518 8.2811 16.0518 8.78146 15.8446L12.9944 14.0995C13.4947 13.8923 13.8923 13.4947 14.0995 12.9944L15.8446 8.78146C16.0518 8.2811 16.0518 7.7189 15.8446 7.21854L14.0995 3.00564C13.8923 2.50528 13.4947 2.10774 12.9944 1.90048L8.78146 0.155443C8.2811 -0.0518142 7.7189 -0.0518144 7.21854 0.155443L3.00564 1.90048C2.50528 2.10774 2.10774 2.50528 1.90048 3.00564L0.155443 7.21854ZM8 12C7.4 12 7 11.6 7 11C7 10.4 7.4 10 8 10C8.6 10 9 10.4 9 11C9 11.6 8.6 12 8 12ZM9 9H7V4H9V9Z" fill="white"/>
</svg>
