<svg xmlns="http://www.w3.org/2000/svg" width="12" height="18" viewBox="0 0 12 18">
  <g fill="#8492A6" fill-rule="evenodd">
    <path d="M0,9 C0,7.895 0.895,7 2,7 C3.105,7 4,7.895 4,9 C4,10.105 3.105,11 2,11 C0.895,11 0,10.105 0,9 L0,9 Z" transform="rotate(90 2 9)"/>
    <path d="M1.8e-15,2 C1.8e-15,0.895 0.895,0 2,0 C3.105,0 4,0.895 4,2 C4,3.105 3.105,4 2,4 C0.895,4 1.8e-15,3.105 1.8e-15,2 L1.8e-15,2 Z" transform="rotate(90 2 2)"/>
    <path d="M-1.8e-15,16 C-1.8e-15,14.895 0.895,14 2,14 C3.105,14 4,14.895 4,16 C4,17.105 3.105,18 2,18 C0.895,18 -1.8e-15,17.105 -1.8e-15,16 L-1.8e-15,16 Z" transform="rotate(90 2 16)"/>
    <path d="M8,9 C8,7.895 8.895,7 10,7 C11.105,7 12,7.895 12,9 C12,10.105 11.105,11 10,11 C8.895,11 8,10.105 8,9 L8,9 Z" transform="rotate(90 10 9)"/>
    <path d="M8,2 C8,0.895 8.895,0 10,0 C11.105,0 12,0.895 12,2 C12,3.105 11.105,4 10,4 C8.895,4 8,3.105 8,2 L8,2 Z" transform="rotate(90 10 2)"/>
    <path d="M8,16 C8,14.895 8.895,14 10,14 C11.105,14 12,14.895 12,16 C12,17.105 11.105,18 10,18 C8.895,18 8,17.105 8,16 L8,16 Z" transform="rotate(90 10 16)"/>
  </g>
</svg>
