<svg width="10px" height="16px" viewBox="0 0 10 16" xmlns="http://www.w3.org/2000/svg">
  <g fill="#8492A6" fill-rule="evenodd">
    <g id="Group-2" transform="translate(-1.000000, -1.000000)" fill="#4B5760">
      <g id="Group" transform="translate(3.000000, 9.000000) rotate(-270.000000) translate(-3.000000, -9.000000) translate(-6.000000, 6.000000)">
          <path d="M9,1 C10.105,1 11,1.895 11,3 C11,4.105 10.105,5 9,5 C7.895,5 7,4.105 7,3 C7,1.895 7.895,1 9,1" id="Fill-63" transform="translate(9.000000, 3.000000) rotate(-285.000000) translate(-9.000000, -3.000000) "></path>
          <path d="M3,1 C4.105,1 5,1.895 5,3 C5,4.105 4.105,5 3,5 C1.895,5 1,4.105 1,3 C1,1.895 1.895,1 3,1" id="Fill-64" transform="translate(3.000000, 3.000000) rotate(-285.000000) translate(-3.000000, -3.000000) "></path>
          <path d="M15,1 C16.105,1 17,1.895 17,3 C17,4.105 16.105,5 15,5 C13.895,5 13,4.105 13,3 C13,1.895 13.895,1 15,1" id="Fill-65" transform="translate(15.000000, 3.000000) rotate(-285.000000) translate(-15.000000, -3.000000) "></path>
      </g>
      <g id="Group" transform="translate(9.000000, 9.000000) rotate(-270.000000) translate(-9.000000, -9.000000) translate(0.000000, 6.000000)">
          <path d="M9,1 C10.105,1 11,1.895 11,3 C11,4.105 10.105,5 9,5 C7.895,5 7,4.105 7,3 C7,1.895 7.895,1 9,1" id="Fill-63" transform="translate(9.000000, 3.000000) rotate(-285.000000) translate(-9.000000, -3.000000) "></path>
          <path d="M3,1 C4.105,1 5,1.895 5,3 C5,4.105 4.105,5 3,5 C1.895,5 1,4.105 1,3 C1,1.895 1.895,1 3,1" id="Fill-64" transform="translate(3.000000, 3.000000) rotate(-285.000000) translate(-3.000000, -3.000000) "></path>
          <path d="M15,1 C16.105,1 17,1.895 17,3 C17,4.105 16.105,5 15,5 C13.895,5 13,4.105 13,3 C13,1.895 13.895,1 15,1" id="Fill-65" transform="translate(15.000000, 3.000000) rotate(-285.000000) translate(-15.000000, -3.000000) "></path>
      </g>
    </g>
  </g>
</svg>
