<svg width="16" height="16" viewBox="0 0 16 16" fill="none" xmlns="http://www.w3.org/2000/svg">
<path d="M8 16C3.6 16 0 12.4 0 8C0 3.6 3.6 0 8 0C12.4 0 16 3.6 16 8C16 12.4 12.4 16 8 16ZM8 2C4.7 2 2 4.7 2 8C2 11.3 4.7 14 8 14C11.3 14 14 11.3 14 8C14 4.7 11.3 2 8 2Z" fill="white"/>
<path d="M4.2 8C4.5 7.2 5.8 7 6.4 7.3C7 7.6 7.5 7.3 8.1 8C8.6 8.7 9.1 8.5 9.2 9.5C9.3 10.5 7.9 12.3 7.6 12.8C7.2 13.3 6.2 12.7 6.2 11.3C6.2 9.9 5.5 9.8 5.1 9.7C4.6 9.5 3.6 9.4 4.2 8Z" fill="white"/>
<path d="M6.7 3.5C6.7 3.5 6.5 4 6.9 4.1C7.9 4.3 8 4.6 8.4 5.1C8.8 5.6 8.3 6.1 8.2 6.7C8.1 7.2 8.5 7.5 9.4 7.3C10.6 7 10.7 8.3 11.4 8.2C12 8.1 12.5 9.1 12.8 9.2C12.9 8.8 13 8.4 13 8C13 6.1 11.9 4.5 10.4 3.6C10 3.5 9.6 3.5 9.2 3.5C8.4 3.5 7.7 3 6.7 3.5Z" fill="white"/>
</svg>
