<?xml version="1.0" encoding="UTF-8"?>
<svg width="30px" height="30px" viewBox="0 0 30 30" version="1.1" xmlns="http://www.w3.org/2000/svg" xmlns:xlink="http://www.w3.org/1999/xlink">
    <!-- Generator: sketchtool 55.2 (78181) - https://sketchapp.com -->
    <title>46c2d00d-097e-4492-bf05-cdfa2c85786d@1.00x</title>
    <desc>Created with sketchtool.</desc>
    <g id="Symbols" stroke="none" stroke-width="1" fill="none" fill-rule="evenodd">
        <g id="icon/16/embed/default" fill="#8599AD">
            <path d="M19.7,18.7626462 L18.3,17.3626462 L20.6,15.0626462 L18.3,12.7626462 L19.7,11.3626462 L22.7,14.3626462 C23.1,14.7626462 23.1,15.3626462 22.7,15.7626462 L19.7,18.7626462 Z M10.3,18.7626462 L7.3,15.7626462 C6.9,15.3626462 6.9,14.7626462 7.3,14.3626462 L10.3,11.3626462 L11.7,12.7626462 L9.4,15.0626462 L11.7,17.3626462 L10.3,18.7626462 Z M13,22.0626462 C12.9,22.0626462 12.8,22.0626462 12.7,21.9626462 C12.2,21.7626462 11.9,21.2626462 12.1,20.6626462 L16.1,8.66264622 C16.3,8.16264622 16.8,7.86264622 17.4,8.06264622 C17.9,8.26264622 18.2,8.76264622 18,9.36264622 L14,21.3626462 C13.8,21.7626462 13.4,22.0626462 13,22.0626462 Z" id="Combined-Shape"></path>
        </g>
    </g>
</svg>