<?xml version="1.0" encoding="UTF-8"?>
<svg width="16px" height="16px" viewBox="0 0 16 16" version="1.1" xmlns="http://www.w3.org/2000/svg" xmlns:xlink="http://www.w3.org/1999/xlink">
    <!-- Generator: Sketch 44.1 (41455) - http://www.bohemiancoding.com/sketch -->
    <title>icon/icon-emoji</title>
    <desc>Created with Sketch.</desc>
    <defs></defs>
    <g id="Symbols" stroke="none" stroke-width="1" fill="none" fill-rule="evenodd">
        <g id="comment/reply" transform="translate(-119.000000, -50.000000)" fill="#5D6871">
            <g id="icon/icon-emoji" transform="translate(119.000000, 50.000000)">
                <g id="icon-emoji">
                    <path d="M8,0 C3.6,0 0,3.6 0,8 C0,12.4 3.6,16 8,16 C12.4,16 16,12.4 16,8 C16,3.6 12.4,0 8,0 L8,0 Z M8,14 C4.7,14 2,11.3 2,8 C2,4.7 4.7,2 8,2 C11.3,2 14,4.7 14,8 C14,11.3 11.3,14 8,14 L8,14 Z" id="Fill-24"></path>
                    <path d="M6,5 C6.552,5 7,5.448 7,6 C7,6.552 6.552,7 6,7 C5.448,7 5,6.552 5,6 C5,5.448 5.448,5 6,5" id="Fill-25"></path>
                    <path d="M10,5 C10.552,5 11,5.448 11,6 C11,6.552 10.552,7 10,7 C9.448,7 9,6.552 9,6 C9,5.448 9.448,5 10,5" id="Fill-26"></path>
                    <path d="M10.1859189,8.65268634 C9.94682507,9.68875962 8.99044974,10.4060411 7.87467852,10.4060411 C6.7589073,10.4060411 5.80253197,9.68875962 5.56343814,8.65268634 C5.4837402,8.17449868 5.00555253,7.93540485 4.60706281,8.01510279 C4.12887515,8.17449868 3.88978131,8.5729884 4.0491772,9.05117607 C4.44766692,10.8045308 6.04162581,12 7.87467852,12 C9.70773124,12 11.3016901,10.8045308 11.7001798,8.97147812 C11.8595757,8.5729884 11.6204819,8.17449868 11.1422942,8.01510279 C10.7438045,7.93540485 10.2656168,8.17449868 10.1859189,8.65268634" id="Fill-27"></path>
                </g>
            </g>
        </g>
    </g>
</svg>