<svg xmlns="http://www.w3.org/2000/svg" width="18" height="17" viewBox="0 0 18 17">
  <path fill="#8492A6" d="M8,15 L6,15 C6,14.44772 6.447715,14 7,14 C7.55228,14 8,14.44772 8,15 Z M24,15 L22,15 C22,14.44772 22.4477,14 23,14 C23.5523,14 24,14.44772 24,15 Z M21,22 L21,24 L9,24 L9,22 L21,22 Z M8,21 L6,21 L6,15 L8,15 L8,21 Z M22,15 L24,15 L24,21 L22,21 L22,15 Z M9,22 L9,24 C7.34315,24 6,22.6569 6,21 L8,21 C8,21.5523 8.44772,22 9,22 Z M21,24 L21,22 C21.5523,22 22,21.5523 22,21 L24,21 C24,22.6569 22.6569,24 21,24 Z M16,10.4142136 L16,18 C16,18.5522847 15.5522847,19 15,19 C14.4477153,19 14,18.5522847 14,18 L14,10.4142136 L11.7071068,12.7071068 C11.3165825,13.0976311 10.6834175,13.0976311 10.2928932,12.7071068 C9.90236893,12.3165825 9.90236893,11.6834175 10.2928932,11.2928932 L14.2928932,7.29289322 C14.6834175,6.90236893 15.3165825,6.90236893 15.7071068,7.29289322 L19.7071068,11.2928932 C20.0976311,11.6834175 20.0976311,12.3165825 19.7071068,12.7071068 C19.3165825,13.0976311 18.6834175,13.0976311 18.2928932,12.7071068 L16,10.4142136 Z" transform="translate(-6 -7)"/>
</svg>
