<svg xmlns="http://www.w3.org/2000/svg" width="16" height="16" viewBox="0 0 16 16">
  <g  fill-rule="evenodd" transform="translate(1 1)">
    <path d="M13.125,0 L7,0 L7,1.75 L11.025,1.75 L5.5125,7.2625 L6.7375,8.4875 L12.25,2.975 L12.25,7 L14,7 L14,0.875 C14,0.35 13.65,0 13.125,0"/>
    <path d="M12.25,14 L0.875,14 C0.35,14 0,13.65 0,13.125 L0,1.75 C0,1.225 0.35,0.875 0.875,0.875 L4.375,0.875 L4.375,2.625 L1.75,2.625 L1.75,12.25 L11.375,12.25 L11.375,9.625 L13.125,9.625 L13.125,13.125 C13.125,13.65 12.775,14 12.25,14"/>
  </g>
</svg>
