<svg xmlns="http://www.w3.org/2000/svg" width="16" height="12" viewBox="0 0 16 12">
  <title>Eye Icon</title>
  <path fill="#E6EAED" fill-rule="evenodd" d="M7.975,14 C3.275,14 0.275,8.7 0.075,8.5 C-0.025,8.2 -0.025,7.8 0.075,7.5 C0.275,7.3 3.175,2 7.975,2 C12.675,2 15.675,7.3 15.875,7.5 C16.075,7.8 16.075,8.2 15.875,8.5 C15.675,8.7 12.675,14 7.975,14 Z M7.975,4 C5.075,4 2.975,6.8 2.175,8 C2.975,9.2 5.175,12 7.975,12 C10.775,12 12.975,9.2 13.775,8 C12.975,6.8 10.775,4 7.975,4 Z M7.975,6 C9.08,6 9.975,6.895 9.975,8 C9.975,9.105 9.08,10 7.975,10 C6.87,10 5.975,9.105 5.975,8 C5.975,6.895 6.87,6 7.975,6 Z" transform="translate(0 -2)"/>
</svg>
