<svg xmlns="http://www.w3.org/2000/svg" width="16" height="16" viewBox="0 0 16 16" fill="none">
    <path d="M8.501 3H7.501C7.22486 3 7.001 3.22386 7.001 3.5V6.5C7.001 6.77614 7.22486 7 7.501 7H8.501C8.77714 7 9.001 6.77614 9.001 6.5V3.5C9.001 3.22386 8.77714 3 8.501 3Z" fill="#678099"/>
    <path d="M8.001 10C8.55328 10 9.001 9.55228 9.001 9C9.001 8.44771 8.55328 8 8.001 8C7.44871 8 7.001 8.44771 7.001 9C7.001 9.55228 7.44871 10 8.001 10Z" fill="#678099"/>
    <path d="M14 0H2C1.46957 0 0.960859 0.210714 0.585786 0.585786C0.210714 0.960859 0 1.46957 0 2V11C0 11.5304 0.210714 12.0391 0.585786 12.4142C0.960859 12.7893 1.46957 13 2 13H10.667L14.4 15.8C14.5486 15.9114 14.7252 15.9793 14.9102 15.996C15.0952 16.0126 15.2811 15.9775 15.4472 15.8944C15.6133 15.8114 15.753 15.6837 15.8507 15.5257C15.9483 15.3678 16 15.1857 16 15V2C16 1.46957 15.7893 0.960859 15.4142 0.585786C15.0391 0.210714 14.5304 0 14 0ZM14 13L11.6 11.2C11.4269 11.0702 11.2164 11 11 11H3C2.44772 11 2 10.5523 2 10V3C2 2.44772 2.44772 2 3 2H13C13.5523 2 14 2.44772 14 3V13Z" fill="#678099"/>
</svg>
