<svg xmlns="http://www.w3.org/2000/svg" width="18" height="16" viewBox="0 0 18 16">
  <path fill="#8492A6" fill-rule="evenodd" d="M7.6016,13.6987 L5.9996,17.1567 L5.9996,8.9997 C5.9996,7.8957 6.8956,6.9997 7.9996,6.9997 L15.5586,6.9997 C16.4186,6.9997 17.1836,7.5507 17.4556,8.3677 L17.9996,9.9997 L21.9996,9.9997 C23.1046,9.9997 23.9996,10.8957 23.9996,11.9997 L23.9996,12.1727 C23.6966,12.0707 23.3796,11.9997 23.0446,11.9997 L10.2896,11.9997 C9.1346,11.9997 8.0796,12.6667 7.6016,13.6987 Z M6.0811,21.7393 L9.4161,14.5393 C9.5681,14.2123 9.9111,14.0003 10.2901,14.0003 L23.0451,14.0003 C23.7501,14.0003 24.2121,14.6973 23.9021,15.2953 L20.1761,22.4953 C20.0161,22.8033 19.6831,23.0003 19.3181,23.0003 L6.9551,23.0003 C6.2671,23.0003 5.8061,22.3343 6.0811,21.7393 Z" transform="translate(-6 -7)"/>
</svg>
