<svg xmlns="http://www.w3.org/2000/svg" width="18" height="16" viewBox="0 0 18 16">
  <path fill="#8492A6" fill-rule="evenodd" d="M17.4558,8.36754 L18,10 L22,10 C23.1046,10 24,10.8966 24,12.00116 L24,20.9988 C24,22.1034 23.1046,23 22,23 L8,23 C6.895431,23 6,22.1046 6,21 L6,9 C6,7.895431 6.895431,7 8,7 L15.55848,7 C16.4193,7 17.1836,7.55086 17.4558,8.36754 Z M10,17.25 C10,17.6642 10.33579,18 10.75,18 L16.25,18 L16.25,20.3095 C16.25,20.5433 16.5424,20.6492 16.6921,20.4695 L19.7333,16.82009 C19.8878,16.63467 19.8878,16.36533 19.7333,16.17991 L16.6921,12.53047 C16.5424,12.35084 16.25,12.45669 16.25,12.69051 L16.25,15 L10.75,15 C10.33579,15 10,15.33579 10,15.75 L10,17.25 Z" transform="translate(-6 -7)"/>
</svg>
