<svg width="16" height="16" viewBox="0 0 16 16" fill="none" xmlns="http://www.w3.org/2000/svg">
<path fill-rule="evenodd" clip-rule="evenodd" d="M16 8C16 8.55229 15.5523 9 15 9L5 9C4.44771 9 4 8.55228 4 8C4 7.44771 4.44771 7 5 7H15C15.5523 7 16 7.44772 16 8Z" fill="#678099"/>
<path d="M8 2.62268e-07V2L3 2C2.44772 2 2 2.44772 2 3L2 13C2 13.5523 2.44772 14 3 14H8V16H2C0.89543 16 -4.82823e-08 15.1046 0 14L5.24537e-07 2C5.72819e-07 0.89543 0.895431 -4.82822e-08 2 0L8 2.62268e-07Z" fill="#678099"/>
<path fill-rule="evenodd" clip-rule="evenodd" d="M15.7071 7.29289C16.0976 7.68342 16.0976 8.31658 15.7071 8.70711L11.7071 12.7071C11.3166 13.0976 10.6834 13.0976 10.2929 12.7071C9.90237 12.3166 9.90237 11.6834 10.2929 11.2929L13.5858 8L10.2929 4.70711C9.90237 4.31658 9.90237 3.68342 10.2929 3.29289C10.6834 2.90237 11.3166 2.90237 11.7071 3.29289L15.7071 7.29289Z" fill="#678099"/>
</svg>
