<svg xmlns="http://www.w3.org/2000/svg" width="16" height="16" viewBox="0 0 16 16">
  <path fill="#8492A6" fill-rule="evenodd" d="M1,0 L3,0 C3.55228475,-1.01453063e-16 4,0.44771525 4,1 L4,3 C4,3.55228475 3.55228475,4 3,4 L1,4 C0.44771525,4 6.76353751e-17,3.55228475 0,3 L0,1 C-6.76353751e-17,0.44771525 0.44771525,1.01453063e-16 1,0 Z M1,6 L3,6 C3.55228475,6 4,6.44771525 4,7 L4,9 C4,9.55228475 3.55228475,10 3,10 L1,10 C0.44771525,10 6.76353751e-17,9.55228475 0,9 L0,7 C-6.76353751e-17,6.44771525 0.44771525,6 1,6 Z M1,12 L3,12 C3.55228475,12 4,12.4477153 4,13 L4,15 C4,15.5522847 3.55228475,16 3,16 L1,16 C0.44771525,16 6.76353751e-17,15.5522847 0,15 L0,13 C-6.76353751e-17,12.4477153 0.44771525,12 1,12 Z M7,0 L9,0 C9.55228475,-1.01453063e-16 10,0.44771525 10,1 L10,3 C10,3.55228475 9.55228475,4 9,4 L7,4 C6.44771525,4 6,3.55228475 6,3 L6,1 C6,0.44771525 6.44771525,1.01453063e-16 7,0 Z M7,6 L9,6 C9.55228475,6 10,6.44771525 10,7 L10,9 C10,9.55228475 9.55228475,10 9,10 L7,10 C6.44771525,10 6,9.55228475 6,9 L6,7 C6,6.44771525 6.44771525,6 7,6 Z M7,12 L9,12 C9.55228475,12 10,12.4477153 10,13 L10,15 C10,15.5522847 9.55228475,16 9,16 L7,16 C6.44771525,16 6,15.5522847 6,15 L6,13 C6,12.4477153 6.44771525,12 7,12 Z M13,0 L15,0 C15.5522847,-1.01453063e-16 16,0.44771525 16,1 L16,3 C16,3.55228475 15.5522847,4 15,4 L13,4 C12.4477153,4 12,3.55228475 12,3 L12,1 C12,0.44771525 12.4477153,1.01453063e-16 13,0 Z M13,6 L15,6 C15.5522847,6 16,6.44771525 16,7 L16,9 C16,9.55228475 15.5522847,10 15,10 L13,10 C12.4477153,10 12,9.55228475 12,9 L12,7 C12,6.44771525 12.4477153,6 13,6 Z M13,12 L15,12 C15.5522847,12 16,12.4477153 16,13 L16,15 C16,15.5522847 15.5522847,16 15,16 L13,16 C12.4477153,16 12,15.5522847 12,15 L12,13 C12,12.4477153 12.4477153,12 13,12 Z"/>
</svg>
