<svg xmlns="http://www.w3.org/2000/svg" width="24" height="24" viewBox="0 0 24 24">
  <g fill="#4B5761" transform="translate(1 1)">
    <path d="M1,11 C1,16.5227153 5.47728475,21 11,21 C16.5227153,21 21,16.5227153 21,11 C21,5.47728475 16.5227153,1 11,1 C5.47728475,1 1,5.47728475 1,11 Z M-1,11 C-1,4.37271525 4.37271525,-1 11,-1 C17.6272847,-1 23,4.37271525 23,11 C23,17.6272847 17.6272847,23 11,23 C4.37271525,23 -1,17.6272847 -1,11 Z"/>
    <path d="M10,16 C10,16.5522847 10.4477153,17 11,17 C11.5522847,17 12,16.5522847 12,16 L12,10 C12,9.44771525 11.5522847,9 11,9 L9,9 C8.44771525,9 8,9.44771525 8,10 C8,10.5522847 8.44771525,11 9,11 L10,11 L10,16 Z"/>
    <path d="M9 17L13 17C13.5522847 17 14 16.5522847 14 16 14 15.4477153 13.5522847 15 13 15L9 15C8.44771525 15 8 15.4477153 8 16 8 16.5522847 8.44771525 17 9 17zM10 6L10 7C10 7.55228475 10.4477153 8 11 8 11.5522847 8 12 7.55228475 12 7L12 6C12 5.44771525 11.5522847 5 11 5 10.4477153 5 10 5.44771525 10 6z"/>
  </g>
</svg>
