<svg xmlns="http://www.w3.org/2000/svg" width="16" height="16" viewBox="0 0 16 16">
  <g fill-rule="evenodd" transform="translate(-1 1)">
    <polygon points="13.134 12 13.134 5.609 13.024 5.642 12.925 5.686 12.815 5.719 12.716 5.763 12.606 5.796 12.507 5.84 12.397 5.873 12.298 5.906 12.188 5.95 12.078 5.983 11.979 6.027 11.869 6.06 11.77 6.104 11.66 6.137 11.561 6.181 11.451 6.214 11.44 6.104 11.418 5.983 11.407 5.873 11.385 5.752 11.363 5.532 11.341 5.411 11.33 5.301 11.308 5.18 11.297 5.07 11.594 4.938 11.704 4.894 12.199 4.674 12.309 4.619 12.903 4.355 13.013 4.311 13.31 4.179 14.597 4.179 14.597 12"/>
    <path d="M0.86,11.696 C0.86,11.856 1.004,12 1.164,12 L2.652,12 C2.828,12 2.956,11.856 2.956,11.696 L2.956,7.28 L8.172,7.28 L8.172,11.696 C8.172,11.856 8.3,12 8.476,12 L9.948,12 C10.108,12 10.252,11.856 10.252,11.696 L10.252,1.104 C10.252,0.944 10.108,0.8 9.948,0.8 L8.476,0.8 C8.3,0.8 8.172,0.944 8.172,1.104 L8.172,5.344 L2.956,5.344 L2.956,1.104 C2.956,0.944 2.828,0.8 2.652,0.8 L1.164,0.8 C1.004,0.8 0.86,0.944 0.86,1.104 L0.86,11.696 Z"/>
  </g>
</svg>
