<svg xmlns="http://www.w3.org/2000/svg" width="16" height="16" viewBox="0 0 16 16">
  <path fill-rule="evenodd" d="M8.51034483,13 L8.51034483,8.65517241 L3.88965517,8.65517241 L3.88965517,13 L2,13 L2,3 L3.88965517,3 L3.88965517,6.97241379 L8.51034483,6.97241379 L8.51034483,3 L10.4,3 L10.4,13 L8.51034483,13 Z M13.1623824,13 L13.1623824,6.44326019 L13.0495298,6.47711599 L12.9479624,6.52225705 L12.8351097,6.55611285 L12.7335423,6.60125392 L12.6206897,6.63510972 L12.5191223,6.68025078 L12.4062696,6.71410658 L12.3047022,6.74796238 L12.1918495,6.79310345 L12.0789969,6.82695925 L11.9774295,6.87210031 L11.8645768,6.90595611 L11.7630094,6.95109718 L11.6501567,6.98495298 L11.5485893,7.03009404 L11.4357367,7.06394984 L11.4244514,6.95109718 L11.4018809,6.82695925 L11.3905956,6.71410658 L11.3680251,6.58996865 L11.3454545,6.36426332 L11.322884,6.24012539 L11.3115987,6.12727273 L11.2890282,6.0031348 L11.2777429,5.89028213 L11.5824451,5.75485893 L11.6952978,5.70971787 L12.2031348,5.48401254 L12.3159875,5.42758621 L12.9253918,5.15673981 L13.0382445,5.11159875 L13.3429467,4.97617555 L14.6633229,4.97617555 L14.6633229,13 L13.1623824,13 Z"/>
</svg>
