<svg xmlns="http://www.w3.org/2000/svg" width="16" height="16" viewBox="0 0 16 16">
  <g fill-rule="evenodd" transform="translate(-2 -3.5)">
    <polygon points="12.061 17 12.061 15.933 12.215 15.779 12.303 15.702 12.534 15.471 12.622 15.394 12.776 15.24 12.853 15.152 12.93 15.075 13.018 14.998 13.326 14.69 13.414 14.613 13.645 14.382 13.733 14.305 14.041 13.997 14.129 13.92 14.206 13.843 14.283 13.755 14.437 13.601 14.525 13.524 14.756 13.293 14.844 13.216 15.273 12.787 15.504 12.523 15.559 12.446 15.625 12.369 15.735 12.215 15.79 12.127 15.878 11.929 15.911 11.83 15.955 11.632 15.966 11.522 15.966 11.28 15.944 11.159 15.922 11.049 15.878 10.939 15.834 10.84 15.779 10.752 15.625 10.598 15.548 10.543 15.46 10.488 15.361 10.444 15.163 10.378 14.921 10.334 14.789 10.323 14.547 10.323 14.327 10.345 14.228 10.356 14.118 10.367 14.008 10.389 13.909 10.422 13.81 10.444 13.7 10.477 13.601 10.521 13.502 10.554 13.403 10.609 13.205 10.697 13.106 10.752 13.018 10.807 12.82 10.917 12.644 11.049 12.545 11.115 12.457 11.181 12.446 11.071 12.424 10.961 12.413 10.851 12.391 10.752 12.38 10.642 12.358 10.532 12.347 10.422 12.325 10.312 12.314 10.202 12.292 10.103 12.281 9.993 12.259 9.883 12.347 9.828 12.424 9.773 12.6 9.663 12.699 9.608 12.787 9.564 12.886 9.509 12.974 9.465 13.172 9.377 13.282 9.333 13.381 9.289 13.579 9.223 13.678 9.201 13.788 9.168 13.887 9.146 13.997 9.124 14.107 9.113 14.217 9.091 14.338 9.08 14.448 9.069 14.569 9.069 14.69 9.058 14.932 9.058 15.053 9.069 15.163 9.069 15.383 9.091 15.603 9.135 15.801 9.179 15.9 9.212 16.01 9.245 16.208 9.333 16.296 9.377 16.395 9.421 16.483 9.476 16.56 9.531 16.648 9.586 16.725 9.652 16.879 9.806 16.945 9.883 17.022 9.971 17.132 10.147 17.242 10.345 17.341 10.642 17.385 10.84 17.418 11.17 17.418 11.401 17.396 11.643 17.374 11.753 17.352 11.874 17.33 11.973 17.264 12.193 17.22 12.292 17.176 12.402 17.066 12.6 17.011 12.688 16.945 12.776 16.89 12.864 16.824 12.952 16.747 13.04 16.681 13.128 16.527 13.304 16.373 13.458 16.296 13.546 16.208 13.623 15.867 13.964 15.779 14.041 15.702 14.118 15.614 14.195 15.537 14.272 15.449 14.349 15.372 14.415 15.284 14.492 15.13 14.646 15.042 14.723 14.965 14.8 14.877 14.877 14.8 14.954 14.712 15.031 14.558 15.185 14.47 15.262 14.393 15.328 14.305 15.405 14.228 15.482 14.14 15.559 14.063 15.636 13.975 15.713 13.898 15.79 17.374 15.79 17.396 15.9 17.407 16.01 17.429 16.12 17.44 16.23 17.462 16.34 17.473 16.45 17.495 16.56 17.506 16.67 17.528 16.78 17.539 16.89 17.561 17"/>
    <path d="M1.86,16.696 C1.86,16.856 2.004,17 2.164,17 L3.652,17 C3.828,17 3.956,16.856 3.956,16.696 L3.956,12.28 L9.172,12.28 L9.172,16.696 C9.172,16.856 9.3,17 9.476,17 L10.948,17 C11.108,17 11.252,16.856 11.252,16.696 L11.252,6.104 C11.252,5.944 11.108,5.8 10.948,5.8 L9.476,5.8 C9.3,5.8 9.172,5.944 9.172,6.104 L9.172,10.344 L3.956,10.344 L3.956,6.104 C3.956,5.944 3.828,5.8 3.652,5.8 L2.164,5.8 C2.004,5.8 1.86,5.944 1.86,6.104 L1.86,16.696 Z"/>
  </g>
</svg>

