<svg xmlns="http://www.w3.org/2000/svg" width="16" height="16" viewBox="0 0 16 16">
  <path fill-rule="evenodd" d="M6.51034483,13 L6.51034483,8.65517241 L1.88965517,8.65517241 L1.88965517,13 L0,13 L0,3 L1.88965517,3 L1.88965517,6.97241379 L6.51034483,6.97241379 L6.51034483,3 L8.4,3 L8.4,13 L6.51034483,13 Z M9.54858934,13 L9.54858934,11.9053292 L9.70658307,11.7473354 L9.7968652,11.6683386 L10.0338558,11.431348 L10.1241379,11.3523511 L10.2821317,11.1943574 L10.3611285,11.1040752 L10.4401254,11.0250784 L10.5304075,10.9460815 L10.846395,10.630094 L10.9366771,10.5510972 L11.1736677,10.3141066 L11.2639498,10.2351097 L11.5799373,9.91912226 L11.6702194,9.84012539 L11.7492163,9.76112853 L11.8282132,9.67084639 L11.9862069,9.51285266 L12.076489,9.4338558 L12.3134796,9.1968652 L12.4037618,9.11786834 L12.8438871,8.67774295 L13.0808777,8.40689655 L13.1373041,8.32789969 L13.2050157,8.24890282 L13.3178683,8.09090909 L13.3742947,8.00062696 L13.4645768,7.79749216 L13.4984326,7.69592476 L13.5435737,7.49278997 L13.5548589,7.3799373 L13.5548589,7.13166144 L13.5322884,7.00752351 L13.5097179,6.89467085 L13.4645768,6.78181818 L13.4194357,6.68025078 L13.3630094,6.58996865 L13.2050157,6.43197492 L13.1260188,6.37554859 L13.0357367,6.31912226 L12.9341693,6.27398119 L12.7310345,6.20626959 L12.4827586,6.16112853 L12.3473354,6.14984326 L12.0990596,6.14984326 L11.8733542,6.17241379 L11.7717868,6.18369906 L11.6589342,6.19498433 L11.5460815,6.21755486 L11.4445141,6.25141066 L11.3429467,6.27398119 L11.230094,6.30783699 L11.1285266,6.35297806 L11.0269592,6.38683386 L10.9253918,6.44326019 L10.7222571,6.53354232 L10.6206897,6.58996865 L10.5304075,6.64639498 L10.3272727,6.75924765 L10.1467085,6.89467085 L10.0451411,6.96238245 L9.95485893,7.03009404 L9.94357367,6.91724138 L9.92100313,6.80438871 L9.90971787,6.69153605 L9.88714734,6.58996865 L9.87586207,6.47711599 L9.85329154,6.36426332 L9.84200627,6.25141066 L9.81943574,6.13855799 L9.80815047,6.02570533 L9.78557994,5.92413793 L9.77429467,5.81128527 L9.75172414,5.6984326 L9.84200627,5.64200627 L9.92100313,5.58557994 L10.1015674,5.47272727 L10.2031348,5.41630094 L10.2934169,5.37115987 L10.3949843,5.31473354 L10.4852665,5.26959248 L10.6884013,5.17931034 L10.8012539,5.13416928 L10.9028213,5.08902821 L11.1059561,5.02131661 L11.2075235,4.99874608 L11.3203762,4.96489028 L11.4219436,4.94231975 L11.5347962,4.91974922 L11.6476489,4.90846395 L11.7605016,4.88589342 L11.8846395,4.87460815 L11.9974922,4.86332288 L12.1216301,4.86332288 L12.245768,4.85203762 L12.4940439,4.85203762 L12.6181818,4.86332288 L12.7310345,4.86332288 L12.9567398,4.88589342 L13.1824451,4.93103448 L13.3855799,4.97617555 L13.4871473,5.01003135 L13.6,5.04388715 L13.8031348,5.13416928 L13.8934169,5.17931034 L13.9949843,5.22445141 L14.0852665,5.28087774 L14.1642633,5.33730408 L14.2545455,5.39373041 L14.3335423,5.46144201 L14.4915361,5.61943574 L14.5592476,5.6984326 L14.6382445,5.78871473 L14.7510972,5.969279 L14.8639498,6.17241379 L14.9655172,6.47711599 L15.0106583,6.68025078 L15.0445141,7.01880878 L15.0445141,7.25579937 L15.0219436,7.50407524 L14.999373,7.6169279 L14.9768025,7.74106583 L14.954232,7.84263323 L14.8865204,8.06833856 L14.8413793,8.16990596 L14.7962382,8.28275862 L14.6833856,8.48589342 L14.6269592,8.57617555 L14.5592476,8.66645768 L14.5028213,8.75673981 L14.4351097,8.84702194 L14.3561129,8.93730408 L14.2884013,9.02758621 L14.1304075,9.20815047 L13.9724138,9.3661442 L13.8934169,9.45642633 L13.8031348,9.5354232 L13.4532915,9.88526646 L13.3630094,9.96426332 L13.2840125,10.0432602 L13.1937304,10.1222571 L13.1147335,10.2012539 L13.0244514,10.2802508 L12.9454545,10.3479624 L12.8551724,10.4269592 L12.6971787,10.584953 L12.6068966,10.6639498 L12.5278997,10.7429467 L12.4376176,10.8219436 L12.3586207,10.9009404 L12.2683386,10.9799373 L12.1103448,11.137931 L12.0200627,11.2169279 L11.9410658,11.2846395 L11.8507837,11.3636364 L11.7717868,11.4426332 L11.6815047,11.5216301 L11.6025078,11.600627 L11.5122257,11.6796238 L11.4332288,11.7586207 L14.999373,11.7586207 L15.0219436,11.8714734 L15.0332288,11.984326 L15.0557994,12.0971787 L15.0670846,12.2100313 L15.0896552,12.322884 L15.1009404,12.4357367 L15.123511,12.5485893 L15.1347962,12.661442 L15.1573668,12.7742947 L15.168652,12.8871473 L15.1912226,13 L9.54858934,13 Z"/>
</svg>
