<svg xmlns="http://www.w3.org/2000/svg" width="16" height="16" viewBox="0 0 16 16">
  <g fill-rule="evenodd" transform="translate(-2 -3.5)">
    <polygon points="17.407 14.712 17.407 14.965 17.396 15.075 17.385 15.196 17.363 15.306 17.341 15.405 17.308 15.515 17.242 15.713 17.198 15.812 17.143 15.911 17.033 16.087 16.967 16.164 16.901 16.252 16.824 16.329 16.747 16.395 16.67 16.472 16.582 16.538 16.505 16.593 16.241 16.758 16.153 16.802 15.955 16.89 15.845 16.923 15.746 16.956 15.636 16.989 15.537 17.022 15.427 17.044 15.328 17.066 15.108 17.11 14.778 17.143 14.657 17.154 14.195 17.154 14.074 17.143 13.854 17.121 13.733 17.11 13.623 17.099 13.513 17.077 13.403 17.066 13.293 17.044 13.183 17.011 13.084 16.989 12.963 16.956 12.633 16.857 12.523 16.813 12.028 16.593 11.94 16.538 11.962 16.428 11.984 16.307 11.995 16.197 12.039 15.977 12.061 15.856 12.105 15.636 12.116 15.526 12.138 15.405 12.16 15.295 12.259 15.35 12.347 15.405 12.446 15.449 12.534 15.504 12.732 15.592 12.831 15.625 12.919 15.669 13.315 15.801 13.513 15.845 13.623 15.867 13.722 15.889 14.162 15.933 14.514 15.933 14.756 15.911 14.866 15.9 14.976 15.878 15.086 15.845 15.185 15.812 15.361 15.746 15.449 15.702 15.526 15.647 15.614 15.581 15.691 15.504 15.757 15.427 15.812 15.339 15.9 15.141 15.944 14.921 15.944 14.679 15.9 14.459 15.834 14.261 15.724 14.085 15.647 14.008 15.57 13.942 15.493 13.865 15.416 13.821 15.262 13.744 15.086 13.678 14.987 13.656 14.888 13.623 14.778 13.601 14.657 13.59 14.536 13.568 14.404 13.557 14.272 13.557 14.129 13.546 13.469 13.546 13.447 13.436 13.436 13.337 13.414 13.227 13.403 13.117 13.381 13.007 13.37 12.908 13.348 12.798 13.337 12.688 13.315 12.578 13.304 12.479 13.282 12.369 14.14 12.369 14.272 12.358 14.404 12.358 14.525 12.336 14.646 12.325 14.756 12.303 14.954 12.259 15.053 12.226 15.141 12.193 15.218 12.16 15.295 12.116 15.361 12.072 15.449 12.006 15.603 11.852 15.658 11.764 15.702 11.676 15.746 11.577 15.79 11.357 15.79 11.137 15.746 10.939 15.702 10.84 15.658 10.752 15.526 10.598 15.449 10.521 15.295 10.433 15.207 10.389 15.009 10.323 14.789 10.279 14.668 10.268 14.536 10.257 14.294 10.257 14.184 10.268 14.074 10.268 13.975 10.279 13.865 10.301 13.766 10.312 13.667 10.334 13.557 10.356 13.458 10.389 13.359 10.411 13.271 10.444 13.051 10.532 12.853 10.62 12.358 10.895 12.27 10.961 12.248 10.851 12.237 10.741 12.193 10.521 12.182 10.411 12.16 10.312 12.149 10.202 12.105 9.982 12.094 9.872 12.072 9.762 12.248 9.652 12.446 9.542 12.534 9.498 12.633 9.454 12.743 9.41 12.842 9.366 13.062 9.278 13.172 9.245 13.26 9.212 13.656 9.124 13.766 9.102 14.206 9.058 14.327 9.047 14.8 9.047 14.921 9.058 15.251 9.091 15.35 9.113 15.46 9.135 15.658 9.179 15.746 9.201 15.856 9.245 15.966 9.278 16.065 9.322 16.164 9.377 16.252 9.421 16.516 9.586 16.593 9.641 16.747 9.795 16.945 10.026 17 10.114 17.088 10.29 17.132 10.4 17.198 10.62 17.22 10.741 17.242 10.851 17.253 10.972 17.253 11.214 17.242 11.335 17.231 11.445 17.209 11.555 17.176 11.665 17.154 11.764 17.11 11.863 17.022 12.039 16.967 12.127 16.901 12.204 16.846 12.27 16.769 12.358 16.681 12.424 16.593 12.501 16.505 12.567 16.417 12.622 16.12 12.787 15.9 12.875 15.779 12.919 15.9 12.952 16.01 12.996 16.12 13.029 16.219 13.073 16.318 13.128 16.417 13.172 16.681 13.337 16.758 13.392 16.912 13.524 16.978 13.59 17.044 13.678 17.11 13.755 17.165 13.843 17.22 13.942 17.264 14.03 17.297 14.14 17.33 14.239 17.363 14.349 17.385 14.47"/>
    <path d="M1.86,16.696 C1.86,16.856 2.004,17 2.164,17 L3.652,17 C3.828,17 3.956,16.856 3.956,16.696 L3.956,12.28 L9.172,12.28 L9.172,16.696 C9.172,16.856 9.3,17 9.476,17 L10.948,17 C11.108,17 11.252,16.856 11.252,16.696 L11.252,6.104 C11.252,5.944 11.108,5.8 10.948,5.8 L9.476,5.8 C9.3,5.8 9.172,5.944 9.172,6.104 L9.172,10.344 L3.956,10.344 L3.956,6.104 C3.956,5.944 3.828,5.8 3.652,5.8 L2.164,5.8 C2.004,5.8 1.86,5.944 1.86,6.104 L1.86,16.696 Z"/>
  </g>
</svg>
