<svg xmlns="http://www.w3.org/2000/svg" width="16" height="16" viewBox="0 0 16 16">
  <path fill-rule="evenodd" d="M6.4090853,12.8444636 L6.4090853,8.56721392 L1.86026416,8.56721392 L1.86026416,12.8444636 L0,12.8444636 L0,3 L1.86026416,3 L1.86026416,6.91062832 L6.4090853,6.91062832 L6.4090853,3 L8.26934946,3 L8.26934946,12.8444636 L6.4090853,12.8444636 Z M14.7994075,10.5336378 L14.7994075,10.7891618 L14.7882977,10.9002592 L14.777188,11.0224664 L14.7549685,11.1335638 L14.732749,11.2335514 L14.6994198,11.3446488 L14.6327614,11.5446241 L14.5883224,11.6446118 L14.5327737,11.7445994 L14.4216763,11.9223553 L14.3550179,12.0001234 L14.2883595,12.0890014 L14.2105913,12.1667695 L14.1328231,12.233428 L14.0550549,12.3111961 L13.966177,12.3778546 L13.8884088,12.4334033 L13.6217751,12.6000494 L13.5328972,12.6444883 L13.3329219,12.7333663 L13.2218245,12.7666955 L13.1218368,12.8000247 L13.0107394,12.8333539 L12.9107518,12.8666831 L12.7996544,12.8889026 L12.6996667,12.9111221 L12.4774719,12.955561 L12.1441797,12.9888903 L12.0219726,13 L11.5553635,13 L11.4331564,12.9888903 L11.2109616,12.9666708 L11.0887545,12.955561 L10.9776571,12.9444513 L10.8665597,12.9222318 L10.7554623,12.9111221 L10.6443649,12.8889026 L10.5332675,12.8555734 L10.4332798,12.8333539 L10.3110727,12.8000247 L9.97778052,12.700037 L9.86668313,12.6555981 L9.36674485,12.4334033 L9.27786693,12.3778546 L9.30008641,12.2667572 L9.32230589,12.1445501 L9.33341563,12.0334527 L9.37785459,11.8112579 L9.40007406,11.6890507 L9.44451302,11.4668559 L9.45562276,11.3557585 L9.47784224,11.2335514 L9.50006172,11.122454 L9.60004938,11.1780027 L9.68892729,11.2335514 L9.78891495,11.2779904 L9.87779287,11.3335391 L10.0777682,11.422417 L10.1777558,11.4557462 L10.2666337,11.5001852 L10.6665844,11.633502 L10.8665597,11.677941 L10.9776571,11.7001605 L11.0776447,11.72238 L11.5220343,11.7668189 L11.877546,11.7668189 L12.1219603,11.7445994 L12.2330576,11.7334897 L12.344155,11.7112702 L12.4552524,11.677941 L12.5552401,11.6446118 L12.7329959,11.5779533 L12.8218738,11.5335144 L12.899642,11.4779657 L12.9885199,11.4113072 L13.0662881,11.3335391 L13.1329465,11.2557709 L13.1884952,11.166893 L13.2773732,10.9669177 L13.3218121,10.7447229 L13.3218121,10.5003086 L13.2773732,10.2781138 L13.2107147,10.0781385 L13.0996173,9.90038267 L13.0218492,9.82261449 L12.944081,9.75595605 L12.8663128,9.67818788 L12.7885446,9.63374892 L12.6330083,9.55598074 L12.4552524,9.48932231 L12.3552648,9.46710283 L12.2552771,9.43377361 L12.1441797,9.41155413 L12.0219726,9.40044439 L11.8997655,9.37822491 L11.7664486,9.36711517 L11.6331317,9.36711517 L11.4887051,9.35600543 L10.8221207,9.35600543 L10.7999012,9.24490804 L10.7887915,9.14492038 L10.766572,9.03382298 L10.7554623,8.92272559 L10.7332428,8.81162819 L10.7221331,8.71164054 L10.6999136,8.60054314 L10.6888039,8.48944575 L10.6665844,8.37834835 L10.6554746,8.2783607 L10.6332552,8.1672633 L11.4998148,8.1672633 L11.6331317,8.15615356 L11.7664486,8.15615356 L11.8886557,8.13393408 L12.0108629,8.12282434 L12.1219603,8.10060486 L12.3219356,8.05616591 L12.4219232,8.02283669 L12.5108011,7.98950747 L12.5885693,7.95617825 L12.6663375,7.91173929 L12.7329959,7.86730033 L12.8218738,7.8006419 L12.9774102,7.64510554 L13.0329589,7.55622763 L13.0773979,7.46734971 L13.1218368,7.36736205 L13.1662758,7.14516726 L13.1662758,6.92297247 L13.1218368,6.72299716 L13.0773979,6.6230095 L13.0329589,6.53413159 L12.899642,6.37859524 L12.8218738,6.30082706 L12.6663375,6.21194914 L12.5774596,6.16751018 L12.3774843,6.10085175 L12.1552895,6.05641279 L12.0330823,6.04530305 L11.8997655,6.03419331 L11.6553512,6.03419331 L11.5442538,6.04530305 L11.4331564,6.04530305 L11.3331687,6.05641279 L11.2220713,6.07863227 L11.1220837,6.08974201 L11.022096,6.11196149 L10.9109986,6.13418097 L10.811011,6.16751018 L10.7110233,6.18972966 L10.6221454,6.22305888 L10.3999506,6.3119368 L10.1999753,6.40081471 L9.70003703,6.6785582 L9.61115912,6.74521664 L9.58893964,6.63411924 L9.5778299,6.52302185 L9.53339094,6.30082706 L9.5222812,6.18972966 L9.50006172,6.08974201 L9.48895198,5.97864461 L9.44451302,5.75644982 L9.43340328,5.64535243 L9.4111838,5.53425503 L9.58893964,5.42315763 L9.78891495,5.31206024 L9.87779287,5.26762128 L9.97778052,5.22318232 L10.0888779,5.17874337 L10.1888656,5.13430441 L10.4110604,5.04542649 L10.5221578,5.01209727 L10.6110357,4.97876805 L11.0109863,4.88989014 L11.1220837,4.86767066 L11.5664733,4.8232317 L11.6886804,4.81212196 L12.1663992,4.81212196 L12.2886063,4.8232317 L12.6218985,4.85656092 L12.7218862,4.8787804 L12.8329836,4.90099988 L13.0329589,4.94543883 L13.1218368,4.96765831 L13.2329342,5.01209727 L13.3440316,5.04542649 L13.4440193,5.08986545 L13.5440069,5.14541415 L13.6328848,5.1898531 L13.8995186,5.3564992 L13.9772868,5.4120479 L14.1328231,5.56758425 L14.3327984,5.80088878 L14.3883471,5.8897667 L14.477225,6.06752253 L14.521664,6.17861992 L14.5883224,6.40081471 L14.6105419,6.52302185 L14.6327614,6.63411924 L14.6438711,6.75632638 L14.6438711,7.00074065 L14.6327614,7.12294778 L14.6216516,7.23404518 L14.5994322,7.34514257 L14.566103,7.45623997 L14.5438835,7.55622763 L14.4994445,7.65621528 L14.4105666,7.83397111 L14.3550179,7.92284903 L14.2883595,8.00061721 L14.2328108,8.06727564 L14.1550426,8.15615356 L14.0661647,8.222812 L13.9772868,8.30058018 L13.8884088,8.36723861 L13.7995309,8.42278731 L13.499568,8.5894334 L13.2773732,8.67831132 L13.155166,8.72275028 L13.2773732,8.7560795 L13.3884706,8.80051845 L13.499568,8.83384767 L13.5995556,8.87828663 L13.6995433,8.93383533 L13.7995309,8.97827429 L14.0661647,9.14492038 L14.1439328,9.20046908 L14.2994692,9.33378595 L14.3661276,9.40044439 L14.4327861,9.48932231 L14.4994445,9.56709048 L14.5549932,9.6559684 L14.6105419,9.75595605 L14.6549809,9.84483397 L14.6883101,9.95593137 L14.7216393,10.055919 L14.7549685,10.1670164 L14.777188,10.2892236 L14.7994075,10.5336378 Z"/>
</svg>
