<svg xmlns="http://www.w3.org/2000/svg" width="16" height="16" viewBox="0 0 16 16">
  <g fill-rule="evenodd" transform="translate(-2 -3.5)">
    <path d="M17.253 15.328L17.253 17 15.9 17 15.9 15.328 11.929 15.328 11.929 14.36 11.995 14.272 12.05 14.184 12.182 14.008 12.248 13.909 12.303 13.821 12.501 13.557 12.556 13.469 12.688 13.293 12.754 13.194 12.809 13.106 13.007 12.842 13.062 12.754 13.194 12.578 13.26 12.479 13.315 12.391 13.513 12.127 13.568 12.039 13.7 11.863 13.766 11.764 13.821 11.676 13.953 11.5 14.008 11.412 14.206 11.148 14.261 11.06 14.327 10.961 14.459 10.785 14.514 10.697 14.712 10.433 14.767 10.345 14.833 10.246 14.965 10.07 15.02 9.982 15.218 9.718 15.273 9.63 15.339 9.531 15.471 9.355 15.526 9.267 15.592 9.179 17.253 9.179 17.253 14.261 18.496 14.261 18.496 15.328 17.253 15.328zM15.9 10.664L15.768 10.84 15.702 10.939 15.504 11.203 15.449 11.291 15.383 11.379 15.317 11.478 14.987 11.918 14.921 12.017 14.657 12.369 14.602 12.457 14.536 12.556 14.272 12.908 14.206 13.007 13.876 13.447 13.81 13.546 13.744 13.634 13.689 13.722 13.491 13.986 13.425 14.085 13.293 14.261 15.9 14.261 15.9 10.664zM1.86 16.696C1.86 16.856 2.004 17 2.164 17L3.652 17C3.828 17 3.956 16.856 3.956 16.696L3.956 12.28 9.172 12.28 9.172 16.696C9.172 16.856 9.3 17 9.476 17L10.948 17C11.108 17 11.252 16.856 11.252 16.696L11.252 6.104C11.252 5.944 11.108 5.8 10.948 5.8L9.476 5.8C9.3 5.8 9.172 5.944 9.172 6.104L9.172 10.344 3.956 10.344 3.956 6.104C3.956 5.944 3.828 5.8 3.652 5.8L2.164 5.8C2.004 5.8 1.86 5.944 1.86 6.104L1.86 16.696z"/>
  </g>
</svg>
