<svg xmlns="http://www.w3.org/2000/svg" width="16" height="16" viewBox="0 0 16 16">
  <path fill-rule="evenodd" d="M6.51034483,13 L6.51034483,8.65517241 L1.88965517,8.65517241 L1.88965517,13 L0,13 L0,3 L1.88965517,3 L1.88965517,6.97241379 L6.51034483,6.97241379 L6.51034483,3 L8.4,3 L8.4,13 L6.51034483,13 Z M14.8752351,11.2846395 L14.8752351,13 L13.4871473,13 L13.4871473,11.2846395 L9.41316614,11.2846395 L9.41316614,10.2915361 L9.48087774,10.2012539 L9.53730408,10.1109718 L9.67272727,9.93040752 L9.74043887,9.82884013 L9.7968652,9.73855799 L10,9.4677116 L10.0564263,9.37742947 L10.1918495,9.1968652 L10.2595611,9.09529781 L10.3159875,9.00501567 L10.5191223,8.73416928 L10.5755486,8.64388715 L10.7109718,8.46332288 L10.7786834,8.36175549 L10.8351097,8.27147335 L11.0382445,8.00062696 L11.0946708,7.91034483 L11.230094,7.72978056 L11.2978056,7.62821317 L11.354232,7.53793103 L11.4896552,7.35736677 L11.5460815,7.26708464 L11.7492163,6.99623824 L11.8056426,6.90595611 L11.8733542,6.80438871 L12.0087774,6.62382445 L12.0652038,6.53354232 L12.2683386,6.26269592 L12.3247649,6.17241379 L12.3924765,6.07084639 L12.5278997,5.89028213 L12.584326,5.8 L12.7874608,5.52915361 L12.8438871,5.43887147 L12.9115987,5.33730408 L13.0470219,5.15673981 L13.1034483,5.06645768 L13.1711599,4.97617555 L14.8752351,4.97617555 L14.8752351,10.1899687 L16.1504702,10.1899687 L16.1504702,11.2846395 L14.8752351,11.2846395 Z M13.4871473,6.49968652 L13.3517241,6.68025078 L13.2840125,6.78181818 L13.0808777,7.05266458 L13.0244514,7.14294671 L12.9567398,7.23322884 L12.8890282,7.33479624 L12.5504702,7.7862069 L12.4827586,7.88777429 L12.2119122,8.24890282 L12.1554859,8.33918495 L12.0877743,8.44075235 L11.8169279,8.80188088 L11.7492163,8.90344828 L11.4106583,9.35485893 L11.3429467,9.45642633 L11.2752351,9.54670846 L11.2188088,9.6369906 L11.015674,9.90783699 L10.9479624,10.0094044 L10.8125392,10.1899687 L13.4871473,10.1899687 L13.4871473,6.49968652 Z"/>
</svg>
