<svg xmlns="http://www.w3.org/2000/svg" width="16" height="16" viewBox="0 0 16 16">
  <path fill-rule="evenodd" d="M6.4090853,12.8444636 L6.4090853,8.56721392 L1.86026416,8.56721392 L1.86026416,12.8444636 L0,12.8444636 L0,3 L1.86026416,3 L1.86026416,6.91062832 L6.4090853,6.91062832 L6.4090853,3 L8.26934946,3 L8.26934946,12.8444636 L6.4090853,12.8444636 Z M14.9771633,10.1670164 L14.9771633,10.4114307 L14.9327244,10.8558203 L14.9105049,10.9558079 L14.8771757,11.0669053 L14.8549562,11.166893 L14.821627,11.2668806 L14.777188,11.3557585 L14.7438588,11.4446365 L14.6327614,11.6446118 L14.5772127,11.7334897 L14.521664,11.8334773 L14.4550056,11.9112455 L14.3883471,12.0001234 L14.3105789,12.0778916 L14.2439205,12.1556598 L14.1550426,12.233428 L14.0772744,12.3000864 L13.8995186,12.4334033 L13.8106407,12.488952 L13.710653,12.5445007 L13.6217751,12.6000494 L13.5106777,12.6555981 L13.41069,12.700037 L13.1884952,12.7889149 L12.9663005,12.8555734 L12.8663128,12.8777929 L12.7552154,12.9111221 L12.644118,12.9333416 L12.5330206,12.9444513 L12.4219232,12.9666708 L12.2997161,12.9777805 L12.1886187,12.9888903 L12.0664116,12.9888903 L11.9442044,13 L11.5664733,13 L11.4442661,12.9888903 L11.3331687,12.9777805 L11.2109616,12.9666708 L10.8776694,12.9333416 L10.6554746,12.8889026 L10.555487,12.8666831 L10.4554993,12.8333539 L10.3444019,12.8111344 L10.2444143,12.7778052 L10.1333169,12.744476 L9.93334156,12.6778176 L9.83335391,12.6333786 L9.73336625,12.6000494 L9.64448833,12.5556104 L9.54450068,12.5111715 L9.36674485,12.4222935 L9.38896433,12.3111961 L9.40007406,12.2112085 L9.42229354,12.1001111 L9.43340328,11.9890137 L9.45562276,11.889026 L9.47784224,11.7779287 L9.48895198,11.6668313 L9.51117146,11.5668436 L9.5222812,11.4557462 L9.54450068,11.3446488 L9.55561042,11.2446612 L9.5778299,11.1335638 L9.66670781,11.1891125 L9.76669547,11.2335514 L9.86668313,11.2891001 L10.0666584,11.377978 L10.1777558,11.422417 L10.2777435,11.4668559 L10.3888409,11.5001852 L10.4999383,11.5446241 L10.6110357,11.5779533 L10.7110233,11.6112826 L10.8221207,11.633502 L10.9221084,11.6668313 L11.0332058,11.6890507 L11.1443032,11.7001605 L11.2554006,11.72238 L11.4775954,11.7445994 L11.5998025,11.7445994 L11.7108999,11.7557092 L11.9553142,11.7557092 L12.0775213,11.7445994 L12.1886187,11.7334897 L12.5219109,11.6668313 L12.644118,11.6223923 L12.8663128,11.5335144 L13.0662881,11.4001975 L13.1440563,11.3335391 L13.2329342,11.2557709 L13.3662511,11.0780151 L13.4662387,10.8780397 L13.499568,10.7891618 L13.5440069,10.5891865 L13.5551167,10.4780891 L13.5551167,10.2336749 L13.5328972,10.1114677 L13.5106777,10.0003703 L13.4773485,9.88927293 L13.4329095,9.77817553 L13.3773608,9.67818788 L13.3218121,9.58930996 L13.2440439,9.51154178 L13.1662758,9.42266387 L13.0885076,9.36711517 L12.9996297,9.31156647 L12.9218615,9.26712752 L12.8218738,9.22268856 L12.6218985,9.15603012 L12.5108011,9.13381064 L12.388594,9.11159116 L12.2663869,9.10048142 L12.13307,9.08937168 L11.7664486,9.08937168 L11.6553512,9.10048142 L11.3553882,9.13381064 L11.1331934,9.18935934 L11.0109863,9.21157882 L10.8998889,9.24490804 L10.7887915,9.28934699 L10.6776941,9.32267621 L10.4554993,9.27823725 L10.3555117,9.25601778 L10.2444143,9.2337983 L10.1333169,9.20046908 L10.0222195,9.1782496 L9.92223182,9.15603012 L9.70003703,9.11159116 L9.71114677,9.00049377 L9.71114677,8.88939637 L9.73336625,8.66720158 L9.74447599,8.54499445 L9.74447599,8.43389705 L9.76669547,8.21170226 L9.76669547,8.10060486 L9.78891495,7.87841007 L9.78891495,7.76731268 L9.80002469,7.65621528 L9.81113443,7.53400815 L9.82224417,7.42291075 L9.82224417,7.31181336 L9.84446365,7.08961857 L9.84446365,6.97852117 L9.86668313,6.75632638 L9.86668313,6.64522898 L9.87779287,6.53413159 L9.8889026,6.41192445 L9.90001234,6.30082706 L9.90001234,6.18972966 L9.92223182,5.96753487 L9.92223182,5.85643748 L9.9444513,5.63424269 L9.9444513,5.52314529 L9.95556104,5.40093816 L9.97778052,5.17874337 L9.97778052,5.06764597 L9.98889026,4.95654857 L14.5438835,4.95654857 L14.566103,5.06764597 L14.5772127,5.17874337 L14.5994322,5.3009505 L14.6105419,5.4120479 L14.6327614,5.52314529 L14.6438711,5.63424269 L14.6660906,5.74534008 L14.6772003,5.85643748 L14.6994198,5.97864461 L14.7105296,6.08974201 L14.732749,6.2008394 L11.1443032,6.2008394 L11.1220837,6.42303419 L11.1220837,6.53413159 L11.110974,6.64522898 L11.0998642,6.74521664 L11.0887545,6.85631404 L11.0887545,6.96741143 L11.0554253,7.30070362 L11.0554253,7.41180101 L11.0443155,7.52289841 L11.0332058,7.62288606 L11.022096,7.73398346 L11.022096,7.84508085 L10.9998766,8.06727564 L11.2998395,8.00061721 L11.4109369,7.97839773 L11.5331441,7.95617825 L11.7108999,7.93395877 L11.9108752,7.91173929 L12.0219726,7.90062955 L12.3774843,7.90062955 L12.4996914,7.91173929 L12.6218985,7.91173929 L12.7329959,7.92284903 L12.8440933,7.94506851 L12.9551907,7.95617825 L13.0662881,7.97839773 L13.1773855,8.01172695 L13.2773732,8.03394643 L13.3773608,8.06727564 L13.4884582,8.10060486 L13.5884459,8.14504382 L13.6995433,8.18948278 L13.7884212,8.24503148 L13.8884088,8.30058018 L14.0661647,8.41167757 L14.1550426,8.47833601 L14.2328108,8.53388471 L14.3994569,8.7005308 L14.477225,8.78940871 L14.5438835,8.87828663 L14.6772003,9.07826194 L14.732749,9.1782496 L14.7882977,9.28934699 L14.8549562,9.48932231 L14.9216146,9.7115171 L14.9438341,9.82261449 L14.9660536,10.0448093 L14.9771633,10.1670164 Z"/>
</svg>
