<svg xmlns="http://www.w3.org/2000/svg" width="16" height="16" viewBox="0 0 16 16">
  <g fill-rule="evenodd" transform="translate(-2 -3.5)">
    <polygon points="17.583 14.349 17.583 14.591 17.539 15.031 17.517 15.13 17.484 15.24 17.462 15.339 17.429 15.438 17.385 15.526 17.352 15.614 17.242 15.812 17.187 15.9 17.132 15.999 17.066 16.076 17 16.164 16.923 16.241 16.857 16.318 16.769 16.395 16.692 16.461 16.516 16.593 16.428 16.648 16.329 16.703 16.241 16.758 16.131 16.813 16.032 16.857 15.812 16.945 15.592 17.011 15.493 17.033 15.383 17.066 15.273 17.088 15.163 17.099 15.053 17.121 14.932 17.132 14.822 17.143 14.701 17.143 14.58 17.154 14.206 17.154 14.085 17.143 13.975 17.132 13.854 17.121 13.524 17.088 13.304 17.044 13.205 17.022 13.106 16.989 12.996 16.967 12.897 16.934 12.787 16.901 12.589 16.835 12.49 16.791 12.391 16.758 12.303 16.714 12.204 16.67 12.028 16.582 12.05 16.472 12.061 16.373 12.083 16.263 12.094 16.153 12.116 16.054 12.138 15.944 12.149 15.834 12.171 15.735 12.182 15.625 12.204 15.515 12.215 15.416 12.237 15.306 12.325 15.361 12.424 15.405 12.523 15.46 12.721 15.548 12.831 15.592 12.93 15.636 13.04 15.669 13.15 15.713 13.26 15.746 13.359 15.779 13.469 15.801 13.568 15.834 13.678 15.856 13.788 15.867 13.898 15.889 14.118 15.911 14.239 15.911 14.349 15.922 14.591 15.922 14.712 15.911 14.822 15.9 15.152 15.834 15.273 15.79 15.493 15.702 15.691 15.57 15.768 15.504 15.856 15.427 15.988 15.251 16.087 15.053 16.12 14.965 16.164 14.767 16.175 14.657 16.175 14.415 16.153 14.294 16.131 14.184 16.098 14.074 16.054 13.964 15.999 13.865 15.944 13.777 15.867 13.7 15.79 13.612 15.713 13.557 15.625 13.502 15.548 13.458 15.449 13.414 15.251 13.348 15.141 13.326 15.02 13.304 14.899 13.293 14.767 13.282 14.404 13.282 14.294 13.293 13.997 13.326 13.777 13.381 13.656 13.403 13.546 13.436 13.436 13.48 13.326 13.513 13.106 13.469 13.007 13.447 12.897 13.425 12.787 13.392 12.677 13.37 12.578 13.348 12.358 13.304 12.369 13.194 12.369 13.084 12.391 12.864 12.402 12.743 12.402 12.633 12.424 12.413 12.424 12.303 12.446 12.083 12.446 11.973 12.457 11.863 12.468 11.742 12.479 11.632 12.479 11.522 12.501 11.302 12.501 11.192 12.523 10.972 12.523 10.862 12.534 10.752 12.545 10.631 12.556 10.521 12.556 10.411 12.578 10.191 12.578 10.081 12.6 9.861 12.6 9.751 12.611 9.63 12.633 9.41 12.633 9.3 12.644 9.19 17.154 9.19 17.176 9.3 17.187 9.41 17.209 9.531 17.22 9.641 17.242 9.751 17.253 9.861 17.275 9.971 17.286 10.081 17.308 10.202 17.319 10.312 17.341 10.422 13.788 10.422 13.766 10.642 13.766 10.752 13.755 10.862 13.744 10.961 13.733 11.071 13.733 11.181 13.7 11.511 13.7 11.621 13.689 11.731 13.678 11.83 13.667 11.94 13.667 12.05 13.645 12.27 13.942 12.204 14.052 12.182 14.173 12.16 14.349 12.138 14.547 12.116 14.657 12.105 15.009 12.105 15.13 12.116 15.251 12.116 15.361 12.127 15.471 12.149 15.581 12.16 15.691 12.182 15.801 12.215 15.9 12.237 15.999 12.27 16.109 12.303 16.208 12.347 16.318 12.391 16.406 12.446 16.505 12.501 16.681 12.611 16.769 12.677 16.846 12.732 17.011 12.897 17.088 12.985 17.154 13.073 17.286 13.271 17.341 13.37 17.396 13.48 17.462 13.678 17.528 13.898 17.55 14.008 17.572 14.228"/>
    <path d="M1.86,16.696 C1.86,16.856 2.004,17 2.164,17 L3.652,17 C3.828,17 3.956,16.856 3.956,16.696 L3.956,12.28 L9.172,12.28 L9.172,16.696 C9.172,16.856 9.3,17 9.476,17 L10.948,17 C11.108,17 11.252,16.856 11.252,16.696 L11.252,6.104 C11.252,5.944 11.108,5.8 10.948,5.8 L9.476,5.8 C9.3,5.8 9.172,5.944 9.172,6.104 L9.172,10.344 L3.956,10.344 L3.956,6.104 C3.956,5.944 3.828,5.8 3.652,5.8 L2.164,5.8 C2.004,5.8 1.86,5.944 1.86,6.104 L1.86,16.696 Z"/>
  </g>
</svg>
