<svg xmlns="http://www.w3.org/2000/svg" width="16" height="16" viewBox="0 0 16 16">
  <g fill-rule="evenodd" transform="translate(-1 1.5)">
    <path d="M15.813 5.246L15.703 5.268 15.483 5.334 15.373 5.356 15.274 5.389 15.164 5.422 14.966 5.488 14.856 5.521 14.757 5.565 14.669 5.598 14.449 5.686 14.251 5.774 14.152 5.829 14.064 5.884 13.965 5.939 13.701 6.104 13.602 6.17 13.514 6.236 13.426 6.313 13.349 6.39 13.261 6.467 13.184 6.544 13.118 6.632 13.041 6.72 12.975 6.797 12.909 6.896 12.854 6.984 12.744 7.182 12.689 7.292 12.645 7.391 12.601 7.501 12.568 7.611 12.535 7.732 12.634 7.666 12.832 7.556 12.942 7.501 13.041 7.457 13.151 7.413 13.25 7.369 13.36 7.325 13.47 7.292 13.569 7.259 13.668 7.237 13.778 7.215 13.877 7.193 13.987 7.171 14.207 7.149 14.328 7.149 14.438 7.138 14.68 7.138 14.79 7.149 14.911 7.16 15.131 7.182 15.241 7.204 15.34 7.226 15.45 7.259 15.549 7.292 15.769 7.38 15.868 7.424 15.967 7.479 16.066 7.545 16.242 7.677 16.319 7.743 16.396 7.831 16.473 7.908 16.605 8.084 16.715 8.282 16.77 8.392 16.825 8.491 16.858 8.601 16.891 8.7 16.924 8.81 16.968 9.03 16.979 9.151 16.99 9.261 17.001 9.393 17.001 9.635 16.968 9.965 16.924 10.185 16.858 10.383 16.825 10.493 16.671 10.801 16.616 10.9 16.55 10.988 16.484 11.087 16.407 11.175 16.341 11.263 16.253 11.34 16.176 11.417 16.088 11.494 16.011 11.56 15.747 11.725 15.648 11.78 15.56 11.835 15.461 11.879 15.351 11.923 15.252 11.956 15.153 12 15.054 12.022 14.955 12.055 14.757 12.099 14.647 12.11 14.548 12.132 14.438 12.143 14.328 12.143 14.218 12.154 13.987 12.154 13.866 12.143 13.756 12.143 13.646 12.121 13.525 12.11 13.305 12.066 13.206 12.044 13.096 12.011 12.997 11.978 12.898 11.934 12.788 11.901 12.7 11.857 12.601 11.802 12.513 11.758 12.414 11.703 12.337 11.648 12.161 11.516 12.007 11.384 11.941 11.307 11.864 11.23 11.798 11.153 11.666 10.977 11.611 10.889 11.446 10.592 11.402 10.493 11.314 10.273 11.248 10.075 11.204 9.877 11.138 9.547 11.116 9.327 11.094 9.085 11.094 8.601 11.105 8.48 11.127 8.26 11.138 8.139 11.149 8.029 11.193 7.809 11.215 7.71 11.237 7.6 11.259 7.501 11.391 7.105 11.479 6.907 11.523 6.797 11.743 6.401 11.798 6.313 11.864 6.214 12.062 5.95 12.139 5.862 12.216 5.785 12.293 5.697 12.447 5.543 12.524 5.477 12.601 5.4 12.689 5.334 12.766 5.268 12.942 5.136 13.03 5.081 13.118 5.015 13.217 4.96 13.305 4.894 13.503 4.784 13.602 4.74 13.701 4.685 13.899 4.586 13.998 4.542 14.108 4.498 14.207 4.465 14.306 4.421 14.416 4.377 14.515 4.344 14.735 4.278 14.834 4.234 14.944 4.201 15.054 4.179 15.164 4.146 15.285 4.113 15.395 4.091 15.505 4.058 15.626 4.036 15.648 4.146 15.659 4.256 15.681 4.366 15.692 4.476 15.714 4.586 15.725 4.696 15.747 4.806 15.758 4.916 15.78 5.026 15.791 5.136 15.813 5.246zM14.262 8.26L14.009 8.26 13.899 8.271 13.778 8.282 13.668 8.293 13.558 8.315 13.448 8.348 13.349 8.37 13.239 8.403 13.14 8.447 13.03 8.491 12.931 8.535 12.733 8.645 12.436 8.843 12.436 8.986 12.458 9.25 12.469 9.371 12.491 9.492 12.513 9.602 12.579 9.822 12.612 9.921 12.7 10.119 12.744 10.207 12.799 10.295 12.909 10.449 12.986 10.537 13.063 10.614 13.217 10.746 13.305 10.801 13.404 10.856 13.492 10.9 13.69 10.966 13.8 10.988 13.899 10.999 14.02 11.01 14.251 11.01 14.361 10.999 14.471 10.977 14.581 10.966 14.779 10.9 14.955 10.812 15.043 10.757 15.12 10.702 15.197 10.636 15.263 10.57 15.329 10.493 15.384 10.405 15.439 10.328 15.483 10.24 15.549 10.042 15.593 9.822 15.604 9.712 15.604 9.47 15.593 9.349 15.549 9.129 15.516 9.03 15.472 8.931 15.428 8.843 15.373 8.755 15.318 8.678 15.252 8.601 15.098 8.491 15.021 8.447 14.933 8.403 14.834 8.359 14.735 8.337 14.625 8.304 14.515 8.282 14.394 8.271 14.262 8.26zM.86 11.696C.86 11.856 1.004 12 1.164 12L2.652 12C2.828 12 2.956 11.856 2.956 11.696L2.956 7.28 8.172 7.28 8.172 11.696C8.172 11.856 8.3 12 8.476 12L9.948 12C10.108 12 10.252 11.856 10.252 11.696L10.252 1.104C10.252.944 10.108.8 9.948.8L8.476.8C8.3.8 8.172.944 8.172 1.104L8.172 5.344 2.956 5.344 2.956 1.104C2.956.944 2.828.8 2.652.8L1.164.8C1.004.8.86.944.86 1.104L.86 11.696z"/>
  </g>
</svg>
