<svg xmlns="http://www.w3.org/2000/svg" width="16" height="16" viewBox="0 0 16 16">
  <path fill-rule="evenodd" d="M6.4090853,12.8444636 L6.4090853,8.56721392 L1.86026416,8.56721392 L1.86026416,12.8444636 L0,12.8444636 L0,3 L1.86026416,3 L1.86026416,6.91062832 L6.4090853,6.91062832 L6.4090853,3 L8.26934946,3 L8.26934946,12.8444636 L6.4090853,12.8444636 Z M14.1994815,6.02308357 L14.0883842,6.04530305 L13.8661894,6.11196149 L13.755092,6.13418097 L13.6551043,6.16751018 L13.5440069,6.2008394 L13.3440316,6.26749784 L13.2329342,6.30082706 L13.1329465,6.34526602 L13.0440686,6.37859524 L12.8218738,6.46747315 L12.6218985,6.55635107 L12.5219109,6.61189977 L12.433033,6.66744846 L12.3330453,6.72299716 L12.0664116,6.88964325 L11.9664239,6.95630169 L11.877546,7.02296013 L11.7886681,7.10072831 L11.7108999,7.17849648 L11.622022,7.25626466 L11.5442538,7.33403284 L11.4775954,7.42291075 L11.3998272,7.51178867 L11.3331687,7.58955684 L11.2665103,7.6895445 L11.2109616,7.77842242 L11.0998642,7.97839773 L11.0443155,8.08949512 L10.9998766,8.18948278 L10.9554376,8.30058018 L10.9221084,8.41167757 L10.8887792,8.53388471 L10.9887668,8.46722627 L11.1887421,8.35612887 L11.2998395,8.30058018 L11.3998272,8.25614122 L11.5109246,8.21170226 L11.6109122,8.1672633 L11.7220096,8.12282434 L11.833107,8.08949512 L11.9330947,8.05616591 L12.0330823,8.03394643 L12.1441797,8.01172695 L12.2441674,7.98950747 L12.3552648,7.96728799 L12.5774596,7.94506851 L12.6996667,7.94506851 L12.8107641,7.93395877 L13.0551784,7.93395877 L13.1662758,7.94506851 L13.2884829,7.95617825 L13.5106777,7.97839773 L13.6217751,8.00061721 L13.7217627,8.02283669 L13.8328601,8.05616591 L13.9328478,8.08949512 L14.1550426,8.17837304 L14.2550302,8.222812 L14.3550179,8.2783607 L14.4550056,8.34501913 L14.6327614,8.47833601 L14.7105296,8.54499445 L14.7882977,8.63387236 L14.8660659,8.71164054 L14.9993828,8.88939637 L15.1104802,9.08937168 L15.1660289,9.20046908 L15.2215776,9.30045673 L15.2549068,9.41155413 L15.288236,9.51154178 L15.3215652,9.62263918 L15.3660042,9.84483397 L15.3771139,9.96704111 L15.3882237,10.0781385 L15.3993334,10.2114554 L15.3993334,10.4558696 L15.3660042,10.7891618 L15.3215652,11.0113566 L15.2549068,11.2113319 L15.2215776,11.3224293 L15.0660412,11.633502 L15.0104925,11.7334897 L14.9438341,11.8223676 L14.8771757,11.9223553 L14.7994075,12.0112332 L14.732749,12.1001111 L14.6438711,12.1778793 L14.566103,12.2556475 L14.477225,12.3334156 L14.3994569,12.4000741 L14.1328231,12.5667202 L14.0328355,12.6222689 L13.9439575,12.6778176 L13.8439699,12.7222565 L13.7328725,12.7666955 L13.6328848,12.8000247 L13.5328972,12.8444636 L13.4329095,12.8666831 L13.3329219,12.9000123 L13.1329465,12.9444513 L13.0218492,12.955561 L12.9218615,12.9777805 L12.8107641,12.9888903 L12.6996667,12.9888903 L12.5885693,13 L12.3552648,13 L12.2330576,12.9888903 L12.1219603,12.9888903 L12.0108629,12.9666708 L11.8886557,12.955561 L11.6664609,12.9111221 L11.5664733,12.8889026 L11.4553759,12.8555734 L11.3553882,12.8222442 L11.2554006,12.7778052 L11.1443032,12.744476 L11.0554253,12.700037 L10.9554376,12.6444883 L10.8665597,12.6000494 L10.766572,12.5445007 L10.6888039,12.488952 L10.511048,12.3556351 L10.3555117,12.2223182 L10.2888532,12.1445501 L10.2110851,12.0667819 L10.1444266,11.9890137 L10.0111097,11.8112579 L9.95556104,11.72238 L9.78891495,11.422417 L9.74447599,11.3224293 L9.65559807,11.1002345 L9.58893964,10.9002592 L9.54450068,10.7002839 L9.47784224,10.3669917 L9.45562276,10.1447969 L9.43340328,9.90038267 L9.43340328,9.41155413 L9.44451302,9.28934699 L9.4667325,9.0671522 L9.47784224,8.94494507 L9.48895198,8.83384767 L9.53339094,8.61165288 L9.55561042,8.51166523 L9.5778299,8.40056783 L9.60004938,8.30058018 L9.73336625,7.90062955 L9.82224417,7.70065424 L9.86668313,7.58955684 L10.0888779,7.18960622 L10.1444266,7.10072831 L10.2110851,7.00074065 L10.4110604,6.7341069 L10.4888285,6.64522898 L10.5665967,6.56746081 L10.6443649,6.47858289 L10.7999012,6.32304654 L10.8776694,6.2563881 L10.9554376,6.17861992 L11.0443155,6.11196149 L11.1220837,6.04530305 L11.2998395,5.91198617 L11.3887174,5.85643748 L11.4775954,5.78977904 L11.577583,5.73423034 L11.6664609,5.6675719 L11.8664362,5.55647451 L11.9664239,5.51203555 L12.0664116,5.45648685 L12.2663869,5.3564992 L12.3663745,5.31206024 L12.4774719,5.26762128 L12.5774596,5.23429206 L12.6774472,5.1898531 L12.7885446,5.14541415 L12.8885323,5.11208493 L13.1107271,5.04542649 L13.2107147,5.00098753 L13.3218121,4.96765831 L13.4329095,4.94543883 L13.5440069,4.91210962 L13.666214,4.8787804 L13.7773114,4.85656092 L13.8884088,4.8232317 L14.010616,4.80101222 L14.0328355,4.91210962 L14.0439452,5.02320701 L14.0661647,5.13430441 L14.0772744,5.2454018 L14.0994939,5.3564992 L14.1106036,5.46759659 L14.1328231,5.57869399 L14.1439328,5.68979138 L14.1661523,5.80088878 L14.1772621,5.91198617 L14.1994815,6.02308357 Z M12.6330083,9.0671522 L12.3774843,9.0671522 L12.2663869,9.07826194 L12.1441797,9.08937168 L12.0330823,9.10048142 L11.9219849,9.1227009 L11.8108875,9.15603012 L11.7108999,9.1782496 L11.5998025,9.21157882 L11.4998148,9.25601778 L11.3887174,9.30045673 L11.2887298,9.34489569 L11.0887545,9.45599309 L10.7887915,9.6559684 L10.7887915,9.80039501 L10.811011,10.0670288 L10.8221207,10.1892359 L10.8443402,10.311443 L10.8665597,10.4225404 L10.9332181,10.6447352 L10.9665473,10.7447229 L11.0554253,10.9446982 L11.0998642,11.0335761 L11.1554129,11.122454 L11.2665103,11.2779904 L11.3442785,11.3668683 L11.4220467,11.4446365 L11.577583,11.5779533 L11.6664609,11.633502 L11.7664486,11.6890507 L11.8553265,11.7334897 L12.0553018,11.8001481 L12.1663992,11.8223676 L12.2663869,11.8334773 L12.388594,11.8445871 L12.6218985,11.8445871 L12.7329959,11.8334773 L12.8440933,11.8112579 L12.9551907,11.8001481 L13.155166,11.7334897 L13.3329219,11.6446118 L13.4217998,11.5890631 L13.499568,11.5335144 L13.5773361,11.4668559 L13.6439946,11.4001975 L13.710653,11.3224293 L13.7662017,11.2335514 L13.8217504,11.1557832 L13.8661894,11.0669053 L13.9328478,10.86693 L13.9772868,10.6447352 L13.9883965,10.5336378 L13.9883965,10.2892236 L13.9772868,10.1670164 L13.9328478,9.94482163 L13.8995186,9.84483397 L13.8550796,9.74484632 L13.8106407,9.6559684 L13.755092,9.56709048 L13.6995433,9.48932231 L13.6328848,9.41155413 L13.4773485,9.30045673 L13.3995803,9.25601778 L13.3107024,9.21157882 L13.2107147,9.16713986 L13.1107271,9.14492038 L12.9996297,9.11159116 L12.8885323,9.08937168 L12.7663251,9.07826194 L12.6330083,9.0671522 Z"/>
</svg>
