<svg width="16px" height="16px" viewBox="0 0 16 16" version="1.1" xmlns="http://www.w3.org/2000/svg" xmlns:xlink="http://www.w3.org/1999/xlink">
<title>question</title>
<g id="Page-1" stroke="none" stroke-width="1" fill="none" fill-rule="evenodd">
    <g id="02-Less-than-8" transform="translate(-111.000000, -419.000000)" fill="#8492A6">
        <g id="question" transform="translate(111.000000, 419.000000)">
            <path d="M8,0 C3.6,0 0,3.6 0,8 C0,12.4 3.6,16 8,16 C12.4,16 16,12.4 16,8 C16,3.6 12.4,0 8,0 L8,0 Z M8,14 C4.7,14 2,11.3 2,8 C2,4.7 4.7,2 8,2 C11.3,2 14,4.7 14,8 C14,11.3 11.3,14 8,14 L8,14 Z" id="Fill-15"></path>
            <path d="M8,11 C8.552,11 9,11.448 9,12 C9,12.552 8.552,13 8,13 C7.448,13 7,12.552 7,12 C7,11.448 7.448,11 8,11" id="Fill-16"></path>
            <path d="M7.1,5.5 C7.3,5.2 7.6,5 8,5 C8.6,5 9,5.4 9,6 C9,6.3 8.9,6.4 8.4,6.7 C7.8,7.1 7,7.7 7,9 L7,10 L9,10 L9,9 C9,8.8 9,8.7 9.5,8.4 C10.1,8 11,7.4 11,6 C11,4.3 9.7,3 8,3 C6.9,3 5.9,3.6 5.4,4.5 L4.9,5.4 L6.6,6.4 L7.1,5.5" id="Fill-17"></path>
        </g>
    </g>
</g>
</svg>
