<svg width="16" height="16" viewBox="0 0 16 16" fill="none" xmlns="http://www.w3.org/2000/svg">
<path fill-rule="evenodd" clip-rule="evenodd" d="M15 12C15.5523 12 16 12.4477 16 13V15C16 15.5523 15.5523 16 15 16H7C6.44772 16 6 15.5523 6 15V13C6 12.4477 6.44772 12 7 12H15ZM3 6C3.55228 6 4 6.44772 4 7V15C4 15.5523 3.55228 16 3 16C2.44772 16 2 15.5523 2 15V7C2 6.44772 2.44772 6 3 6ZM15 6C15.5523 6 16 6.44772 16 7V9C16 9.55228 15.5523 10 15 10H7C6.44772 10 6 9.55228 6 9V7C6 6.44772 6.44772 6 7 6H15ZM15 0C15.5523 0 16 0.447715 16 1V3C16 3.55228 15.5523 4 15 4H1C0.447715 4 0 3.55228 0 3V1C0 0.447715 0.447715 0 1 0H15Z" fill="#8599AD"/>
</svg>
