<svg width="17" height="16" viewBox="0 0 17 16" fill="none" xmlns="http://www.w3.org/2000/svg">
<mask id="path-1-inside-1" fill="white">
<path fill-rule="evenodd" clip-rule="evenodd" d="M2 14V2H12V6H14V1C14 0.4 13.6 0 13 0H1C0.4 0 0 0.4 0 1V15C0 15.6 0.4 16 1 16H10V14H2Z"/>
</mask>
<path fill-rule="evenodd" clip-rule="evenodd" d="M2 14V2H12V6H14V1C14 0.4 13.6 0 13 0H1C0.4 0 0 0.4 0 1V15C0 15.6 0.4 16 1 16H10V14H2Z" fill="#8599AD"/>
<path d="M2 2V0H0V2H2ZM2 14H0V16H2V14ZM12 2H14V0H12V2ZM12 6H10V8H12V6ZM14 6V8H16V6H14ZM10 16V18H12V16H10ZM10 14H12V12H10V14ZM0 2V14H4V2H0ZM12 0H2V4H12V0ZM14 6V2H10V6H14ZM12 8H14V4H12V8ZM12 1V6H16V1H12ZM13 2C12.8455 2 12.5613 1.93977 12.3108 1.68921C12.0602 1.43865 12 1.15449 12 1H16C16 0.245505 15.7398 -0.538655 15.1392 -1.13921C14.5387 -1.73977 13.7545 -2 13 -2V2ZM1 2H13V-2H1V2ZM2 1C2 1.1545 1.93977 1.43866 1.68921 1.68921C1.43866 1.93977 1.1545 2 1 2V-2C0.245505 -2 -0.538655 -1.73977 -1.13921 -1.13921C-1.73977 -0.538655 -2 0.245505 -2 1H2ZM2 15V1H-2V15H2ZM1 14C1.15449 14 1.43865 14.0602 1.68921 14.3108C1.93977 14.5613 2 14.8455 2 15H-2C-2 15.7545 -1.73977 16.5387 -1.13921 17.1392C-0.538655 17.7398 0.245505 18 1 18V14ZM10 14H1V18H10V14ZM12 16V14H8V16H12ZM2 16H10V12H2V16Z" fill="#8599AD" mask="url(#path-1-inside-1)"/>
<path d="M12 16H14V13H17V11H14V8H12V11H9V13H12V16Z" fill="#8599AD"/>
<rect x="3" y="3" width="8" height="2" fill="#8599AD"/>
<rect x="3" y="7" width="7" height="2" fill="#8599AD"/>
<rect x="3" y="11" width="4" height="2" fill="#8599AD"/>
</svg>
