<svg width="24" height="24" viewBox="0 0 24 24" fill="none" xmlns="http://www.w3.org/2000/svg">
<mask id="path-1-inside-1" fill="white">
<path fill-rule="evenodd" clip-rule="evenodd" d="M6 18V6H16V10H18V5C18 4.4 17.6 4 17 4H5C4.4 4 4 4.4 4 5V19C4 19.6 4.4 20 5 20H14V18H6Z"/>
</mask>
<path fill-rule="evenodd" clip-rule="evenodd" d="M6 18V6H16V10H18V5C18 4.4 17.6 4 17 4H5C4.4 4 4 4.4 4 5V19C4 19.6 4.4 20 5 20H14V18H6Z" fill="#8599AD"/>
<path d="M6 6V4H4V6H6ZM6 18H4V20H6V18ZM16 6H18V4H16V6ZM16 10H14V12H16V10ZM18 10V12H20V10H18ZM14 20V22H16V20H14ZM14 18H16V16H14V18ZM4 6V18H8V6H4ZM16 4H6V8H16V4ZM18 10V6H14V10H18ZM16 12H18V8H16V12ZM16 5V10H20V5H16ZM17 6C16.8455 6 16.5613 5.93977 16.3108 5.68921C16.0602 5.43865 16 5.15449 16 5H20C20 4.24551 19.7398 3.46135 19.1392 2.86079C18.5387 2.26023 17.7545 2 17 2V6ZM5 6H17V2H5V6ZM6 5C6 5.1545 5.93977 5.43866 5.68921 5.68921C5.43866 5.93977 5.1545 6 5 6V2C4.2455 2 3.46134 2.26023 2.86079 2.86079C2.26023 3.46134 2 4.2455 2 5H6ZM6 19V5H2V19H6ZM5 18C5.15449 18 5.43865 18.0602 5.68921 18.3108C5.93977 18.5613 6 18.8455 6 19H2C2 19.7545 2.26023 20.5387 2.86079 21.1392C3.46135 21.7398 4.24551 22 5 22V18ZM14 18H5V22H14V18ZM16 20V18H12V20H16ZM6 20H14V16H6V20Z" fill="#8599AD" mask="url(#path-1-inside-1)"/>
<path d="M16 20H18V17H21V15H18V12H16V15H13V17H16V20Z" fill="#8599AD"/>
<rect x="7" y="7" width="8" height="2" fill="#8599AD"/>
<rect x="7" y="11" width="7" height="2" fill="#8599AD"/>
<rect x="7" y="15" width="4" height="2" fill="#8599AD"/>
</svg>
