<?xml version="1.0" encoding="UTF-8"?>
<svg width="13px" height="16px" viewBox="0 0 13 16" version="1.1" xmlns="http://www.w3.org/2000/svg" xmlns:xlink="http://www.w3.org/1999/xlink">
    <!-- Generator: Sketch 44.1 (41455) - http://www.bohemiancoding.com/sketch -->
    <title>Group 13</title>
    <desc>Created with Sketch.</desc>
    <defs></defs>
    <g id="Symbols" stroke="none" stroke-width="1" fill="none" fill-rule="evenodd">
        <g id="icon/image-download/standard" transform="translate(-9.000000, -7.000000)" fill="#FFFFFF">
            <g id="icon-image-download">
                <g id="Group-13" transform="translate(9.000000, 7.000000)">
                    <path d="M7.1,11.7 L12.1,6.7 L12.1,6.7 C12.4865993,6.31340068 12.4865993,5.68659932 12.1,5.3 L12.1,5.3 L12.1,5.3 C11.7134007,4.91340068 11.0865993,4.91340068 10.7,5.3 L7.4,8.6 L7.4,1 L7.4,1 C7.4,0.44771525 6.95228475,-1.01453063e-16 6.4,0 L6.4,0 L6.4,0 C5.84771525,1.01453063e-16 5.4,0.44771525 5.4,1 L5.4,8.6 L2.1,5.3 L2.1,5.3 C1.71340068,4.91340068 1.08659932,4.91340068 0.7,5.3 L0.7,5.3 L0.7,5.3 C0.313400675,5.68659932 0.313400675,6.31340068 0.7,6.7 L5.7,11.7 C5.9,11.9 6.1,12 6.4,12 C6.7,12 6.9,11.9 7.1,11.7 Z" id="Fill-144"></path>
                    <path d="M1,14 L12,14 L12,14 C12.5522847,14 13,14.4477153 13,15 L13,15 L13,15 C13,15.5522847 12.5522847,16 12,16 L1,16 L1,16 C0.44771525,16 6.76353751e-17,15.5522847 0,15 L0,15 L0,15 C-6.76353751e-17,14.4477153 0.44771525,14 1,14 Z" id="Fill-145"></path>
                </g>
            </g>
        </g>
    </g>
</svg>