<?xml version="1.0" encoding="UTF-8"?>
<svg width="16px" height="16px" viewBox="0 0 16 16" version="1.1" xmlns="http://www.w3.org/2000/svg" xmlns:xlink="http://www.w3.org/1999/xlink">
    <!-- Generator: Sketch 44.1 (41455) - http://www.bohemiancoding.com/sketch -->
    <title>Fill 160</title>
    <desc>Created with Sketch.</desc>
    <defs></defs>
    <g id="Symbols" stroke="none" stroke-width="1" fill="none" fill-rule="evenodd">
        <g id="icon/image-comment/standard" transform="translate(-7.000000, -7.000000)" fill="#FFFFFF">
            <g id="icon-image-comment">
                <path d="M15,7 C10.6,7 7,10.1 7,14 C7,17.9 10.6,21 15,21 L15.6,21 L21,23 L21,18.6 C22.2,17.4 23,15.8 23,14 C23,10.1 19.4,7 15,7 L15,7 Z M19,17.8 L19,20.1 L15.9,19 L15,19 C11.7,19 9,16.8 9,14 C9,11.2 11.7,9 15,9 C18.3,9 21,11.2 21,14 C21,16.2 19,17.8 19,17.8 L19,17.8 Z" id="Fill-160"></path>
            </g>
        </g>
    </g>
</svg>