<svg xmlns="http://www.w3.org/2000/svg" width="18" height="18" viewBox="0 0 18 18">
  <path fill="#8492A6" fill-rule="evenodd" d="M8,6 C6.895431,6 6,6.89543 6,8 L6,22 C6,23.1046 6.89543,24 8,24 L22,24 C23.1046,24 24,23.1046 24,22 L24,8 C24,6.895431 23.1046,6 22,6 L8,6 Z M8.28033,19.7197 C7.80786,20.1921 8.14248,21 8.81066,21 L11.71991,21 L13.18934,21 L21.2801,21 C21.935,21 22.2753,20.2195 21.8297,19.7397 L17.0496,14.59187 C16.7529,14.27232 16.2471,14.27232 15.95041,14.59187 L12.40741,18.4074 L11.53033,17.5303 C11.23744,17.2374 10.76256,17.2374 10.46967,17.5303 L8.28033,19.7197 Z M13,14 C14.10457,14 15,13.10457 15,12 C15,10.89543 14.10457,10 13,10 C11.89543,10 11,10.89543 11,12 C11,13.10457 11.89543,14 13,14 Z" transform="translate(-6 -6)"/>
</svg>
