<svg xmlns="http://www.w3.org/2000/svg" width="16" height="16" viewBox="0 0 16 16">
  <path fill="#E6EAED" fill-rule="evenodd" d="M181,1 C176.6,1 173,4.6 173,9 C173,13.4 176.6,17 181,17 C185.4,17 189,13.4 189,9 C189,4.6 185.4,1 181,1 L181,1 Z M181,14 C180.4,14 180,13.6 180,13 C180,12.4 180.4,12 181,12 C181.6,12 182,12.4 182,13 C182,13.6 181.6,14 181,14 L181,14 Z M182.5,9.4 C182,9.7 182,9.8 182,10 L182,11 L180,11 L180,10 C180,8.7 180.8,8.1 181.4,7.7 C181.9,7.4 182,7.3 182,7 C182,6.4 181.6,6 181,6 C180.6,6 180.3,6.2 180.1,6.5 L179.6,7.4 L177.9,6.4 L178.4,5.5 C178.9,4.6 179.9,4 181,4 C182.7,4 184,5.3 184,7 C184,8.4 183.1,9 182.5,9.4 L182.5,9.4 Z" transform="translate(-173 -1)"/>
</svg>
