<svg xmlns="http://www.w3.org/2000/svg" width="16" height="16" viewBox="0 0 16 16">
  <g fill="#8492A6" fill-rule="evenodd">
    <path d="M9.12290909,14.1397012 C8.78545455,14.353467 8.39636364,14.4676287 8,14.4676287 C7.60363636,14.4676287 7.21454545,14.353467 6.87563636,14.138935 L0.328727273,10 C0.125818182,10.1417443 0,10.3784957 0,10.6367003 C0,10.9056315 0.134545455,11.1546418 0.352727273,11.2933214 L7.62545455,15.8904354 C7.74109091,15.9632231 7.87054545,16 8,16 C8.12945455,16 8.25963636,15.9632231 8.37454545,15.8904354 L15.6472727,11.2933214 C15.8654545,11.1546418 16,10.9056315 16,10.6367003 C16,10.3784957 15.8741818,10.1417443 15.672,10 L9.12290909,14.1397012 Z"/>
    <path d="M15.672,7 L9.12290909,11.1402299 C8.78545455,11.354023 8.39636364,11.467433 8,11.467433 C7.60363636,11.467433 7.21454545,11.354023 6.87563636,11.1386973 L0.328727273,7 C0.125818182,7.14099617 0,7.37854406 0,7.63601533 C0,7.90574713 0.134545455,8.15478927 0.353454545,8.29348659 L7.62618182,12.8911877 C7.74109091,12.9639847 7.87127273,13 8,13 C8.12945455,13 8.25963636,12.9639847 8.37454545,12.8911877 L15.6472727,8.29348659 C15.8661818,8.15478927 16,7.90574713 16,7.63601533 C16,7.37854406 15.8749091,7.14176245 15.672,7"/>
    <path d="M15.6472727,4.3876567 L8.37454545,0.10178935 C8.14472727,-0.0339297832 7.856,-0.0339297832 7.62618182,0.10178935 L0.353454545,4.3876567 C0.134545455,4.51694703 0,4.74909818 0,4.99982142 C0,5.25054466 0.134545455,5.48341012 0.353454545,5.61270045 L7.62618182,9.89856781 C7.74109091,9.96642737 7.87127273,10 8,10 C8.12945455,10 8.25963636,9.96642737 8.37454545,9.89856781 L15.6472727,5.61270045 C15.8661818,5.48341012 16,5.25054466 16,4.99982142 C16,4.74909818 15.8661818,4.51694703 15.6472727,4.3876567"/>
  </g>
</svg>
