<svg xmlns="http://www.w3.org/2000/svg" width="16" height="16" viewBox="0 0 16 16">
  <g fill-rule="evenodd">
    <path d="M4.28235294,15.0588235 C3.15294118,15.0588235 2.11764706,14.5882353 1.27058824,13.8352941 C-0.423529412,12.1411765 -0.423529412,9.50588235 1.27058824,7.81176471 L1.92941176,7.15294118 L3.24705882,8.47058824 L2.58823529,9.12941176 C1.64705882,10.0705882 1.64705882,11.5764706 2.58823529,12.5176471 C3.52941176,13.4588235 5.03529412,13.4588235 5.97647059,12.5176471 L8.8,9.69411765 C9.74117647,8.75294118 9.74117647,7.24705882 8.8,6.30588235 L8.14117647,5.64705882 L9.45882353,4.32941176 L10.1176471,4.98823529 C11.8117647,6.68235294 11.8117647,9.31764706 10.1176471,11.0117647 L7.29411765,13.8352941 C6.54117647,14.5882353 5.41176471,15.0588235 4.28235294,15.0588235"/>
    <path d="M5.69411765,10.7294118 L5.03529412,10.0705882 C3.34117647,8.37647059 3.34117647,5.74117647 5.03529412,4.04705882 L7.85882353,1.22352941 C8.70588235,0.376470588 9.74117647,0 10.8705882,0 C12,0 13.0352941,0.470588235 13.8823529,1.22352941 C15.5764706,2.91764706 15.5764706,5.55294118 13.8823529,7.24705882 L13.2235294,7.90588235 L11.9058824,6.58823529 L12.5647059,5.92941176 C13.5058824,4.98823529 13.5058824,3.48235294 12.5647059,2.54117647 C11.6235294,1.6 10.1176471,1.6 9.17647059,2.54117647 L6.35294118,5.36470588 C5.41176471,6.30588235 5.41176471,7.81176471 6.35294118,8.75294118 L7.01176471,9.41176471 L5.69411765,10.7294118"/>
  </g>
</svg>