<svg width="12" height="12" viewBox="0 0 12 12" fill="none" xmlns="http://www.w3.org/2000/svg">
  <title>Link Icon</title>
  <path d="M6.24509 0.964988L4.72709 2.44599C4.58702 2.58524 4.50753 2.77413 4.50589 2.97165C4.50424 3.16916 4.58058 3.35934 4.71833 3.50091C4.85607 3.64247 5.0441 3.72398 5.24158 3.72774C5.43907 3.7315 5.63006 3.65721 5.77309 3.52099L7.30009 2.03299C7.47321 1.85304 7.68052 1.70948 7.90986 1.61074C8.13921 1.512 8.38597 1.46006 8.63566 1.45798C8.88535 1.45589 9.13294 1.5037 9.3639 1.59859C9.59487 1.69349 9.80455 1.83356 9.98064 2.01059C10.1567 2.18762 10.2957 2.39804 10.3894 2.6295C10.4831 2.86096 10.5296 3.1088 10.5261 3.35848C10.5227 3.60815 10.4695 3.85463 10.3696 4.08345C10.2696 4.31228 10.125 4.51883 9.94409 4.69099L8.46309 6.20999C8.39298 6.28022 8.33751 6.36367 8.29989 6.4555C8.26226 6.54733 8.24324 6.64572 8.24392 6.74495C8.24459 6.84419 8.26495 6.9423 8.30383 7.03361C8.3427 7.12492 8.3993 7.20761 8.47036 7.27688C8.54142 7.34615 8.62552 7.40064 8.71779 7.43717C8.81006 7.4737 8.90866 7.49156 9.00788 7.48971C9.1071 7.48786 9.20497 7.46634 9.29581 7.42639C9.38665 7.38644 9.46866 7.32886 9.53709 7.25699L11.0121 5.74499C11.6436 5.11127 11.9981 4.25312 11.9981 3.35849C11.9981 2.46386 11.6436 1.6057 11.0121 0.971988C10.3697 0.360358 9.517 0.0186402 8.62999 0.0173377C7.74298 0.0160352 6.8893 0.355247 6.24509 0.964988Z" fill="white"/>
  <path d="M6.22733 8.44598L4.70033 9.93498C4.52638 10.1115 4.31916 10.2519 4.09064 10.3478C3.86212 10.4438 3.61685 10.4935 3.369 10.4941C3.12115 10.4946 2.87565 10.4461 2.64669 10.3511C2.41773 10.2562 2.20987 10.1169 2.03511 9.94113C1.86035 9.76538 1.72217 9.55673 1.62856 9.32723C1.53495 9.09774 1.48776 8.85197 1.48974 8.60413C1.49171 8.35629 1.5428 8.1113 1.64005 7.88333C1.73731 7.65536 1.87879 7.44893 2.05633 7.27598L3.53733 5.75698C3.67343 5.61403 3.74769 5.4232 3.74401 5.22585C3.74033 5.02851 3.659 4.84058 3.51767 4.7028C3.37634 4.56502 3.1864 4.48851 2.98903 4.48986C2.79166 4.4912 2.60277 4.57029 2.46333 4.70998L0.98833 6.22198C0.369289 6.85714 0.0251458 7.71044 0.0303312 8.59735C0.0355166 9.48426 0.389613 10.3335 1.01604 10.9614C1.64247 11.5892 2.49087 11.9453 3.37776 11.9525C4.26466 11.9597 5.11875 11.6176 5.75533 11L7.27333 9.52098C7.41341 9.38173 7.4929 9.19284 7.49454 8.99533C7.49618 8.79781 7.41984 8.60763 7.28209 8.46607C7.14435 8.3245 6.95632 8.24299 6.75884 8.23923C6.56136 8.23547 6.37036 8.30977 6.22733 8.44598Z" fill="white"/>
  <path d="M3.47082 8.51398C3.54031 8.58377 3.62291 8.63914 3.71386 8.67692C3.80481 8.7147 3.90233 8.73415 4.00082 8.73415C4.0993 8.73415 4.19682 8.7147 4.28777 8.67692C4.37872 8.63914 4.46132 8.58377 4.53082 8.51398L8.53082 4.51398C8.60248 4.44483 8.65966 4.3621 8.69901 4.27061C8.73835 4.17913 8.75909 4.08073 8.76 3.98114C8.76091 3.88156 8.74198 3.78279 8.70432 3.6906C8.66665 3.59841 8.611 3.51465 8.54061 3.44419C8.47023 3.37374 8.38652 3.31801 8.29436 3.28026C8.20221 3.2425 8.10346 3.22348 8.00387 3.2243C7.90429 3.22512 7.80586 3.24576 7.71434 3.28502C7.62282 3.32429 7.54004 3.38138 7.47082 3.45298L3.47082 7.45298C3.40112 7.52263 3.34583 7.60533 3.30811 7.69636C3.27039 7.78738 3.25098 7.88495 3.25098 7.98348C3.25098 8.08201 3.27039 8.17958 3.30811 8.27061C3.34583 8.36163 3.40112 8.44433 3.47082 8.51398Z" fill="white"/>
</svg>
