<svg xmlns="http://www.w3.org/2000/svg" width="16" height="16" viewBox="0 0 16 16">
  <g fill-rule="evenodd" transform="translate(2 2)">
    <path d="M8.5 0C7.59 0 6.68.35 6.05 1.05L5.21 1.82C4.93 2.1 4.93 2.52 5.21 2.8 5.49 3.08 5.91 3.08 6.19 2.8L7.03 1.96C7.8 1.19 9.2 1.19 9.97 1.96 10.39 2.38 10.6 2.94 10.6 3.5 10.6 4.06 10.39 4.62 9.97 4.97L9.2 5.81C8.92 6.09 8.92 6.51 9.2 6.79 9.34 6.93 9.55 7 9.69 7 9.83 7 10.04 6.93 10.18 6.79L11.02 5.95C11.65 5.32 12 4.41 12 3.5 12 2.59 11.65 1.68 10.95 1.05 10.32.35 9.41 0 8.5 0M5.81 9.2L4.97 10.04C4.2 10.81 2.8 10.81 2.03 10.04 1.61 9.62 1.4 9.06 1.4 8.5 1.4 7.94 1.61 7.38 2.03 7.03L2.8 6.19C3.08 5.91 3.08 5.49 2.8 5.21 2.52 4.93 2.1 4.93 1.82 5.21L1.05 6.05C.35 6.68 0 7.59 0 8.5 0 9.41.35 10.32 1.05 10.95 1.68 11.65 2.59 12 3.5 12 4.41 12 5.32 11.65 5.95 10.95L6.79 10.11C7.07 9.83 7.07 9.41 6.79 9.13 6.51 8.85 6.09 8.92 5.81 9.2"/>
    <path d="M3.27038574,7.57909762 C2.9478051,7.90167827 2.9478051,8.38554924 3.27038574,8.70812988 C3.43167606,8.86942021 3.67361155,8.95006537 3.83490187,8.95006537 C3.99619219,8.95006537 4.23812768,8.86942021 4.399418,8.70812988 L8.75806452,4.37096774 C9.08064516,4.0483871 9.08064516,3.56451613 8.75806452,3.24193548 C8.43548387,2.91935484 7.9516129,2.91935484 7.62903226,3.24193548 L3.27038574,7.57909762 Z"/>
  </g>
</svg>
