<svg xmlns="http://www.w3.org/2000/svg" width="12" height="16" viewBox="0 0 12 16">
  <path fill="#4B5761" fill-rule="evenodd" d="M6,0 C3.8,0 2,1.8 2,4 L2,5.5 C0.8,6.6 0,8.2 0,10 C0,13.3 2.7,16 6,16 C9.3,16 12,13.3 12,10 C12,8.2 11.2,6.6 10,5.5 L10,4 C10,1.8 8.2,0 6,0 L6,0 Z M7,10.7 L7,13 L5,13 L5,10.7 C4.4,10.4 4,9.7 4,9 C4,7.9 4.9,7 6,7 C7.1,7 8,7.9 8,9 C8,9.7 7.6,10.4 7,10.7 L7,10.7 Z M8,4.4 C7.4,4.1 6.7,4 6,4 C5.3,4 4.6,4.1 4,4.4 L4,4 C4,2.9 4.9,2 6,2 C7.1,2 8,2.9 8,4 L8,4.4 L8,4.4 Z"/>
</svg>
