<?xml version="1.0" encoding="UTF-8"?>
<svg width="16px" height="16px" viewBox="0 0 16 16" version="1.1" xmlns="http://www.w3.org/2000/svg" xmlns:xlink="http://www.w3.org/1999/xlink">
    <defs></defs>
    <g id="Symbols" stroke="none" stroke-width="1" fill="none" fill-rule="evenodd">
        <g id="comment/reply" transform="translate(-92.000000, -50.000000)" fill-rule="nonzero" fill="#5D6871">
            <g id="icon/icon-tag" transform="translate(92.000000, 50.000000)">
                <path d="M15.9687043,7.16371228 C15.5072625,2.77713498 11.5613269,-0.417117622 7.16994958,0.0443241975 C5.04322119,0.267685078 3.13089365,1.30512917 1.78512834,2.96577572 C0.439203033,4.62642227 -0.178719404,6.71107049 0.0448014776,8.83619887 C0.47648318,12.9400551 3.95889691,16.0000671 8.00115286,16.0000671 C8.27939395,16.0000671 8.56067506,15.9855071 8.84371618,15.955907 C9.93668049,15.8408665 10.9731646,15.5122252 11.9237283,14.9787831 C12.4635705,14.6759019 12.6554112,13.9934992 12.35237,13.4541371 C12.0494888,12.914935 11.3659661,12.7232542 10.826444,13.0258154 C10.1430813,13.4091769 9.39715836,13.6454978 8.60947526,13.7283782 C5.44946279,14.0613395 2.60673158,11.7606904 2.27441027,8.60227795 C2.11344964,7.07235192 2.55841139,5.571226 3.52737521,4.37554128 C4.49633903,3.17985656 5.87330446,2.43281362 7.4043505,2.27217298 C10.566923,1.93953167 13.4072542,4.23986074 13.7394155,7.3982732 C13.8222958,8.1853163 13.6360551,8.80659876 13.2285335,9.10243992 C12.9744525,9.28676065 12.6514112,9.32068078 12.3643701,9.19316028 C11.9043683,8.98851947 11.593007,8.41955723 11.5101267,7.63235412 C11.5099667,7.63139412 11.5098067,7.63027412 11.5096467,7.62931411 C11.323246,5.86194714 9.82356004,4.48018169 8.00675288,4.48018169 C6.06434522,4.48018169 4.48417899,6.05922792 4.48417899,8.00003557 C4.48417899,9.94084323 6.06434522,11.5198895 8.00675288,11.5198895 C8.95155661,11.5198895 9.80995999,11.145488 10.4432425,10.5382856 C10.7342836,10.8331667 11.072685,11.0701277 11.4525265,11.2390883 C12.4802105,11.6957301 13.6363751,11.5746097 14.5462987,10.9141271 C15.6189429,10.135244 16.1373449,8.7683586 15.9687043,7.16371228 Z M8.00675288,9.28004062 C7.30035009,9.28004062 6.72578783,8.70579836 6.72578783,8.00003557 C6.72578783,7.29427279 7.30035009,6.72003053 8.00675288,6.72003053 C8.71299566,6.72003053 9.28755793,7.29427279 9.28755793,8.00003557 C9.28755793,8.70579836 8.71283566,9.28004062 8.00675288,9.28004062 Z" id="Shape"></path>
            </g>
        </g>
    </g>
</svg>