<svg xmlns="http://www.w3.org/2000/svg" width="24" height="20" viewBox="0 0 24 20">
  <g fill="#5D6871">
    <path d="M1 2L23 2C23.5522847 2 24 1.55228475 24 1 24 .44771525 23.5522847 0 23 0L1 0C.44771525 0 0 .44771525 0 1 0 1.55228475.44771525 2 1 2zM1 8L13 8C13.5522847 8 14 7.55228475 14 7 14 6.44771525 13.5522847 6 13 6L1 6C.44771525 6 0 6.44771525 0 7 0 7.55228475.44771525 8 1 8zM1 14L23 14C23.5522847 14 24 13.5522847 24 13 24 12.4477153 23.5522847 12 23 12L1 12C.44771525 12 0 12.4477153 0 13 0 13.5522847.44771525 14 1 14zM1 20L13 20C13.5522847 20 14 19.5522847 14 19 14 18.4477153 13.5522847 18 13 18L1 18C.44771525 18 0 18.4477153 0 19 0 19.5522847.44771525 20 1 20z"/>
  </g>
</svg>
