<svg xmlns="http://www.w3.org/2000/svg" width="16" height="16" viewBox="0 0 16 16">
  <g fill="#8492A6" fill-rule="evenodd">
    <path d="M12.7,0.3 C12.3,-0.1 11.7,-0.1 11.3,0.3 L4.3,7.3 C4.1,7.5 4,7.7 4,8 L4,11 C4,11.6 4.4,12 5,12 L8,12 C8.3,12 8.5,11.9 8.7,11.7 L15.7,4.7 C16.1,4.3 16.1,3.7 15.7,3.3 L12.7,0.3 L12.7,0.3 Z M7.6,10 L6,10 L6,8.4 L12,2.4 L13.6,4 L7.6,10 L7.6,10 Z"/>
    <path d="M15,10 C14.4,10 14,10.4 14,11 L14,14 L2,14 L2,2 L5,2 C5.6,2 6,1.6 6,1 C6,0.4 5.6,0 5,0 L1,0 C0.4,0 0,0.4 0,1 L0,15 C0,15.6 0.4,16 1,16 L15,16 C15.6,16 16,15.6 16,15 L16,11 C16,10.4 15.6,10 15,10"/>
  </g>
</svg>
