<svg xmlns="http://www.w3.org/2000/svg" width="15" height="15" viewBox="0 0 15 15">
  <g fill="#8492A6" fill-rule="evenodd">
    <path d="M.3678 4L.3678 3.451.9648 3.403C1.0618 3.396 1.0758 3.368 1.0758 3.264L1.0758.84C1.0758.757 1.0558.715.9858.695L.3818.57.4578 0 2.1248 0 2.1248 3.264C2.1248 3.375 2.1318 3.396 2.2358 3.403L2.8058 3.451 2.8058 4 .3678 4zM.0444234405 8.78071834L.0444234405 8.1852552.901701323 7.34782609C1.54725898 6.72117202 1.82325142 6.46502836 1.82325142 6.10018904 1.82325142 5.86389414 1.70793951 5.69092628 1.36862004 5.69092628 1.01701323 5.69092628.869565217 5.80623819.869565217 6.26086957L0 6.18336484C.0056710775 5.16635161.779773157 5 1.45179584 5 2.44328922 5 2.79489603 5.42249527 2.79489603 6.02362949 2.79489603 6.62476371 2.37901701 7.02173913 1.9120983 7.46975425L1.18903592 8.16068053 2.1294896 8.16068053C2.19376181 8.16068053 2.21928166 8.14744802 2.23251418 8.0831758L2.32136106 7.57844991 3 7.57844991 3 8.78071834.0444234405 8.78071834zM2.18174545 12.0207207C2.70856624 12.1016985 2.9999 12.4172325 2.9999 12.974769 2.9999 13.7938543 2.38651679 14.1782659 1.49948461 14.1782659.874001272 14.1782659.315534006 13.954879 0 13.6076985L.49517431 13.0622622C.731592119 13.2921645.991279398 13.4708741 1.42595309 13.4708741 1.77313357 13.4708741 2.070052 13.3470805 2.070052 12.9133376 2.070052 12.5354414 1.83456497 12.3800013 1.45015334 12.3800013 1.29564406 12.3800013 1.17743515 12.3930322.991279398 12.4237479L.991279398 11.8038493 1.29564406 11.7666181C1.74148709 11.7107714 1.98348957 11.4938999 1.98348957 11.0973882 1.98348957 10.8609704 1.87831157 10.6692299 1.53113109 10.6692299 1.19605073 10.6692299 1.035026 10.7809234 1.035026 11.2211818L.186155756 11.1467195C.186155756 10.1666094.923332547 10 1.57487769 10 2.52892594 10 2.894722 10.3648653 2.894722 11.0285105 2.894722 11.5497467 2.57267254 11.8783116 2.18174545 11.9955897L2.18174545 12.0207207 2.18174545 12.0207207z"/>
    <polygon points="5 6 15 6 15 8 5 8"/>
    <polygon points="5 11 15 11 15 13 5 13"/>
    <polygon points="5 1 15 1 15 3 5 3"/>
  </g>
</svg>
