<svg xmlns="http://www.w3.org/2000/svg" width="22" height="20" viewBox="0 0 22 20">
  <g fill="#8492A6" fill-rule="evenodd">
    <polygon fill-rule="nonzero" points="8 4 8 2 22 2 22 4"/>
    <polygon fill-rule="nonzero" points="8 11 8 9 22 9 22 11"/>
    <polygon fill-rule="nonzero" points="8 18 8 16 22 16 22 18"/>
    <path d="M.5987 5.186L.5987 4.475 1.3727 4.412C1.4987 4.403 1.5167 4.367 1.5167 4.232L1.5167 1.09C1.5167.982 1.4907.928 1.3997.901L.6167.739.7157 0 2.8767 0 2.8767 4.232C2.8767 4.376 2.8857 4.403 3.0207 4.412L3.7587 4.475 3.7587 5.186.5987 5.186.5987 5.186zM.1307 12.2536L.1307 11.4166 1.3377 10.2366C2.2467 9.3546 2.6337 8.9946 2.6337 8.4816 2.6337 8.1486 2.4717 7.9056 1.9947 7.9056 1.4987 7.9056 1.2917 8.0676 1.2917 8.7066L.0677 8.5986C.0767 7.1676 1.1657 6.9326 2.1107 6.9326 3.5067 6.9326 4.0017 7.5266 4.0017 8.3736 4.0017 9.2196 3.4167 9.7776 2.7597 10.4076L1.7417 11.3806 3.0657 11.3806C3.1557 11.3806 3.1917 11.3626 3.2097 11.2726L3.3357 10.5616 4.2897 10.5616 4.2897 12.2536.1307 12.2536.1307 12.2536zM3.169 16.4943C3.935 16.6113 4.357 17.0703 4.357 17.8803 4.357 19.0693 3.466 19.6273 2.179 19.6273 1.27 19.6273.46 19.3033 0 18.7993L.72 18.0073C1.063 18.3403 1.44 18.6003 2.071 18.6003 2.575 18.6003 3.007 18.4213 3.007 17.7903 3.007 17.2413 2.665 17.0163 2.107 17.0163 1.882 17.0163 1.711 17.0343 1.44 17.0793L1.44 16.1793 1.882 16.1253C2.53 16.0443 2.881 15.7293 2.881 15.1533 2.881 14.8103 2.728 14.5323 2.224 14.5323 1.738 14.5323 1.504 14.6943 1.504 15.3333L.271 15.2243C.271 13.8023 1.342 13.5593 2.287 13.5593 3.673 13.5593 4.205 14.0903 4.205 15.0543 4.205 15.8103 3.736 16.2873 3.169 16.4583L3.169 16.4943z"/>
  </g>
</svg>
