<svg xmlns="http://www.w3.org/2000/svg" width="16" height="16" viewBox="0 0 16 16">
  <g fill-rule="evenodd">
    <path stroke="#FFF" stroke-width=".1" d="M1.3678 4.0024611L1.3678 3.59037332 1.81591732 3.55434378C1.888727 3.54908948 1.89923562 3.52807225 1.89923562 3.45000826L1.89923562 1.63051683C1.89923562 1.56821576 1.88422331 1.53668992 1.83168024 1.52167762L1.37830861 1.42785071 1.43535537 1 2.68663104 1 2.68663104 3.45000826C2.68663104 3.53332656 2.69188535 3.54908948 2.76994934 3.55434378L3.19780004 3.59037332 3.19780004 4.0024611 1.3678 4.0024611zM1.0352426 8.99937002L1.0352426 8.52696925 1.71534975 7.86260879C2.22749218 7.3654632 2.44644619 7.16225588 2.44644619 6.87281668 2.44644619 6.68535605 2.35496541 6.54813487 2.08577195 6.54813487 1.80683054 6.54813487 1.68985511 6.63961566 1.68985511 7.0002899L1 6.93880282C1.00449906 6.13197228 1.61862007 6 2.15175809 6 2.93834288 6 3.21728429 6.3351796 3.21728429 6.81207943 3.21728429 7.28897927 2.88735359 7.60391312 2.51693139 7.95933847L1.94330187 8.50747334 2.68939517 8.50747334C2.74038446 8.50747334 2.7606302 8.49697555 2.771128 8.44598625L2.8416132 8.04557036 3.38000011 8.04557036 3.38000011 8.99937002 1.0352426 8.99937002zM2.75282734 13.1346665C3.17605416 13.1997208 3.41010009 13.4532082 3.41010009 13.9011108 3.41010009 14.5591313 2.91733246 14.8679523 2.20472617 14.8679523 1.70223778 14.8679523 1.25358744 14.6884922 1.0001 14.4095812L1.3979033 13.9713994C1.58783195 14.1560938 1.79645436 14.2996619 2.14565387 14.2996619 2.42456484 14.2996619 2.66309727 14.200211 2.66309727 13.8517593 2.66309727 13.5481726 2.47391637 13.4232982 2.16509539 13.4232982 2.04096879 13.4232982 1.94600447 13.4337667 1.79645436 13.4584425L1.79645436 12.9604406 2.04096879 12.9305306C2.39914132 12.8856655 2.59355646 12.7114397 2.59355646 12.3928979 2.59355646 12.2029693 2.50906065 12.0489327 2.23014969 12.0489327 1.96095948 12.0489327 1.83159863 12.1386627 1.83159863 12.4923487L1.14965011 12.4325287C1.14965011 11.6451474 1.74186857 11.5113 2.26529396 11.5113 3.0317383 11.5113 3.32560427 11.8044182 3.32560427 12.3375644 3.32560427 12.7563047 3.06688257 13.0202606 2.75282734 13.1144772L2.75282734 13.1346665 2.75282734 13.1346665z"/>
    <polygon points="6 7 15.5 7 15.5 9 6 9"/>
    <polygon points="6 12 15.5 12 15.5 14 6 14"/>
    <polygon points="6 2 15.5 2 15.5 4 6 4"/>
  </g>
</svg>