<svg xmlns="http://www.w3.org/2000/svg" width="16" height="16" viewBox="0 0 16 16">
  <g fill-rule="evenodd" transform="translate(1 1)">
    <rect width="11" height="2" x="3" y="1" fill-rule="nonzero" rx=".5"/>
    <rect width="11" height="2" x="3" y="6" fill-rule="nonzero" rx=".5"/>
    <rect width="11" height="2" x="3" y="11" fill-rule="nonzero" rx=".5"/>
    <polygon points=".776 3 .776 .676 .736 .688 .7 .704 .66 .716 .624 .732 .584 .744 .548 .76 .508 .772 .472 .784 .432 .8 .392 .812 .356 .828 .316 .84 .28 .856 .24 .868 .204 .884 .164 .896 .16 .856 .152 .812 .148 .772 .14 .728 .132 .648 .124 .604 .12 .564 .112 .52 .108 .48 .216 .432 .256 .416 .436 .336 .476 .316 .692 .22 .732 .204 .84 .156 1.308 .156 1.308 3"/>
    <polygon points=".204 8 .204 7.612 .26 7.556 .292 7.528 .376 7.444 .408 7.416 .464 7.36 .492 7.328 .52 7.3 .552 7.272 .664 7.16 .696 7.132 .78 7.048 .812 7.02 .924 6.908 .956 6.88 .984 6.852 1.012 6.82 1.068 6.764 1.1 6.736 1.184 6.652 1.216 6.624 1.372 6.468 1.456 6.372 1.476 6.344 1.5 6.316 1.54 6.26 1.56 6.228 1.592 6.156 1.604 6.12 1.62 6.048 1.624 6.008 1.624 5.92 1.616 5.876 1.608 5.836 1.592 5.796 1.576 5.76 1.556 5.728 1.5 5.672 1.472 5.652 1.44 5.632 1.404 5.616 1.332 5.592 1.244 5.576 1.196 5.572 1.108 5.572 1.028 5.58 .992 5.584 .952 5.588 .912 5.596 .876 5.608 .84 5.616 .8 5.628 .764 5.644 .728 5.656 .692 5.676 .62 5.708 .584 5.728 .552 5.748 .48 5.788 .416 5.836 .38 5.86 .348 5.884 .344 5.844 .336 5.804 .332 5.764 .324 5.728 .32 5.688 .312 5.648 .308 5.608 .3 5.568 .296 5.528 .288 5.492 .284 5.452 .276 5.412 .308 5.392 .336 5.372 .4 5.332 .436 5.312 .468 5.296 .504 5.276 .536 5.26 .608 5.228 .648 5.212 .684 5.196 .756 5.172 .792 5.164 .832 5.152 .868 5.144 .908 5.136 .948 5.132 .988 5.124 1.032 5.12 1.072 5.116 1.116 5.116 1.16 5.112 1.248 5.112 1.292 5.116 1.332 5.116 1.412 5.124 1.492 5.14 1.564 5.156 1.6 5.168 1.64 5.18 1.712 5.212 1.744 5.228 1.78 5.244 1.812 5.264 1.84 5.284 1.872 5.304 1.9 5.328 1.956 5.384 1.98 5.412 2.008 5.444 2.048 5.508 2.088 5.58 2.124 5.688 2.14 5.76 2.152 5.88 2.152 5.964 2.144 6.052 2.136 6.092 2.128 6.136 2.12 6.172 2.096 6.252 2.08 6.288 2.064 6.328 2.024 6.4 2.004 6.432 1.98 6.464 1.96 6.496 1.936 6.528 1.908 6.56 1.884 6.592 1.828 6.656 1.772 6.712 1.744 6.744 1.712 6.772 1.588 6.896 1.556 6.924 1.528 6.952 1.496 6.98 1.468 7.008 1.436 7.036 1.408 7.06 1.376 7.088 1.32 7.144 1.288 7.172 1.26 7.2 1.228 7.228 1.2 7.256 1.168 7.284 1.112 7.34 1.08 7.368 1.052 7.392 1.02 7.42 .992 7.448 .96 7.476 .932 7.504 .9 7.532 .872 7.56 2.136 7.56 2.144 7.6 2.148 7.64 2.156 7.68 2.16 7.72 2.168 7.76 2.172 7.8 2.18 7.84 2.184 7.88 2.192 7.92 2.196 7.96 2.204 8"/>
    <polygon points="2.148 12.168 2.148 12.26 2.144 12.3 2.14 12.344 2.132 12.384 2.124 12.42 2.112 12.46 2.088 12.532 2.072 12.568 2.052 12.604 2.012 12.668 1.988 12.696 1.964 12.728 1.936 12.756 1.908 12.78 1.88 12.808 1.848 12.832 1.82 12.852 1.724 12.912 1.692 12.928 1.62 12.96 1.58 12.972 1.544 12.984 1.504 12.996 1.468 13.008 1.428 13.016 1.392 13.024 1.312 13.04 1.192 13.052 1.148 13.056 .98 13.056 .936 13.052 .856 13.044 .812 13.04 .772 13.036 .732 13.028 .692 13.024 .652 13.016 .612 13.004 .576 12.996 .532 12.984 .412 12.948 .372 12.932 .192 12.852 .16 12.832 .168 12.792 .176 12.748 .18 12.708 .196 12.628 .204 12.584 .22 12.504 .224 12.464 .232 12.42 .24 12.38 .276 12.4 .308 12.42 .344 12.436 .376 12.456 .448 12.488 .484 12.5 .516 12.516 .66 12.564 .732 12.58 .772 12.588 .808 12.596 .968 12.612 1.096 12.612 1.184 12.604 1.224 12.6 1.264 12.592 1.304 12.58 1.34 12.568 1.404 12.544 1.436 12.528 1.464 12.508 1.496 12.484 1.524 12.456 1.548 12.428 1.568 12.396 1.6 12.324 1.616 12.244 1.616 12.156 1.6 12.076 1.576 12.004 1.536 11.94 1.508 11.912 1.48 11.888 1.452 11.86 1.424 11.844 1.368 11.816 1.304 11.792 1.268 11.784 1.232 11.772 1.192 11.764 1.148 11.76 1.104 11.752 1.056 11.748 1.008 11.748 .956 11.744 .716 11.744 .708 11.704 .704 11.668 .696 11.628 .692 11.588 .684 11.548 .68 11.512 .672 11.472 .668 11.432 .66 11.392 .656 11.356 .648 11.316 .96 11.316 1.008 11.312 1.056 11.312 1.1 11.304 1.144 11.3 1.184 11.292 1.256 11.276 1.292 11.264 1.324 11.252 1.352 11.24 1.38 11.224 1.404 11.208 1.436 11.184 1.492 11.128 1.512 11.096 1.528 11.064 1.544 11.028 1.56 10.948 1.56 10.868 1.544 10.796 1.528 10.76 1.512 10.728 1.464 10.672 1.436 10.644 1.38 10.612 1.348 10.596 1.276 10.572 1.196 10.556 1.152 10.552 1.104 10.548 1.016 10.548 .976 10.552 .936 10.552 .9 10.556 .86 10.564 .824 10.568 .788 10.576 .748 10.584 .712 10.596 .676 10.604 .644 10.616 .564 10.648 .492 10.68 .312 10.78 .28 10.804 .272 10.764 .268 10.724 .252 10.644 .248 10.604 .24 10.568 .236 10.528 .22 10.448 .216 10.408 .208 10.368 .272 10.328 .344 10.288 .376 10.272 .412 10.256 .452 10.24 .488 10.224 .568 10.192 .608 10.18 .64 10.168 .784 10.136 .824 10.128 .984 10.112 1.028 10.108 1.2 10.108 1.244 10.112 1.364 10.124 1.4 10.132 1.44 10.14 1.512 10.156 1.544 10.164 1.584 10.18 1.624 10.192 1.66 10.208 1.696 10.228 1.728 10.244 1.824 10.304 1.852 10.324 1.908 10.38 1.98 10.464 2 10.496 2.032 10.56 2.048 10.6 2.072 10.68 2.08 10.724 2.088 10.764 2.092 10.808 2.092 10.896 2.088 10.94 2.084 10.98 2.076 11.02 2.064 11.06 2.056 11.096 2.04 11.132 2.008 11.196 1.988 11.228 1.964 11.256 1.944 11.28 1.916 11.312 1.884 11.336 1.852 11.364 1.82 11.388 1.788 11.408 1.68 11.468 1.6 11.5 1.556 11.516 1.6 11.528 1.64 11.544 1.68 11.556 1.716 11.572 1.752 11.592 1.788 11.608 1.884 11.668 1.912 11.688 1.968 11.736 1.992 11.76 2.016 11.792 2.04 11.82 2.06 11.852 2.08 11.888 2.096 11.92 2.108 11.96 2.12 11.996 2.132 12.036 2.14 12.08"/>
  </g>
</svg>
