<svg width="16" height="16" viewBox="0 -1 16 16" fill="none" xmlns="http://www.w3.org/2000/svg">
<path fill-rule="evenodd" clip-rule="evenodd" d="M0 2C0 3.10457 0.89543 4 2 4C3.10457 4 4 3.10457 4 2C4 0.89543 3.10457 0 2 0C0.89543 0 0 0.89543 0 2ZM16 1H6V3H16V1ZM6 6H16V8H6V6ZM0 7C0 8.10457 0.89543 9 2 9C3.10457 9 4 8.10457 4 7C4 5.89543 3.10457 5 2 5C0.89543 5 0 5.89543 0 7ZM2 14C0.89543 14 0 13.1046 0 12C0 10.8954 0.89543 10 2 10C3.10457 10 4 10.8954 4 12C4 13.1046 3.10457 14 2 14ZM8 11H6V13H8V11ZM10 11H12V13H10V11ZM16 11H14V13H16V11Z" fill="#678099"/>
</svg>
