<svg xmlns="http://www.w3.org/2000/svg" width="16" height="16" viewBox="0 0 16 16">
  <path fill-rule="evenodd" d="M11.912,8.30105263 L11.912,8.90736842 L11.8985263,9.05557895 L11.8850526,9.19031579 L11.8715789,9.33852632 L11.8581053,9.47326316 L11.8042105,9.74273684 L11.7772632,9.864 L11.7503158,9.99873684 L11.7098947,10.12 L11.6829474,10.2277895 L11.6425263,10.3490526 L11.5886316,10.4837895 L11.5347368,10.6050526 L11.4134737,10.8475789 L11.3461053,10.9688421 L11.144,11.2922105 L10.9014737,11.5751579 L10.7128421,11.7637895 L10.6185263,11.8446316 L10.5107368,11.9254737 L10.1873684,12.1275789 L9.94484211,12.2353684 L9.83705263,12.2892632 L9.70231579,12.3296842 L9.45978947,12.4105263 L9.33852632,12.4374737 L9.20378947,12.4644211 L9.08252632,12.4778947 L8.81305263,12.5048421 L8.69178947,12.5183158 L8.26063158,12.5183158 L7.96421053,12.4913684 L7.69473684,12.4644211 L7.57347368,12.4374737 L7.27705263,12.3835789 L7.14231579,12.3431579 L7.00757895,12.3162105 L6.76505263,12.2353684 L6.76505263,14.984 L6.63031579,14.9974737 L6.49557895,15.0244211 L6.36084211,15.0378947 L6.22610526,15.0648421 L6.09136842,15.0783158 L5.95663158,15.1052632 L5.80842105,15.1187368 L5.67368421,15.1456842 L5.53894737,15.1591579 L5.40421053,15.1861053 L5.26947368,15.1995789 L5.13473684,15.2265263 L5,15.24 L5,5.16168421 L6.48210526,5.16168421 L6.50905263,5.28294737 L6.52252632,5.40421053 L6.54947368,5.53894737 L6.57642105,5.66021053 L6.58989474,5.78147368 L6.61684211,5.90273684 L6.63031579,6.03747368 L6.65726316,6.15873684 L6.84589474,5.97010526 L7.16926316,5.68715789 L7.27705263,5.60631579 L7.39831579,5.52547368 L7.51957895,5.43115789 L7.65431579,5.35031579 L7.74863158,5.29642105 L7.86989474,5.24252632 L7.97768421,5.18863158 L8.34147368,5.06736842 L8.46273684,5.05389474 L8.59747368,5.02694737 L8.86694737,5 L9.14989474,5 L9.28463158,5.01347368 L9.40589474,5.02694737 L9.54063158,5.04042105 L9.78315789,5.09431579 L10.1469474,5.21557895 L10.2816842,5.26947368 L10.5242105,5.40421053 L10.6454737,5.48505263 L10.9688421,5.768 L11.0631579,5.87578947 L11.144,5.97010526 L11.2787368,6.15873684 L11.4134737,6.37431579 L11.4673684,6.49557895 L11.5347368,6.61684211 L11.5886316,6.73810526 L11.6290526,6.87284211 L11.6829474,6.99410526 L11.7233684,7.11536842 L11.8042105,7.47915789 L11.8311579,7.61389474 L11.8581053,7.73515789 L11.8715789,7.86989474 L11.8850526,8.01810526 L11.8985263,8.15284211 L11.912,8.30105263 Z M10.1334737,8.86694737 L10.1334737,8.53010526 L10.0930526,8.08547368 L10.0391579,7.816 L10.0122105,7.69473684 L9.97178947,7.58694737 L9.91789474,7.47915789 L9.87747368,7.37136842 L9.82357895,7.27705263 L9.75621053,7.18273684 L9.70231579,7.08842105 L9.51368421,6.89978947 L9.40589474,6.81894737 L9.31157895,6.75157895 L9.19031579,6.69768421 L9.08252632,6.64378947 L8.84,6.58989474 L8.70526316,6.56294737 L8.43578947,6.56294737 L8.30105263,6.57642105 L8.05852632,6.63031579 L7.93726316,6.67073684 L7.816,6.72463158 L7.70821053,6.77852632 L7.60042105,6.84589474 L7.47915789,6.92673684 L7.37136842,7.00757895 L7.27705263,7.10189474 L7.16926316,7.18273684 L6.85936842,7.49263158 L6.76505263,7.61389474 L6.76505263,10.7802105 L6.91326316,10.8475789 L7.048,10.9014737 L7.19621053,10.9418947 L7.33094737,10.9823158 L7.46568421,11.0092632 L7.70821053,11.0631579 L7.84294737,11.0766316 L7.99115789,11.0766316 L8.15284211,11.0901053 L8.44926316,11.0901053 L8.584,11.0766316 L8.71873684,11.0496842 L8.85347368,11.0092632 L8.97473684,10.9688421 L9.08252632,10.9149474 L9.20378947,10.8475789 L9.31157895,10.7802105 L9.41936842,10.6993684 L9.62147368,10.4972632 L9.68884211,10.4164211 L9.75621053,10.3221053 L9.81010526,10.2277895 L9.864,10.12 L9.91789474,9.99873684 L9.99873684,9.75621053 L10.0391579,9.62147368 L10.0661053,9.48673684 L10.0930526,9.33852632 L10.1065263,9.19031579 L10.1334737,8.86694737 Z"/>
</svg>
