<svg xmlns="http://www.w3.org/2000/svg" width="16" height="16" viewBox="0 0 16 16">
  <path fill-rule="evenodd" d="M4,14.323535 L4,2.34382844 C4,2.1628661 4.14476987,2 4.34382844,2 L8.59644331,2 C10.82228,2 12.6499996,3.80962335 12.6499996,5.99926761 C12.6499996,8.24320056 10.82228,10.0709201 8.61453955,10.0709201 L6.35251036,10.0709201 L6.35251036,14.323535 C6.35251036,14.5044974 6.18964425,14.6673635 6.00868192,14.6673635 L4.34382844,14.6673635 C4.14476987,14.6673635 4,14.5044974 4,14.323535 Z M6.35251036,7.86317966 L8.52405838,7.86317966 C9.53744745,7.86317966 10.3155855,7.04884915 10.3155855,5.98117137 C10.3155855,4.98587853 9.53744745,4.22583672 8.52405838,4.22583672 L6.35251036,4.22583672 L6.35251036,7.86317966 Z"/>
</svg>
