<svg xmlns="http://www.w3.org/2000/svg" width="18" height="18" viewBox="0 0 18 18">
  <path fill="#8492A6" d="M16.1395788,8.44620762 C16.144747,8.44080637 16.1499875,8.43544881 16.1553003,8.43013615 C16.1606082,8.42482832 16.165961,8.41959264 16.1713573,8.41442909 L17.2929028,7.29288362 C18.7880249,5.79780213 21.2119751,5.79780213 22.7070972,7.29288362 C24.2022343,8.7879801 24.2022343,11.2120199 22.7071068,12.7071068 L21.2070883,14.2071252 L12.9602168,22.4535668 C12.5180668,22.8956417 11.9488472,23.1885575 11.3322047,23.2912913 L7.16441472,23.9859913 C6.4875899,24.0988065 5.90080323,23.5120311 6.01360556,22.8352041 L6.70822478,18.6674088 C6.81102385,18.0505844 7.10400773,17.4813037 7.54613908,17.0392774 L15.7928932,8.79289322 L16.1395788,8.44620762 Z M18.2767815,9.13743207 L20.8625421,11.7232444 L21.2929028,11.2928836 C22.0069657,10.5788401 22.0069657,9.4211599 21.2929028,8.70711638 C20.5788249,7.99305787 19.4211751,7.99305787 18.7071068,8.70710678 L18.2767815,9.13743207 Z M19.4483195,13.1374489 L16.8625602,10.5516379 L8.96025281,18.4535907 C8.81291651,18.6008921 8.71527714,18.7906097 8.68101444,18.9961959 L8.21655184,21.783025 L11.0034533,21.3184957 C11.2089729,21.2842558 11.3987159,21.1866155 11.5460817,21.0392748 L19.4483195,13.1374489 Z" transform="translate(-6 -6)"/>
</svg>
