<svg width="18" height="10" viewBox="0 0 18 10" fill="none" xmlns="http://www.w3.org/2000/svg">
<path d="M10.0546 8.836C10.0546 8.232 9.77993 7.657 9.28973 7.282C8.54044 6.708 7.24084 6 5.39093 6C3.54102 6 2.24142 6.708 1.49213 7.282C1.00193 7.657 0.727295 8.232 0.727295 8.836V10H10.0546V8.836Z" fill="#52667A"/>
<path d="M5.39096 5C6.82188 5 7.98187 3.88071 7.98187 2.5C7.98187 1.11929 6.82188 0 5.39096 0C3.96004 0 2.80005 1.11929 2.80005 2.5C2.80005 3.88071 3.96004 5 5.39096 5Z" fill="#52667A"/>
<path d="M12.6456 5C14.0765 5 15.2365 3.88071 15.2365 2.5C15.2365 1.11929 14.0765 0 12.6456 0C11.2147 0 10.0547 1.11929 10.0547 2.5C10.0547 3.88071 11.2147 5 12.6456 5Z" fill="#52667A"/>
<path d="M16.5443 7.282C15.795 6.708 14.4954 6 12.6455 6C12.0641 6 11.5439 6.075 11.0713 6.189C11.7387 6.909 12.1273 7.836 12.1273 8.836V10H17.3092V8.836C17.3092 8.232 17.0345 7.657 16.5443 7.282Z" fill="#52667A"/>
</svg>
