<svg xmlns="http://www.w3.org/2000/svg" width="24" height="24" viewBox="0 0 24 24">
  <path fill="#3D8AEB" d="M15.6078275,16 C14.5542619,16.6348281 13.3198141,17 12,17 C10.6801859,17 9.4457381,16.6348281 8.3921725,16 L8,16 C4.68628475,16 2,18.6862847 2,22 L22,22 C22,18.6862847 19.3137153,16 16,16 L15.6078275,16 Z M17.626477,14.1654497 C21.2648661,14.9168778 24,18.1390207 24,22 L24,23 C24,23.5522847 23.5522847,24 23,24 L1,24 C0.44771525,24 0,23.5522847 0,23 L0,22 C0,18.1390207 2.73513388,14.9168778 6.37352296,14.1654497 C5.51046112,13.0015374 5,11.560434 5,10 L5,7 C5,3.13371525 8.13371525,0 12,0 C15.8662847,0 19,3.13371525 19,7 L19,10 C19,11.560434 18.4895389,13.0015374 17.626477,14.1654497 Z M12,15 C14.7617153,15 17,12.7617153 17,10 L17,7 C17,4.23828475 14.7617153,2 12,2 C9.23828475,2 7,4.23828475 7,7 L7,10 C7,12.7617153 9.23828475,15 12,15 Z"/>
</svg>
