<svg width="16" height="16" viewBox="4 4 16 16" fill="none" xmlns="http://www.w3.org/2000/svg">
<path d="M10.5413 16.8404L9.79828 14.4734H6.50772L5.77796 16.8404H4L7.1048 7.55851H9.28081L12.3591 16.8404H10.5413ZM8.17954 9.15426H8.1132L6.93231 12.9707H9.37369L8.17954 9.15426Z" fill="#678099"/>
<path d="M13.6179 7H15.3163V11.0426H15.3693C15.4932 10.6436 15.7276 10.3289 16.0726 10.0984C16.4175 9.85904 16.82 9.73936 17.28 9.73936C18.1645 9.73936 18.8368 10.0541 19.2968 10.6835C19.7656 11.3041 20 12.195 20 13.3564C20 14.5266 19.7656 15.4264 19.2968 16.0559C18.8368 16.6853 18.1645 17 17.28 17C16.82 17 16.4175 16.8803 16.0726 16.641C15.7364 16.4016 15.502 16.0824 15.3693 15.6835H15.3163V16.8404H13.6179V7ZM16.736 15.5904C17.1783 15.5904 17.5365 15.4441 17.8107 15.1516C18.0849 14.859 18.222 14.4645 18.222 13.9681V12.7713C18.222 12.2748 18.0849 11.8803 17.8107 11.5878C17.5365 11.2863 17.1783 11.1356 16.736 11.1356C16.3291 11.1356 15.9885 11.2376 15.7143 11.4415C15.4489 11.6454 15.3163 11.9158 15.3163 12.2527V14.4601C15.3163 14.8236 15.4489 15.1028 15.7143 15.2979C15.9885 15.4929 16.3291 15.5904 16.736 15.5904Z" fill="#678099"/>
</svg>
