<svg xmlns="http://www.w3.org/2000/svg" width="24" height="24" viewBox="0 0 24 24">
  <g fill="#5D6871">
    <path d="M11,7 L11,17 C11,17.5522847 11.4477153,18 12,18 C12.5522847,18 13,17.5522847 13,17 L13,7 C13,6.44771525 12.5522847,6 12,6 C11.4477153,6 11,6.44771525 11,7 Z"/>
    <path d="M17,11 L7,11 C6.44771525,11 6,11.4477153 6,12 C6,12.5522847 6.44771525,13 7,13 L17,13 C17.5522847,13 18,12.5522847 18,12 C18,11.4477153 17.5522847,11 17,11 Z"/>
    <path d="M2,12 C2,17.5227153 6.47728475,22 12,22 C17.5227153,22 22,17.5227153 22,12 C22,6.47728475 17.5227153,2 12,2 C6.47728475,2 2,6.47728475 2,12 Z M0,12 C0,5.37271525 5.37271525,0 12,0 C18.6272847,0 24,5.37271525 24,12 C24,18.6272847 18.6272847,24 12,24 C5.37271525,24 0,18.6272847 0,12 Z"/>
  </g>
</svg>
