<svg width="16" height="16" viewBox="0 0 16 16" fill="none" xmlns="http://www.w3.org/2000/svg">
<path fill-rule="evenodd" clip-rule="evenodd" d="M8 0C3.6 0 0 3.6 0 8C0 12.4 3.6 16 8 16C12.4 16 16 12.4 16 8C16 3.6 12.4 0 8 0ZM8 13C7.4 13 7 12.6 7 12C7 11.4 7.4 11 8 11C8.6 11 9 11.4 9 12C9 12.6 8.6 13 8 13ZM9.5246 8.39999C9.03279 8.69999 9.03278 8.8 9.03278 9V10H7.06558V9C7.06558 7.7 7.85246 7.1 8.44263 6.7C8.93443 6.4 9.03278 6.3 9.03278 6C9.03278 5.4 8.63936 5 8.04919 5C7.65575 5 7.36066 5.2 7.16394 5.5L6.67212 6.4L5 5.4L5.49179 4.5C5.98359 3.6 6.96723 3 8.04919 3C9.72133 3 11 4.3 11 6C11 7.4 10.1148 7.99999 9.5246 8.39999Z" fill="#8599AD"/>
</svg>
