<svg width="16" height="16" viewBox="0 -1 16 16" fill="none" xmlns="http://www.w3.org/2000/svg">
<path d="M3.02362 3.06142C1.83854 4.54276 1.66755 6.03572 2.01575 7.08032C3.33164 6.03535 5.16042 6.25416 6.27402 7.29449C7.39893 8.3454 7.49572 10.1927 6.77796 11.389C6.17417 12.3953 5.11384 13.0016 3.93072 13.0016C1.23817 13.0016 0 10.6268 0 7.96221C0 6.23202 0.44094 4.68242 1.32283 3.31339C2.20472 1.94436 3.53595 0.8399 5.31653 0L5.79528 0.93229C4.72021 1.38583 3.79633 2.09554 3.02362 3.06142ZM11.7921 3.06142C10.6071 4.54276 10.4361 6.03572 10.7843 7.08032C11.3722 6.62678 12.0105 6.4 12.6992 6.4C14.5109 6.4 16 7.60658 16 9.70079C16 11.6265 14.5222 13.0016 12.6992 13.0016C10.0067 13.0016 8.7685 10.6268 8.7685 7.96221C8.7685 6.23203 9.20944 4.68242 10.0913 3.31339C10.9732 1.94436 12.3044 0.8399 14.085 0L14.5638 0.93228C13.4887 1.38583 12.5648 2.09554 11.7921 3.06142Z" />
</svg>
