<svg xmlns="http://www.w3.org/2000/svg" width="16" height="13" viewBox="0 0 16 13">
  <path fill="#8492A6" fill-rule="evenodd" d="M11.792,3.061 C10.607,4.542 10.436,6.035 10.784,7.08 C11.372,6.626 12.01,6.4 12.699,6.4 C14.511,6.4 16,7.606 16,9.7 C16,11.626 14.522,13.001 12.699,13.001 C10.007,13.001 8.768,10.626 8.768,7.962 C8.768,6.232 9.209,4.682 10.091,3.313 C10.973,1.944 12.304,0.84 14.085,0 L14.564,0.932 C13.489,1.385 12.565,2.095 11.792,3.061 M3.024,3.061 C1.838,4.542 1.667,6.035 2.016,7.08 C3.332,6.035 5.16,6.254 6.274,7.294 C7.399,8.345 7.496,10.192 6.778,11.389 C6.174,12.395 5.114,13.001 3.931,13.001 C1.238,13.001 0,10.626 0,7.962 C0,6.232 0.441,4.682 1.323,3.313 C2.205,1.944 3.536,0.84 5.316,0 L5.795,0.932 C4.72,1.385 3.796,2.095 3.024,3.061"/>
</svg>
