<svg xmlns="http://www.w3.org/2000/svg" width="20" height="14"><path fill="#8492A6" d="M.276 4.996C.576 7 2.28 8.427 4.214 8.52c-.484 1.796-1.658 2.51-3.086 2.924-.138.046-.115.184-.115.184l.23 1.428s.023.115.208.092c4.927-.553 8.265-4.306 7.644-8.864C8.519 1.128 6.055-.092 3.776.23 1.496.6-.069 2.717.276 4.996zM15.05 8.52c-.46 1.796-1.681 2.51-3.086 2.924-.138.046-.115.184-.115.184l.208 1.428s.023.115.207.092c4.95-.553 8.243-4.306 7.667-8.864-.599-3.155-3.085-4.375-5.342-4.053-2.28.369-3.845 2.487-3.476 4.766A4.11 4.11 0 0 0 15.05 8.52z"/></svg>