<?xml version="1.0" encoding="UTF-8"?>
<svg width="30px" height="30px" viewBox="0 0 30 30" version="1.1" xmlns="http://www.w3.org/2000/svg" xmlns:xlink="http://www.w3.org/1999/xlink">
    <!-- Generator: sketchtool 55.2 (78181) - https://sketchapp.com -->
    <title>fab57269-45ac-42fe-922b-093f150d4d8e@1.00x</title>
    <desc>Created with sketchtool.</desc>
    <g id="Symbols" stroke="none" stroke-width="1" fill="none" fill-rule="evenodd">
        <g id="icon/16/quotes/default" fill="#8599AD">
            <path d="M18.792,11.061 C17.607,12.542 17.436,14.035 17.784,15.08 C18.372,14.626 19.01,14.4 19.699,14.4 C21.511,14.4 23,15.606 23,17.7 C23,19.626 21.522,21.001 19.699,21.001 C17.007,21.001 15.768,18.626 15.768,15.962 C15.768,14.232 16.209,12.682 17.091,11.313 C17.973,9.944 19.304,8.84 21.085,8 L21.564,8.932 C20.489,9.385 19.565,10.095 18.792,11.061 M10.024,11.061 C8.838,12.542 8.667,14.035 9.016,15.08 C10.332,14.035 12.16,14.254 13.274,15.294 C14.399,16.345 14.496,18.192 13.778,19.389 C13.174,20.395 12.114,21.001 10.931,21.001 C8.238,21.001 7,18.626 7,15.962 C7,14.232 7.441,12.682 8.323,11.313 C9.205,9.944 10.536,8.84 12.316,8 L12.795,8.932 C11.72,9.385 10.796,10.095 10.024,11.061" id="Fill-73"></path>
        </g>
    </g>
</svg>