<svg xmlns="http://www.w3.org/2000/svg" width="24" height="24" viewBox="0 0 24 24">
  <g fill="#4B5761">
    <path d="M2,12 C2,17.5227153 6.47728475,22 12,22 C17.5227153,22 22,17.5227153 22,12 C22,6.47728475 17.5227153,2 12,2 C6.47728475,2 2,6.47728475 2,12 Z M0,12 C0,5.37271525 5.37271525,0 12,0 C18.6272847,0 24,5.37271525 24,12 C24,18.6272847 18.6272847,24 12,24 C5.37271525,24 0,18.6272847 0,12 Z"/>
    <path d="M7,12 C7,9.23838192 9.23838192,7 12,7 C14.7616181,7 17,9.23838192 17,12 C17,14.7616181 14.7616181,17 12,17 C9.23838192,17 7,14.7616181 7,12 Z"/>
  </g>
</svg>
