<svg width="16" height="16" viewBox="0 0 16 16" fill="none" xmlns="http://www.w3.org/2000/svg">
<path d="M8 2C11.3137 2 14 4.68629 14 8C14 11.3137 11.3137 14 8 14C5.02554 14 2.55661 11.8356 2.08226 8.99581C1.99127 8.45107 1.55229 8 1 8C0.447716 8 -0.00655632 8.44996 0.0616464 8.99801C0.552863 12.9453 3.9197 16 8 16C12.4183 16 16 12.4183 16 8C16 3.58172 12.4183 0 8 0C5.61062 0 3.46589 1.04751 2 2.70835L2 1C2 0.447716 1.55228 0 1 9.53674e-07C0.447715 9.53674e-07 0 0.447716 0 1L0 5C0 5.55229 0.447715 6 1 6H5C5.55229 6 6 5.55229 6 5C6 4.44771 5.55229 4 5 4H3.52779C4.62643 2.7725 6.223 2 8 2Z" fill="#E51A2B"/>
</svg>
