<?xml version="1.0" encoding="UTF-8"?>
<svg width="15px" height="14px" viewBox="0 0 15 14" version="1.1" xmlns="http://www.w3.org/2000/svg" xmlns:xlink="http://www.w3.org/1999/xlink">
    <defs></defs>
    <g id="Symbols" stroke="none" stroke-width="1" fill="none" fill-rule="evenodd">
        <g id="comment/resolve/standard" transform="translate(0.000000, -1.000000)" fill="#3D8AEB">
            <g id="resolve">
                <g id="Group" transform="translate(0.000000, 1.000000)">
                    <path d="M5.7,5.3 C5.3,4.9 4.7,4.9 4.3,5.3 C3.9,5.7 3.9,6.3 4.3,6.7 L6.3,8.7 C6.5,8.9 6.7,9 7,9 C7.3,9 7.5,8.9 7.7,8.7 L14.7,1.7 C15.1,1.3 15.1,0.7 14.7,0.3 C14.3,-0.1 13.7,-0.1 13.3,0.3 L7,6.6 L5.7,5.3" id="Fill-296"></path>
                    <path d="M7,14 C10.9,14 14,10.9 14,7 C14,6.4 13.6,6 13,6 C12.4,6 12,6.4 12,7 C12,9.8 9.8,12 7,12 C4.2,12 2,9.8 2,7 C2,4.2 4.2,2 7,2 C7.6,2 8.1,2.1 8.7,2.3 C9.2,2.5 9.8,2.2 10,1.7 C10.2,1.2 9.9,0.6 9.4,0.4 C8.6,0.1 7.8,0 7,0 C3.1,0 0,3.1 0,7 C0,10.9 3.1,14 7,14" id="Fill-297"></path>
                </g>
            </g>
        </g>
    </g>
</svg>