<svg width="24" height="24" viewBox="0 0 24 24" fill="none" xmlns="http://www.w3.org/2000/svg">
<path d="M13 3C8.03 3 4 7.03 4 12H2.19231C1.74896 12 1.52494 12.5342 1.83567 12.8504L4.60691 15.6707C4.80149 15.8687 5.12012 15.8703 5.31666 15.6742L8.14389 12.854C8.45947 12.5392 8.23653 12 7.79077 12H6C6 8.13 9.13 5 13 5C16.87 5 20 8.13 20 12C20 15.87 16.87 19 13 19C11.4314 19 9.98175 18.4782 8.81739 17.601C8.37411 17.267 7.74104 17.259 7.3486 17.6514V17.6514C6.95725 18.0428 6.95413 18.6823 7.38598 19.0284C8.92448 20.2615 10.8708 21 13 21C17.97 21 22 16.97 22 12C22 7.03 17.97 3 13 3Z" fill="#8599AD"/>
</svg>
