<svg xmlns="http://www.w3.org/2000/svg" width="16" height="17" viewBox="0 0 16 17">
  <path fill="#8492A6" fill-rule="evenodd" d="M19.7,18.3 C20.6,17.1 21.1,15.7 21.1,14.1 C21.1,10.2 18,7 14.1,7 C10.2,7 7,10.2 7,14.1 C7,18 10.2,21.2 14.1,21.2 C15.7,21.2 17.2,20.7 18.3,19.8 L21.3,22.8 C21.5,23 21.8,23.1 22,23.1 C22.2,23.1 22.5,23 22.7,22.8 C23.1,22.4 23.1,21.8 22.7,21.4 L19.7,18.3 L19.7,18.3 Z M14.1,19.1 C11.3,19.1 9,16.9 9,14.1 C9,11.3 11.3,9 14.1,9 C16.9,9 19.2,11.3 19.2,14.1 C19.2,16.9 16.9,19.1 14.1,19.1 L14.1,19.1 Z" transform="translate(-7 -7)"/>
</svg>
