<svg width="34" height="48" viewBox="0 0 34 48" fill="none" xmlns="http://www.w3.org/2000/svg">
  <path d="M11.0723 48C11.0723 47.8272 10.9024 47.4814 10.9024 47.4814C11.0723 46.7898 10.9024 46.0983 11.2421 45.5796C11.5818 45.061 11.7516 44.5423 11.7516 44.0236C11.7516 41.6032 11.4119 39.0099 10.7326 36.5895C10.3929 35.5522 10.0533 34.5149 9.54377 33.4775C9.37393 33.1318 9.37393 32.6131 9.2041 32.2673C9.2041 32.0945 9.2041 31.9216 9.7136 31.4029C9.88343 31.0571 10.2231 31.0571 10.2231 31.0571C10.9024 31.0571 11.2421 31.4029 11.4119 31.9216C12.0913 33.4775 12.7706 35.0335 13.1103 36.7624C13.2801 37.2811 13.2801 37.6268 13.4499 38.1455C13.4499 38.6642 13.4499 39.1828 13.4499 39.5286C13.7896 41.6032 13.9594 43.8508 12.9404 46.0983C12.7706 46.4441 12.6008 46.617 12.2611 46.9627C11.9214 47.1356 11.7516 47.4814 11.4119 47.6543L10.7326 48H11.0723Z" fill="#4A5775"/>
  <path d="M19.9039 47.1354C19.734 46.9625 19.5642 46.7897 19.5642 46.6168C19.3944 45.7523 19.0547 45.0608 19.3944 44.3692C19.5642 43.6777 19.734 42.9861 19.734 42.2946C19.734 40.7386 19.9039 39.3555 19.9039 37.7995C19.9039 36.4164 19.9039 34.8605 19.3944 33.996C19.0547 33.1316 18.0357 32.6129 16.8469 31.7485C16.5072 31.4027 16.1675 31.0569 15.8279 30.5383C15.658 30.3654 15.658 30.1925 15.9977 29.501C16.1675 29.501 16.3374 29.3281 16.5072 29.3281C17.1865 29.1552 17.696 29.3281 18.0357 29.6739C18.715 30.1925 19.3944 30.7112 20.2435 31.4027C21.0927 32.0943 21.772 33.3045 22.1117 34.3418C22.2815 35.0333 22.2815 35.552 22.2815 36.0707C22.2815 36.5893 22.1117 37.2809 22.1117 37.7995C22.1117 40.22 21.772 42.6404 21.4324 44.8879C21.2625 45.5794 20.753 46.0981 20.5832 46.6168L20.2435 47.3083L19.9039 47.1354Z" fill="#4A5775"/>
  <path d="M1.39198 37.1079C1.22215 37.1079 0.88248 36.935 0.88248 36.7621C0.37298 36.0706 -0.13652 35.0333 0.0333132 34.1688C0.203147 33.3044 0.203147 32.44 0.203147 31.7484C0.203147 28.1178 1.22215 24.8329 2.07131 21.5481C2.58081 19.9921 2.92048 18.609 3.59982 17.2259C3.76965 16.7072 4.27915 16.1886 4.61882 15.6699C4.78865 15.497 5.12832 15.1513 5.80765 15.6699C5.80765 15.8428 5.97748 16.1886 5.97748 16.1886C6.31715 16.8801 6.14732 17.2259 5.97748 17.7446C5.29815 19.4734 4.61882 21.5481 4.10932 23.4498C3.93948 23.9685 3.76965 24.4872 3.59982 25.1787C3.42998 25.6974 3.09032 26.216 3.09032 26.7347C2.58081 29.1551 2.24115 31.7484 2.07131 34.1688C2.07131 34.5146 1.90148 34.8604 1.90148 35.2061C1.90148 35.7248 1.73165 35.8977 1.73165 36.2435V36.935L1.39198 37.1079Z" fill="#4A5775"/>
  <path d="M33.6598 5.46979C33.49 5.29691 33.1503 5.2969 32.9805 5.2969C32.6408 5.12402 32.471 5.46979 32.3011 5.64268C32.1313 5.81557 31.7916 5.98845 31.6218 6.16134C30.9425 6.33423 30.433 6.85289 29.9235 7.19866C27.7156 9.2733 25.5078 11.3479 22.9603 13.0768C21.7715 13.9413 20.7525 14.6328 19.2239 15.1515C18.7144 15.3243 18.0351 15.3243 17.3558 15.1515C17.1859 15.1515 16.6764 14.8057 17.0161 14.1141C16.8463 14.1141 17.0161 13.7684 17.1859 13.7684C17.5256 13.2497 17.6954 13.0768 18.0351 13.0768C19.3938 12.5582 20.9223 11.5208 22.4508 10.4835C22.7905 10.1377 23.3 9.79196 23.6396 9.61908C24.1491 9.2733 24.4888 9.10042 24.9983 8.75464C26.6966 7.19866 28.395 5.64268 30.6028 4.25958C31.2821 3.91381 32.3011 3.74092 33.3201 4.43247C33.6598 4.60536 33.8296 5.12402 33.9995 5.46979H33.6598Z" fill="#4A5775"/>
  <path d="M12.4312 8.40896C14.4947 8.40896 16.1675 6.78347 16.1675 4.77833C16.1675 2.77319 14.4947 1.14771 12.4312 1.14771C10.3676 1.14771 8.69482 2.77319 8.69482 4.77833C8.69482 6.78347 10.3676 8.40896 12.4312 8.40896Z" fill="white"/>
  <path d="M16.3375 4.77828C16.1677 4.4325 15.9978 4.4325 15.9978 4.25961C15.4883 3.39518 14.809 3.22229 14.2995 2.70363C13.79 2.18497 13.1107 2.01209 12.6012 2.01209C11.2425 2.18497 10.0537 3.22229 9.88384 4.25961C9.71401 5.29694 10.3933 6.50714 11.5822 6.85292C12.6012 7.19869 13.79 6.85292 14.4693 6.16137C14.809 5.8156 14.9788 5.46982 15.3185 5.12405C15.3185 4.95116 15.4883 4.95116 16.1677 4.77828C16.3375 4.95116 16.5073 4.95116 16.6772 5.12405C17.1867 5.8156 17.0168 6.68003 16.6772 7.37158C14.9788 9.792 11.4123 10.3107 9.20451 8.4089C8.69501 7.89024 8.01568 7.19869 7.84584 6.50714C7.50618 5.64271 7.50618 4.77828 7.67601 4.08673C7.84584 2.35786 9.20451 0.801877 10.733 0.283216C12.2615 -0.235444 14.1297 -0.0625575 15.6582 0.974764C16.5073 1.66631 16.6772 2.70363 16.847 3.56807C16.847 3.91384 16.847 4.25962 16.847 4.60539L16.3375 4.77828Z" fill="#4A5775"/>
  <path d="M17.8659 30.0201L7.6759 30.5387C6.6569 30.5387 5.97756 29.8472 5.97756 28.9827L5.46806 18.7824C5.29823 14.9789 8.1854 11.6941 11.9217 11.5212C15.6581 11.3483 18.8849 14.2874 19.0547 18.0909L19.5642 28.2912C19.5642 29.1556 18.8849 30.0201 17.8659 30.0201Z" fill="#18D689"/>
  <path d="M18.0353 31.2301C18.0353 30.5386 18.0353 29.847 17.8655 29.1555C18.0353 29.1555 18.2051 28.9826 18.2051 28.9826C18.375 28.8097 18.5448 28.6368 18.5448 28.2911L18.375 26.5622L18.2051 22.9316C18.2051 21.7214 18.0353 20.684 17.8655 19.4738C17.6957 18.2636 17.6956 17.3992 17.356 16.5348C16.8465 14.2872 14.8085 12.5584 12.4308 12.5584C10.223 12.3855 8.01514 13.9414 6.99614 16.0161C6.31681 17.2263 6.14698 18.6094 6.31681 20.1654L6.82631 26.0435L6.99614 28.9826C6.99614 29.1555 7.16598 29.3284 7.33581 29.5013C7.33581 29.5013 7.50564 29.6742 7.67548 29.6742C7.84531 29.6742 7.84531 29.6742 8.01514 29.6742C11.242 29.5013 14.299 29.3284 17.5258 29.1555C17.6957 29.1555 17.8655 29.1555 18.0353 29.1555C17.8655 29.847 18.0353 30.5386 18.0353 31.2301C17.6957 31.2301 17.5258 31.2301 17.1862 31.2301C15.4878 31.403 13.7895 31.5759 12.0911 31.403C10.7325 31.2301 9.37381 31.403 8.01514 31.403C7.84531 31.403 7.50564 31.403 7.33581 31.403C6.99614 31.403 6.82631 31.2301 6.48664 31.2301C5.97714 31.0573 5.63748 30.5386 5.29781 30.1928C5.12798 30.0199 5.12798 29.6742 4.95814 29.5013C4.95814 29.1555 4.95814 28.9826 4.78831 28.8097V27.7724C4.61848 25.5249 4.27881 23.1045 4.27881 20.8569C4.27881 20.1654 4.27881 19.6467 4.27881 18.9552C4.27881 18.2636 4.27881 17.5721 4.61848 16.8805C4.95814 15.4974 5.63748 14.2872 6.65648 13.2499C7.67548 12.2126 8.69448 11.3481 10.223 10.8295C13.1101 9.96505 16.337 11.0024 18.2051 13.2499C19.2242 14.2872 19.7337 15.8432 20.0733 17.2263C20.2432 18.7823 20.2432 19.8196 20.2432 21.2027C20.2432 21.8942 20.0733 22.7587 20.2432 23.4502L20.5828 26.7351L20.7527 27.5995V27.9453C20.7527 28.1182 20.7527 28.4639 20.7527 28.6368C20.5828 29.5013 20.0733 30.3657 19.2242 30.8844C18.7147 31.2301 18.5448 31.2301 18.0353 31.2301Z" fill="#4A5775"/>
</svg>

