<svg width="16" height="16" viewBox="0 0 16 16" fill="none" xmlns="http://www.w3.org/2000/svg">
    <path d="M6.54131 9.84043L5.79828 7.4734H2.50772L1.77796 9.84043H-3.30328e-09L3.1048 0.55851H5.28081L8.35908 9.84043H6.54131ZM4.17954 2.15426H4.1132L2.93231 5.97074H5.37369L4.17954 2.15426Z" fill="#678099"/>
    <path d="M9.61791 0H11.3163V4.04255H11.3693C11.4932 3.64362 11.7276 3.3289 12.0726 3.0984C12.4175 2.85904 12.82 2.73936 13.28 2.73936C14.1645 2.73936 14.8368 3.05408 15.2968 3.68351C15.7656 4.30408 16 5.19504 16 6.35638C16 7.5266 15.7656 8.42642 15.2968 9.05585C14.8368 9.68528 14.1645 10 13.28 10C12.82 10 12.4175 9.88032 12.0726 9.64096C11.7364 9.4016 11.502 9.08245 11.3693 8.68351H11.3163V9.84043H9.61791V0ZM12.736 8.59042C13.1783 8.59042 13.5365 8.44415 13.8107 8.1516C14.0849 7.85904 14.222 7.46454 14.222 6.96808V5.77128C14.222 5.27482 14.0849 4.88032 13.8107 4.58777C13.5365 4.28635 13.1783 4.13564 12.736 4.13564C12.3291 4.13564 11.9885 4.23759 11.7143 4.44149C11.4489 4.64539 11.3163 4.91578 11.3163 5.25266V7.46011C11.3163 7.82358 11.4489 8.10284 11.7143 8.29787C11.9885 8.49291 12.3291 8.59042 12.736 8.59042Z" fill="#678099"/>
    <path fill-rule="evenodd" clip-rule="evenodd" d="M0.445284 11.1679C0.904813 10.8616 1.52568 10.9858 1.83203 11.4453L2.99998 13.1972L4.16793 11.4453C4.3534 11.1671 4.66563 11 4.99998 11C5.33434 11 5.64657 11.1671 5.83203 11.4453L6.99998 13.1972L8.16793 11.4453C8.3534 11.1671 8.66563 11 8.99998 11C9.33434 11 9.64657 11.1671 9.83203 11.4453L11 13.1972L12.1679 11.4453C12.3534 11.1671 12.6656 11 13 11C13.3343 11 13.6466 11.1671 13.832 11.4453L15.832 14.4453C16.1384 14.9048 16.0142 15.5257 15.5547 15.832C15.0952 16.1384 14.4743 16.0142 14.1679 15.5547L13 13.8028L11.832 15.5547C11.6466 15.8329 11.3343 16 11 16C10.6656 16 10.3534 15.8329 10.1679 15.5547L8.99998 13.8028L7.83203 15.5547C7.64657 15.8329 7.33434 16 6.99998 16C6.66563 16 6.3534 15.8329 6.16793 15.5547L4.99998 13.8028L3.83203 15.5547C3.64657 15.8329 3.33434 16 2.99998 16C2.66563 16 2.3534 15.8329 2.16793 15.5547L0.167934 12.5547C-0.138418 12.0952 -0.0142447 11.4743 0.445284 11.1679Z" fill="#678099"/>
</svg>
