<svg xmlns="http://www.w3.org/2000/svg" width="18" height="18" viewBox="0 0 18 18">
  <path fill="#8492A6" d="M16.7324356,16 C16.3866262,16.5978014 15.7402824,17 15,17 C14.2597176,17 13.6133738,16.5978014 13.2675644,16 L10.5,16 C9.11928475,16 8,17.1192847 8,18.5 C8,19.8807153 9.11928475,21 10.5,21 L15,21 L15,23 L10.5,23 C8.01471525,23 6,20.9852847 6,18.5 C6,16.0147153 8.01471525,14 10.5,14 L13.2675644,14 C13.6133738,13.4021986 14.2597176,13 15,13 C15.7402824,13 16.3866262,13.4021986 16.7324356,14 L19.5,14 C20.8807153,14 22,12.8807153 22,11.5 C22,10.1192847 20.8807153,9 19.5,9 L9.73243561,9 C9.38662619,9.59780137 8.74028236,10 8,10 C6.8954305,10 6,9.1045695 6,8 C6,6.8954305 6.8954305,6 8,6 C8.74028236,6 9.38662619,6.40219863 9.73243561,7 L19.5,7 C21.9852847,7 24,9.01471525 24,11.5 C24,13.9852847 21.9852847,16 19.5,16 L16.7324356,16 Z M24,19.2353 L19.0909,24 L16,21 L17.2727,19.7647 L19.0909,21.5294 L22.7273,18 L24,19.2353 Z" transform="translate(-6 -6)"/>
</svg>
