<svg xmlns="http://www.w3.org/2000/svg" width="16" height="16" viewBox="0 0 16 16">
  <g fill-rule="evenodd" transform="translate(2 1)">
    <path d="M5.692,13.17 C8.089,13.17 9.602,11.555 9.602,9.804 C9.602,7.611 7.698,6.625 6.049,5.962 C4.672,5.401 4.043,4.857 4.043,4.058 C4.043,3.412 4.57,2.868 5.539,2.868 C6.474,2.868 7.171,3.344 7.902,3.803 C8.106,3.939 8.361,3.803 8.497,3.599 L9.143,2.63 C9.262,2.46 9.211,2.171 9.041,2.069 C8.701,1.814 7.375,0.93 5.641,0.93 C2.938,0.93 1.816,2.681 1.816,4.194 C1.816,6.2 3.414,7.22 5.012,7.866 C6.44,8.444 7.171,9.039 7.171,9.906 C7.171,10.637 6.508,11.215 5.624,11.215 C4.519,11.215 3.754,10.688 3.057,10.161 C2.904,10.042 2.615,10.042 2.479,10.28 L1.867,11.334 C1.714,11.606 1.782,11.708 1.952,11.844 C2.445,12.269 3.55,13.17 5.692,13.17 Z"/>
    <path fill-rule="nonzero" d="M0.5,8 L11.545361,8 C12.0976458,8 12.545361,7.55228475 12.545361,7 C12.545361,6.44771525 12.0976458,6 11.545361,6 L0.5,6 C-0.0522847498,6 -0.5,6.44771525 -0.5,7 C-0.5,7.55228475 -0.0522847498,8 0.5,8 Z"/>
  </g>
</svg>
