<svg xmlns="http://www.w3.org/2000/svg" width="16" height="16" viewBox="0 0 16 16">
  <g fill-rule="evenodd" transform="translate(1 1)">
    <path d="M7.83897483,9 C8.05965117,9.27067439 8.171,9.56762114 8.171,9.906 C8.171,10.637 7.508,11.215 6.624,11.215 C5.519,11.215 4.754,10.688 4.057,10.161 C3.904,10.042 3.615,10.042 3.479,10.28 L2.867,11.334 C2.714,11.606 2.782,11.708 2.952,11.844 C3.445,12.269 4.55,13.17 6.692,13.17 C9.089,13.17 10.602,11.555 10.602,9.804 C10.602,9.51582671 10.5691226,9.24849532 10.5082668,9 L7.83897483,9 Z M2.91037052,5 C2.84904049,4.75050701 2.816,4.48244685 2.816,4.194 C2.816,2.681 3.938,0.93 6.641,0.93 C8.375,0.93 9.701,1.814 10.041,2.069 C10.211,2.171 10.262,2.46 10.143,2.63 L9.497,3.599 C9.361,3.803 9.106,3.939 8.902,3.803 C8.171,3.344 7.474,2.868 6.539,2.868 C5.57,2.868 5.043,3.412 5.043,4.058 C5.043,4.41477031 5.16841067,4.72069845 5.42982633,5 L2.91037052,5 Z"/>
    <path fill-rule="nonzero" d="M1,8 L13,8 C13.5522847,8 14,7.55228475 14,7 C14,6.44771525 13.5522847,6 13,6 L1,6 C0.44771525,6 0,6.44771525 0,7 C0,7.55228475 0.44771525,8 1,8 Z"/>
  </g>
</svg>