<svg xmlns="http://www.w3.org/2000/svg" width="23" height="23" viewBox="0 0 23 23">
  <g fill="#8492A6">
    <path d="M20,21 C20.5522847,21 21,20.5522847 21,20 L21,3 C21,2.44771525 20.5522847,2 20,2 L3,2 C2.44771525,2 2,2.44771525 2,3 L2,20 C2,20.5522847 2.44771525,21 3,21 L20,21 Z M20,23 L3,23 C1.34314575,23 2.22044605e-16,21.6568542 0,20 L0,3 C-2.22044605e-16,1.34314575 1.34314575,3.33066907e-16 3,0 L20,0 C21.6568542,-2.22044605e-16 23,1.34314575 23,3 L23,20 C23,21.6568542 21.6568542,23 20,23 Z"/>
    <path d="M7 1C7 .44771525 7.44771525 0 8 0 8.55228475 0 9 .44771525 9 1L9 22C9 22.5522847 8.55228475 23 8 23 7.44771525 23 7 22.5522847 7 22L7 1zM14 1C14 .44771525 14.4477153 0 15 0 15.5522847 0 16 .44771525 16 1L16 22C16 22.5522847 15.5522847 23 15 23 14.4477153 23 14 22.5522847 14 22L14 1z"/>
    <path d="M1 9C.44771525 9 0 8.55228475 0 8 0 7.44771525.44771525 7 1 7L22 7C22.5522847 7 23 7.44771525 23 8 23 8.55228475 22.5522847 9 22 9L1 9zM1 16C.44771525 16 0 15.5522847 0 15 0 14.4477153.44771525 14 1 14L22 14C22.5522847 14 23 14.4477153 23 15 23 15.5522847 22.5522847 16 22 16L1 16z"/>
  </g>
</svg>
