<svg width="16" height="16" viewBox="0 0 16 16" fill="none" xmlns="http://www.w3.org/2000/svg">
<path d="M3 0H1C0.447715 0 0 0.447715 0 1V15C0 15.5523 0.447715 16 1 16H3C3.55228 16 4 15.5523 4 15V1C4 0.447715 3.55228 0 3 0Z" fill="#52667A"/>
<path d="M15 0H7C6.44772 0 6 0.447715 6 1V3C6 3.55228 6.44772 4 7 4H15C15.5523 4 16 3.55228 16 3V1C16 0.447715 15.5523 0 15 0Z" fill="#52667A"/>
<path d="M9 6H7C6.44772 6 6 6.44772 6 7V9C6 9.55228 6.44772 10 7 10H9C9.55228 10 10 9.55228 10 9V7C10 6.44772 9.55228 6 9 6Z" fill="#52667A"/>
<path d="M9 12H7C6.44772 12 6 12.4477 6 13V15C6 15.5523 6.44772 16 7 16H9C9.55228 16 10 15.5523 10 15V13C10 12.4477 9.55228 12 9 12Z" fill="#52667A"/>
<path d="M15 6H13C12.4477 6 12 6.44772 12 7V15C12 15.5523 12.4477 16 13 16H15C15.5523 16 16 15.5523 16 15V7C16 6.44772 15.5523 6 15 6Z" fill="#52667A"/>
</svg>
