<svg xmlns="http://www.w3.org/2000/svg" width="14" height="16" viewBox="0 0 14 16">
  <g fill="#8492A6" fill-rule="evenodd">
    <path d="M13,0 L1,0 C0.4,0 0,0.4 0,1 L0,15 C0,15.6 0.4,16 1,16 L13,16 C13.6,16 14,15.6 14,15 L14,1 C14,0.4 13.6,0 13,0 L13,0 Z M2,2 L12,2 L12,14 L2,14 L2,2 Z"/>
    <polygon points="3 3 7 3 7 7 3 7"/>
    <polygon points="8 4 11 4 11 5 8 5"/>
    <polygon points="8 6 11 6 11 7 8 7"/>
    <polygon points="3 8 11 8 11 9 3 9"/>
    <polygon points="3 10 11 10 11 11 3 11"/>
    <polygon points="3 12 8 12 8 13 3 13"/>
  </g>
</svg>
