<svg xmlns="http://www.w3.org/2000/svg" width="24" height="21" viewBox="0 0 24 21">
  <g fill="#4B5761" transform="translate(1 1)">
    <path d="M1.8571 6L7.1431 6C7.69538475 6 8.1431 5.55228475 8.1431 5 8.1431 4.44771525 7.69538475 4 7.1431 4L1.8571 4C1.30481525 4 .8571 4.44771525.8571 5 .8571 5.55228475 1.30481525 6 1.8571 6zM12 2L22 2C22.5522847 2 23 1.55228475 23 1 23 .44771525 22.5522847 0 22 0L12 0C11.4477153 0 11 .44771525 11 1 11 1.55228475 11.4477153 2 12 2zM12 8L22 8C22.5522847 8 23 7.55228475 23 7 23 6.44771525 22.5522847 6 22 6L12 6C11.4477153 6 11 6.44771525 11 7 11 7.55228475 11.4477153 8 12 8zM0 14L22 14C22.5522847 14 23 13.5522847 23 13 23 12.4477153 22.5522847 12 22 12L0 12C-.55228475 12-1 12.4477153-1 13-1 13.5522847-.55228475 14 0 14zM0 20L22 20C22.5522847 20 23 19.5522847 23 19 23 18.4477153 22.5522847 18 22 18L0 18C-.55228475 18-1 18.4477153-1 19-1 19.5522847-.55228475 20 0 20z"/>
    <path d="M4.5,1.37192437 L7.08085497,7.3939193 C7.29841059,7.90154908 7.88628952,8.13670065 8.3939193,7.91914503 C8.90154908,7.70158941 9.13670065,7.11371048 8.91914503,6.6060807 L5.91914503,-0.393919299 C5.76156624,-0.761603146 5.40002811,-1 5,-1 L4,-1 C3.59997189,-1 3.23843376,-0.761603146 3.08085497,-0.393919299 L0.08085497,6.6060807 C-0.136700651,7.11371048 0.0984509185,7.70158941 0.606080701,7.91914503 C1.11371048,8.13670065 1.70158941,7.90154908 1.91914503,7.3939193 L4.5,1.37192437 Z"/>
  </g>
</svg>
