<svg width="16" height="14" viewBox="0 0 16 14" fill="none" xmlns="http://www.w3.org/2000/svg">
    <path d="M1 0H15C15.5523 0 16 0.447715 16 1C16 1.55228 15.5523 2 15 2H1C0.447715 2 0 1.55228 0 1C0 0.447715 0.447715 0 1 0Z" fill="#678099"/>
    <path d="M1 4H9C9.55228 4 10 4.44772 10 5C10 5.55228 9.55229 6 9 6H1C0.447716 6 0 5.55228 0 5C0 4.44772 0.447715 4 1 4Z" fill="#678099"/>
    <path d="M15 8H1C0.447715 8 0 8.44771 0 9C0 9.55228 0.447715 10 1 10H15C15.5523 10 16 9.55228 16 9C16 8.44771 15.5523 8 15 8Z" fill="#678099"/>
    <path d="M1 12H9C9.55228 12 10 12.4477 10 13C10 13.5523 9.55229 14 9 14H1C0.447716 14 0 13.5523 0 13C0 12.4477 0.447715 12 1 12Z" fill="#678099"/>
</svg>
