<svg width="24" height="24" viewBox="0 -1 24 24" fill="none" xmlns="http://www.w3.org/2000/svg">
<path d="M2.857 7H8.143C8.40822 7 8.66257 6.89464 8.85011 6.70711C9.03764 6.51957 9.143 6.26522 9.143 6C9.143 5.73478 9.03764 5.48043 8.85011 5.29289C8.66257 5.10536 8.40822 5 8.143 5H2.857C2.59178 5 2.33743 5.10536 2.14989 5.29289C1.96236 5.48043 1.857 5.73478 1.857 6C1.857 6.26522 1.96236 6.51957 2.14989 6.70711C2.33743 6.89464 2.59178 7 2.857 7ZM13 3H23C23.2652 3 23.5196 2.89464 23.7071 2.70711C23.8946 2.51957 24 2.26522 24 2C24 1.73478 23.8946 1.48043 23.7071 1.29289C23.5196 1.10536 23.2652 1 23 1H13C12.7348 1 12.4804 1.10536 12.2929 1.29289C12.1054 1.48043 12 1.73478 12 2C12 2.26522 12.1054 2.51957 12.2929 2.70711C12.4804 2.89464 12.7348 3 13 3ZM13 9H23C23.2652 9 23.5196 8.89464 23.7071 8.70711C23.8946 8.51957 24 8.26522 24 8C24 7.73478 23.8946 7.48043 23.7071 7.29289C23.5196 7.10536 23.2652 7 23 7H13C12.7348 7 12.4804 7.10536 12.2929 7.29289C12.1054 7.48043 12 7.73478 12 8C12 8.26522 12.1054 8.51957 12.2929 8.70711C12.4804 8.89464 12.7348 9 13 9ZM1 15H23C23.2652 15 23.5196 14.8946 23.7071 14.7071C23.8946 14.5196 24 14.2652 24 14C24 13.7348 23.8946 13.4804 23.7071 13.2929C23.5196 13.1054 23.2652 13 23 13H1C0.734784 13 0.48043 13.1054 0.292893 13.2929C0.105357 13.4804 0 13.7348 0 14C0 14.2652 0.105357 14.5196 0.292893 14.7071C0.48043 14.8946 0.734784 15 1 15ZM1 21H23C23.2652 21 23.5196 20.8946 23.7071 20.7071C23.8946 20.5196 24 20.2652 24 20C24 19.7348 23.8946 19.4804 23.7071 19.2929C23.5196 19.1054 23.2652 19 23 19H1C0.734784 19 0.48043 19.1054 0.292893 19.2929C0.105357 19.4804 0 19.7348 0 20C0 20.2652 0.105357 20.5196 0.292893 20.7071C0.48043 20.8946 0.734784 21 1 21Z" fill="#678099"/>
<path d="M5.49996 2.372L8.07996 8.394C8.1317 8.51482 8.20673 8.62426 8.30077 8.71608C8.39481 8.8079 8.50601 8.88029 8.62803 8.92914C8.75004 8.97798 8.88048 9.00231 9.0119 9.00075C9.14332 8.99918 9.27315 8.97174 9.39396 8.92C9.51478 8.86826 9.62422 8.79323 9.71604 8.69919C9.80786 8.60515 9.88026 8.49395 9.9291 8.37194C9.97794 8.24992 10.0023 8.11948 10.0007 7.98806C9.99914 7.85664 9.9717 7.72682 9.91996 7.606L6.91996 0.606C6.8428 0.426 6.71448 0.272619 6.55094 0.16489C6.38739 0.057161 6.1958 -0.000173784 5.99996 3.95683e-07H4.99996C4.80412 -0.000173784 4.61254 0.057161 4.44899 0.16489C4.28544 0.272619 4.15712 0.426 4.07996 0.606L1.07996 7.606C0.975468 7.85 0.972181 8.12551 1.07082 8.37194C1.16947 8.61836 1.36196 8.81551 1.60596 8.92C1.84996 9.0245 2.12548 9.02778 2.3719 8.92914C2.61832 8.83049 2.81547 8.638 2.91996 8.394L5.49996 2.372Z" fill="#678099"/>
</svg>
