<svg width="16" height="16" viewBox="4 4 16 16" fill="none" xmlns="http://www.w3.org/2000/svg">
  <path d="M14.2603 13L13.5492 10.9599H10.4L9.70159 13H8L10.9714 5H13.054L16 13H14.2603ZM12 6.37536H11.9365L10.8063 9.66476H13.1429L12 6.37536Z" fill="#678099"/>
  <path fill="#678099" d="M5 15 H19 A1 1 0 0 1 20 16 V16 A1 1 0 0 1 19 17 H5 A1 1 0 0 1 4 16 V16 A1 1 0 0 1 5 15 z"/>
  <path fill="#678099" d="M5 13 H5 A1 1 0 0 1 6 14 V18 A1 1 0 0 1 5 19 H5 A1 1 0 0 1 4 18 V14 A1 1 0 0 1 5 13 z"/>
  <path fill="#678099" d="M19 13 H19 A1 1 0 0 1 20 14 V18 A1 1 0 0 1 19 19 H19 A1 1 0 0 1 18 18 V14 A1 1 0 0 1 19 13 z"/>
</svg>
