<svg width="16" height="16" viewBox="0 0 16 16" fill="none" xmlns="http://www.w3.org/2000/svg">
    <path d="M7.548 9.54997L8.182 7.74497C7.52619 7.54479 6.89671 7.26682 6.307 6.91697C6.74654 6.42938 7.11946 5.88564 7.416 5.29997C7.72721 4.68888 7.95716 4.0397 8.1 3.36897C8.689 3.36897 9.079 3.38897 9.519 3.42897V1.61997C9.03748 1.672 8.55329 1.69538 8.069 1.68997H5.687V1.07997C5.68665 0.875148 5.70675 0.670801 5.747 0.469971H3.738C3.77922 0.674032 3.79932 0.881793 3.798 1.08997V1.68997H1.589C1.10504 1.69512 0.621206 1.67174 0.14 1.61997V3.42897C0.64 3.38897 0.979 3.36897 1.569 3.36897C1.73855 3.96122 1.96982 4.53403 2.259 5.07797C2.60815 5.74058 3.0414 6.35533 3.548 6.90697C2.45071 7.54685 1.24995 7.98986 0 8.21597C0.420415 8.74518 0.744977 9.34387 0.959 9.98497C2.3811 9.60502 3.72712 8.98293 4.938 8.14597C5.74428 8.72382 6.62146 9.19568 7.548 9.54997ZM3.488 3.36897H6.137C5.92419 4.26501 5.495 5.09523 4.887 5.78697C4.22732 5.10949 3.74655 4.27854 3.488 3.36897Z" fill="#678099"/>
    <path d="M13.717 16L12.992 13.621H9.349L8.624 16H6.341L9.868 5.96497H12.459L16 16H13.717ZM12.486 11.844C11.8193 9.68797 11.4423 8.46897 11.355 8.18697C11.271 7.90397 11.21 7.68097 11.174 7.51697C11.0233 8.09964 10.5927 9.54197 9.882 11.844H12.486Z" fill="#678099"/>
</svg>
