<svg xmlns="http://www.w3.org/2000/svg" width="16" height="16" viewBox="0 0 16 16">
  <g fill-rule="evenodd" transform="translate(0 1)">
    <circle cx="2" cy="2" r="1"/>
    <path fill-rule="nonzero" d="M2,1.5 C2.27635763,1.5 2.5,1.72364237 2.5,2 C2.5,2.27635763 2.27635763,2.5 2,2.5 C1.72364237,2.5 1.5,2.27635763 1.5,2 C1.5,1.72364237 1.72364237,1.5 2,1.5 L2,0.5 C1.17135763,0.5 0.5,1.17135763 0.5,2 C0.5,2.82864237 1.17135763,3.5 2,3.5 C2.82864237,3.5 3.5,2.82864237 3.5,2 C3.5,1.17135763 2.82864237,0.5 2,0.5 L2,1.5 Z"/>
    <circle cx="2" cy="12" r="1"/>
    <polygon points="6 1 15.5 1 15.5 3 6 3"/>
    <circle cx="2" cy="7" r="1"/>
    <g transform="translate(0 5)">
      <path fill-rule="nonzero" d="M2,1.5 C2.27635763,1.5 2.5,1.72364237 2.5,2 C2.5,2.27635763 2.27635763,2.5 2,2.5 C1.72364237,2.5 1.5,2.27635763 1.5,2 C1.5,1.72364237 1.72364237,1.5 2,1.5 L2,0.5 C1.17135763,0.5 0.5,1.17135763 0.5,2 C0.5,2.82864237 1.17135763,3.5 2,3.5 C2.82864237,3.5 3.5,2.82864237 3.5,2 C3.5,1.17135763 2.82864237,0.5 2,0.5 L2,1.5 Z"/>
      <polygon points="6 1 15.5 1 15.5 3 6 3"/>
    </g>
    <g transform="translate(0 10)">
      <path fill-rule="nonzero" d="M2,1.5 C2.27635763,1.5 2.5,1.72364237 2.5,2 C2.5,2.27635763 2.27635763,2.5 2,2.5 C1.72364237,2.5 1.5,2.27635763 1.5,2 C1.5,1.72364237 1.72364237,1.5 2,1.5 L2,0.5 C1.17135763,0.5 0.5,1.17135763 0.5,2 C0.5,2.82864237 1.17135763,3.5 2,3.5 C2.82864237,3.5 3.5,2.82864237 3.5,2 C3.5,1.17135763 2.82864237,0.5 2,0.5 L2,1.5 Z"/>
      <polygon points="6 1 15.5 1 15.5 3 6 3"/>
    </g>
  </g>
</svg>