<svg xmlns="http://www.w3.org/2000/svg" width="16" height="16" viewBox="0 0 16 16">
  <g transform="translate(3 2)">
    <path d="M4.50059826 10.9755378C1.89469821 10.6435371-.0440305643 8.40377699.000760495952 5.77699886L.000760495952.499999902C.000760495952.223857581.224601097 0 .500722471 0L1.50064642 0C1.7767678 0 2.0006084.223857581 2.0006084.499999902L2.0006084 5.88159884C1.9741072 7.34229659 2.97741907 8.62061823 4.40249572 8.94184824 5.28494652 9.11953061 6.20056715 8.89217661 6.89743289 8.32234062 7.59429863 7.75250463 7.99898716 6.90022504 8.0001521 5.99999882L8.0001521.499999902C8.0001521.223857581 8.2239927 0 8.50011407 0L9.50003802 0C9.7761594 0 10 .223857581 10 .499999902L10 5.99999882C9.99836949 7.41255861 9.4000498 8.75867866 8.35261873 9.70633341 7.30518766 10.6539882 5.90615531 11.1149561 4.50059826 10.9755378L4.50059826 10.9755378zM9.5 13L.5 13C.223857625 13 0 12.7761424 0 12.5L0 12.5C0 12.2238576.223857625 12 .5 12L9.5 12C9.77614237 12 10 12.2238576 10 12.5L10 12.5C10 12.7761424 9.77614237 13 9.5 13z"/>
  </g>
</svg>