<svg width="16" height="16" viewBox="0 0 16 16" fill="none" xmlns="http://www.w3.org/2000/svg">
<path fill-rule="evenodd" clip-rule="evenodd" d="M0 1C0 0.447716 0.447715 0 1 0H15C15.5523 0 16 0.447715 16 1V8H14V6H6V8H9C8.44771 8 8 8.44771 8 9V10H6V12H8V14H1C0.447715 14 0 13.5523 0 13V1ZM2 2H4V12H2V2ZM14 2H6V4H14V2ZM15.0123 10C15.2775 10 15.5318 10.1053 15.7193 10.2928C15.9068 10.4803 16.0121 10.7346 16.0121 10.9998C16.0121 11.265 15.9068 11.5193 15.7193 11.7068L14.4263 12.9998L15.7193 14.2928C15.9014 14.4814 16.0022 14.734 16 14.9962C15.9977 15.2584 15.8925 15.5092 15.7071 15.6946C15.5217 15.88 15.2709 15.9852 15.0087 15.9875C14.7465 15.9897 14.4939 15.8889 14.3053 15.7068L13.0123 14.4138L11.7193 15.7068C11.627 15.8023 11.5167 15.8785 11.3947 15.9309C11.2727 15.9833 11.1415 16.0109 11.0087 16.012C10.8759 16.0132 10.7442 15.9879 10.6213 15.9376C10.4984 15.8873 10.3868 15.8131 10.2929 15.7192C10.199 15.6253 10.1247 15.5136 10.0745 15.3907C10.0242 15.2678 9.99888 15.1362 10 15.0034C10.0012 14.8706 10.0288 14.7394 10.0812 14.6174C10.1336 14.4954 10.2098 14.385 10.3053 14.2928L11.5983 12.9998L10.3053 11.7068C10.1231 11.5182 10.0223 11.2656 10.0246 11.0034C10.0269 10.7412 10.1321 10.4904 10.3175 10.305C10.5029 10.1196 10.7537 10.0144 11.0159 10.0121C11.2781 10.0098 11.5307 10.1106 11.7193 10.2928L13.0123 11.5858L14.3053 10.2928C14.4928 10.1053 14.7471 10 15.0123 10Z" fill="#678099"/>
</svg>
