<svg width="16" height="16" viewBox="0 0 16 16" version="1.1" xmlns="http://www.w3.org/2000/svg" xmlns:xlink="http://www.w3.org/1999/xlink">
    <!-- Generator: Sketch 48.2 (47327) - http://www.bohemiancoding.com/sketch -->
    <desc>Created with Sketch.</desc>
    <defs></defs>
    <g id="Page-1" stroke="none" stroke-width="1" fill="none" fill-rule="evenodd">
        <g id="Artboard-2" transform="translate(-1032.000000, -553.000000)" fill="#FC5C54">
            <g id="Group-5-Copy" transform="translate(990.000000, 142.000000)">
                <g id="Status" transform="translate(20.000000, 371.000000)">
                    <g transform="translate(0.000000, 15.000000)" id="Due-date">
                        <g transform="translate(22.000000, 25.000000)">
                            <g id="Group-4">
                                <path d="M8,0 C3.6,0 0,3.6 0,8 C0,12.4 3.6,16 8,16 C12.4,16 16,12.4 16,8 C16,3.6 12.4,0 8,0 L8,0 Z M8,12 C7.4,12 7,11.6 7,11 C7,10.4 7.4,10 8,10 C8.6,10 9,10.4 9,11 C9,11.6 8.6,12 8,12 L8,12 Z M7,4 L9,4 L9,9 L7,9 L7,4 Z" id="Fill-186"></path>
                            </g>
                        </g>
                    </g>
                </g>
            </g>
        </g>
    </g>
</svg>
